<?xml version="1.0" encoding="UTF-8"?> <svg xmlns="http://www.w3.org/2000/svg" width="135" height="23" viewBox="0 0 135 23" fill="none"> <path d="M0 22.8094V0.190607H4.79632C5.67408 0.190607 6.44738 0.307069 7.11611 0.540055C7.7849 0.773042 8.39099 1.18602 8.93432 1.779C9.47772 2.37199 9.8539 3.07088 10.0629 3.87569C10.2719 4.65928 10.3764 5.72884 10.3764 7.08425C10.3764 8.10083 10.3137 8.95856 10.1883 9.65746C10.0838 10.3564 9.84343 11.0129 9.46725 11.6271C9.02837 12.3683 8.44322 12.9507 7.71173 13.3743C6.98031 13.7767 6.01891 13.9779 4.82767 13.9779H3.19755V22.8094H0ZM3.19755 3.24033V10.9282H4.73362C5.38153 10.9282 5.88311 10.8329 6.23835 10.6423C6.59365 10.4517 6.85491 10.1869 7.02206 9.84806C7.18927 9.53038 7.28332 9.13856 7.3042 8.67265C7.34602 8.20674 7.3669 7.68784 7.3669 7.11602C7.3669 6.58658 7.35649 6.08884 7.33555 5.62293C7.31467 5.1358 7.22063 4.71227 7.05341 4.35221C6.88626 3.99215 6.63547 3.71685 6.30105 3.52624C5.96668 3.33564 5.48599 3.24033 4.85902 3.24033H3.19755ZM15.9635 3.24033V10.2928H17.7817C18.346 10.2928 18.7953 10.2187 19.1297 10.0704C19.4641 9.90099 19.7254 9.66807 19.9134 9.37154C20.0806 9.07502 20.1956 8.71503 20.2583 8.29144C20.321 7.84668 20.3523 7.3384 20.3523 6.76657C20.3523 6.19475 20.321 5.69707 20.2583 5.27348C20.1956 4.82873 20.0702 4.44751 19.8821 4.12983C19.485 3.53685 18.7326 3.24033 17.625 3.24033H15.9635ZM12.766 22.8094V0.190607H17.9071C21.669 0.190607 23.5499 2.40375 23.5499 6.83011C23.5499 8.16436 23.3408 9.2974 22.9229 10.2293C22.5258 11.1612 21.8152 11.913 20.7912 12.4848L24.2395 22.8094H20.8539L17.8758 13.1519H15.9635V22.8094H12.766ZM25.9255 5.52762C25.9255 4.61696 26.0822 3.81215 26.3957 3.11326C26.7092 2.41436 27.1272 1.83193 27.6496 1.36602C28.1512 0.92127 28.7155 0.582433 29.3424 0.349447C29.9904 0.116461 30.6382 0 31.2861 0C31.934 0 32.5713 0.116461 33.1983 0.349447C33.8459 0.582433 34.4315 0.92127 34.9538 1.36602C35.4553 1.83193 35.8629 2.41436 36.1764 3.11326C36.4898 3.81215 36.6466 4.61696 36.6466 5.52762V17.4724C36.6466 18.4254 36.4898 19.2408 36.1764 19.9185C35.8629 20.5962 35.4553 21.1575 34.9538 21.6022C34.4315 22.0681 33.8459 22.4176 33.1983 22.6506C32.5713 22.8835 31.934 23 31.2861 23C30.6382 23 29.9904 22.8835 29.3424 22.6506C28.7155 22.4176 28.1512 22.0681 27.6496 21.6022C27.1272 21.1575 26.7092 20.5962 26.3957 19.9185C26.0822 19.2408 25.9255 18.4254 25.9255 17.4724V5.52762ZM29.123 17.4724C29.123 18.256 29.332 18.8384 29.75 19.2196C30.1889 19.5797 30.7009 19.7597 31.2861 19.7597C31.8713 19.7597 32.3728 19.5797 32.7908 19.2196C33.2297 18.8384 33.4491 18.256 33.4491 17.4724V5.52762C33.4491 4.74403 33.2297 4.17221 32.7908 3.81215C32.3728 3.43094 31.8713 3.24033 31.2861 3.24033C30.7009 3.24033 30.1889 3.43094 29.75 3.81215C29.332 4.17221 29.123 4.74403 29.123 5.52762V17.4724ZM39.4611 22.8094V0.190607H44.1947C46.0342 0.190607 47.4236 0.698894 48.364 1.71547C49.3258 2.73204 49.8061 4.17221 49.8061 6.03591V16.6146C49.8061 18.7325 49.2945 20.2997 48.27 21.3163C47.2668 22.3117 45.8148 22.8094 43.9125 22.8094H39.4611ZM42.6586 3.24033V19.7597H44.132C45.0311 19.7597 45.6681 19.5373 46.0442 19.0925C46.4204 18.6266 46.6085 17.9065 46.6085 16.9323V6.03591C46.6085 5.14641 46.4311 4.45812 46.0756 3.97099C45.7207 3.48386 45.0724 3.24033 44.132 3.24033H42.6586ZM63.1536 0.190607V17.7265C63.1536 18.4678 63.0182 19.1561 62.7461 19.7914C62.4953 20.4056 62.1298 20.9562 61.6489 21.4434C61.1686 21.9305 60.6144 22.3117 59.9874 22.587C59.3605 22.8623 58.6921 23 57.9811 23C57.2708 23 56.6018 22.8623 55.9748 22.587C55.3692 22.3117 54.8256 21.9305 54.3447 21.4434C53.8644 20.9562 53.4883 20.4056 53.2161 19.7914C52.9447 19.1561 52.8086 18.4678 52.8086 17.7265V0.190607H56.0062V17.4088C56.0062 18.2136 56.1943 18.8066 56.5704 19.1878C56.9466 19.5691 57.4168 19.7597 57.9811 19.7597C58.5454 19.7597 59.0156 19.5691 59.3918 19.1878C59.768 18.8066 59.9561 18.2136 59.9561 17.4088V0.190607H63.1536ZM76.3131 16.3605V17.7583C76.3131 18.4572 76.1777 19.1243 75.9056 19.7597C75.6548 20.3739 75.2999 20.9245 74.8397 21.4116C74.3801 21.8987 73.8366 22.2905 73.2096 22.587C72.6039 22.8623 71.9456 23 71.2346 23C70.629 23 70.012 22.9153 69.3851 22.7459C68.7581 22.5764 68.1938 22.2799 67.6923 21.8564C67.1907 21.4328 66.7731 20.8927 66.4383 20.2362C66.1248 19.5584 65.9681 18.7007 65.9681 17.663V5.20994C65.9681 4.46867 66.0935 3.78039 66.3443 3.14503C66.5951 2.50967 66.9505 1.959 67.4101 1.49309C67.8703 1.02719 68.4133 0.667127 69.0402 0.412983C69.6885 0.137682 70.3989 0 71.1719 0C72.6767 0 73.8993 0.497677 74.8397 1.49309C75.2999 1.98022 75.6548 2.56259 75.9056 3.24033C76.1777 3.89685 76.3131 4.61696 76.3131 5.40055V6.67127H73.1155V5.59116C73.1155 4.9558 72.9381 4.40513 72.5826 3.93923C72.2278 3.47332 71.7469 3.24033 71.1406 3.24033C70.3468 3.24033 69.8139 3.49448 69.5418 4.00276C69.291 4.48989 69.1656 5.11464 69.1656 5.87707V17.4406C69.1656 18.0971 69.3017 18.6478 69.5732 19.0925C69.866 19.5373 70.3782 19.7597 71.1092 19.7597C71.3186 19.7597 71.5381 19.7279 71.7676 19.6644C72.0183 19.5797 72.2484 19.4526 72.4572 19.2831C72.6453 19.1137 72.8021 18.8808 72.9275 18.5843C73.0528 18.2877 73.1155 17.9171 73.1155 17.4724V16.3605H76.3131ZM81.0229 22.8094V3.24033H77.3238V0.190607H87.9196V3.24033H84.2204V22.8094H81.0229ZM99.6759 6.70304H96.4783V5.97237C96.4783 5.2311 96.3009 4.59574 95.9454 4.0663C95.6112 3.51563 95.0363 3.24033 94.2212 3.24033C93.7824 3.24033 93.4275 3.32502 93.1554 3.49447C92.8839 3.66392 92.6645 3.87569 92.4971 4.12983C92.3303 4.40513 92.2149 4.72281 92.1522 5.08287C92.0895 5.42171 92.0582 5.78177 92.0582 6.16298C92.0582 6.60773 92.0688 6.97834 92.0895 7.27486C92.1315 7.57138 92.2149 7.83607 92.3403 8.06906C92.4657 8.30205 92.6438 8.5032 92.8733 8.67265C93.124 8.8421 93.4588 9.01149 93.8764 9.18094L96.3216 10.1657C97.0326 10.441 97.6069 10.7693 98.0458 11.1506C98.4846 11.5106 98.8295 11.9341 99.0802 12.4213C99.3103 12.9296 99.4671 13.512 99.5505 14.1685C99.6345 14.8039 99.6759 15.5345 99.6759 16.3605C99.6759 17.3135 99.5818 18.203 99.3937 19.029C99.2056 19.8338 98.9028 20.5221 98.4846 21.0939C98.0458 21.6869 97.4714 22.1529 96.7605 22.4917C96.0501 22.8305 95.183 23 94.1585 23C93.3855 23 92.6645 22.8623 91.9955 22.587C91.3271 22.3117 90.7522 21.9305 90.2713 21.4434C89.7911 20.9562 89.4042 20.395 89.1114 19.7597C88.84 19.1031 88.7039 18.3936 88.7039 17.6312V16.424H91.9014V17.4406C91.9014 18.0336 92.0688 18.5736 92.403 19.0608C92.7585 19.5267 93.3435 19.7597 94.1585 19.7597C94.7021 19.7597 95.1203 19.6855 95.4125 19.5373C95.726 19.3678 95.9667 19.1349 96.1335 18.8384C96.3009 18.5419 96.3949 18.1924 96.4156 17.7901C96.4576 17.3665 96.4783 16.9006 96.4783 16.3923C96.4783 15.7993 96.4576 15.3122 96.4156 14.9309C96.3742 14.5497 96.2902 14.2427 96.1648 14.0097C96.0188 13.7767 95.82 13.5861 95.5692 13.4378C95.3398 13.2896 95.0263 13.1308 94.6288 12.9613L92.3403 12.0083C90.961 11.4365 90.0312 10.6846 89.5503 9.75276C89.0907 8.79972 88.8606 7.6137 88.8606 6.19475C88.8606 5.34763 88.976 4.54282 89.2055 3.78039C89.4356 3.01795 89.7804 2.36144 90.24 1.81077C90.6789 1.26011 91.2331 0.825966 91.9014 0.508287C92.5911 0.16945 93.4062 0 94.3466 0C95.141 0 95.862 0.148229 96.5097 0.444751C97.1787 0.741273 97.7536 1.13304 98.2338 1.62017C99.1956 2.63674 99.6759 3.80154 99.6759 5.11464V6.70304ZM104.167 22.8094V3.24033H100.468V0.190607H111.064V3.24033H107.364V22.8094H104.167ZM117.218 14.8992L115.651 6.70304H115.588L114.021 14.8992H117.218ZM109.319 22.8094L114.303 0.190607H116.968L121.952 22.8094H118.755L117.814 17.9489H113.457L112.516 22.8094H109.319ZM126.724 3.24033V10.2928H128.542C129.106 10.2928 129.556 10.2187 129.89 10.0704C130.225 9.90099 130.486 9.66807 130.674 9.37154C130.841 9.07502 130.956 8.71503 131.019 8.29144C131.081 7.84668 131.113 7.3384 131.113 6.76657C131.113 6.19475 131.081 5.69707 131.019 5.27348C130.956 4.82873 130.831 4.44751 130.643 4.12983C130.246 3.53685 129.493 3.24033 128.385 3.24033H126.724ZM123.526 22.8094V0.190607H128.668C132.429 0.190607 134.31 2.40375 134.31 6.83011C134.31 8.16436 134.102 9.2974 133.683 10.2293C133.286 11.1612 132.576 11.913 131.552 12.4848L135 22.8094H131.614L128.636 13.1519H126.724V22.8094H123.526Z" fill="black"></path> </svg> 