<svg width="137" height="48" viewBox="0 0 137 48" fill="none" xmlns="http://www.w3.org/2000/svg">
<g clip-path="url(#clip0)">
<path d="M66.4549 10.5215V12.4807H59.0349V0.32653H66.3101V2.28571H61.098V5.33333H65.5138V7.25624H61.0618V10.5215H66.4549Z" fill="#29EDFD"/>
<path d="M77.4222 11.9002C77.0602 12.1542 76.6259 12.3356 76.1191 12.4807C75.6124 12.6259 75.0695 12.6984 74.4903 12.6984C73.4045 12.6984 72.572 12.3356 72.0291 11.6463C71.4861 10.9569 71.2328 10.0136 71.2328 8.81633V2.28571H67.9028V0.32653H73.2959V8.56236C73.2959 9.2517 73.4407 9.75964 73.694 10.1587C73.9474 10.5215 74.3094 10.7392 74.7799 10.7392C75.54 10.7392 76.3001 10.4853 77.0602 10.0136L77.4222 11.9002Z" fill="#29EDFD"/>
<path d="M85.5662 4.09977C86.1091 4.4263 86.5796 4.93424 86.9416 5.62358C87.3035 6.31293 87.4845 7.14739 87.4845 8.12698C87.4845 9.10658 87.3035 9.97732 86.9416 10.6304C86.5796 11.3197 86.1091 11.8277 85.53 12.1542C84.987 12.4807 84.4079 12.6621 83.8288 12.6621C82.4895 12.6621 81.5485 12.0454 81.0055 10.7755C80.9693 11.7188 80.9331 12.263 80.9331 12.4807H78.87C79.3405 10.8844 79.5939 9.21542 79.5939 7.47392V0.32653H81.657L81.5485 4.71655C82.0914 3.99093 82.8877 3.62812 83.9374 3.62812C84.4803 3.62812 85.0232 3.77324 85.5662 4.09977ZM84.9508 10.0499C85.2766 9.61451 85.4576 8.96145 85.4576 8.12698C85.4576 7.29252 85.2766 6.63946 84.9146 6.20408C84.5527 5.76871 84.0821 5.55102 83.503 5.55102C82.9239 5.55102 82.4895 5.80499 82.1638 6.27664C81.838 6.7483 81.6932 7.36508 81.6932 8.12698C81.6932 8.88889 81.838 9.50567 82.1638 9.97732C82.4895 10.449 82.9601 10.7029 83.5754 10.7029C84.1545 10.7029 84.6251 10.4853 84.9508 10.0499Z" fill="#29EDFD"/>
<path d="M96.7868 7.76417H94.7236C94.7236 6.31293 94.3616 5.5873 93.6739 5.5873C93.0224 5.5873 92.5519 5.9864 92.2261 6.82086C91.9004 7.65533 91.7194 8.74377 91.7194 10.0862V12.517H89.6562V8.63492C89.6562 7.9093 89.5838 7.07483 89.4391 6.13152C89.2943 5.22449 89.1495 4.42631 88.9323 3.77324H90.7783C90.8507 4.2449 90.9231 5.04309 90.9955 6.1678C91.2488 5.36962 91.6108 4.71656 92.1175 4.28118C92.6243 3.84581 93.2396 3.59184 93.9635 3.59184C95.3027 3.59184 96.1352 4.2449 96.5334 5.51474C96.7144 6.05896 96.7868 6.78458 96.7868 7.76417Z" fill="#29EDFD"/>
<path d="M104.46 12.4807L104.388 10.195C104.134 10.9569 103.773 11.5737 103.302 12.0091C102.831 12.4444 102.288 12.6621 101.637 12.6621C100.37 12.6621 99.5014 12.1179 99.1033 10.9932C98.8137 10.195 98.7051 9.21542 98.7051 8.05442V3.77324H100.768V7.69161C100.768 8.78005 100.841 9.54195 100.985 9.94104C101.094 10.195 101.203 10.3764 101.347 10.5215C101.492 10.6304 101.673 10.7029 101.927 10.7029C102.578 10.7029 103.049 10.3039 103.374 9.54195C103.664 8.78005 103.845 7.76417 103.845 6.53061V3.77324H105.908V7.43764C105.908 9.17914 106.161 10.8481 106.632 12.4444H104.46V12.4807Z" fill="#29EDFD"/>
<path d="M115.174 8.4898C115.464 8.88889 115.645 9.39683 115.645 9.97733C115.645 10.7755 115.319 11.4286 114.667 11.9002C114.016 12.3719 113.219 12.6259 112.206 12.6259C111.374 12.6259 110.577 12.4807 109.781 12.1905C108.985 11.9002 108.405 11.5011 107.971 10.9569L109.274 9.61451C109.962 10.3039 110.939 10.6667 112.206 10.6667C112.713 10.6667 113.039 10.5941 113.256 10.449C113.473 10.3039 113.581 10.1225 113.581 9.94105C113.581 9.79592 113.509 9.68708 113.4 9.57823C113.292 9.46939 113.111 9.39683 112.858 9.32427L110.251 8.4898C108.876 8.05442 108.188 7.29252 108.188 6.1678C108.188 5.29705 108.514 4.64399 109.202 4.20862C109.853 3.77324 110.722 3.59184 111.808 3.59184C112.532 3.59184 113.183 3.70068 113.799 3.91837C114.414 4.13606 114.921 4.42631 115.283 4.8254L114.016 6.27665C113.726 6.02268 113.364 5.84127 112.966 5.73243C112.568 5.62359 112.17 5.55102 111.808 5.55102C110.794 5.55102 110.251 5.73243 110.251 6.13152C110.251 6.27665 110.324 6.38549 110.432 6.45805C110.541 6.5669 110.722 6.63946 110.975 6.7483L113.581 7.58277C114.378 7.80046 114.884 8.09071 115.174 8.4898Z" fill="#29EDFD"/>
<path d="M66.6721 26.5941C66.1292 27.3197 65.5863 27.8639 65.0071 28.1905C64.428 28.517 63.7403 28.6984 62.944 28.6984C62.2201 28.6984 61.5324 28.517 60.8808 28.1905C60.2293 27.8639 59.6864 27.356 59.2882 26.6667C58.8901 25.9773 58.6729 25.1429 58.6729 24.1633C58.6729 23.1474 58.8539 22.3129 59.252 21.6236C59.6502 20.9342 60.1569 20.4626 60.7722 20.136C61.3876 19.8095 62.0391 19.6644 62.763 19.6644C63.5231 19.6644 64.2108 19.8095 64.7538 20.0998C65.2967 20.39 65.8396 20.8617 66.4187 21.5147L64.8985 22.712C64.5728 22.3492 64.2832 22.059 63.9937 21.8775C63.7041 21.6961 63.3421 21.6236 62.9078 21.6236C62.2563 21.6236 61.7495 21.8413 61.3514 22.2766C60.9532 22.712 60.7722 23.3651 60.7722 24.1995C60.7722 25.034 60.9894 25.6508 61.4238 26.0862C61.8581 26.5215 62.4372 26.7392 63.0888 26.7392C63.4869 26.7392 63.8489 26.6304 64.1746 26.449C64.5004 26.2676 64.8261 25.941 65.1519 25.4694L66.6721 26.5941Z" fill="#29EDFD"/>
<path d="M74.1646 20.1361C74.7799 20.4626 75.2867 20.9705 75.6486 21.6599C76.0468 22.3492 76.2277 23.1837 76.2277 24.1633C76.2277 25.1429 76.0468 26.0136 75.6486 26.6667C75.2505 27.356 74.7799 27.8639 74.1646 28.1905C73.5493 28.517 72.8977 28.6621 72.21 28.6621C71.5223 28.6621 70.8708 28.517 70.2555 28.1905C69.6401 27.8639 69.1334 27.356 68.7715 26.6667C68.3733 25.9773 68.1923 25.1429 68.1923 24.1633C68.1923 23.1837 68.3733 22.3129 68.7715 21.6599C69.1696 20.9705 69.6401 20.4626 70.2555 20.1361C70.8708 19.8095 71.5223 19.6644 72.21 19.6644C72.8977 19.6281 73.5493 19.8095 74.1646 20.1361ZM73.6579 26.0862C74.0198 25.6508 74.1646 24.9977 74.1646 24.1633C74.1646 23.3288 73.9836 22.6757 73.6217 22.2404C73.2597 21.805 72.7892 21.5873 72.1738 21.5873C71.5223 21.5873 71.0518 21.805 70.6898 22.2404C70.3279 22.6757 70.1831 23.3288 70.1831 24.1633C70.1831 24.9977 70.3641 25.6508 70.726 26.0862C71.088 26.5215 71.5585 26.7392 72.1738 26.7392C72.8254 26.7392 73.3321 26.5215 73.6579 26.0862Z" fill="#29EDFD"/>
<path d="M84.5165 28.517C84.5165 28.2993 84.4803 27.7188 84.4441 26.8118C83.9012 28.0816 82.9601 28.6984 81.6208 28.6984C80.9693 28.6984 80.3902 28.5533 79.8111 28.263C79.2681 27.9728 78.8338 27.4649 78.4718 26.8118C78.1461 26.1224 77.9651 25.2517 77.9651 24.1995C77.9651 23.2925 78.1461 22.4943 78.508 21.805C78.87 21.1156 79.3405 20.6077 79.8835 20.2449C80.4264 19.8821 81.0055 19.7007 81.5484 19.7007C82.5619 19.7007 83.3582 20.0635 83.9373 20.8254L83.8288 16.3265H85.8919V23.4739C85.8919 25.2154 86.1453 26.8844 86.6158 28.4807H84.5165V28.517ZM83.322 26.0136C83.6478 25.5419 83.7926 24.9252 83.7926 24.1633C83.7926 23.4376 83.6478 22.8209 83.322 22.3129C82.9963 21.8413 82.5619 21.5873 81.9828 21.5873C81.4037 21.5873 80.9693 21.805 80.5712 22.2404C80.2092 22.6757 80.0282 23.3288 80.0282 24.1633C80.0282 24.9977 80.2092 25.6508 80.535 26.0862C80.8607 26.5215 81.3313 26.7392 81.8742 26.7392C82.5257 26.7392 82.9963 26.4853 83.322 26.0136Z" fill="#29EDFD"/>
<path d="M96.1352 26.5578V28.517H88.3894V26.5578H91.5022V21.7687H88.7152V19.8095H93.5292V26.5578H96.1352ZM91.466 15.9637C91.7194 15.6735 92.0813 15.5283 92.4795 15.5283C92.8776 15.5283 93.2034 15.6735 93.493 15.9637C93.7463 16.254 93.8911 16.6531 93.8911 17.0884C93.8911 17.5238 93.7463 17.9229 93.493 18.1769C93.2396 18.4671 92.8776 18.6122 92.4795 18.6122C92.0813 18.6122 91.7556 18.4671 91.466 18.1769C91.1765 17.8866 91.0679 17.4875 91.0679 17.0521C91.0679 16.6168 91.2126 16.254 91.466 15.9637Z" fill="#29EDFD"/>
<path d="M105.293 24.2721V28.517H103.23V24.5986C103.23 23.5102 103.157 22.7483 103.012 22.3492C102.904 22.0952 102.795 21.9138 102.65 21.7687C102.506 21.6599 102.325 21.5873 102.071 21.5873C101.42 21.5873 100.949 21.9501 100.624 22.6395C100.334 23.3651 100.153 24.3084 100.153 25.5419V28.4807H98.0898V24.6712C98.0898 23.0385 97.8364 21.4059 97.3659 19.8095H99.4291C99.4291 20.1723 99.4652 20.898 99.5014 22.0227C99.7548 21.2608 100.117 20.6803 100.587 20.2449C101.058 19.8458 101.601 19.6281 102.252 19.6281C103.519 19.6281 104.388 20.1723 104.786 21.297C105.148 22.0952 105.293 23.0748 105.293 24.2721Z" fill="#29EDFD"/>
<path d="M115.536 19.8095C115.065 21.4059 114.812 23.0385 114.812 24.6712V27.5737C114.812 29.1701 114.486 30.3311 113.799 31.0567C113.147 31.7823 112.206 32.1451 111.012 32.1451C110.432 32.1451 109.817 32.0726 109.166 31.8912C108.514 31.7097 108.007 31.4195 107.609 31.0567L108.007 29.1701C108.369 29.4603 108.804 29.678 109.31 29.8594C109.817 30.0408 110.324 30.1134 110.831 30.1134C111.482 30.1134 111.989 29.932 112.278 29.5329C112.568 29.1338 112.749 28.5533 112.749 27.7188V27.2834C112.206 27.9728 111.482 28.3356 110.577 28.3356C109.998 28.3356 109.419 28.1905 108.876 27.8639C108.333 27.5737 107.863 27.0658 107.501 26.4127C107.139 25.7596 106.958 24.9614 106.958 23.9819C106.958 23.0385 107.139 22.2404 107.537 21.5873C107.899 20.9342 108.369 20.4263 108.948 20.136C109.491 19.8095 110.034 19.6644 110.577 19.6644C111.265 19.6644 111.88 19.8458 112.351 20.2449C112.821 20.644 113.183 21.1882 113.437 21.9138C113.437 21.6599 113.437 21.297 113.473 20.8254V19.8095H115.536ZM112.278 25.7234C112.604 25.288 112.749 24.7075 112.749 24.0181C112.749 23.3288 112.604 22.7483 112.278 22.3129C111.953 21.8775 111.518 21.6236 110.939 21.6236C110.36 21.6236 109.926 21.8413 109.528 22.2404C109.166 22.6395 108.985 23.2562 108.985 24.0181C108.985 24.8163 109.166 25.4331 109.491 25.8322C109.817 26.2313 110.288 26.449 110.831 26.449C111.482 26.3764 111.989 26.1587 112.278 25.7234Z" fill="#29EDFD"/>
<path d="M64.8623 36.1723C65.4052 36.4989 65.8758 37.0068 66.2377 37.6961C66.5997 38.3855 66.7807 39.22 66.7807 40.1995C66.7807 41.1791 66.5997 42.0499 66.2377 42.7029C65.8758 43.3923 65.4052 43.9002 64.8261 44.2268C64.2832 44.5533 63.704 44.7347 63.1249 44.7347C61.7857 44.7347 60.8446 44.1179 60.3017 42.8481C60.2655 43.7914 60.2293 44.3356 60.2293 44.5533H58.1661C58.6367 42.9569 58.89 41.288 58.89 39.5465V32.3628H60.9532L60.8084 36.7528C61.3513 36.0272 62.1476 35.6644 63.1973 35.6644C63.7402 35.6644 64.3194 35.8458 64.8623 36.1723ZM64.247 42.1224C64.5727 41.6871 64.7537 41.034 64.7537 40.1995C64.7537 39.3651 64.5727 38.712 64.2108 38.2766C63.8488 37.8413 63.3783 37.6236 62.7992 37.6236C62.22 37.6236 61.7857 37.8775 61.4599 38.3492C61.1342 38.8209 60.9894 39.4376 60.9894 40.1995C60.9894 40.9615 61.1342 41.5782 61.4599 42.0499C61.7857 42.5215 62.2562 42.7755 62.8716 42.7755C63.4507 42.7755 63.885 42.5578 64.247 42.1224Z" fill="#29EDFD"/>
<path d="M74.5627 36.1723C75.178 36.4989 75.6848 37.0068 76.0467 37.6961C76.4449 38.3855 76.6258 39.22 76.6258 40.1995C76.6258 41.1791 76.4449 42.0499 76.0467 42.7029C75.6486 43.3923 75.178 43.9002 74.5627 44.2268C73.9474 44.5533 73.2959 44.6984 72.6081 44.6984C71.9204 44.6984 71.2689 44.5533 70.6536 44.2268C70.0383 43.9002 69.5315 43.3923 69.1696 42.7029C68.7714 42.0136 68.5905 41.1791 68.5905 40.1995C68.5905 39.22 68.7714 38.3492 69.1696 37.6961C69.5677 37.0068 70.0383 36.4989 70.6536 36.1723C71.2689 35.8458 71.9204 35.7007 72.6081 35.7007C73.2959 35.6644 73.9474 35.8458 74.5627 36.1723ZM74.056 42.1224C74.4179 41.6871 74.5627 41.034 74.5627 40.1995C74.5627 39.3651 74.3817 38.712 74.0198 38.2766C73.6578 37.8413 73.1873 37.6236 72.572 37.6236C71.9204 37.6236 71.4499 37.8413 71.0879 38.2766C70.726 38.712 70.5812 39.3651 70.5812 40.1995C70.5812 41.034 70.7622 41.6871 71.1241 42.1224C71.4861 42.5578 71.9566 42.7755 72.572 42.7755C73.2235 42.7755 73.7302 42.5578 74.056 42.1224Z" fill="#29EDFD"/>
<path d="M84.4079 36.1723C85.0232 36.4989 85.5299 37.0068 85.8919 37.6961C86.2901 38.3855 86.471 39.22 86.471 40.1995C86.471 41.1791 86.2901 42.0499 85.8919 42.7029C85.4938 43.3923 85.0232 43.9002 84.4079 44.2268C83.7926 44.5533 83.141 44.6984 82.4533 44.6984C81.7656 44.6984 81.1141 44.5533 80.4988 44.2268C79.8834 43.9002 79.3767 43.3923 79.0147 42.7029C78.6166 42.0136 78.4356 41.1791 78.4356 40.1995C78.4356 39.22 78.6166 38.3492 79.0147 37.6961C79.4129 37.0068 79.8834 36.4989 80.4988 36.1723C81.1141 35.8458 81.7656 35.7007 82.4533 35.7007C83.141 35.6644 83.7926 35.8458 84.4079 36.1723ZM83.9011 42.1224C84.2631 41.6871 84.4079 41.034 84.4079 40.1995C84.4079 39.3651 84.2269 38.712 83.8649 38.2766C83.503 37.8413 83.0324 37.6236 82.4171 37.6236C81.7656 37.6236 81.2951 37.8413 80.9331 38.2766C80.5712 38.712 80.4264 39.3651 80.4264 40.1995C80.4264 41.034 80.6073 41.6871 80.9693 42.1224C81.3313 42.5578 81.8018 42.7755 82.4171 42.7755C83.0686 42.7755 83.5392 42.5578 83.9011 42.1224Z" fill="#29EDFD"/>
<path d="M96.5695 43.9365C96.1714 44.1905 95.7009 44.3719 95.1579 44.517C94.615 44.6621 94.0359 44.6984 93.4567 44.6984C92.2985 44.6984 91.4298 44.3719 90.8145 43.6825C90.1991 42.9932 89.9096 42.1225 89.9096 40.9977V37.7687H87.7379V35.8095H89.9096C90.2715 35.229 90.4525 34.3946 90.5249 33.3424H91.9365V35.8095H96.28V37.7687H91.9365V40.8163C91.9365 42.0862 92.5157 42.7392 93.6739 42.7392C94.0721 42.7392 94.5064 42.6667 94.9407 42.5578C95.3751 42.449 95.8094 42.2676 96.2076 42.0136L96.5695 43.9365Z" fill="#29EDFD"/>
<path d="M106.053 42.6304C105.51 43.356 104.967 43.9002 104.388 44.2268C103.809 44.5533 103.121 44.7347 102.325 44.7347C101.601 44.7347 100.913 44.5533 100.262 44.2268C99.61 43.9002 99.0671 43.3923 98.6689 42.703C98.2708 42.0136 98.0536 41.1791 98.0536 40.1996C98.0536 39.1837 98.2346 38.3492 98.6327 37.6599C99.0309 36.9705 99.5376 36.4989 100.153 36.1723C100.768 35.8458 101.42 35.7007 102.144 35.7007C102.904 35.7007 103.592 35.8458 104.134 36.1361C104.677 36.4263 105.22 36.898 105.799 37.551L104.279 38.7483C103.953 38.3855 103.664 38.0952 103.374 37.9138C103.085 37.7324 102.723 37.6599 102.288 37.6599C101.637 37.6599 101.13 37.8776 100.732 38.3129C100.334 38.7483 100.153 39.4014 100.153 40.2358C100.153 41.0703 100.37 41.6871 100.804 42.1225C101.239 42.5578 101.818 42.7755 102.469 42.7755C102.868 42.7755 103.23 42.6667 103.555 42.4853C103.881 42.3039 104.207 41.9773 104.533 41.5057L106.053 42.6304Z" fill="#29EDFD"/>
<path d="M114.016 44.5533C113.98 44.1542 113.943 43.4286 113.943 42.4127C113.618 43.1383 113.183 43.7188 112.64 44.1179C112.097 44.517 111.446 44.7347 110.577 44.7347C109.962 44.7347 109.419 44.6259 108.985 44.4082C108.55 44.1905 108.188 43.9365 107.971 43.5737C107.754 43.2472 107.645 42.8481 107.645 42.449C107.645 41.7596 107.826 41.1791 108.225 40.6712C108.623 40.1995 109.129 39.8367 109.781 39.5828C110.432 39.3288 111.12 39.22 111.88 39.22C112.351 39.22 112.821 39.2562 113.328 39.3651C113.328 38.7846 113.183 38.3492 112.858 38.059C112.532 37.7687 112.134 37.6236 111.627 37.6236C110.758 37.6236 109.926 37.8776 109.202 38.3492L107.971 36.8617C108.623 36.4263 109.238 36.0998 109.853 35.9547C110.432 35.7732 111.084 35.7007 111.735 35.7007C112.894 35.7007 113.799 36.0272 114.414 36.6803C115.029 37.3333 115.355 38.4943 115.355 40.127V40.7075C115.355 41.6871 115.608 42.9569 116.079 44.5533H114.016ZM112.387 42.3764C112.858 42.1225 113.183 41.6871 113.328 41.1429C112.966 41.0703 112.568 41.034 112.097 41.034C111.374 41.034 110.794 41.1429 110.396 41.3605C109.962 41.5782 109.745 41.8685 109.745 42.195C109.745 42.3764 109.853 42.5215 110.07 42.6304C110.288 42.7392 110.541 42.7755 110.867 42.7755C111.374 42.7755 111.88 42.6304 112.387 42.3764Z" fill="#29EDFD"/>
<path d="M126.322 36.4263C126.648 36.9342 126.793 37.7687 126.793 38.8934V44.517H124.73V39.22C124.73 38.6032 124.693 38.1678 124.621 37.9501C124.549 37.7324 124.404 37.5873 124.223 37.5873C123.897 37.5873 123.68 37.8776 123.571 38.4581C123.463 39.0386 123.39 39.9456 123.39 41.2154V44.517H121.327V39.22C121.327 38.6032 121.291 38.1678 121.219 37.9501C121.146 37.7324 121.002 37.5873 120.821 37.5873C120.495 37.5873 120.278 37.8776 120.169 38.4581C120.06 39.0386 119.988 39.9456 119.988 41.2154V44.517H117.925V39.6191C117.925 39.0023 117.853 38.4218 117.744 37.805C117.635 37.2245 117.454 36.5351 117.201 35.8095H119.264C119.337 36.1361 119.373 36.7166 119.373 37.551C119.554 36.9342 119.807 36.4626 120.133 36.1361C120.459 35.8095 120.857 35.6281 121.363 35.6281C121.798 35.6281 122.16 35.7007 122.449 35.8821C122.739 36.0635 122.956 36.3537 123.101 36.7528C123.499 35.9909 124.042 35.6281 124.766 35.6281C125.49 35.6644 126.033 35.9184 126.322 36.4263Z" fill="#29EDFD"/>
<path d="M135.082 36.1723C135.625 36.4989 136.095 37.0068 136.457 37.6961C136.819 38.3855 137 39.22 137 40.1995C137 41.1791 136.819 42.0499 136.457 42.7029C136.095 43.3923 135.625 43.9002 135.045 44.2268C134.502 44.5533 133.923 44.7347 133.344 44.7347C132.439 44.7347 131.715 44.4444 131.172 43.8639V48.0363H129.109V40.7075C129.109 39.0748 128.856 37.4422 128.385 35.8458H130.449C130.449 36.2812 130.449 36.898 130.485 37.6236C130.738 37.0068 131.136 36.5351 131.607 36.1723C132.077 35.8458 132.657 35.6644 133.38 35.6644C133.96 35.6644 134.539 35.8458 135.082 36.1723ZM134.466 42.1224C134.792 41.6871 134.973 41.034 134.973 40.1995C134.973 39.3651 134.792 38.712 134.43 38.2766C134.068 37.8413 133.598 37.6236 133.018 37.6236C132.439 37.6236 132.005 37.8775 131.679 38.3492C131.353 38.8209 131.209 39.4376 131.209 40.1995C131.209 40.9614 131.353 41.5782 131.679 42.0499C132.005 42.5215 132.476 42.7755 133.091 42.7755C133.67 42.7755 134.141 42.5578 134.466 42.1224Z" fill="#29EDFD"/>
<path d="M44.9186 0H0V45.0249H44.9186V0Z" fill="#00EDFF"/>
<path d="M10.8225 8.19955H9.04891V9.46939H10.7501V9.90476H9.04891V11.61H10.7863V12.0454H8.57837V7.76417H10.7863V8.19955H10.8225Z" fill="#4520AB"/>
<path d="M17.5548 7.76417V11.61H18.7493V12.0454H17.0843V7.76417H17.5548Z" fill="#4520AB"/>
<path d="M25.9522 7.76417C26.2056 7.76417 26.6037 7.80045 26.9295 8.01814C27.0742 8.12698 27.3276 8.38095 27.3276 8.88889C27.3276 9.10658 27.2914 9.46939 26.8933 9.72336C27.4724 9.86848 27.7258 10.3764 27.7258 10.8118C27.7258 11.2472 27.5086 11.5737 27.2914 11.7551C26.9657 12.0091 26.5675 12.0454 26.2779 12.0454H25.2283V7.76417H25.9522ZM25.6626 9.65079H26.0246C26.2779 9.65079 26.8571 9.61451 26.8571 8.92517C26.8571 8.23583 26.1694 8.19955 26.0246 8.19955H25.6626V9.65079ZM25.6626 11.61H26.2056C26.4951 11.61 26.7485 11.5737 26.9657 11.4286C27.1466 11.3197 27.2552 11.102 27.2552 10.8481C27.2552 10.5215 27.0742 10.3039 26.8933 10.2313C26.7485 10.1587 26.4951 10.0862 26.1694 10.0862H25.6988V11.61H25.6626Z" fill="#4520AB"/>
<path d="M34.1685 7.76417C34.4581 7.76417 34.8925 7.80045 35.2182 8.01814C35.4716 8.19955 35.6888 8.52608 35.6888 8.96145C35.6888 9.61451 35.2544 10.0862 34.6029 10.1587L35.9783 12.0816H35.3992L34.0962 10.1587H33.9876V12.0454H33.517V7.76417H34.1685ZM33.9514 9.75964H34.2409C34.8201 9.75964 35.182 9.46939 35.182 8.96145C35.182 8.70748 35.1096 8.4898 34.8563 8.34467C34.6753 8.23583 34.4581 8.23583 34.2409 8.23583H33.9514V9.75964Z" fill="#4520AB"/>
<path d="M8.54214 18.8299C8.54214 19.1927 8.54214 19.5918 8.8679 19.8821C9.04888 20.0272 9.33844 20.1361 9.55561 20.1361C9.77279 20.1361 10.0985 20.0272 10.2433 19.8821C10.5691 19.5918 10.5691 19.1927 10.5691 18.8299V16.2177H11.0396V18.9751C11.0396 19.3379 11.0034 19.6644 10.7863 19.9909C10.5329 20.3537 10.0985 20.5714 9.51942 20.5714C8.97649 20.5714 8.54214 20.3537 8.25257 19.9909C8.0354 19.6644 7.99921 19.3379 7.99921 18.9751V16.2177H8.46975V18.8299H8.54214Z" fill="#4520AB"/>
<path d="M18.7492 17.0522C18.6769 16.9433 18.6045 16.7982 18.4959 16.7256C18.4235 16.6531 18.2425 16.5805 18.0253 16.5805C17.591 16.5805 17.3014 16.8345 17.3014 17.2336C17.3014 17.415 17.3376 17.4875 17.4462 17.5964C17.591 17.7415 17.7358 17.7778 17.8806 17.8503L18.2787 18.0317C18.5321 18.1406 18.7492 18.2494 18.9302 18.4308C19.1474 18.6485 19.256 18.9025 19.256 19.1927C19.256 19.9909 18.6769 20.4989 17.9168 20.4989C17.6272 20.4989 17.2652 20.4263 16.9757 20.1361C16.7585 19.9184 16.6499 19.6281 16.5775 19.3742L17.0481 19.229C17.0843 19.4467 17.1928 19.6644 17.3014 19.7732C17.4824 19.9546 17.6996 20.0272 17.9168 20.0272C18.4959 20.0272 18.7854 19.5918 18.7854 19.1927C18.7854 19.0113 18.7131 18.8299 18.5683 18.6848C18.4597 18.576 18.2787 18.5034 18.0615 18.3946L17.6634 18.2132C17.4824 18.1406 17.3014 18.0317 17.0843 17.8503C16.9033 17.6689 16.7947 17.4875 16.7947 17.161C16.7947 16.5079 17.3014 16.0726 17.9891 16.0726C18.2425 16.0726 18.4597 16.1088 18.6769 16.254C18.8578 16.3628 19.0026 16.5442 19.1112 16.7256L18.7492 17.0522Z" fill="#4520AB"/>
<path d="M27.6172 15.6735L27.9791 15.8549L24.7577 21.6236L24.3958 21.4422L27.6172 15.6735Z" fill="#4520AB"/>
<path d="M9.48325 24.6349C9.73662 24.6349 10.1348 24.6712 10.4605 24.8889C10.6053 24.9977 10.8587 25.2517 10.8587 25.7596C10.8587 25.9773 10.8225 26.3401 10.4243 26.5941C11.0035 26.7392 11.2568 27.2472 11.2568 27.6825C11.2568 28.0816 11.0397 28.4444 10.8225 28.6258C10.4967 28.8798 10.0986 28.9161 9.80901 28.9161H8.75934V24.6349H9.48325ZM9.19368 26.5215H9.55564C9.80901 26.5215 10.3881 26.4853 10.3881 25.7959C10.3881 25.1066 9.70042 25.0703 9.55564 25.0703H9.19368V26.5215ZM9.19368 28.4807H9.73662C10.0262 28.4807 10.2795 28.4444 10.4967 28.2993C10.6777 28.1905 10.7863 27.9728 10.7863 27.7188C10.7863 27.3923 10.6053 27.1746 10.4243 27.102C10.2795 27.0295 10.0262 26.9569 9.70042 26.9569H9.22988V28.4807H9.19368Z" fill="#4520AB"/>
<path d="M16.9757 28.3719C16.6862 27.9728 16.5414 27.3923 16.5414 26.8118C16.5414 26.195 16.6862 25.6508 16.9757 25.2517C17.3015 24.78 17.7358 24.5986 18.0616 24.5986C18.3874 24.5986 18.8217 24.78 19.1475 25.2517C19.437 25.6508 19.5818 26.2313 19.5818 26.8118C19.5818 27.4286 19.437 27.9728 19.1475 28.3719C18.8217 28.8435 18.3874 29.0249 18.0616 29.0249C17.7358 29.0249 17.3015 28.8435 16.9757 28.3719ZM17.3377 25.4694C17.1205 25.8322 17.0119 26.3401 17.0119 26.7755C17.0119 27.2109 17.0843 27.7188 17.3377 28.0816C17.5549 28.4444 17.8444 28.5533 18.0616 28.5533C18.2788 28.5533 18.5683 28.4444 18.7855 28.0816C19.0027 27.7188 19.1113 27.2109 19.1113 26.7755C19.1113 26.3401 19.0389 25.8322 18.7855 25.4694C18.5683 25.1066 18.2788 24.9977 18.0616 24.9977C17.8444 24.9977 17.5549 25.1066 17.3377 25.4694Z" fill="#4520AB"/>
<path d="M25.2283 28.3719C24.9387 27.9728 24.7939 27.3923 24.7939 26.8118C24.7939 26.195 24.9387 25.6508 25.2283 25.2517C25.5541 24.78 25.9884 24.5986 26.3142 24.5986C26.6399 24.5986 27.0743 24.78 27.4 25.2517C27.6896 25.6508 27.8344 26.2313 27.8344 26.8118C27.8344 27.4286 27.6896 27.9728 27.4 28.3719C27.0743 28.8435 26.6399 29.0249 26.3142 29.0249C25.9884 29.0249 25.5541 28.8435 25.2283 28.3719ZM25.5902 25.4694C25.3731 25.8322 25.2645 26.3401 25.2645 26.7755C25.2645 27.2109 25.3369 27.7188 25.5902 28.0816C25.8074 28.4444 26.097 28.5533 26.3142 28.5533C26.5313 28.5533 26.8209 28.4444 27.0381 28.0816C27.2552 27.7188 27.3638 27.2109 27.3638 26.7755C27.3638 26.3401 27.2914 25.8322 27.0381 25.4694C26.8209 25.1066 26.5313 24.9977 26.3142 24.9977C26.097 24.9977 25.8074 25.1066 25.5902 25.4694Z" fill="#4520AB"/>
<path d="M34.8925 25.1066V28.9524H34.4219V25.1066H33.3723V24.6712H35.9422V25.1066H34.8925Z" fill="#4520AB"/>
<path d="M11.3654 34.0317C11.2206 33.8866 11.0396 33.7415 10.8225 33.6326C10.6053 33.5238 10.3519 33.4512 10.0985 33.4512C9.12127 33.4512 8.39736 34.2494 8.39736 35.229C8.39736 36.39 9.33844 36.9705 10.1347 36.9705C10.4243 36.9705 10.7139 36.898 10.931 36.7891C11.1844 36.6803 11.3654 36.4989 11.4378 36.4263V37.0068C10.9672 37.3333 10.4605 37.4422 10.1347 37.4422C8.8679 37.4422 7.92682 36.4626 7.92682 35.229C7.92682 33.9592 8.8679 33.0159 10.1709 33.0159C10.4243 33.0159 10.931 33.0521 11.4378 33.4512V34.0317H11.3654Z" fill="#4520AB"/>
<path d="M18.9664 36.1723H17.1567L16.6499 37.3696H16.107L18.0616 32.8707L19.9799 37.3696H19.437L18.9664 36.1723ZM18.7855 35.7007L18.0616 33.9955L17.3376 35.7007H18.7855Z" fill="#4520AB"/>
<path d="M24.1424 37.3696L24.8663 32.8345L26.4951 36.4626L28.1601 32.8345L28.8116 37.3696H28.3411L27.9429 34.3946L26.4951 37.551L25.0473 34.3946L24.6129 37.3696H24.1424Z" fill="#4520AB"/>
<path d="M34.4582 33.0884C34.8925 33.0884 35.2545 33.1247 35.544 33.3787C35.8698 33.6327 35.9422 34.0317 35.9422 34.2857C35.9422 34.9025 35.5802 35.483 34.6029 35.483H34.1686V37.3333H33.6619V33.0884H34.4582ZM34.1686 35.0476H34.5668C35.1459 35.0476 35.4716 34.7574 35.4716 34.2857C35.4716 33.5964 34.8201 33.5238 34.5306 33.5238H34.1686V35.0476Z" fill="#4520AB"/>
</g>
<defs>
<clipPath id="clip0">
<rect width="137" height="48" fill="white"/>
</clipPath>
</defs>
</svg>
