<?xml version="1.0" encoding="UTF-8" standalone="no"?>
<!-- Created with Inkscape (http://www.inkscape.org/) -->

<svg
   width="48.055706mm"
   height="38.773663mm"
   viewBox="0 0 48.055706 38.773663"
   version="1.1"
   id="svg973"
   sodipodi:docname="logo-vertical-dark.svg"
   inkscape:version="1.1.1 (3bf5ae0d25, 2021-09-20)"
   xmlns:inkscape="http://www.inkscape.org/namespaces/inkscape"
   xmlns:sodipodi="http://sodipodi.sourceforge.net/DTD/sodipodi-0.dtd"
   xmlns="http://www.w3.org/2000/svg"
   xmlns:svg="http://www.w3.org/2000/svg">
  <sodipodi:namedview
     id="namedview975"
     pagecolor="#ffffff"
     bordercolor="#666666"
     borderopacity="1.0"
     inkscape:pageshadow="2"
     inkscape:pageopacity="0.0"
     inkscape:pagecheckerboard="0"
     inkscape:document-units="mm"
     showgrid="false"
     inkscape:zoom="1.1224747"
     inkscape:cx="208.91339"
     inkscape:cy="0.44544432"
     inkscape:window-width="1920"
     inkscape:window-height="1007"
     inkscape:window-x="0"
     inkscape:window-y="0"
     inkscape:window-maximized="1"
     inkscape:current-layer="layer1" />
  <defs
     id="defs970" />
  <g
     inkscape:label="Layer 1"
     inkscape:groupmode="layer"
     id="layer1"
     transform="translate(-21.416599,-16.841019)">
    <g
       id="g2420"
       transform="matrix(0.35277777,0,0,-0.35277777,-60.850965,262.41855)">
      <g
         id="g35"
         transform="translate(242.7187,601.2993)">
        <path
           d="M 0,0 -2.533,3.664 V 0 h -1.809 v 7.915 h 1.809 V 4.478 l 2.42,3.437 H 1.945 L -0.724,4.059 2.058,0 Z"
           style="fill:#1e1f1d;fill-opacity:1;fill-rule:nonzero;stroke:none"
           id="path37" />
      </g>
      <g
         id="g47"
         transform="translate(252.4204,605.2568)">
        <path
           d="m 0,0 c 0,1.413 -1.018,2.352 -2.306,2.352 -1.289,0 -2.307,-0.939 -2.307,-2.352 0,-1.414 1.018,-2.352 2.307,-2.352 C -1.018,-2.352 0,-1.414 0,0 m -6.422,0 c 0,2.329 1.843,4.116 4.116,4.116 2.272,0 4.115,-1.787 4.115,-4.116 0,-2.329 -1.843,-4.116 -4.115,-4.116 -2.273,0 -4.116,1.787 -4.116,4.116"
           style="fill:#1e1f1d;fill-opacity:1;fill-rule:nonzero;stroke:none"
           id="path49" />
      </g>
      <g
         id="g51"
         transform="translate(264.455,601.2993)">
        <path
           d="M 0,0 H -1.809 V 4.602 L -3.856,1.244 H -4.059 L -6.106,4.602 V 0 h -1.809 v 7.915 h 1.809 l 2.148,-3.517 2.149,3.517 H 0 Z"
           style="fill:#1e1f1d;fill-opacity:1;fill-rule:nonzero;stroke:none"
           id="path53" />
      </g>
      <g
         id="g55"
         transform="translate(273.1762,601.2993)">
        <path
           d="M 0,0 H -1.809 V 6.173 H -4.184 V 0 H -5.993 V 7.915 H 0 Z"
           style="fill:#1e1f1d;fill-opacity:1;fill-rule:nonzero;stroke:none"
           id="path57" />
      </g>
      <g
         id="g59"
         transform="translate(279.8564,604.0127)">
        <path
           d="m 0,0 c 0,0.577 -0.407,1.018 -0.961,1.018 h -1.187 v -2.036 h 1.187 C -0.407,-1.018 0,-0.576 0,0 m 1.809,0 c 0,-1.503 -1.21,-2.713 -2.77,-2.713 h -2.997 v 7.914 h 1.81 V 2.714 h 1.187 c 1.56,0 2.77,-1.21 2.77,-2.714"
           style="fill:#1e1f1d;fill-opacity:1;fill-rule:nonzero;stroke:none"
           id="path61" />
      </g>
      <g
         id="g63"
         transform="translate(292.9966,605.2568)">
        <path
           d="m 0,0 c 0,1.413 -1.018,2.352 -2.307,2.352 -1.289,0 -2.306,-0.894 -2.306,-2.352 0,-1.414 1.017,-2.352 2.306,-2.352 C -1.018,-2.352 0,-1.414 0,0 m 1.809,0 c 0,-2.307 -1.843,-4.116 -4.116,-4.116 -2.024,0 -3.663,1.413 -4.002,3.358 H -7.35 v -3.2 H -9.159 V 3.957 H -7.35 V 0.983 h 1.086 c 0.418,1.832 2.013,3.133 3.957,3.133 2.273,0 4.116,-1.787 4.116,-4.116"
           style="fill:#1e1f1d;fill-opacity:1;fill-rule:nonzero;stroke:none"
           id="path65" />
      </g>
      <g
         id="g67"
         transform="translate(302.3945,607.4727)">
        <path
           d="M 0,0 H -2.035 V -6.173 H -3.844 V 0 H -5.879 V 1.741 H 0 Z"
           style="fill:#1e1f1d;fill-opacity:1;fill-rule:nonzero;stroke:none"
           id="path69" />
      </g>
      <g
         id="g71"
         transform="translate(309.4785,603.0405)">
        <path
           d="m 0,0 v -1.741 h -4.975 v 7.914 h 4.918 V 4.432 H -3.166 V 3.121 h 2.827 V 1.402 H -3.166 V 0 Z"
           style="fill:#1e1f1d;fill-opacity:1;fill-rule:nonzero;stroke:none"
           id="path73" />
      </g>
      <g
         id="g75"
         transform="translate(315.9135,606.5005)">
        <path
           d="m 0,0 c 0,0.577 -0.407,1.018 -0.961,1.018 h -1.187 v -2.036 h 1.187 C -0.407,-1.018 0,-0.577 0,0 m 1.809,0 c 0,-1.504 -1.21,-2.714 -2.77,-2.714 h -1.187 v -2.487 h -1.81 v 7.914 h 2.997 c 1.56,0 2.77,-1.209 2.77,-2.713"
           style="fill:#1e1f1d;fill-opacity:1;fill-rule:nonzero;stroke:none"
           id="path77" />
      </g>
      <g
         id="g79"
         transform="translate(326.0009,609.2139)">
        <path
           d="m 0,0 v -7.915 h -1.809 v 3.144 H -4.297 V -7.915 H -6.106 V 0 h 1.809 v -3.03 h 2.488 V 0 Z"
           style="fill:#1e1f1d;fill-opacity:1;fill-rule:nonzero;stroke:none"
           id="path81" />
      </g>
      <g
         id="g83"
         transform="translate(332.8305,604.2393)">
        <path
           d="M 0,0 -0.927,2.906 -1.854,0 Z M 0.542,-1.696 H -2.397 L -2.793,-2.94 h -1.978 l 2.69,7.915 H 0.226 L 2.917,-2.94 H 0.938 Z"
           style="fill:#1e1f1d;fill-opacity:1;fill-rule:nonzero;stroke:none"
           id="path85" />
      </g>
      <g
         id="g87"
         transform="translate(341.9018,605.4829)">
        <path
           d="M 0,0 V 2.035 H -1.356 C -1.854,2.035 -2.261,1.594 -2.261,1.018 -2.261,0.441 -1.854,0 -1.356,0 Z M 1.81,-4.184 H 0 v 2.601 h -0.576 l -1.685,-2.601 h -2.035 l 1.855,2.827 c -0.962,0.407 -1.629,1.346 -1.629,2.375 0,1.503 1.21,2.713 2.714,2.713 H 1.81 Z"
           style="fill:#1e1f1d;fill-opacity:1;fill-rule:nonzero;stroke:none"
           id="path89" />
      </g>
      <g
         id="g91"
         transform="translate(242.4702,590.6704)">
        <path
           d="M 0,0 -0.927,2.906 -1.854,0 Z M 0.542,-1.696 H -2.397 L -2.793,-2.94 h -1.978 l 2.69,7.915 H 0.226 L 2.917,-2.94 H 0.938 Z"
           style="fill:#1e1f1d;fill-opacity:1;fill-rule:nonzero;stroke:none"
           id="path93" />
      </g>
      <g
         id="g95"
         transform="translate(251.7871,587.7305)">
        <path
           d="M 0,0 -2.533,3.664 V 0 h -1.809 v 7.915 h 1.809 V 4.478 l 2.42,3.437 H 1.945 L -0.724,4.059 2.058,0 Z"
           style="fill:#1e1f1d;fill-opacity:1;fill-rule:nonzero;stroke:none"
           id="path97" />
      </g>
      <g
         id="g99"
         transform="translate(260.331,590.6704)">
        <path
           d="M 0,0 -0.927,2.906 -1.854,0 Z M 0.542,-1.696 H -2.397 L -2.793,-2.94 h -1.978 l 2.69,7.915 H 0.226 L 2.917,-2.94 H 0.938 Z"
           style="fill:#1e1f1d;fill-opacity:1;fill-rule:nonzero;stroke:none"
           id="path101" />
      </g>
      <g
         id="g103"
         transform="translate(269.9673,589.4717)">
        <path
           d="M 0,0 V 4.478 H -1.685 V 2.601 C -1.685,1.3 -1.911,0.509 -2.193,0 Z M 2.657,0 V -3.256 H 0.848 v 1.515 H -3.109 V -3.256 H -4.918 V 0 h 0.802 c 0.362,0.52 0.622,1.278 0.622,2.623 v 3.55 H 1.809 V 0 Z"
           style="fill:#1e1f1d;fill-opacity:1;fill-rule:nonzero;stroke:none"
           id="path105" />
      </g>
      <g
         id="g107"
         transform="translate(279.9174,589.4717)">
        <path
           d="m 0,0 v -1.741 h -4.975 v 7.914 h 4.918 V 4.432 H -3.166 V 3.121 h 2.827 V 1.402 H -3.166 V 0 Z"
           style="fill:#1e1f1d;fill-opacity:1;fill-rule:nonzero;stroke:none"
           id="path109" />
      </g>
      <g
         id="g111"
         transform="translate(290.31,587.7305)">
        <path
           d="M 0,0 H -1.809 V 4.602 L -3.856,1.244 H -4.059 L -6.106,4.602 V 0 h -1.809 v 7.915 h 1.809 l 2.148,-3.517 2.149,3.517 H 0 Z"
           style="fill:#1e1f1d;fill-opacity:1;fill-rule:nonzero;stroke:none"
           id="path113" />
      </g>
      <g
         id="g115"
         transform="translate(297.4482,592.0269)">
        <path
           d="M 0,0 -3.053,-4.296 H -4.41 v 7.914 h 1.809 V -0.678 L 0.453,3.618 H 1.809 V -4.296 H 0 Z"
           style="fill:#1e1f1d;fill-opacity:1;fill-rule:nonzero;stroke:none"
           id="path117" />
      </g>
      <g
         id="g119"
         transform="translate(305.7807,591.9141)">
        <path
           d="M 0,0 V 2.035 H -1.356 C -1.854,2.035 -2.261,1.594 -2.261,1.018 -2.261,0.441 -1.854,0 -1.356,0 Z M 1.809,-4.184 H 0 v 2.601 h -0.577 l -1.684,-2.601 h -2.035 l 1.854,2.827 c -0.961,0.407 -1.628,1.346 -1.628,2.375 0,1.503 1.21,2.713 2.714,2.713 h 3.165 z"
           style="fill:#1e1f1d;fill-opacity:1;fill-rule:nonzero;stroke:none"
           id="path121" />
      </g>
      <g
         id="g123"
         transform="translate(262.8264,644.6307)">
        <path
           d="m 0,0 c -1.533,-1.095 -3.176,-1.938 -4.927,-2.529 -1.752,-0.592 -3.744,-0.887 -5.978,-0.887 -3.986,0 -7.095,1.258 -9.328,3.777 -2.234,2.518 -3.35,5.901 -3.35,10.15 v 10.051 h -6.044 v 7.817 h 6.044 v 8.606 h 9.985 v -8.606 h 8.737 v -7.817 h -8.737 V 10.511 c 0,-1.621 0.361,-2.891 1.084,-3.81 0.722,-0.92 1.849,-1.38 3.383,-1.38 0.963,0 1.882,0.164 2.759,0.493 0.875,0.328 1.883,0.842 3.022,1.543 z"
           style="fill:#1e1f1d;fill-opacity:1;fill-rule:nonzero;stroke:none"
           id="path125" />
      </g>
      <g
         id="g127"
         transform="translate(287.8283,651.2986)">
        <path
           d="m 0,0 c 1.422,1.554 2.135,3.623 2.135,6.208 0,2.584 -0.713,4.652 -2.135,6.208 -1.424,1.554 -3.186,2.332 -5.289,2.332 -2.102,0 -3.865,-0.778 -5.288,-2.332 C -12,10.86 -12.711,8.792 -12.711,6.208 -12.711,3.623 -12,1.554 -10.577,0 c 1.423,-1.555 3.186,-2.333 5.288,-2.333 2.103,0 3.865,0.778 5.289,2.333 m -14.059,-8.113 c -2.737,1.357 -4.938,3.284 -6.602,5.78 -1.664,2.497 -2.496,5.343 -2.496,8.541 0,3.196 0.832,6.043 2.496,8.54 1.664,2.496 3.865,4.423 6.602,5.781 2.737,1.357 5.661,2.036 8.77,2.036 3.022,0 5.902,-0.679 8.639,-2.036 2.736,-1.358 4.96,-3.285 6.668,-5.781 1.708,-2.497 2.562,-5.344 2.562,-8.54 0,-3.198 -0.811,-6.044 -2.431,-8.541 C 8.528,-4.829 6.35,-6.756 3.613,-8.113 0.875,-9.47 -2.092,-10.15 -5.289,-10.15 c -3.109,0 -6.033,0.68 -8.77,2.037"
           style="fill:#1e1f1d;fill-opacity:1;fill-rule:nonzero;stroke:none"
           id="path129" />
      </g>
      <g
         id="g131"
         transform="translate(333.3,651.7254)">
        <path
           d="m 0,0 c 1.554,1.488 2.332,3.459 2.332,5.912 0,2.277 -0.657,4.161 -1.971,5.65 -1.314,1.488 -3.088,2.233 -5.321,2.233 -1.358,0 -2.792,-0.482 -4.303,-1.445 -1.511,-0.964 -2.967,-2.343 -4.368,-4.139 v -7.62 c 2.539,-1.883 4.948,-2.824 7.226,-2.824 2.715,0 4.85,0.744 6.405,2.233 m 5.551,20.003 c 2.189,-1.423 3.941,-3.383 5.255,-5.879 1.314,-2.497 1.971,-5.278 1.971,-8.343 0,-3.066 -0.713,-5.846 -2.135,-8.343 -1.424,-2.496 -3.394,-4.457 -5.913,-5.879 -2.518,-1.423 -5.353,-2.136 -8.506,-2.136 -3.679,0 -6.964,1.249 -9.854,3.745 v -9.328 h 5.978 v -7.818 h -21.876 v 7.818 h 6.11 v 29.627 h -6.11 v 7.817 h 15.898 v -5.978 c 1.751,2.19 3.678,3.876 5.78,5.059 2.103,1.182 4.205,1.773 6.307,1.773 2.54,0 4.904,-0.712 7.095,-2.135"
           style="fill:#1e1f1d;fill-opacity:1;fill-rule:nonzero;stroke:none"
           id="path133" />
      </g>
      <g
         id="g135"
         transform="translate(369.4203,638.1733)">
        <path
           d="m 0,0 h -9 v 48.952 h -53.647 v 9 H 0 Z"
           style="fill:#d91842;fill-opacity:1;fill-rule:nonzero;stroke:none"
           id="path137" />
      </g>
    </g>
  </g>
</svg>
