<svg width="158" height="158" xmlns="http://www.w3.org/2000/svg" fill="none"><g fill="#414141"><path d="M40.59 71.393c0 1.844-.324 3.54-.972 5.088a12.133 12.133 0 01-2.687 4.013c-1.143 1.127-2.495 2.01-4.056 2.646-1.56.638-3.254.956-5.08.956s-3.52-.318-5.08-.956c-1.56-.637-2.912-1.52-4.056-2.646a12.133 12.133 0 01-2.687-4.013c-.647-1.548-.971-3.244-.971-5.088 0-1.844.324-3.54.97-5.088.648-1.548 1.544-2.886 2.688-4.013 1.144-1.127 2.497-2.009 4.057-2.646 1.56-.638 3.253-.956 5.08-.956s3.518.318 5.08.956c1.56.637 2.911 1.52 4.055 2.646a12.133 12.133 0 012.687 4.013c.648 1.548.971 3.244.971 5.088h.001zm-2.636 0c0-1.412-.23-2.755-.694-4.03A10.04 10.04 0 0035.25 64c-.88-.968-1.948-1.736-3.208-2.305-1.26-.57-2.676-.854-4.248-.854s-2.987.285-4.247.854c-1.26.57-2.329 1.337-3.207 2.305a10.04 10.04 0 00-2.012 3.363 11.728 11.728 0 00-.693 4.03c0 1.412.231 2.755.693 4.03a9.853 9.853 0 002.012 3.346c.878.956 1.947 1.72 3.207 2.288 1.26.57 2.675.854 4.247.854s2.988-.285 4.248-.854c1.26-.569 2.33-1.332 3.207-2.288a9.852 9.852 0 002.011-3.347c.464-1.274.695-2.617.695-4.029zm61.564 12.701c-1.89 0-3.437-.32-4.642-.96-1.205-.64-2.162-1.448-2.87-2.425a8.855 8.855 0 01-1.47-3.194c-.273-1.152-.409-2.24-.409-3.263V59.065c0-.17.14-.309.314-.309h1.924c.173 0 .314.14.314.31v14.907c0 1 .118 1.972.354 2.914.236.942.62 1.78 1.152 2.513.531.733 1.234 1.326 2.108 1.78.874.453 1.95.68 3.225.68 1.276 0 2.35-.227 3.225-.68.874-.454 1.577-1.047 2.108-1.78a7.223 7.223 0 001.152-2.513 11.95 11.95 0 00.354-2.914v-14.93c0-.17.14-.309.314-.309h1.924c.173 0 .314.138.314.31v15.207c0 1.024-.136 2.111-.408 3.263a8.855 8.855 0 01-1.47 3.194c-.71.977-1.672 1.785-2.888 2.425-1.217.64-2.759.96-4.625.96v.001zm40.862-21.226a5.767 5.767 0 00-.385-.4 6.108 6.108 0 00-1.338-.958c-.827-.44-1.826-.662-2.998-.662-.596 0-1.205.09-1.825.272a5.326 5.326 0 00-1.688.831 4.286 4.286 0 00-1.224 1.408c-.31.566-.465 1.234-.465 2.003 0 .77.149 1.402.448 1.9a4.21 4.21 0 001.189 1.273c.494.35 1.057.64 1.688.865a75.32 75.32 0 001.982.68c.85.27 1.705.565 2.567.881.86.317 1.637.73 2.326 1.24a6.02 6.02 0 011.688 1.933c.437.781.655 1.77.655 2.97 0 1.2-.235 2.234-.706 3.105a6.595 6.595 0 01-1.827 2.155 7.634 7.634 0 01-2.55 1.256c-.953.271-1.912.407-2.877.407-.735 0-1.47-.073-2.205-.22a10.082 10.082 0 01-2.103-.662 8.62 8.62 0 01-1.86-1.12c-.39-.307-.74-.665-1.074-1.014-.347-.362-.511-.493.048-.905.557-.413.481-.365 1.08-.79.598-.425.637-.222.975.17.494.576 1.084 1.13 1.813 1.572.953.577 2.073.865 3.36.865.62 0 1.252-.096 1.895-.288a5.36 5.36 0 001.74-.883 4.905 4.905 0 001.276-1.46c.333-.576.5-1.25.5-2.018 0-.837-.167-1.533-.5-2.087a4.401 4.401 0 00-1.327-1.392 8.166 8.166 0 00-1.895-.933 85.142 85.142 0 00-2.24-.747 29.674 29.674 0 01-2.377-.848 8.052 8.052 0 01-2.102-1.239 5.79 5.79 0 01-1.5-1.883c-.379-.747-.569-1.663-.569-2.75 0-1.153.237-2.149.707-2.986a6.326 6.326 0 011.844-2.07 7.777 7.777 0 012.514-1.188 10.386 10.386 0 012.723-.373c1.654 0 3.067.288 4.238.865.508.25.963.521 1.363.812.27.196.207.12.736.616s.505.678.007 1.06c-.497.383-.33.3-.86.685-.532.386-.759.177-.867.052z" clip-rule="evenodd" fill-rule="evenodd"/><path d="M68.995 66.636c0 .607.468 1.106 1.07 1.165h.235a1.18 1.18 0 001.07-1.165 1.18 1.18 0 00-1.188-1.17 1.18 1.18 0 00-1.188 1.17zM58.3 66.588a1.18 1.18 0 00-1.185-1.1 1.18 1.18 0 00-1.189 1.17c0 .633.51 1.148 1.147 1.17h.083a1.18 1.18 0 001.144-1.1v-.14z"/><path d="M76.803 55.953c.29-.216.475-.353.619-.362h.027a.212.212 0 01.105.035c.626.416-4.908 5.567-12.292 6.25l-.05.012c-.125.03-.252.117-.252.22v6.65c0 2.21-2.6 5.27-2.6 5.27v-11.91a.213.213 0 00-.087-.167.66.66 0 00-.204-.063 2.508 2.508 0 00-.09-.019c-7.347-.71-12.843-5.828-12.217-6.243a.207.207 0 01.102-.035h.03c.143.01.327.146.616.362 1.181.88 4.11 3.062 13.147 3.062s11.965-2.182 13.146-3.062zM69.957 83.59c0 .707.214 1.721.617 1.721.402 0 .616-1.014.616-1.72 0-.708-.214-.774-.616-.774-.403 0-.617.066-.617.773zm-1.68 0c0 .707.213 1.721.615 1.721s.617-1.014.617-1.72c0-.708-.215-.774-.617-.774s-.615.066-.615.773zm-1.684 0c0 .707.214 1.721.617 1.721s.617-1.014.617-1.72c0-.708-.215-.774-.617-.774s-.616.066-.616.773zm-5.874-.115c-.023-.6-.235-.658-.615-.658-.402 0-.616.066-.616.773 0 .703.212 1.71.61 1.721h.013c.375-.01.585-.905.608-1.597v-.24.001zm-1.679 0c-.023-.6-.235-.658-.614-.658-.403 0-.617.066-.617.773 0 .703.212 1.71.61 1.721h.013c.375-.01.585-.905.608-1.597v-.24zm-1.68-.007c-.025-.593-.237-.65-.615-.65-.402 0-.616.065-.616.772 0 .703.212 1.71.61 1.721h.013c.374-.01.583-.899.607-1.59v-.253h.001zM25.375 99.598c0 .572-.098 1.071-.293 1.5-.195.424-.472.75-.83.973-.358.225-.776.337-1.254.337a2.3 2.3 0 01-1.24-.337 2.278 2.278 0 01-.844-.966c-.198-.42-.3-.905-.305-1.455v-.42c0-.562.1-1.058.297-1.489.198-.43.478-.759.84-.986.362-.23.777-.345 1.244-.345.475 0 .893.114 1.254.341.363.225.643.552.838.982.195.428.293.926.293 1.496v.37zm-.777-.377c0-.693-.14-1.223-.424-1.592-.282-.37-.677-.557-1.184-.557-.494 0-.883.186-1.168.557-.282.37-.427.882-.436 1.54v.43c0 .67.143 1.197.428 1.582.287.382.682.573 1.184.573.505 0 .896-.18 1.172-.54.277-.364.42-.884.428-1.56v-.433zm7.722 3.107h-.786V99.63h-2.987v2.698h-.782v-5.837h.782v2.51h2.987v-2.51h.786v5.837zm7.16-5.837v5.837h-.782v-5.204h-2.124l-.106 2.313c-.04.775-.122 1.358-.244 1.748-.12.39-.296.678-.53.862-.233.182-.545.275-.935.28h-.257v-.629l.163-.008c.252-.018.446-.099.582-.24.136-.145.24-.373.31-.686.07-.313.12-.794.15-1.443l.122-2.83h3.651zm5.984 4.313H42.98l-.557 1.524h-.806l2.263-5.837h.683l2.267 5.837h-.802l-.565-1.524h.001zm-2.247-.633h2.015l-1.01-2.73-1.005 2.73zm9.366-3.68h.782v5.837h-.782V97.83l-2.917 4.498h-.785v-5.837h.785v4.498l2.918-4.498zm-.22-1.452a.99.99 0 01-.337.782c-.223.195-.516.293-.88.293-.363 0-.657-.1-.883-.297a.985.985 0 01-.337-.778h.614c0 .187.052.334.155.441.103.104.254.157.452.157.19 0 .337-.053.443-.157.11-.104.163-.25.163-.44h.61zm8.2 7.29h-.787V99.63H56.79v2.698h-.782v-5.837h.782v2.51h2.987v-2.51h.786v5.837zm4.054-2.178H62.63v-.606h1.986v.606h.001zm6.631-.553c0 .572-.098 1.071-.293 1.5-.196.424-.472.75-.83.973-.359.225-.777.337-1.254.337a2.3 2.3 0 01-1.24-.337 2.278 2.278 0 01-.844-.966c-.198-.42-.3-.905-.305-1.455v-.42c0-.562.1-1.058.297-1.489a2.23 2.23 0 01.838-.986c.364-.23.78-.345 1.246-.345.475 0 .892.114 1.253.341.364.225.643.552.84.982.194.428.292.926.292 1.496v.37zm-.778-.377c0-.693-.14-1.223-.423-1.592-.282-.37-.677-.557-1.184-.557-.494 0-.883.186-1.168.557-.282.37-.428.882-.436 1.54v.43c0 .67.143 1.197.428 1.582.287.382.682.573 1.184.573.505 0 .895-.18 1.172-.54.277-.364.42-.884.427-1.56v-.433zm6.782-2.097h-2.857v1.748h1.473c.62.008 1.102.164 1.45.47.346.304.52.718.52 1.242 0 .526-.175.946-.525 1.26-.35.311-.827.473-1.432.484h-2.27v-5.837h3.641v.633zm-2.857 2.381v2.193h1.43c.387 0 .688-.1.902-.304.217-.203.326-.476.326-.818 0-.329-.105-.588-.314-.778-.206-.19-.5-.287-.883-.293h-1.46zm6.501.538v2.285h-.78v-5.837H82.3c.65 0 1.156.163 1.522.49.37.325.554.756.554 1.294 0 .566-.18 1.003-.542 1.31-.358.305-.872.458-1.542.458h-1.396zm0-.63H82.3c.418 0 .738-.096.96-.289.223-.195.334-.475.334-.84 0-.349-.11-.627-.333-.835-.223-.209-.528-.317-.916-.325h-1.449v2.29zm8.406 1.391H86.82l-.558 1.524h-.805l2.262-5.837h.684l2.267 5.837h-.802l-.565-1.524zm-2.247-.633h2.015l-1.01-2.73-1.005 2.73zm8.67-2.113a.89.89 0 00-.345-.738c-.229-.184-.55-.276-.965-.276-.348 0-.64.095-.875.284a.86.86 0 00-.35.698h-.781c0-.31.085-.588.256-.834.174-.246.416-.437.725-.573a2.46 2.46 0 011.026-.209c.662 0 1.176.147 1.542.441.367.292.55.698.55 1.22 0 .27-.085.515-.253.737a1.691 1.691 0 01-.704.525c.698.23 1.046.686 1.046 1.367 0 .524-.198.94-.594 1.247-.396.307-.925.46-1.587.46-.394 0-.752-.067-1.075-.204a1.737 1.737 0 01-.75-.589 1.531 1.531 0 01-.267-.906h.78c0 .307.125.564.37.77.249.203.56.304.94.304.428 0 .767-.097 1.019-.292a.927.927 0 00.383-.774c0-.684-.43-1.033-1.29-1.046h-.733v-.634h.728c.397-.008.697-.096.9-.264.204-.169.305-.407.305-.714zm7.686 1.54c0 .572-.098 1.071-.294 1.5-.195.424-.472.75-.83.973-.358.225-.776.337-1.253.337-.467 0-.88-.112-1.242-.337a2.277 2.277 0 01-.842-.966c-.198-.42-.3-.905-.305-1.455v-.42c0-.562.1-1.058.297-1.489a2.23 2.23 0 01.838-.986c.364-.23.78-.345 1.245-.345.475 0 .893.114 1.254.341.364.225.643.552.838.982.196.428.293.926.293 1.496v.37zm-.778-.377c0-.693-.14-1.223-.422-1.592-.283-.37-.678-.557-1.185-.557-.493 0-.883.186-1.167.557-.284.37-.429.882-.437 1.54v.43c0 .67.142 1.197.427 1.582.288.382.683.573 1.185.573.504 0 .895-.18 1.172-.54.276-.364.42-.884.427-1.56v-.433zm3.168 3.107v-5.837h1.937c.644 0 1.127.13 1.45.392.325.262.487.65.487 1.163 0 .273-.077.514-.235.726-.158.208-.372.37-.644.485.32.088.573.256.757.505.189.246.282.54.282.882 0 .524-.172.935-.517 1.235-.344.3-.831.45-1.46.45H105.8zm.781-2.73v2.1h1.29c.365 0 .65-.092.86-.276.21-.187.318-.444.318-.77 0-.703-.389-1.054-1.165-1.054h-1.303zm0-.618h1.18c.343 0 .616-.084.82-.252a.838.838 0 00.309-.686c0-.32-.096-.553-.286-.697-.19-.148-.478-.22-.866-.22h-1.157v1.855zm8.903 1.824h-2.483l-.557 1.524h-.807l2.263-5.837h.685l2.266 5.837h-.802l-.566-1.524zm-2.247-.633h2.015l-1.01-2.73-1.004 2.73zm10.185 2.157h-.787V99.63h-2.986v2.698h-.782v-5.837h.782v2.51h2.986v-2.51h.787v5.837zm6.341-5.837h.782v5.837h-.781V97.83l-2.918 4.498h-.786v-5.837h.785v4.498l2.918-4.498zm6.774 3.14h-2.568v2.067h2.983v.63h-3.765v-5.837h3.725v.633h-2.943V99h2.568v.63z"/></g></svg>