<?xml version="1.0" encoding="UTF-8"?> <svg xmlns="http://www.w3.org/2000/svg" width="290" height="38" viewBox="0 0 290 38" fill="none"> <g clip-path="url(#clip0)"> <path d="M2.49 30V8.58H6.96V17.43L15.72 8.58H20.94L14.52 15.3L21.96 30H17.04L11.61 19.23H10.83L6.96 23.1V30H2.49ZM39.1779 30L37.4379 24.21H29.2779L27.5379 30H23.1279L29.9379 8.58H36.8679L43.7079 30H39.1779ZM32.6679 12.87L30.4179 20.31H36.2379L33.9879 12.87H32.6679ZM46.7283 8.58H56.8083C59.1883 8.58 61.0383 9.17 62.3583 10.35C63.6783 11.51 64.3383 13.14 64.3383 15.24C64.3383 17.94 63.2783 19.85 61.1583 20.97L64.3683 30H59.8683L56.9883 21.93H51.1983V30H46.7283V8.58ZM51.1983 12.51V18.12H56.1783C57.4583 18.12 58.3783 17.89 58.9383 17.43C59.4983 16.95 59.7783 16.24 59.7783 15.3C59.7783 14.3 59.4683 13.59 58.8483 13.17C58.2483 12.73 57.2083 12.51 55.7283 12.51H51.1983ZM68.4959 8.58H78.2759C80.7359 8.58 82.6359 9.18 83.9759 10.38C85.3359 11.58 86.0159 13.25 86.0159 15.39C86.0159 17.57 85.3359 19.27 83.9759 20.49C82.6359 21.71 80.7359 22.32 78.2759 22.32H72.9659V30H68.4959V8.58ZM72.9659 18.39H77.6459C78.9859 18.39 79.9459 18.15 80.5259 17.67C81.1259 17.17 81.4259 16.43 81.4259 15.45C81.4259 14.47 81.1259 13.74 80.5259 13.26C79.9459 12.76 78.9859 12.51 77.6459 12.51H72.9659V18.39ZM91.6512 11.31C93.4912 9.23 96.0612 8.19 99.3612 8.19C102.661 8.19 105.221 9.23 107.041 11.31C108.881 13.37 109.801 16.03 109.801 19.29C109.801 22.55 108.881 25.22 107.041 27.3C105.221 29.36 102.661 30.39 99.3612 30.39C96.0612 30.39 93.4912 29.36 91.6512 27.3C89.8312 25.22 88.9212 22.55 88.9212 19.29C88.9212 16.03 89.8312 13.37 91.6512 11.31ZM99.3612 26.4C101.281 26.4 102.731 25.74 103.711 24.42C104.711 23.1 105.211 21.39 105.211 19.29C105.211 17.19 104.711 15.48 103.711 14.16C102.731 12.84 101.281 12.18 99.3612 12.18C97.4612 12.18 96.0112 12.85 95.0112 14.19C94.0112 15.51 93.5112 17.21 93.5112 19.29C93.5112 21.37 94.0112 23.08 95.0112 24.42C96.0112 25.74 97.4612 26.4 99.3612 26.4ZM117.847 30L111.517 8.58H116.167L120.907 25.68H122.287L127.027 8.58H131.617L125.287 30H117.847ZM136.065 30H131.445V25.44H136.065V30ZM153.481 23.16H158.131C157.811 25.34 156.851 27.09 155.251 28.41C153.671 29.73 151.651 30.39 149.191 30.39C145.971 30.39 143.451 29.38 141.631 27.36C139.831 25.32 138.931 22.63 138.931 19.29C138.931 15.95 139.841 13.27 141.661 11.25C143.481 9.21 145.991 8.19 149.191 8.19C151.531 8.19 153.481 8.8 155.041 10.02C156.601 11.22 157.561 12.82 157.921 14.82H153.241C152.741 13.06 151.391 12.18 149.191 12.18C147.351 12.18 145.941 12.85 144.961 14.19C144.001 15.51 143.521 17.21 143.521 19.29C143.521 21.37 144.001 23.08 144.961 24.42C145.941 25.74 147.351 26.4 149.191 26.4C150.331 26.4 151.271 26.12 152.011 25.56C152.771 24.98 153.261 24.18 153.481 23.16ZM163.78 11.31C165.62 9.23 168.19 8.19 171.49 8.19C174.79 8.19 177.35 9.23 179.17 11.31C181.01 13.37 181.93 16.03 181.93 19.29C181.93 22.55 181.01 25.22 179.17 27.3C177.35 29.36 174.79 30.39 171.49 30.39C168.19 30.39 165.62 29.36 163.78 27.3C161.96 25.22 161.05 22.55 161.05 19.29C161.05 16.03 161.96 13.37 163.78 11.31ZM171.49 26.4C173.41 26.4 174.86 25.74 175.84 24.42C176.84 23.1 177.34 21.39 177.34 19.29C177.34 17.19 176.84 15.48 175.84 14.16C174.86 12.84 173.41 12.18 171.49 12.18C169.59 12.18 168.14 12.85 167.14 14.19C166.14 15.51 165.64 17.21 165.64 19.29C165.64 21.37 166.14 23.08 167.14 24.42C168.14 25.74 169.59 26.4 171.49 26.4ZM199.298 8.58H203.768V22.11C203.768 24.77 202.988 26.82 201.428 28.26C199.888 29.68 197.668 30.39 194.768 30.39C191.908 30.39 189.698 29.68 188.138 28.26C186.598 26.82 185.828 24.77 185.828 22.11V8.58H190.298V22.02C190.298 23.36 190.688 24.43 191.468 25.23C192.268 26.01 193.378 26.4 194.798 26.4C196.238 26.4 197.348 26.01 198.128 25.23C198.908 24.43 199.298 23.36 199.298 22.02V8.58ZM208.681 8.58H218.761C221.141 8.58 222.991 9.17 224.311 10.35C225.631 11.51 226.291 13.14 226.291 15.24C226.291 17.94 225.231 19.85 223.111 20.97L226.321 30H221.821L218.941 21.93H213.151V30H208.681V8.58ZM213.151 12.51V18.12H218.131C219.411 18.12 220.331 17.89 220.891 17.43C221.451 16.95 221.731 16.24 221.731 15.3C221.731 14.3 221.421 13.59 220.801 13.17C220.201 12.73 219.161 12.51 217.681 12.51H213.151ZM246.529 14.46H241.969C241.609 12.84 240.309 12.03 238.069 12.03C237.049 12.03 236.209 12.24 235.549 12.66C234.889 13.06 234.559 13.66 234.559 14.46C234.559 15.6 235.449 16.33 237.229 16.65L241.219 17.37C245.099 18.09 247.039 20.18 247.039 23.64C247.039 25.56 246.299 27.17 244.819 28.47C243.339 29.75 241.209 30.39 238.429 30.39C235.749 30.39 233.609 29.77 232.009 28.53C230.409 27.29 229.499 25.6 229.279 23.46H233.839C234.179 25.52 235.769 26.55 238.609 26.55C239.809 26.55 240.759 26.31 241.459 25.83C242.179 25.35 242.539 24.69 242.539 23.85C242.539 23.05 242.289 22.45 241.789 22.05C241.309 21.65 240.589 21.36 239.629 21.18L235.549 20.46C231.889 19.82 230.059 17.87 230.059 14.61C230.059 12.77 230.779 11.24 232.219 10.02C233.659 8.8 235.629 8.19 238.129 8.19C240.469 8.19 242.389 8.75 243.889 9.87C245.409 10.99 246.289 12.52 246.529 14.46ZM255.632 26.01H267.332V30H251.162V8.58H267.002V12.57H255.632V17.07H264.482V20.97H255.632V26.01ZM287.222 14.46H282.662C282.302 12.84 281.002 12.03 278.762 12.03C277.742 12.03 276.902 12.24 276.242 12.66C275.582 13.06 275.252 13.66 275.252 14.46C275.252 15.6 276.142 16.33 277.922 16.65L281.912 17.37C285.792 18.09 287.732 20.18 287.732 23.64C287.732 25.56 286.992 27.17 285.512 28.47C284.032 29.75 281.902 30.39 279.122 30.39C276.442 30.39 274.302 29.77 272.702 28.53C271.102 27.29 270.192 25.6 269.972 23.46H274.532C274.872 25.52 276.462 26.55 279.302 26.55C280.502 26.55 281.452 26.31 282.152 25.83C282.872 25.35 283.232 24.69 283.232 23.85C283.232 23.05 282.982 22.45 282.482 22.05C282.002 21.65 281.282 21.36 280.322 21.18L276.242 20.46C272.582 19.82 270.752 17.87 270.752 14.61C270.752 12.77 271.472 11.24 272.912 10.02C274.352 8.8 276.322 8.19 278.822 8.19C281.162 8.19 283.082 8.75 284.582 9.87C286.102 10.99 286.982 12.52 287.222 14.46Z" fill="#0083FC"></path> </g> <defs> <clipPath id="clip0"> <rect width="290" height="38" fill="white"></rect> </clipPath> </defs> </svg> 