<svg width="257" height="313" viewBox="0 0 257 313" fill="none" xmlns="http://www.w3.org/2000/svg">
<path d="M17.8622 286.078C13.7568 285.669 11.3619 284.987 11.3619 282.124C11.3619 278.921 14.6463 278.239 17.1779 278.239C20.1886 278.239 22.9256 279.466 22.994 282.397H33.3944C33.5997 273.196 25.252 268.493 16.9727 268.493C8.28285 268.493 0.414093 273.196 0.414093 282.397C0.414093 291.258 8.21443 294.325 16.0148 294.87C19.0938 295.074 23.8835 295.211 23.8835 299.3C23.8835 301.822 20.5307 303.322 17.3832 303.322C13.962 303.322 10.6093 301.89 10.6093 298.959H0.00356604C-0.201706 308.502 8.48811 313 17.5201 313C26.2099 313 34.9682 308.297 34.9682 299.368C34.8997 289.008 26.9626 286.896 17.8622 286.078Z" fill="black"/>
<path d="M61.2353 302.224C54.7351 302.224 50.5612 296.839 50.5612 290.705C50.5612 283.685 54.7351 279.05 61.2353 279.05C65.8197 279.05 69.0357 280.754 70.541 285.116H81.2835C79.6414 273.734 69.9936 269.031 61.2353 269.031C50.3559 269.031 39.4081 276.119 39.4081 290.773C39.4081 305.086 50.2875 312.379 61.2353 312.379C70.3357 312.379 79.7782 307.608 81.4204 295.476H70.6778C69.5146 300.111 65.8882 302.224 61.2353 302.224Z" fill="black"/>
<path d="M112.304 284.832H99.0983V269.428H87.9452V311.958H99.0983V294.919H112.304V311.958H123.457V269.428H112.304V284.832Z" fill="black"/>
<path d="M152.309 268.618C141.225 268.618 130.345 276.047 130.345 290.701C130.345 305.423 140.882 312.716 152.172 312.716C165.104 312.716 174.136 303.651 174.136 290.701C174.068 276.047 163.257 268.618 152.309 268.618ZM152.172 302.22C146.698 302.22 141.43 298.267 141.43 290.701C141.43 282.931 146.698 279.182 152.241 279.182C157.509 279.182 162.847 283.136 162.847 290.701C162.915 298.267 157.509 302.22 152.172 302.22Z" fill="black"/>
<path d="M200.685 268.618C189.601 268.618 178.721 276.047 178.721 290.701C178.721 305.423 189.258 312.716 200.548 312.716C213.48 312.716 222.512 303.651 222.512 290.701C222.444 276.047 211.633 268.618 200.685 268.618ZM200.548 302.22C195.074 302.22 189.806 298.267 189.806 290.701C189.806 282.931 195.074 279.182 200.617 279.182C205.885 279.182 211.223 283.136 211.223 290.701C211.291 298.267 205.885 302.22 200.548 302.22Z" fill="black"/>
<path d="M240.452 302.007V269.428H229.299V311.958H255.916V302.007H240.452Z" fill="black"/>
<path d="M219.953 54.8671C229.601 40.8266 247.049 15.54 247.049 15.54L224.743 0L186.426 54.9353L184.852 57.1845H218.38L219.953 54.8671Z" fill="black"/>
<path d="M191.413 96.7171H171.776V76.2016L169.997 78.7916C153.164 102.919 135.785 127.797 130.448 135.635C118.61 118.187 105.131 97.944 93.3618 80.5637L83.0982 114.711C101.025 141.565 115.942 164.33 115.942 164.33C115.942 164.33 115.942 223.082 115.942 248.709C115.942 250.072 115.942 251.504 115.942 252.935C117.173 252.935 118.473 252.935 119.705 252.935C127.095 252.935 134.142 252.935 141.395 252.935C142.627 252.935 143.859 252.935 145.159 252.935C145.159 251.299 145.159 250.004 145.159 248.709C145.159 223.082 145.159 164.398 145.159 164.398C145.159 164.398 165.002 135.499 190.934 97.7395L191.413 96.7171Z" fill="black"/>
<path d="M59.478 57.2539H77.1313L76.9945 57.0494L38.4034 0.137551L16.2341 15.5412C27.5924 32.3762 41.2088 52.6873 54.7567 72.7939L59.478 57.2539Z" fill="black"/>
<path d="M257 64.5475L213.414 64.4794H179.065V89.4252H219.777L166.065 252.868H252.963V227.786H204.519L257 64.5475Z" fill="black"/>
<path d="M88.0051 72.7924L90.4684 64.5453H65.0147L46.6771 125.206L28.4079 64.5453H2.88577L31.3501 158.671L2.88577 252.866H28.4079L46.6771 192.205L65.0147 252.866H90.4684L62.0724 158.671L88.0051 72.7924Z" fill="black"/>
</svg>
