<svg version="1.0" id="Слой_1" xmlns="http://www.w3.org/2000/svg" x="0" y="0" viewBox="0 0 776.3 139.1" xml:space="preserve"><style>.st4{fill:#ecb591}.st5{fill:#fddfc9}.st6{fill:#231f20}.st7{fill:#818385}.st9{fill:#515254}</style><path d="M116.5 75.3s36.6 5.6 37.1 58.5H73.1l-16.5-25.5 25.8-18.9 34.1-14.1z" fill="#ee393d"/><path d="M110 22.5S97.2 6.4 80.3 16.3 66.9 32.2 52.7 34.1c0 0 .7 10.6 12.6 13.1s44.7-7.5 44.7-7.5l5.1 17s5.8-.5 7.6-9 2.2-23.1-12.7-25.2z" fill="#4b2513"/><path d="M119.2 76l-19 7.9c-1.3 1.7-2.5 3.6-3.6 5.5-9.6 18.5-9.2 38.1-8.6 45.1h68.3c-.5-52.9-37.1-58.5-37.1-58.5z" fill="#bd2b2f"/><path class="st4" d="M65.3 47.2l10.6 35.6h7.5l1.6 7.3s18.3 3.1 34.1-14.1l-1.8-11.2-8.7-32.7s-4.3 9.1-16.4 11l-3.5.3 2.1-5.9c0 .1-11.6 10.5-25.5 9.7z"/><path class="st5" d="M65.6 48.2s15.5 3.9 14.9 22.3v1.1l5.9-.9 1.4 4.8s6.3.8 10.3-7c0 0-1 5.1-5.8 7l4.3 14s-7.5 1.8-13.8.9L80 84.6l-4.1-1.8-10.3-34.6z"/><path class="st4" d="M69.5 83.6s.3-3.1 0-4.7 2.5-1.5 3.5 1c1.1 2.4-2.3 4.7-2.3 4.7l-1.2-1z"/><ellipse transform="rotate(-13.468 94.088 57.025)" class="st6" cx="94.1" cy="57" rx="1.9" ry="2.4"/><ellipse transform="rotate(-13.468 72.415 61.273)" class="st6" cx="72.4" cy="61.3" rx="1.9" ry="2.4"/><circle class="st4" cx="115.7" cy="59.4" r="5.3"/><path class="st5" d="M155.6 134.5c-2.4-5.6-11-9.7-21.2-9.7s-31 4.1-33.5 9.7h54.7z"/><path class="st6" d="M76.2 97.8l-.6-7.4-1.8 8.5z"/><path class="st7" d="M22 131.3h84.3v3.2H22z"/><path class="st5" d="M53.5 115.1l8.8-10.9c.2-.3.3-.6.4-.9l1.7-11.6c.2-1.7 1.3-4.2 2.3-5.6 1.7-2.3 4.1-5.2 5.6-5.3 1.9-.1 7.3 3.1 9.5 4.4.5.3 1.5 1.2 1.5 1.9l-.6 2.5c0 .3.1.6.2.8l.7.7c.2.5-.1 1.2-.3 1.7l-2.1 5.1c-.1.1-.2.3-.2.5l-.2 2.5c-.1.8-.6 1.5-1.4 1.7-.6.1-1.3-.1-1.8-.6l-.7-.8s-.7 2.2-5.5 6.1c-4.2 3.4-1.5 14.1-4 21.9-.3 1.1-1.6 1.6-2.6 1.1L54.7 125c-.2-.1-.4-.2-.5-.4-.7-.8-2.3-3.3-1.1-8.7.1-.4.2-.6.4-.8z"/><path class="st4" d="M76.1 94.3c.2 0 4.8 5.5 4.8 5.5L81 98l-4.9-3.7zM75.7 89.9c.2 0 6.9 4.4 6.9 4.4l.5-1.1-7.4-3.3zM76.9 86.3l5.7 2.5v1.1l-7.2-4.1z"/><path class="st7" d="M70.7 134.2l-48.2.3c-2.5 0-4.8-1.5-5.8-3.8L2.2 96.2c-1.7-4.1 1.3-8.6 5.7-8.7l48.2-.3c2.5 0 4.8 1.5 5.8 3.8l14.4 34.5c1.9 4.1-1.1 8.6-5.6 8.7z"/><path d="M2.4 91c-.8 1.5-.9 3.4-.2 5.2l14.4 34.5c1 2.3 3.3 3.9 5.8 3.8l48.2-.3c2.4 0 4.4-1.3 5.4-3.2L2.4 91z" fill="#9c9ea1"/><ellipse transform="rotate(-37.112 36.33 112.8)" cx="36.3" cy="112.8" rx="4.1" ry="6.2" fill="#fff"/><path class="st5" d="M81.8 93.8s.9.7 1.1.8.2 2.9-1.5 3.5l-.8-.5 1.2-3.8z"/><g><path class="st9" d="M772.9 89.7h-19.5V6.3l19.5-.2z" id="XMLID_102_"/><path class="st9" d="M521.7 69.1l12.8 12.8c-6 5.6-14.1 9-22.9 9-18.6 0-33.7-14.9-33.7-33.2 0-18.4 15.1-33.2 33.7-33.2 8.8 0 16.9 3.4 22.9 9l-12.7 12.8c-2.7-2.8-6.3-4.5-10.2-4.5-8.1 0-14.7 7.2-14.7 16s6.6 16 14.7 16c3.9-.2 7.5-1.9 10.1-4.7z" id="XMLID_101_"/><path class="st9" d="M639.8 24.3c-18.5 0-33.6 14.9-33.6 33.2 0 18.4 15.1 33.2 33.6 33.2s33.6-14.9 33.6-33.2c0-18.3-15.1-33.2-33.6-33.2zm0 49.3c-8.1 0-14.7-7.2-14.7-16s6.6-16 14.7-16 14.7 7.2 14.7 16c0 8.9-6.6 16-14.7 16zM713.4 24.3c-18.5 0-33.6 14.9-33.6 33.2 0 18.4 15.1 33.2 33.6 33.2S747 76 747 57.6c0-18.4-15.1-33.3-33.6-33.3zm0 49.3c-8.1 0-14.7-7.2-14.7-16s6.6-16 14.7-16 14.7 7.2 14.7 16c0 8.9-6.6 16-14.7 16z"/><path class="st9" d="M295.5 24.8c-18.5 0-33.6 14.9-33.6 33.2 0 18.3 15.1 33.2 33.6 33.2s33.6-14.9 33.6-33.2c.1-18.3-15-33.2-33.6-33.2zm0 49.3c-8.1 0-14.6-7.2-14.6-16 0-8.9 6.5-16 14.6-16s14.7 7.2 14.7 16-6.5 16-14.7 16z" id="XMLID_89_"/><path class="st9" d="M205.9 17.1c0-.6.2-1.1.6-1.6.4-.4 1-.7 1.7-.7h15c.6 0 1.1.2 1.6.6.5.4.7.9.8 1.6v55.1h27.8c.6 0 1.1.2 1.6.6s.7 1 .7 1.7v13.3c0 .6-.2 1.1-.6 1.6s-.9.7-1.6.8h-45.2c-1.5 0-2.2-.7-2.2-2.2V17.1z" id="XMLID_72_"/><path class="st9" d="M225.5 71.6V14.9h-19.6v75.2h49.7V71.6zM416.2 27.9h-12.1V6.6l-19.6 7v14.3H377v17.4h7.5v44.8h19.6V45.3h12.1z"/><path class="st9" d="M372.9 32.4h-11.4v-5.5c0-3.1 2.5-5.6 5.6-5.6h4.3V3.9h-4.8c-13.7 0-24.7 11.1-24.7 24.7v3.8h-8.7v17.5h8.7v40.3h19.6V49.9h11.4V32.4z" id="XMLID_71_"/><path class="st9" d="M574.4 24.3c-5.6 0-10.6 2.6-14 6.7V6.1l-19.6.1v83.4h19.6V52.8c0-5.8 4.7-10.5 10.5-10.5s10.5 4.7 10.5 10.5v36.8h18.4V49.8c0-14.1-11.4-25.5-25.4-25.5z"/><path class="st9" d="M446.1 64.6c5.5 1.5 7.7 2.9 7.6 5.6-.2 2.7-3 4.4-8 4.3-5.9-.1-11.8-4.3-14.2-7.5l-11.4 10.3c4.5 8.4 14.6 13.5 26.3 13.5 14.5 0 26.3-9.5 26.3-21.2 0-8.4-5.7-15.6-14.4-19.1-2.2-.9-4-1.5-8.8-2.7-4-1.2-6.4-2.4-6.3-4.8 0-2.3 2.2-3.8 6.1-3.6 4.7.3 8.3 3.3 10.2 5.8l11.4-9c-3.6-7.3-12.2-12.3-22.4-12.3-13.4 0-24.3 9-24.3 20.1.1 10.7 10.5 17.5 21.9 20.6z" id="XMLID_70_"/><path class="st9" d="M217.5 112.9c-7.2 0-12.1 5.1-12.1 12.7s4.8 12.7 12 12.7c7.1 0 12-5.1 12-12.7s-4.8-12.7-11.9-12.7zm0 20.2c-3.7 0-5.9-2.9-5.9-7.6 0-4.6 2.2-7.5 5.9-7.5s5.9 2.9 5.9 7.5c-.1 4.7-2.3 7.6-5.9 7.6zM231.2 118.7h7v19h6.1v-19h7v-5.3h-20.1zM278.7 128.5l-5-14.8-.1-.3h-8.1v24.3h5.8v-14.2l5 14.2h4.7l4.9-14.3v14.3h5.8v-24.3h-8zM306.7 121.8h-3.8v-8.4h-6v24.3h9.6c5.7 0 9-2.9 9-8 0-4.9-3.4-7.9-8.8-7.9zm-3.8 5h3.1c2.4 0 3.5.9 3.5 2.9s-1 2.9-3.5 2.9h-3.1v-5.8zM317 113.4h6.1v24.3H317zM344.1 128.2c-.4 3.2-2 4.8-4.9 4.8-3.5 0-5.7-2.8-5.7-7.4 0-3.6 1.5-7.5 5.8-7.5 2.5 0 4.2 1.3 4.7 3.7l.1.4h5.9v-.5c-.4-5.2-4.8-8.8-10.6-8.8-7 0-12 5.2-12 12.7 0 7.6 4.7 12.7 11.8 12.7 6.3 0 10.4-3.7 10.9-10v-.5h-6v.4zM356 128.1c-.1 5-1.4 5-2.2 5-.6 0-1.3-.2-1.6-.3l-.7-.3v5.2l.3.1c.7.2 2 .4 3 .4 4.4 0 6.7-3.4 7-10l.3-9.5h5.4v19h6.1v-24.3h-17.2l-.4 14.7zM384.8 128.4v-15h-6.1v24.3h6.6l8.1-15v15h6.1v-24.3H393zM402.9 118.7h7v19h6.1v-19h7v-5.3h-20.1zM432.4 127.7h11.4v-5h-11.4v-4.2h12.5v-5.1h-18.5v24.3h18.7v-5.2h-12.7zM451.9 128.1c-.1 5-1.4 5-2.2 5-.6 0-1.3-.2-1.6-.3l-.7-.3v5.2l.3.1c.7.2 2 .4 3 .4 4.4 0 6.7-3.4 7-10l.3-9.5h5.3v19h6.1v-24.3h-17.2l-.3 14.7zM474.4 121c0 3.4 1.8 6 5 7l-7.4 9.7h7.6l6.8-9.2h2.3v9.2h6v-24.3h-11.9c-4 0-8.4 2-8.4 7.6zm5.9.1c0-1.9 1.1-2.7 3.8-2.7h4.6v5.5h-4.4c-2.4 0-4-.5-4-2.8zM533.1 113.4h-7.8l-8.5 9v-9h-6v24.3h6v-7.8l2.5-2.4 6.9 10.2h7.5l-10.3-14.5zM562.6 128.2c-.4 3.2-2 4.8-4.9 4.8-3.5 0-5.7-2.8-5.7-7.4 0-3.6 1.5-7.5 5.8-7.5 2.5 0 4.2 1.3 4.7 3.7l.1.4h5.9v-.5c-.4-5.2-4.8-8.8-10.6-8.8-7 0-12 5.2-12 12.7 0 7.6 4.7 12.7 11.8 12.7 6.3 0 10.4-3.7 10.9-10v-.5h-6v.4zM583.9 112.9c-7.2 0-12.1 5.1-12.1 12.7s4.8 12.7 12 12.7c7.1 0 12-5.1 12-12.7s-4.8-12.7-11.9-12.7zm0 20.2c-3.7 0-5.9-2.9-5.9-7.6 0-4.6 2.2-7.5 5.9-7.5 3.6 0 5.9 2.9 5.9 7.5-.1 4.7-2.4 7.6-5.9 7.6zM615.2 124.5c1.6-.9 2.6-2.6 2.6-4.6 0-4.1-3.6-6.9-8.8-6.9-5.9 0-9.6 3-9.7 7.9v.5h5.8v-.4c.2-2 1.5-3.1 3.9-3.1 1.9 0 3 .9 3 2.4 0 1.8-1.3 2.7-3.8 2.7h-1.8v4.5h2.2c3.5 0 3.9 1.6 3.9 2.8 0 1.9-1.5 3.3-3.6 3.3-2 0-4.5-.7-4.6-3.9v-.5h-6v.5c.1 5.5 4 8.8 10.6 8.8 5.6 0 9.7-3.4 9.7-8.2.1-2.8-1.3-4.9-3.4-5.8zM644 113.4h-17.6v4c0 7.1-1.1 11.6-3.5 15h-2v11.3h5.9v-6h13.9v6h5.9v-11.3H644v-19zm-6 5.1v13.9h-8.3c2-3.9 2.8-8.1 2.8-13.9h5.5zM662.5 113.4h-5.9l-9.3 24.3h6.3l1.9-5.2h8l1.8 5.2h6.4l-9.1-24-.1-.3zm-.5 14.4h-4.9l2.4-6.8 2.5 6.8zM670 118.7h7v19h6.1v-19h7v-5.3H670zM699.5 127.7h11.4v-5h-11.4v-4.2H712v-5.1h-18.5v24.3h18.7v-5.2h-12.7zM719 128.1c-.1 5-1.4 5-2.2 5-.6 0-1.3-.2-1.6-.3l-.7-.3v5.2l.3.1c.7.2 2 .4 3 .4 4.4 0 6.7-3.4 7-10l.3-9.5h5.4v19h6v-24.3h-17.2l-.3 14.7zM761.6 112.9c-5.6 0-9.8 3.6-10.9 9.5h-2.9v-9h-6.1v24.3h6.1v-10.2h2.7c.7 6.6 4.9 10.8 11 10.8 6.6 0 11-5.1 11-12.7.1-7.6-4.3-12.7-10.9-12.7zm4.9 12.6c0 4.7-1.9 7.6-4.9 7.6-3.1 0-5-2.9-5-7.6 0-4.6 1.9-7.5 4.9-7.5s5 2.9 5 7.5z"/></g></svg>