<svg width="176" height="39" viewBox="0 0 176 39" fill="none" xmlns="http://www.w3.org/2000/svg" alt="Учебный центр Бруноям - логотип" class="img-fluid logo svg"><path d="M37.0304 10.019H26.8508V38.252H33.0132V28.8488H37.0211C43.8851 28.8488 47.6012 24.9678 47.6012 19.4339C47.6012 13.6897 44.1863 10.019 37.0211 10.019H37.0304ZM36.4002 23.9924H32.9853V14.8724H36.4002C39.8679 14.8724 41.5288 16.6509 41.5288 19.4339C41.5288 22.2169 39.8679 23.9982 36.4002 23.9982V23.9924ZM66.5883 10.0219H73.0425L62.3507 38.2549H55.9026L59.6715 28.8371H55.9647L48.6102 10.0219H55.0303L60.2458 23.9924H61.5031L66.5883 10.0219ZM133.838 10.0219C128.753 10.0219 126.319 12.7582 126.319 17.0305C126.319 19.796 127.337 21.9161 129.423 23.0696L125.49 28.84H132.481L135.207 23.9836H140.041V28.84H146.172V10.019L133.838 10.0219ZM140.047 19.504H135.126C133.344 19.504 132.491 18.5432 132.491 17.0422C132.491 15.5412 133.335 14.5804 135.126 14.5804H140.041L140.047 19.504ZM176 10.0219V28.8517H169.862V18.7418L166.758 23.9982H160.179L157.075 18.7418V28.8488H150.934V10.019H157.665L163.464 19.0484L169.26 10.019L176 10.0219ZM111.675 9.32396C104.243 9.32396 100.406 13.2663 100.406 19.431C100.406 25.5956 104.243 29.538 111.675 29.538C119.107 29.538 122.944 25.5985 122.944 19.431C122.944 13.2634 119.107 9.32396 111.675 9.32396ZM111.675 24.4509C108.201 24.4509 106.537 22.4943 106.537 19.431C106.537 16.3676 108.201 14.411 111.675 14.411C115.149 14.411 116.816 16.3676 116.816 19.431C116.816 22.4943 115.149 24.4509 111.675 24.4509ZM96.6678 10.0161V28.8459H90.5395V21.8577H82.4212V28.8429H76.2805V10.0131H82.4212V16.9984H90.5488V10.0131L96.6678 10.0161ZM13.2127 9.65979C9.58668 9.65979 6.93544 11.0557 5.29627 14.0022L4.96099 13.8825C5.87371 10.3782 9.3911 8.3194 13.8212 7.55721C20.8125 6.35699 22.4921 3.42213 22.3865 0.627441H15.6746C15.212 1.56192 14.9481 2.13429 12.477 2.67162C4.20659 4.42377 0 8.93849 0 16.5428C0 25.2861 4.50773 29.5438 11.6419 29.5438C20.6263 29.5438 23.1533 24.4071 23.1533 19.3404C23.1533 13.3948 19.192 9.66855 13.2189 9.66855L13.2127 9.65979ZM11.8468 24.4596C8.37282 24.4596 6.70881 22.5527 6.70881 19.4952C6.70881 16.4377 8.37282 14.5308 11.8468 14.5308C15.3207 14.5308 16.9878 16.4377 16.9878 19.4952C16.9878 22.5527 15.3207 24.4596 11.8468 24.4596Z" fill="black"></path></svg>
