<?xml version="1.0" standalone="no"?>
<!DOCTYPE svg PUBLIC "-//W3C//DTD SVG 20010904//EN"
 "http://www.w3.org/TR/2001/REC-SVG-20010904/DTD/svg10.dtd">
<svg version="1.0" xmlns="http://www.w3.org/2000/svg"
 width="145.000000pt" height="41.000000pt" viewBox="0 0 145.000000 41.000000"
 preserveAspectRatio="xMidYMid meet">

<g transform="translate(0.000000,41.000000) scale(0.100000,-0.100000)"
fill="#000000" stroke="none">
<path d="M110 395 c0 -13 75 -15 615 -15 540 0 615 2 615 15 0 13 -75 15 -615
15 -540 0 -615 -2 -615 -15z"/>
<path d="M98 223 c-9 -16 -26 -38 -38 -50 l-21 -23 26 0 c15 0 24 5 22 13 -1
8 13 13 42 15 36 3 43 1 38 -12 -5 -13 1 -16 31 -16 27 1 33 3 21 10 -9 5 -28
27 -44 50 -33 47 -54 51 -77 13z m42 -13 c9 -18 8 -20 -15 -20 -23 0 -24 2
-15 20 6 11 13 20 15 20 2 0 9 -9 15 -20z"/>
<path d="M271 240 c9 -5 28 -27 44 -50 15 -22 35 -40 44 -40 9 0 29 20 46 45
16 24 37 46 45 49 8 2 1 4 -17 5 -22 1 -31 -3 -28 -11 2 -7 -6 -25 -18 -41
l-23 -27 -22 30 c-13 17 -20 35 -17 40 4 6 -10 10 -32 10 -28 -1 -34 -3 -22
-10z"/>
<path d="M508 243 c16 -6 16 -80 0 -86 -7 -3 24 -6 70 -6 45 -1 82 3 82 8 0 4
-22 6 -50 3 -47 -4 -50 -3 -50 18 0 20 4 22 35 17 26 -4 35 -2 35 8 0 10 -9
12 -35 8 -29 -5 -35 -3 -35 12 0 15 7 17 50 13 28 -3 50 -1 50 3 0 5 -37 9
-82 8 -46 0 -77 -3 -70 -6z"/>
<path d="M738 243 c6 -2 12 -22 12 -43 0 -21 -6 -41 -12 -43 -7 -3 3 -5 22 -5
19 0 29 2 23 5 -13 5 -19 63 -7 63 4 0 29 -16 55 -35 66 -47 79 -46 79 9 0 26
5 46 13 49 6 3 -6 5 -28 5 -22 0 -32 -2 -22 -5 11 -3 17 -14 17 -34 0 -16 -3
-29 -6 -29 -4 0 -29 16 -55 35 -29 21 -60 35 -77 34 -15 0 -21 -3 -14 -6z"/>
<path d="M1008 243 c6 -2 12 -22 12 -43 0 -44 10 -50 79 -50 55 0 71 12 71 56
0 18 6 35 13 37 6 3 -4 6 -23 6 -23 0 -30 -2 -22 -8 8 -5 12 -22 10 -42 -3
-33 -4 -34 -48 -34 -44 0 -45 1 -48 34 -2 20 2 37 10 42 8 6 -2 8 -27 8 -22 0
-34 -3 -27 -6z"/>
<path d="M1258 243 c6 -2 12 -22 12 -43 0 -21 -6 -41 -12 -43 -7 -3 24 -6 70
-6 45 -1 82 3 82 8 0 4 -22 6 -50 3 -47 -4 -50 -3 -50 18 0 20 4 22 35 17 26
-4 35 -2 35 8 0 10 -9 12 -35 8 -29 -5 -35 -3 -35 12 0 15 7 17 50 13 28 -3
50 -1 50 3 0 5 -37 9 -82 8 -46 0 -77 -3 -70 -6z"/>
<path d="M110 15 c0 -13 76 -15 620 -15 544 0 620 2 620 15 0 13 -76 15 -620
15 -544 0 -620 -2 -620 -15z"/>
</g>
</svg>
