<?xml version="1.0" encoding="UTF-8"?>
<!DOCTYPE svg PUBLIC "-//W3C//DTD SVG 1.1//EN" "http://www.w3.org/Graphics/SVG/1.1/DTD/svg11.dtd">
<!-- Creator: CorelDRAW -->
<svg xmlns="http://www.w3.org/2000/svg" xml:space="preserve" width="81.2556mm" height="105.7mm" version="1.1" style="shape-rendering:geometricPrecision; text-rendering:geometricPrecision; image-rendering:optimizeQuality; fill-rule:evenodd; clip-rule:evenodd"
viewBox="0 0 8123.34 10567.11"
 xmlns:xlink="http://www.w3.org/1999/xlink">
 <defs>
  <style type="text/css">
   <![CDATA[
    .fil16 {fill:#573835}
    .fil15 {fill:#5C413E}
    .fil12 {fill:#783B20}
    .fil21 {fill:#7EB6D8}
    .fil20 {fill:#90C6E5}
    .fil18 {fill:#A7D3EB}
    .fil6 {fill:#B2622E}
    .fil14 {fill:#BD855C}
    .fil23 {fill:#BDB1B0}
    .fil5 {fill:#C36620}
    .fil17 {fill:#D7EDF6}
    .fil13 {fill:#DCA779}
    .fil3 {fill:#E27E27}
    .fil9 {fill:#E4B58E}
    .fil22 {fill:#E9DFDE}
    .fil2 {fill:#ED9733}
    .fil8 {fill:#EECDB6}
    .fil11 {fill:#F0C7A5}
    .fil7 {fill:#F0D4C3}
    .fil1 {fill:#F39C29}
    .fil4 {fill:#F6BC67}
    .fil0 {fill:#F7B244}
    .fil10 {fill:#F8E3D3}
    .fil19 {fill:#FEFEFE}
   ]]>
  </style>
 </defs>
 <g id="Слой_x0020_1">
  <metadata id="CorelCorpID_0Corel-Layer"/>
  <polygon class="fil0" points="3836.73,0 3328.54,423.21 2185.51,550.4 3794.52,0 "/>
  <path class="fil1" d="M3836.73 0l232.72 0c47.76,12.22 89.42,42.21 136.07,57.76 89.42,29.99 183.84,40.54 276.03,60.53 81.65,17.22 162.74,34.44 244.37,51.1 20.55,8.34 38.33,21.1 52.22,38.33 6.11,7.22 11.11,15.55 15.55,23.87l-177.73 35.55c61.09,-2.22 122.75,-3.89 183.84,-5 62.76,-1.11 126.08,-18.32 186.06,-2.78 16.67,4.45 32.22,10.56 48.33,16.67 32.21,12.22 64.98,27.21 98.86,22.21 21.1,-3.33 41.1,-11.11 58.31,-23.32l148.29 42.77c-51.1,45.54 -98.3,94.97 -142.74,147.18 -19.43,22.77 -38.87,46.1 -56.09,70.53 -10,13.89 -18.32,29.44 -29.99,42.22 -34.99,39.43 -78.87,71.64 -131.07,78.31 -33.32,4.44 -66.09,-6.67 -98.86,-13.89 -75.53,-16.11 -152.73,-25.55 -229.38,-37.21 -207.16,-31.1 -415.45,-56.09 -624.28,-75.54 -135.51,-35.54 -274.37,-59.98 -413.77,-73.31 -87.76,-8.33 -175.51,-12.22 -263.82,-11.67 -6.11,3.89 -13.89,2.78 -18.88,-2.22 -5,-5 -6.11,-12.78 -2.22,-18.88 90.53,-78.31 182.17,-156.07 274.37,-232.72 77.2,-64.42 155.52,-127.74 233.83,-190.5z"/>
  <path class="fil2" d="M5191.36 274.92c-23.88,32.21 -61.65,52.21 -102.19,53.32 -43.33,1.11 -72.21,-51.1 -114.97,-59.98 -59.43,-12.22 -119.97,13.89 -180.51,13.89 -74.98,0 -150.51,-4.44 -224.94,-13.89l224.94 -36.66c-4.44,-8.33 -9.44,-16.66 -15.55,-23.87 -13.89,-17.23 -31.66,-29.99 -52.22,-38.33 66.09,13.89 131.63,28.33 197.73,43.33 89.43,19.99 178.84,40.54 267.71,62.2z"/>
  <path class="fil0" d="M5911.16 1164.12c-17.78,-19.43 -42.77,-31.1 -69.43,-32.21 -42.76,-1.67 -68.86,43.88 -99.41,77.2 -12.78,13.89 -24.99,27.77 -37.21,42.21 -26.1,30.55 -53.88,59.98 -81.09,89.43 -31.1,33.32 -62.21,66.09 -93.86,98.3 -82.2,-117.75 -162.18,-237.16 -239.38,-357.68 -56.64,-88.31 -101.08,-184.95 -164.95,-268.26 -43.88,-56.65 -92.74,-109.41 -146.07,-157.18 48.33,-17.22 92.75,-43.88 131.07,-78.31 12.78,-11.67 19.99,-27.77 29.99,-42.22 17.23,-24.43 36.66,-47.76 56.09,-70.53 44.44,-52.21 91.64,-101.64 142.74,-147.18 62.2,93.85 124.42,187.17 187.17,280.47 127.2,189.4 254.93,378.23 384.34,565.96z"/>
  <path class="fil3" d="M3188.58 1728.42c15.55,6.66 18.32,27.76 5,38.32 -7.78,6.11 -19.44,0 -29.99,-2.22 -60.54,-12.78 -121.64,-23.33 -182.18,-36.1 -167.17,-34.99 -337.68,-52.77 -506.52,-77.76 -234.39,-34.99 -468.76,-68.87 -703.7,-101.08 302.7,-100.53 605.94,-198.29 910.3,-294.37 273.82,-86.64 548.19,-171.06 823.12,-253.82 -38.33,-23.32 -78.32,-42.76 -120.53,-57.75 -61.65,-22.77 -129.4,-23.88 -193.28,-39.99l-2.22 -0.56 -7.78 -1.67c-69.43,-15 -134.96,-43.32 -203.28,-62.2 -49.43,-13.89 -99.41,-23.88 -148.29,-37.77 -24.43,-7.22 -48.88,-15.55 -73.87,-22.21 -43.32,-11.66 -88.31,-15.55 -131.62,-27.77l-132.19 -38.32c-66.64,-19.43 -133.29,-37.21 -199.95,-57.2 -54.43,-16.11 -111.08,-24.44 -161.62,-49.44l-42.22 -21.1 0 -5.55 -7.22 -16.11c26.1,2.22 52.77,-2.23 76.65,-12.78 5,-2.22 10,-5 15,-7.78 206.61,-19.99 413.22,-41.1 619.27,-64.42 174.95,-19.44 349.35,-40.55 523.75,-62.76 5,4.44 10,9.44 15,14.44 2.22,2.23 3.89,4.45 6.11,6.67 22.22,10 44.44,19.99 67.21,29.99 26.65,11.67 53.87,22.77 81.09,33.88 258.26,107.75 513.75,221.61 767.01,341.02 294.36,138.85 587.06,281.03 871.43,438.77l10 5.55 253.81 133.85c-63.31,-5.55 -125.52,-14.44 -187.72,-27.76 -67.21,-14.45 -130.52,-46.11 -198.84,-56.65l-59.98 -9.45c-79.43,-12.22 -156.63,-35.54 -234.94,-53.32 -147.74,-33.88 -295.48,-67.2 -442.66,-102.75 -238.26,-57.75 -475.98,-119.97 -712.03,-185.5 -53.33,116.08 -108.31,231.6 -163.85,346.57 -64.43,133.3 -130.52,265.49 -198.28,397.12z"/>
  <path class="fil0" d="M4027.23 529.3c-89.42,-3.89 -178.28,-12.78 -266.59,-26.65 -35.55,-5.56 -71.09,-12.23 -106.08,-19.44 -33.33,-3.33 -67.21,-5.55 -100.53,-7.22 -34.43,-1.67 -69.42,-2.78 -103.86,-2.78 12.78,0 24.44,5 33.88,13.33 6.67,6.12 11.11,13.34 13.89,21.66 -27.21,-11.11 -54.43,-22.21 -81.09,-33.88 -22.77,-10 -44.99,-19.99 -67.2,-29.99 88.31,-0.55 176.06,3.34 263.82,11.67 139.4,13.33 278.25,37.77 413.77,73.31z"/>
  <path class="fil4" d="M5530.16 1439.05l-42.21 0 -42.77 -21.1 -63.32 0c-135.51,-51.66 -258.81,-130.51 -388.77,-194.39 -251.05,-123.31 -504.31,-242.16 -757.57,-360.46 -246.04,-114.97 -492.65,-228.27 -739.8,-340.46 1.66,-13.34 -2.22,-26.66 -11.67,-36.11 -8.89,-9.44 -21.1,-13.88 -33.88,-13.33 34.44,0 69.43,1.11 103.86,2.78 33.32,1.67 67.2,3.89 100.53,7.22 34.99,7.22 70.53,13.89 106.08,19.44 88.31,13.88 177.73,18.32 266.59,26.65l391.01 37.77c76.09,7.22 151.62,17.78 227.16,28.88 112.19,16.67 223.27,36.66 334.35,59.98 53.33,47.77 102.19,100.52 146.07,157.18 63.87,83.31 108.31,179.95 164.95,268.26 77.21,120.53 157.19,239.93 239.38,357.68z"/>
  <path class="fil1" d="M3143.03 886.42c87.2,-3.88 173.84,12.78 253.26,48.33 43.33,19.43 84.43,44.43 121.64,73.87 -274.37,84.42 -548.74,168.84 -823.11,253.82 -303.81,93.85 -607.61,188.28 -911.42,282.69 32.21,-143.85 66.09,-287.69 101.08,-430.99 35.55,-146.62 54.44,-297.7 110.53,-437.1l2.22 -5.56 44.43 -77.2c12.23,-1.11 23.88,-1.66 36.1,-1.66 7.78,0 15.56,-1.12 23.33,0l42.21 21.1c-0.56,5.55 -0.56,11.11 0,16.66 1.11,7.23 3.33,13.89 6.67,20.55 24.99,8.33 49.99,16.67 74.98,25.54 27.76,10 55.53,20.55 83.31,31.66 7.78,2.78 15,5.56 22.77,8.33 56.64,18.88 116.08,26.11 175.5,21.66 -1.66,-3.33 -2.77,-6.67 -3.33,-10.55 -0.56,-4.45 0,-8.89 1.11,-13.34 76.09,12.22 151.07,29.44 224.39,51.66 38.32,11.67 76.09,24.43 113.3,38.32 1.11,16.11 6.67,31.66 15.55,45.55 22.77,34.99 73.32,32.21 116.64,39.99 24.44,4.44 48.32,9.44 72.76,13.33 39.99,6.67 79.98,11.67 120.52,16.11 8.89,1.11 18.33,-2.22 24.44,-8.89 18.88,-20.54 -44.44,-51.65 -48.88,-23.88z"/>
  <polygon class="fil2" points="2540.42,729.24 2545.41,751.45 2366.57,732.58 2121.09,647.04 2126.64,600.39 2370.46,676.48 2383.24,674.82 "/>
  <path class="fil0" d="M1296.87 3090.27c94.42,-351.01 194.4,-699.81 300.48,-1047.49 47.21,-154.96 95.52,-309.36 144.96,-463.2 -107.75,62.2 -213.27,127.75 -317.69,195.5 -76.09,49.99 -142.18,116.08 -224.38,154.96 -42.77,20.55 -89.43,33.33 -136.63,38.33 77.76,-110.53 156.07,-221.05 234.94,-331.58 229.38,-322.13 461.54,-642.04 696.48,-959.74 -38.33,145.52 -74.98,291.03 -110.53,437.1 -34.99,143.3 -68.87,287.14 -101.08,430.99 237.16,34.99 473.76,70.54 710.92,106.64 228.83,34.43 457.65,69.42 686.48,104.97l0 21.1c-11.11,4.45 -22.77,8.89 -33.88,13.33 -11.67,4.45 -23.32,8.34 -34.99,12.23 2.78,3.89 4.44,8.33 5,13.33 0,1.11 0,2.78 0,3.89 -268.26,190.5 -537.07,379.9 -807,568.17 -336.58,235.5 -674.27,469.32 -1013.06,701.48z"/>
  <path class="fil2" d="M3214.68 900.86c-20.55,18.32 -46.66,29.99 -74.43,32.21 -36.1,3.33 -67.76,-24.99 -103.86,-30.54 -23.32,-3.89 -48.32,4.44 -71.64,0 -51.66,-9.45 -108.86,-15 -134.96,-57.76 -9.45,-15 -15,-32.21 -17.23,-49.99l96.64 19.99c22.77,4.44 43.32,16.11 64.98,23.32 78.87,26.66 158.85,47.21 240.49,62.76z"/>
  <path class="fil5" d="M3166.91 1741.18c79.98,-133.84 153.29,-271.59 219.38,-412.66 54.44,-115.53 103.86,-232.72 148.3,-352.13 246.04,66.65 493.2,129.96 740.91,190.51 287.7,70.54 575.95,136.63 865.31,198.84 -141.07,-7.78 -281.58,-26.66 -419.33,-57.76 -56.09,-12.78 -110.53,-32.77 -166.06,-46.66 -62.76,-15.55 -126.64,-27.21 -190.51,-35.54 -43.32,-5.56 -86.64,-7.78 -128.85,-18.32 -49.43,-12.23 -93.86,-42.22 -143.85,-49.44 -46.65,-6.67 -96.63,22.77 -139.96,5.56 -23.87,-9.45 -37.76,-36.66 -61.09,-47.77 -35.54,-17.22 -72.75,-38.32 -109.97,-27.77 -17.77,5 -34.43,15 -47.76,28.32 11.66,8.34 23.32,16.12 35.54,23.33 13.89,8.33 27.77,17.22 42.21,23.88 23.88,11.11 51.1,16.11 72.76,31.1 13.89,9.44 24.99,22.77 36.66,34.43 17.22,17.22 34.43,34.44 55.53,46.1 36.66,20.55 78.32,31.66 120.53,31.66 21.1,23.32 43.88,44.99 67.76,64.98 16.66,14.44 32.21,30.55 52.76,38.88 21.11,8.89 46.66,1.11 68.32,8.89 37.77,13.33 64.42,46.1 94.97,72.2 5.55,4.44 10.55,9.44 15.55,14.44 42.22,29.99 86.09,57.21 131.07,82.21 67.21,37.21 137.19,68.87 209.39,94.41 -55.54,17.22 -113.3,28.32 -171.62,32.21 -38.32,2.78 -76.09,2.78 -114.41,-0.55 -73.32,-5 -146.07,-8.89 -219.39,-12.22 -96.08,-4.45 -192.17,-12.23 -288.25,-8.89 -79.42,2.77 -158.29,13.33 -237.72,18.88 -179.39,12.77 -358.79,22.21 -538.18,28.87z"/>
  <path class="fil6" d="M6016.69 4339.36c-21.65,-18.32 -38.32,-42.21 -47.21,-69.42 -15,-46.1 -8.33,-96.64 -16.11,-144.41 -11.67,-70.53 -25.54,-139.96 -42.21,-209.38 1.67,-37.21 4.44,-73.87 8.89,-110.53 3.33,-26.65 7.22,-53.32 12.22,-79.98 61.09,-22.76 113.86,-63.86 151.07,-117.74 61.09,-87.76 74.43,-200.51 35.55,-300.48 -58.32,-13.89 -117.75,-24.99 -177.18,-33.88 -38.32,-5.55 -76.64,-10.55 -115.52,-13.89 -13.33,-52.21 -25.55,-104.41 -36.66,-157.18 -10,-46.1 -12.78,-93.86 -26.65,-138.85l-38.88 -51.65c-97.75,-129.96 -199.4,-257.16 -302.7,-382.68 -61.65,-74.98 -130.52,-143.85 -187.73,-222.16 -14.44,-19.99 -27.21,-41.11 -42.77,-59.98 -32.21,-39.44 -67.2,-75.54 -104.97,-109.42 -41.1,-55.53 -82.75,-111.08 -124.41,-166.62 -39.99,-53.32 -68.31,-116.63 -119.97,-157.73 -51.1,-40.55 -111.64,-67.21 -176.06,-79.43 -52.77,-10 -108.31,11.67 -160.52,1.11 -3.89,-0.55 -8.33,-0.55 -12.22,0.56l-42.21 -21.1c38.32,3.33 76.09,3.33 114.41,0.55 58.32,-3.89 116.08,-15 171.62,-32.21 -72.2,-25.54 -142.18,-57.2 -209.39,-94.41 -44.99,-24.99 -88.86,-52.22 -131.07,-82.21 -5,-5 -10,-10 -15.55,-14.44 -30.55,-26.1 -57.2,-58.87 -94.97,-72.2 -21.66,-7.78 -47.21,0 -68.32,-8.89 -20.54,-8.33 -36.1,-24.44 -52.76,-38.88 -23.88,-19.99 -46.66,-41.66 -67.76,-64.98 -42.21,0 -83.87,-11.11 -120.53,-31.66 -21.1,-11.66 -38.32,-28.88 -55.53,-46.1 -11.67,-11.66 -22.77,-24.99 -36.66,-34.43 -21.66,-15 -48.88,-19.44 -72.76,-31.1 -14.44,-7.23 -27.76,-16.11 -42.21,-23.88 -15,-7.78 -30.54,-15.56 -46.1,-22.21 19.43,-19.99 45.55,-32.77 73.31,-36.11 31.66,-3.88 61.65,12.78 91.64,24.99 21.1,8.89 41.66,17.23 63.31,23.88 45.55,14.45 93.86,18.33 141.07,27.77 48.33,9.45 95.53,24.44 144.41,28.32 59.42,4.45 119.41,-20.54 177.73,-9.44 60.53,11.67 109.41,55.54 166.61,78.31 44.99,17.78 91.64,29.99 138.85,39.99 76.65,16.67 156.07,18.33 233.28,32.77 8.88,1.67 17.77,3.33 26.65,5.56 52.77,37.21 111.08,65.53 172.73,84.98 94.41,29.43 194.95,36.65 292.7,20.54 54.98,42.21 99.41,97.19 129.4,159.96 43.88,92.75 52.77,197.73 66.09,299.92 6.67,52.21 16.67,103.31 26.66,154.96 40.55,204.39 90.54,409.89 78.31,617.05 -1.11,22.22 -2.77,44.99 -5,67.21 -3.33,32.76 -9.44,66.09 0.56,97.19 10,29.99 28.88,56.65 53.88,76.09 82.76,-135.52 167.17,-269.93 252.71,-403.78 107.19,-167.17 216.6,-332.69 328.79,-496.53 -101.08,169.4 -202.16,338.25 -303.25,507.64 -91.09,152.74 -182.17,305.48 -272.71,458.21 66.65,39.43 134.41,76.09 203.28,110.52 114.41,57.2 231.6,107.75 351.56,151.07l-338.8 1100.81z"/>
  <path class="fil3" d="M6397.7 1862.82c-197.73,-81.09 -392.67,-168.28 -585.4,-261.04 -108.86,-52.21 -217.16,-106.64 -324.35,-162.74l42.21 0c31.65,-32.21 62.76,-64.98 93.86,-98.3 27.21,-29.44 54.98,-58.87 81.09,-89.43 12.22,-14.44 24.43,-28.32 37.21,-42.21 30.55,-33.32 56.65,-78.87 99.41,-77.2 26.66,1.11 51.66,12.78 69.43,32.21 82.2,118.86 164.95,237.72 247.71,356.57 79.42,113.86 158.85,228.27 238.82,342.13z"/>
  <path class="fil5" d="M5445.18 1417.94l0 21.1c-97.75,16.11 -198.29,8.89 -292.7,-20.54 -61.65,-19.44 -119.97,-47.77 -172.73,-84.98 81.65,15.55 163.3,32.21 244.93,49.43 52.77,11.11 103.31,34.99 157.18,34.99l63.32 0z"/>
  <path class="fil5" d="M6376.59 2011.11c-112.19,163.85 -221.6,329.36 -328.79,496.53 -85.54,133.85 -169.95,268.26 -252.71,403.78 -24.99,-19.43 -43.88,-46.1 -53.88,-76.09 -10,-31.1 -3.89,-64.43 -0.56,-97.19 2.23,-22.22 3.89,-44.99 5,-67.21 10,-202.16 -52.21,-399.89 -92.74,-599.28 -11.12,-53.88 -18.33,-108.3 -25.55,-162.74 -14.44,-107.19 -29.43,-214.94 -72.76,-313.8 -25.54,-58.87 -62.76,-111.63 -109.41,-156.07l0 -21.1 42.77 21.1c108.3,53.33 215.49,110.53 324.35,162.74 192.73,92.75 387.67,179.95 585.4,261.04l43.87 101.64c-4.44,2.22 -8.88,3.33 -13.33,3.89 -2.78,0.55 -6.11,0.55 -8.89,0 -11.11,1.11 -21.1,6.11 -28.88,13.89 -7.77,7.77 -12.77,17.77 -13.89,28.87z"/>
  <path class="fil4" d="M1508.48 3217.45c-78.31,-17.78 -149.96,-56.65 -207.16,-113.3 -88.32,-87.2 -98.86,-222.16 -123.86,-346.58 -10.56,-51.1 -21.1,-102.75 -36.66,-152.74 -15.55,-50.54 -34.99,-99.41 -56.09,-147.73 -44.99,-103.86 -99.97,-208.28 -89.98,-319.36 5.56,-62.2 29.44,-121.08 68.87,-169.39 47.21,-5 93.86,-17.78 136.63,-38.33 82.2,-38.88 148.29,-104.97 224.38,-154.96 104.42,-67.75 209.94,-133.29 317.69,-195.5 -49.44,153.85 -97.75,308.25 -144.96,463.2 -106.08,347.69 -206.05,696.48 -300.48,1047.49 34.44,21.1 69.43,41.66 103.86,62.76 36.1,21.65 71.65,42.76 107.75,64.42z"/>
  <path class="fil7" d="M3900.04 3386.85l-126.63 0 -106.09 -42.22c3.34,1.11 6.67,1.11 10,0 5.56,-1.66 10,-5 12.23,-10 -19.99,-9.44 -39.99,-18.32 -59.98,-27.21 -16.67,-7.22 -32.77,-14.44 -49.44,-21.66 26.66,12.78 58.32,5 76.09,-18.32 23.88,-31.66 -52.21,-19.99 -111.63,-33.88 -19.99,-5 -41.1,-7.22 -61.65,-7.22 31.66,28.88 82.2,19.99 102.19,-17.78 13.89,-25.54 -6.66,-54.98 -17.78,-83.31 -13.88,-34.44 -18.87,-72.2 -27.76,-108.3 -8.34,-34.44 -15.56,-69.43 -26.66,-102.75 -7.22,-21.66 -17.22,-42.77 -24.43,-64.43 -18.88,-57.75 -21.11,-119.41 -33.33,-178.84 -10.55,-49.99 -21.65,-99.97 -34.43,-149.4 -18.88,-54.43 -37.77,-109.41 -56.09,-164.4 -16.11,-48.33 -31.66,-97.2 -47.77,-145.52 -10,-29.99 -23.32,-58.31 -30.55,-88.87 -7.77,-33.32 -8.33,-71.65 -34.99,-90.53 -17.77,-12.23 -39.43,-17.78 -60.53,-15 22.21,23.32 61.09,16.11 73.87,-13.34 7.22,-16.11 -5,-33.88 -11.11,-51.65 -10,-29.99 -17.23,-60.54 -29.99,-89.43 -7.78,-17.22 -16.12,-33.88 -25.55,-49.99 -12.78,9.45 -26.1,18.88 -39.99,27.21 -13.33,8.34 -27.21,15.56 -41.1,22.77 0.55,-1.67 1.11,-2.78 2.22,-4.44 1.67,-2.23 3.33,-4.45 5.56,-6.11 8.89,-15.56 20.54,-29.99 33.88,-42.22 7.77,-7.22 16.11,-13.33 24.99,-18.88 -1.67,-2.77 -2.23,-5.55 -2.78,-8.88 0,-1.67 0,-2.78 0,-4.45l0 -21.1c6.11,3.89 13.89,2.78 18.88,-2.22 5,-5 6.11,-12.78 2.22,-18.88 167.73,-3.89 335.46,-11.67 503.19,-23.32 79.43,-5.56 158.3,-11.67 237.72,-18.88 19.43,11.66 39.43,22.21 59.98,31.1 15,6.66 29.99,12.22 45.55,17.22 -10,4.44 -20.55,8.89 -30.55,13.33 -11.11,5 -24.99,5.56 -33.32,14.45 -14.45,15.55 -3.89,40.54 0.55,62.76 8.34,44.43 0,90.53 0,136.07 0,138.29 -2.22,277.14 0,415.44 3.89,251.6 2.78,502.64 1.67,754.24 0,11.66 -0.56,23.88 -2.22,35.54 -7.23,48.88 -26.66,101.08 1.11,139.41 9.44,12.77 21.65,23.88 35.54,32.21 -18.32,7.22 -36.65,13.89 -55.53,20.54 -21.66,7.78 -42.77,19.99 -65.54,21.11z"/>
  <path class="fil8" d="M4133.32 3386.85l-233.28 0c22.21,-6.67 43.88,-13.34 65.54,-21.11 18.88,-6.66 37.21,-13.33 55.53,-20.54 -13.89,-8.33 -26.1,-19.44 -35.54,-32.21 -27.77,-38.33 -8.34,-90.54 -1.11,-139.41 1.66,-11.66 2.22,-23.88 2.22,-35.54 1.11,-251.6 2.22,-502.64 -1.67,-754.24 -2.22,-138.29 0,-277.14 0,-415.44 0,-45.55 8.34,-91.64 0,-136.07 -4.44,-22.22 -15,-47.22 -0.55,-62.76 8.33,-8.89 22.21,-9.45 33.32,-14.45 10,-4.44 20.55,-8.89 30.55,-13.33 -15.56,-5 -30.55,-10.56 -45.55,-17.22 -20.55,-8.89 -40.55,-19.44 -59.98,-31.1 96.08,1.66 192.17,4.44 288.25,8.89 73.32,3.33 148.3,-5.56 219.39,12.22l42.21 21.1c25.55,12.78 45.55,54.43 59.42,35.54 2.78,-3.88 5,-8.33 6.12,-13.33 41.65,11.11 84.42,17.78 127.74,20.55 21.1,1.11 42.22,1.66 63.32,0.55 -1.11,9.45 -2.23,18.33 -2.23,27.77 0,4.44 0,9.44 0,13.89 -154.96,371.01 -303.8,744.8 -447.1,1120.8 -56.64,148.29 -112.19,296.59 -166.61,445.44z"/>
  <polygon class="fil6" points="2666.49,2418.78 2641.5,2372.68 3074.72,1883.93 3071.94,1867.82 3109.15,1832.83 3116.93,1820.61 3111.93,1803.4 3180.8,1777.84 3183.58,1791.17 3124.71,1852.27 3116.93,1862.82 "/>
  <path class="fil9" d="M5254.67 3259.66c-232.72,3.89 -464.87,22.22 -695.36,54.44 -64.43,8.89 -128.85,19.43 -193.29,30.54 68.87,-369.34 153.85,-735.35 254.38,-1096.92 39.99,-143.29 82.2,-285.47 126.63,-427.1 0,-4.45 0,-9.45 0,-13.89 0,-9.44 1.12,-18.32 2.23,-27.77 -21.1,1.11 -42.22,0.56 -63.32,-0.55 -43.32,-2.78 -86.09,-9.45 -127.74,-20.55 -0.56,5 -2.78,10 -6.12,13.33 -9.44,9.45 -23.32,-2.77 -36.1,-10.55 -10,-6.11 -17.77,-14.45 -23.32,-24.99 3.89,0 8.33,-0.56 12.22,-0.56 57.2,-2.22 115.53,-13.89 171.06,-1.66 60.54,12.77 117.2,41.1 165.51,79.98 51.66,41.1 78.31,105.52 119.97,157.73 43.88,54.98 104.97,99.97 124.41,166.62 7.78,26.66 11.67,54.44 11.67,82.2 0,7.23 1.11,13.89 -1.11,20.55 -5,13.33 -23.88,14.44 -34.99,23.32 -28.88,23.88 -57.2,48.33 -84.43,74.43 29.44,10.55 61.65,8.89 89.98,-5 31.66,-15.56 54.44,-44.44 61.65,-78.87 0.56,17.22 3.89,33.88 9.45,49.99 6.11,17.22 15,33.32 26.1,47.77 0,-7.23 0,-14.45 0.55,-21.66 1.67,-23.32 7.22,-46.1 15.56,-67.76 6.11,8.89 12.22,17.78 18.88,26.66 4.44,6.11 8.89,11.66 13.33,17.78 9.44,24.43 19.99,48.32 31.1,71.64 17.78,37.21 38.32,72.76 61.09,107.19 -15,-11.66 -36.1,-9.44 -48.88,4.45 -15.55,17.22 34.44,5.55 62.76,20.54 56.65,29.99 88.87,89.43 126.64,142.19 10,13.89 18.32,28.32 24.99,43.88 19.43,-2.78 39.99,0 57.76,8.33 32.21,15 44.99,53.32 68.86,80.53 27.22,31.11 54.44,62.21 81.65,92.75 -4.44,5 -8.33,10.56 -11.67,16.11 -5.55,9.45 -10,19.99 -12.22,31.1 7.78,0.56 15,1.12 22.77,1.67 10,0.56 19.43,0.56 29.43,0.56 29.44,37.76 10,92.74 -36.1,104.41 -17.22,4.45 -35.54,1.67 -50.54,-7.78 21.65,9.45 46.65,-1.11 54.43,-23.32 16.67,-46.1 -58.31,-81.65 -53.88,-51.1 1.11,7.22 3.34,13.89 6.67,19.99 4.44,8.89 1.11,19.99 -7.78,24.99 -8.89,5 -17.78,-15 -27.77,-12.78 -31.1,6.11 -26.1,52.21 5.56,51.66 -16.67,-11.11 -38.88,0.55 -39.43,20.54 -0.56,22.77 26.1,34.99 42.76,19.44 -13.89,0.55 -25.54,10.55 -28.32,23.88 -1.11,4.44 0.56,8.89 0,13.33 -3.89,28.88 -40.55,40.55 -60.54,63.31 -23.32,27.22 -45.54,55.54 -66.64,84.98 -63.32,-1.11 -127.19,-1.11 -190.51,0z"/>
  <path class="fil10" d="M3667.33 3344.64c-84.42,-10.55 -169.39,-21.1 -253.81,-32.21 -77.76,-10 -154.96,-20.54 -232.72,-31.66 -49.44,-11.66 -99.97,-18.87 -151.07,-21.65 -34.44,-1.67 -68.87,0.55 -103.31,0.55l-402.11 0c-78.87,0 -157.18,-16.11 -236.05,-12.22 -41.66,1.67 -82.76,6.11 -123.86,12.22 -0.55,-96.08 19.44,-191.61 59.43,-279.36 51.65,-113.3 146.62,-200.51 222.16,-300.48 67.76,-89.42 136.07,-178.28 205.49,-266.59 119.97,-131.63 236.61,-266.04 348.79,-404.34 39.44,-48.32 78.32,-97.19 116.64,-146.07 13.89,-7.22 27.77,-14.44 41.1,-22.77 13.89,-8.33 27.21,-17.77 39.99,-27.21 9.44,16.11 17.78,32.77 25.55,49.99 12.77,28.88 19.99,59.43 29.99,89.43 6.11,17.77 18.32,35.54 11.11,51.65 -12.78,29.44 -51.66,36.66 -73.87,13.34 21.1,-2.78 42.77,2.77 60.53,15 26.66,18.87 27.22,57.2 34.99,90.53 7.23,30.55 20.55,58.87 30.55,88.87 16.11,48.32 31.66,97.19 47.77,145.52 18.32,54.98 37.21,109.97 56.09,164.4 12.78,49.43 23.88,99.41 34.43,149.4 12.22,59.43 14.45,121.09 33.33,178.84 7.22,21.66 17.22,42.77 24.43,64.43 11.11,33.32 18.32,68.31 26.66,102.75 8.89,36.1 13.89,73.86 27.76,108.3 11.12,28.32 31.66,57.76 17.78,83.31 -19.99,37.77 -70.53,46.66 -102.19,17.78 20.55,0 41.66,2.22 61.65,7.22 59.42,13.89 135.51,2.22 111.63,33.88 -17.77,23.32 -49.43,31.1 -76.09,18.32 16.67,7.23 32.77,14.45 49.44,21.66 19.99,8.89 39.99,17.78 59.98,27.21 -2.23,5 -6.67,8.34 -12.23,10 -3.33,1.11 -6.66,1.11 -10,0z"/>
  <polygon class="fil3" points="1656.77,3259.66 1635.11,3259.66 1508.48,3217.45 1296.87,3090.27 3116.93,1820.61 3109.15,1832.83 3071.94,1867.82 3074.72,1883.93 "/>
  <path class="fil11" d="M4366.03 3344.64c-39.43,7.78 -79.42,15.56 -118.86,22.77 -37.76,6.67 -76.09,13.33 -113.85,19.44 54.43,-148.85 109.97,-297.15 166.61,-445.44 143.3,-376.01 292.14,-749.8 447.1,-1120.8 -44.43,141.63 -86.64,283.81 -126.63,427.1 -100.53,361.57 -185.51,727.58 -254.38,1096.92z"/>
  <path class="fil5" d="M1656.77 3259.66c196.62,-192.17 393.23,-384.89 589.29,-578.17 289.36,-284.92 578.17,-570.4 866.42,-856.44l-53.87 79.98c-48.88,72.21 -109.97,134.96 -166.07,202.17 -79.42,95.52 -157.18,192.72 -241.04,284.92 -38.32,42.21 -76.09,86.09 -117.19,125.52 -34.43,32.77 -71.65,63.87 -96.08,104.42 -6.11,10.55 -10.56,22.21 -16.11,32.76 -16.11,29.99 -37.77,56.65 -58.87,83.87 -43.32,55.54 -94.41,106.08 -133.85,164.41 -24.99,37.21 -41.66,81.64 -77.2,107.74 -22.21,16.12 -49.44,23.33 -75.54,32.77 -32.76,11.67 -66.09,20.55 -99.97,27.21 -22.76,22.22 -47.76,42.22 -74.98,59.43 -26.1,16.67 -53.88,30.54 -82.75,41.66 16.66,-28.88 44.99,103.85 18.32,84.42 -8.33,-6.11 -13.33,-15.56 -19.99,-23.32 -11.67,-13.89 -22.77,-30.55 -39.99,-34.44 -21.66,-4.44 -38.88,17.22 -59.43,27.77 -20.54,10.56 -41.1,21.66 -61.09,33.32z"/>
  <path class="fil12" d="M6355.48 3238.56c-119.97,-43.32 -237.16,-93.86 -351.56,-151.07 -68.87,-34.43 -136.63,-71.09 -203.28,-110.52 90.54,-152.74 181.62,-305.48 272.71,-458.21 101.08,-169.39 202.16,-338.24 303.25,-507.64 1.12,-11.11 6.12,-21.1 13.89,-28.87 7.78,-7.78 17.78,-12.78 28.88,-13.89 -11.11,223.27 -22.21,446.54 -33.32,669.82 -10,199.95 -19.99,400.44 -30.55,600.39z"/>
  <path class="fil13" d="M5085.83 2137.75c38.33,32.77 73.87,69.43 104.97,109.42 15,19.43 29.44,39.43 42.77,59.98l-21.1 0c-4.44,-6.12 -8.89,-11.67 -13.33,-17.78 -6.67,-8.89 -12.78,-17.78 -18.88,-26.66 -8.34,21.66 -13.89,44.44 -15.56,67.76 -0.55,7.22 -0.55,14.44 -0.55,21.66 -11.11,-14.45 -19.99,-30.55 -26.1,-47.77 -5.56,-16.11 -8.89,-32.77 -9.45,-49.99 -7.22,34.43 -29.99,63.31 -61.65,78.87 -28.32,13.89 -60.53,15.55 -89.98,5 27.22,-26.1 55.54,-50.55 84.43,-74.43 11.11,-8.89 29.99,-10 34.99,-23.32 2.22,-6.67 1.67,-13.89 1.11,-20.55 -2.78,-27.76 -6.67,-54.98 -11.67,-82.2z"/>
  <path class="fil13" d="M5741.76 2920.86c-0.55,0 -1.11,0 -1.66,-0.55 -0.56,-0.56 -1.11,-1.11 -1.67,-1.67 -9.44,-6.11 -19.43,-12.78 -28.88,-18.88 -10,-6.11 -19.43,-12.77 -29.43,-18.88 0,-0.55 0,-1.11 -0.56,-1.66 -0.55,-0.56 -0.55,-0.56 -1.11,-0.56 -27.21,-30.54 -54.43,-61.64 -81.65,-92.75 -23.87,-27.21 -36.65,-65.53 -68.86,-80.53 -17.78,-8.33 -38.33,-11.11 -57.76,-8.33 -6.67,-15.56 -15,-29.99 -24.99,-43.88 -37.77,-52.77 -69.98,-112.2 -126.64,-142.19 -28.32,-15 -78.31,-3.33 -62.76,-20.54 12.78,-13.89 33.88,-16.11 48.88,-4.45 -22.77,-34.43 -43.32,-69.98 -61.09,-107.19 -11.11,-23.32 -21.66,-47.21 -31.1,-71.64l21.1 0c62.76,73.86 125.53,147.73 187.73,222.16 108.3,129.4 214.94,259.93 320.46,391.55z"/>
  <path class="fil6" d="M1952.8 4318.26c-57.2,-196.06 -115.52,-391.55 -174.39,-587.06 -47.21,-157.18 -94.97,-314.35 -143.29,-471.54l21.65 0c20.55,-10.55 40.55,-22.76 61.09,-33.32 20.55,-10.56 37.77,-32.21 59.43,-27.77 17.22,3.89 28.32,20.55 39.99,34.44 6.67,7.77 11.67,17.22 19.99,23.32 26.66,19.43 -1.67,-113.3 -18.32,-84.42 28.87,-11.12 56.64,-24.99 82.75,-41.66 27.22,-17.22 52.22,-37.21 74.98,-59.43 33.88,-6.66 67.21,-15.55 99.97,-27.21 26.1,-9.44 53.33,-16.66 75.54,-32.77 35.54,-26.1 52.21,-70.53 77.2,-107.74 39.44,-58.32 89.43,-109.42 133.85,-164.41 21.66,-26.65 43.32,-53.32 58.87,-83.87 7.22,-14.44 5,-32.21 13.89,-45.54 24.99,-37.21 66.64,-59.98 98.3,-91.64 40.55,-40.54 79.43,-82.76 117.19,-125.52l0 21.1c-69.42,88.31 -137.73,177.17 -205.49,266.59 -75.54,99.97 -170.51,187.18 -222.16,300.48 -39.99,87.76 -59.98,183.28 -59.43,279.36l-296.03 21.1c0,1.67 0,2.78 0,4.45 0,10 -1.11,19.43 -1.67,29.43 -3.33,39.99 -6.11,79.98 -2.77,119.97 5.55,66.65 7.77,137.19 47.76,189.4 27.22,35.54 63.32,63.31 104.42,79.98l6.66 0 15 -3.89c3.34,8.33 7.23,17.22 10.56,25.54 3.33,8.34 7.22,16.12 10.56,24.44l14.44 -3.33 6.67 0 -21.1 126.63c-8.34,48.88 -14.45,97.75 -21.11,146.63 -7.22,53.32 -14.44,106.08 -21.1,159.4 -3.89,18.33 -7.77,36.66 -11.11,54.98 -7.22,38.33 -12.78,77.21 -17.22,116.08l-35.55 -32.21z"/>
  <path class="fil13" d="M5572.37 3111.37c-1.11,-4.44 -1.11,-8.89 0,-13.33 2.78,-13.34 14.44,-23.33 28.32,-23.88 -16.66,15.55 -43.32,3.33 -42.76,-19.44 0.55,-19.99 22.76,-31.65 39.43,-20.54 -31.66,0.55 -36.66,-45.55 -5.56,-51.66 10,-2.22 18.88,17.78 27.77,12.78 8.89,-5 12.22,-16.11 7.78,-24.99 -3.33,-6.11 -5.56,-12.78 -6.67,-19.99 -4.44,-30.55 70.54,5 53.88,51.1 -7.78,22.21 -32.77,32.77 -54.43,23.32 15,9.45 33.32,12.23 50.54,7.78 46.1,-11.67 65.54,-66.65 36.1,-104.41 -10,0 -19.43,0 -29.43,-0.56 -7.78,-0.55 -15,-1.11 -22.77,-1.67 2.22,-11.11 6.67,-21.65 12.22,-31.1 3.34,-5.55 7.23,-11.11 11.67,-16.11 0.56,0 0.56,0 1.11,0.56 0.56,0.55 0.56,1.11 0.56,1.66 10,6.12 19.43,12.78 29.43,18.88 9.45,6.11 19.44,12.78 28.88,18.88 0.56,0.56 1.11,1.11 1.67,1.67 0.55,0.55 1.11,0.55 1.66,0.55l21.11 42.77c-17.78,28.33 -38.88,53.33 -63.87,75.54 -36.66,32.77 -79.98,57.2 -126.64,72.2z"/>
  <path class="fil14" d="M5826.19 3259.66l-21.1 0c-8.89,0 -17.22,5 -21.66,12.23 -2.22,3.88 -3.89,7.77 -3.89,12.22 -13.33,-5.56 -26.65,-10.56 -40.54,-14.45 -22.77,-6.66 -46.1,-11.11 -69.98,-12.77 -27.22,-0.56 -54.44,-1.12 -81.65,-1.12 -47.21,0 -94.97,1.12 -142.18,3.89 20.54,-29.43 42.77,-57.75 66.64,-84.98 19.44,-22.21 39.44,-43.32 60.54,-63.31 46.66,-15 89.98,-39.43 126.64,-72.2 24.99,-22.21 46.1,-47.21 63.87,-75.54 24.43,52.21 42.21,107.75 52.76,164.41 7.78,43.32 11.67,87.75 10.56,131.62z"/>
  <path class="fil12" d="M2016.12 3703.99c-41.1,-16.67 -77.2,-44.44 -104.42,-79.98 -39.99,-52.21 -42.21,-122.75 -47.76,-189.4 -3.34,-39.99 -0.56,-79.98 2.77,-119.97 0.56,-10 1.67,-19.43 1.67,-29.43 0,-1.67 0,-2.78 0,-4.45l296.03 -21.1c-48.32,22.77 -99.97,37.22 -153.29,42.77 -19.44,2.22 -39.44,2.78 -58.87,2.78 -11.11,47.21 -17.78,95.52 -20.55,144.4 -1.66,28.33 -1.66,57.21 0,85.54 2.23,6.67 1.11,13.89 -2.77,19.43 -9.45,13.34 -29.99,12.23 -37.22,-2.77 19.44,22.76 38.88,45.54 57.76,68.31 22.77,27.77 44.99,55.53 66.65,83.87z"/>
  <path class="fil15" d="M5890.06 3682.88c-1.67,0 -2.78,0 -4.45,0 -3.33,0 -6.11,1.11 -8.89,2.22l-50.54 -65.54c-10.56,-13.89 -18.32,-29.99 -28.88,-43.88 -16.67,-22.21 -34.99,-43.32 -55.54,-62.2 -18.87,-31.65 -46.1,-57.76 -78.86,-74.98 -49.44,-26.65 -109.42,-22.21 -164.41,-34.43 -60.53,-13.34 -121.08,-27.77 -181.62,-42.21 -67.2,9.44 -134.4,19.43 -201.6,29.99 -73.87,11.66 -145.52,37.21 -219.94,37.21l-169.4 0c16.11,-33.88 39.99,-63.87 70.54,-86.09 67.76,-49.99 163.29,-27.22 248.26,-42.77 70.54,-12.78 138.85,-40.55 209.94,-40.55l190.51 0c46.65,0 92.75,-7.22 139.4,-6.66 28.33,0.55 56.09,1.66 84.43,3.89 23.88,1.66 47.21,6.11 69.98,12.77 13.89,3.89 27.21,8.89 40.54,14.45 0,-4.45 1.67,-8.34 3.89,-12.22 4.45,-7.23 12.78,-12.23 21.66,-12.23 57.76,21.66 116.08,39.44 176.06,53.88 26.1,6.11 52.77,11.67 79.42,16.67 10.56,46.1 17.23,92.75 19.99,139.96 1.67,28.88 1.67,57.2 0,86.09 -17.77,0.56 -36.1,-2.78 -52.21,-10.56 -21.1,-9.44 -47.77,-16.11 -50.54,-37.21 -2.78,-19.99 8.33,-39.43 27.21,-46.65 -7.22,-21.11 -28.33,-34.44 -50.55,-32.77 -22.21,1.66 -36.1,23.32 -44.99,44.99 -5.55,13.33 -16.66,23.88 -29.99,28.88 -16.11,6.11 -34.99,-13.89 -51.65,-8.89 -38.33,11.66 0.55,66.09 16.66,113.86 9.45,28.32 24.99,53.88 45.55,74.98z"/>
  <path class="fil15" d="M2122.2 3619.56c27.21,-33.32 54.43,-66.09 82.2,-98.3 27.77,-32.21 56.09,-64.42 84.43,-96.08 -32.77,15 -66.65,27.21 -101.64,36.66 -23.88,6.66 -49.99,3.33 -73.31,12.22 -16.12,6.11 -27.22,22.21 -43.33,27.77 -44.99,16.11 -91.63,27.21 -138.85,33.32 -1.66,-28.32 -1.66,-57.2 0,-85.54 2.78,-48.88 9.45,-97.19 20.55,-144.4 19.43,0 39.43,-0.56 58.87,-2.78 53.32,-5.55 104.97,-19.99 153.29,-42.77 41.1,-6.11 82.2,-10.55 123.86,-12.22 57.76,-2.78 115.53,-1.11 172.73,4.45l-62.76 -6.12 528.19 13.89c34.44,1.11 68.87,-2.22 103.31,-0.55 51.1,2.78 101.63,10 151.07,21.65 -6.67,-1.11 -13.89,-1.11 -20.55,-0.55 -70.53,5 -147.18,-19.99 -121.08,11.11 9.45,11.67 23.32,18.32 37.21,23.88 12.23,5 25.55,6.11 38.88,7.22 14.45,1.11 31.66,0.56 38.33,12.78 8.33,15.55 1.11,35.54 -15.56,41.66 28.32,-15.56 62.2,-17.23 92.19,-5 17.22,7.22 32.21,18.32 43.88,32.76 -11.67,-6.66 -26.1,-1.11 -29.99,11.67 -1.11,3.89 -1.11,8.89 0,12.78 -93.86,-10 -187.73,-18.88 -282.14,-26.1 -117.75,-9.45 -235.5,-33.88 -352.68,-22.77 -72.76,6.67 -143.85,23.32 -212.16,48.88 -27.21,-3.34 -54.44,1.11 -78.87,12.78 -35.55,16.66 -54.98,55.53 -84.42,82.2 -36.11,32.77 -73.32,64.98 -111.64,95.52z"/>
  <path class="fil12" d="M5932.27 3725.64c25.55,-27.21 50.55,-54.98 74.98,-83.31 24.99,-28.32 49.43,-57.2 73.31,-86.09 1.67,-28.88 1.67,-57.2 0,-86.09 -2.77,-47.21 -9.44,-93.86 -19.99,-139.96 -26.65,-5 -53.32,-10.56 -79.42,-16.67 -59.98,-14.44 -118.3,-32.21 -176.06,-53.88l21.1 0c38.88,0 77.2,8.34 115.52,13.89 59.43,8.89 118.86,19.99 177.18,33.88 38.88,99.97 25.54,212.72 -35.55,300.48 -37.21,53.88 -89.98,94.97 -151.07,117.74z"/>
  <path class="fil16" d="M3286.32 3429.06l-42.21 0c-1.11,-3.89 -1.11,-8.89 0,-12.78 3.89,-12.78 18.32,-18.32 29.99,-11.67 -11.67,-14.44 -26.66,-25.54 -43.88,-32.76 -29.99,-12.23 -63.87,-10.56 -92.19,5 16.67,-6.12 23.88,-26.11 15.56,-41.66 -6.67,-12.22 -23.88,-11.11 -38.33,-12.78 -13.33,-1.67 -26.65,-2.78 -38.88,-7.22 -14.44,-5 -28.88,-10.56 -39.43,-21.1 -34.44,-33.33 42.77,-33.88 123.3,-13.89 6.67,1.67 13.89,0.55 20.55,0.55 78.31,2.23 154.96,21.66 232.72,31.66 84.98,11.11 174.39,1.67 253.81,32.21l42.22 21.1c-5.56,4.45 -9.45,10.56 -12.23,17.23 -2.22,5 -2.77,10.55 -2.77,16.11 -32.77,-0.56 -65.54,0 -98.31,0.55 -19.43,0.56 -38.32,1.11 -57.75,1.67 -41.11,7.22 -82.21,13.33 -123.86,17.78 -42.77,5 -85.54,10 -128.3,10z"/>
  <path class="fil16" d="M3900.04 3788.96c-34.99,21.65 -68.87,44.99 -101.08,69.98 -23.32,18.32 -46.1,37.21 -68.31,57.2 -6.11,-34.43 -12.78,-68.87 -19.44,-103.3 -7.22,-36.66 -22.76,-71.65 -22.76,-108.86l0 -21.1c8.88,-7.23 16.66,-15.56 23.32,-24.44 7.78,-10.55 13.89,-21.65 18.88,-33.88 13.33,7.23 26.65,13.89 40.54,19.99 42.22,18.33 86.65,29.99 132.19,35.55 -32.77,21.1 -64.98,-48.88 -27.77,-59.98 13.89,-3.89 27.77,3.33 37.77,13.89 14.44,15 32.76,27.21 53.32,25.54 36.66,-2.77 30.54,-57.75 37.21,-99.97 5,-33.32 2.78,-67.2 -6.67,-99.41 -11.11,2.22 -21.65,5 -32.21,8.33 -20.54,6.11 -40.54,13.89 -59.98,22.77 -4.44,-17.78 -12.78,-34.43 -25.54,-47.77 -24.99,-26.65 -67.76,-20.54 -104.42,-29.43 -21.1,-5 -42.77,-9.45 -64.42,-12.22 13.33,-8.34 27.77,-13.34 43.32,-15 6.67,-0.56 12.78,-0.56 19.44,0 42.21,0 84.42,0 126.63,0 77.76,0 155.52,0 233.28,0 37.76,-6.12 76.09,-12.78 113.85,-19.44 39.44,-7.22 79.43,-15 118.86,-22.77 64.43,-11.11 128.85,-21.65 193.29,-30.54 230.49,-32.21 462.64,-50.55 695.36,-54.44 -69.98,14.45 -139.96,27.77 -209.94,40.55 -84.98,15.55 -180.5,-7.22 -248.26,42.77 -30.55,22.21 -54.44,52.21 -70.54,86.09 -6.11,3.33 -12.22,6.66 -18.88,9.44 -21.1,8.89 -43.32,12.78 -66.09,11.67 -21.65,-8.33 -43.88,-15.56 -66.09,-21.1 -8.89,-2.22 -17.78,-4.45 -26.65,-6.11 11.66,-4.45 17.22,-17.78 11.66,-28.88 -6.11,-12.22 -23.32,2.78 -39.43,7.78 -37.77,11.66 -78.87,5.55 -118.86,6.66 -69.43,1.67 -138.85,6.11 -208.27,12.22 -4.45,0.56 -8.34,0.56 -12.78,1.12 6.66,7.77 7.22,19.43 1.66,28.32 -7.22,11.11 -25.54,-2.22 -39.43,0.55 -21.1,4.45 -41.1,12.23 -60.54,21.66 32.77,-13.33 69.98,-10 100.53,8.33 42.77,26.11 -171.62,46.11 -134.4,12.78 20.54,6.67 40.54,13.34 61.09,19.99 36.1,12.22 82.2,6.11 103.3,36.1 9.44,13.89 15.56,29.99 16.67,46.66 -3.34,6.67 -5,13.89 -4.45,21.1 1.67,27.77 77.76,-32.21 51.1,-40.54 2.78,18.87 4.45,37.76 5,56.64 0.56,9.45 0,18.88 0,28.33 -0.55,46.1 -5.55,91.63 -9.44,137.73 -3.33,38.88 -7.22,77.76 -11.67,116.64 -38.88,-28.32 -78.87,-55.54 -119.41,-82.2 -23.33,-15.56 -47.21,-30.55 -71.09,-44.99 -11.67,-6.67 -23.88,-12.78 -35.55,-19.44 -15,-8.33 -29.43,-16.66 -44.43,-24.99 -2.23,4.45 -3.89,9.45 -4.45,14.45 -0.55,2.78 -0.55,6.11 0,8.89l-42.21 21.1c-7.22,0.55 -14.44,0 -21.66,0 -7.22,0 -13.89,0 -21.1,0z"/>
  <path class="fil15" d="M3688.44 3682.88c-69.43,-61.65 -146.63,-114.42 -229.39,-156.07 -42.21,-21.11 -91.09,-29.99 -130.51,-55.54l-42.22 -42.21c42.77,-1.67 85.54,-5 128.3,-10 41.65,-4.45 82.75,-10.56 123.86,-17.78 19.43,-0.56 38.32,-1.11 57.75,-1.67 32.77,-0.55 65.54,-1.11 98.31,-0.55 2.22,-5 2.77,-10.56 2.77,-16.11 -0.55,-12.78 -6.66,-24.99 -17.22,-32.22l93.31 36.11c-6.67,-0.56 -12.78,-0.56 -19.44,0 -15.55,1.66 -29.99,6.66 -43.32,15 21.65,2.77 43.32,7.22 64.42,12.22 36.66,8.89 79.43,2.78 104.42,29.43 12.77,13.34 21.1,29.99 25.54,47.77 19.44,-8.89 39.44,-16.67 59.98,-22.77 10.56,-3.33 21.1,-6.11 32.21,-8.33 9.45,32.21 11.67,66.09 6.67,99.41 -6.67,42.22 -0.55,97.2 -37.21,99.97 -20.55,1.67 -38.88,-10.55 -53.32,-25.54 -10,-10.56 -23.88,-17.78 -37.77,-13.89 -37.21,11.11 -5,81.09 27.77,59.98 -45.55,-5.56 -89.98,-17.22 -132.19,-35.55 -13.89,-6.11 -27.21,-12.77 -40.54,-19.99 -5,12.23 -11.11,23.33 -18.88,33.88 -6.67,8.89 -14.45,17.22 -23.32,24.44z"/>
  <path class="fil17" d="M2524.31 4572.08l-8.33 2.78 -100.53 -61.65c-39.99,-24.43 -79.42,-49.43 -113.3,-81.09 -59.98,-55.53 -107.19,-123.3 -137.74,-198.84 13.89,-63.31 26.66,-126.63 39.44,-190.5 33.87,-172.73 63.31,-346.58 88.31,-520.97 6.67,-21.66 19.99,-41.11 37.21,-55.54 33.88,-28.32 81.09,-35.55 122.19,-18.32 -9.44,-10 -21.65,-16.67 -34.99,-18.88 -6.66,-1.11 -12.77,-1.11 -19.43,0 67.2,-24.99 136.63,-42.21 207.72,-51.1 122.19,-15.56 245.48,-6.11 367.67,11.11 90.54,12.78 179.95,35.54 271.6,39.99 13.89,0.55 28.32,0.55 42.21,0l42.22 42.21 -21.11 0c-237.71,319.91 -469.31,644.26 -695.36,972.51 -29.44,42.77 -58.87,85.53 -87.76,128.29z"/>
  <path class="fil15" d="M4640.95 3450.17c-54.43,25.54 -107.19,53.32 -159.4,82.76 -68.87,39.43 -136.07,82.2 -200.51,128.85 0,-9.45 0,-18.88 0,-28.33 -0.55,-18.88 -2.22,-37.77 -5,-56.64 26.66,8.33 -49.43,68.31 -51.1,40.54 -0.55,-7.22 1.11,-14.44 4.45,-21.1 -1.11,-16.67 -7.23,-32.77 -16.67,-46.66 -21.1,-29.99 -67.2,-23.88 -103.3,-36.1 -20.55,-6.66 -40.55,-13.33 -61.09,-19.99 -37.22,33.33 177.17,13.34 134.4,-12.78 -30.55,-18.32 -67.76,-21.65 -100.53,-8.33 19.44,-9.44 39.44,-17.22 60.54,-21.66 13.89,-2.77 32.21,10.56 39.43,-0.55 5.56,-8.89 5,-20.55 -1.66,-28.32 4.44,-0.56 8.33,-0.56 12.78,-1.12 69.42,-6.11 138.84,-10.55 208.27,-12.22 39.99,-1.11 81.09,5 118.86,-6.66 16.11,-5 33.32,-19.99 39.43,-7.78 5.56,11.11 0,24.43 -11.66,28.88 8.88,1.66 17.77,3.89 26.65,6.11 22.21,5.55 44.44,12.78 66.09,21.1z"/>
  <path class="fil17" d="M4873.67 4572.08c-31.1,-7.78 -57.76,-28.88 -86.09,-44.43 -35.55,-19.44 -70.54,-39.99 -104.41,-61.65 -38.88,-33.32 -78.32,-66.65 -118.31,-99.41 -35.54,-29.44 -85.53,-43.88 -104.97,-84.43 -12.78,-26.66 -14.44,-56.65 -14.44,-86.65 0,-41.65 13.89,-82.2 23.32,-122.74 15,-65.54 32.77,-129.96 52.21,-194.4 1.11,-31.1 2.23,-61.64 3.34,-92.75 1.66,-33.87 -5,-68.86 5,-101.08l19.99 -51.1 38.32 -67.2c12.22,-21.66 22.21,-45.55 41.1,-61.09 19.99,-16.67 43.88,-27.21 69.43,-29.99 25.54,-4.45 51.1,-8.89 77.2,-12.22 64.42,-8.89 129.4,-13.34 194.39,-14.45 -13.33,-11.11 -29.99,-17.78 -47.21,-19.99 -8.89,-1.11 -18.32,-1.11 -27.21,0.56 73.31,-13.34 146.62,-25.55 219.94,-37.21 67.2,-10.56 134.4,-20.55 201.6,-29.99 60.54,14.44 121.09,28.87 181.62,42.21 54.98,12.22 114.97,7.78 164.41,34.43 32.76,17.22 59.98,43.33 78.86,74.98l-42.21 -21.1c-31.65,6.67 -61.64,21.1 -86.64,41.66 -48.88,39.99 -72.76,101.63 -99.97,159.4 -16.67,36.1 -36.11,70.54 -56.65,104.42 -10.56,17.22 -22.21,33.88 -32.77,51.1 -151.07,250.48 -306.03,498.75 -464.87,744.24l-84.98 -21.1z"/>
  <path class="fil16" d="M2079.99 3746.76c-2.23,0 -4.45,0 -6.67,0 -5,0.55 -10,1.66 -14.44,3.33 -3.34,-8.33 -7.23,-16.11 -10.56,-24.44 -3.33,-8.33 -7.22,-17.22 -10.56,-25.54 -5,2.22 -10,3.33 -15,3.89 -2.22,0 -4.44,0 -6.66,0 -21.66,-28.33 -43.88,-56.09 -66.65,-83.87 -18.88,-22.77 -38.32,-45.55 -57.76,-68.31 7.23,15 27.77,16.11 37.22,2.77 3.88,-5.55 5,-12.77 2.77,-19.43 47.22,-6.11 93.86,-17.22 138.85,-33.32 16.11,-5.56 27.21,-21.66 43.33,-27.77 23.32,-8.89 49.43,-5.56 73.31,-12.22 34.99,-9.45 68.87,-21.66 101.64,-36.66 -28.33,31.66 -56.65,63.87 -84.43,96.08 -27.77,32.21 -54.98,64.98 -82.2,98.3 -7.22,21.1 -13.89,42.22 -21.1,63.32 -7.22,21.1 -13.89,42.76 -21.1,63.87z"/>
  <path class="fil18" d="M3074.72 4572.08c-51.1,13.33 -102.75,24.44 -154.96,32.21 -96.64,15 -194.95,25.55 -292.15,15.56l-103.3 -47.77c28.88,-42.77 58.31,-85.53 87.76,-128.29 226.05,-328.25 457.65,-652.6 695.36,-972.51 -19.99,107.19 -42.76,214.38 -67.75,320.47 -3.34,14.44 -7.23,28.87 -10.56,43.32 -28.88,117.19 -52.77,235.49 -76.09,354.34 -23.32,118.31 -15,244.93 -62.76,354.9l-15.55 27.77z"/>
  <path class="fil19" d="M2164.41 4233.28l-21.1 0c-14.44,-58.87 -24.99,-118.86 -31.66,-179.39 -4.44,-40.55 14.45,-83.87 -1.66,-121.08 -10.56,-24.44 -28.33,-45.55 -51.1,-59.43 3.33,-42.77 10,-84.98 21.1,-126.63 5.55,-21.66 13.89,-42.77 21.1,-63.87 7.22,-21.1 13.89,-42.22 21.1,-63.32 38.32,-30.54 75.53,-62.75 111.64,-95.52 29.43,-26.66 48.87,-65.54 84.42,-82.2 24.43,-11.67 51.66,-16.12 78.87,-12.78 6.67,-1.11 12.78,-1.11 19.43,0 13.34,2.22 25.55,8.89 34.99,18.88 -41.1,-17.23 -88.31,-10 -122.19,18.32 -17.22,14.44 -30.54,33.88 -37.21,55.54 -24.99,174.39 -54.44,348.23 -88.31,520.97 -12.78,63.87 -25.55,127.19 -39.44,190.5z"/>
  <path class="fil19" d="M4683.17 4466c-38.88,-33.32 -78.32,-66.65 -118.31,-99.41 -35.54,-29.44 -85.53,-43.88 -104.97,-84.43 -12.78,-26.66 -14.44,-56.65 -14.44,-86.65 0,-41.65 13.89,-82.2 23.32,-122.74 15,-65.54 32.77,-129.96 52.21,-194.4 1.11,-31.1 2.23,-61.64 3.34,-92.75 1.66,-33.87 3.33,-67.2 5,-101.08l33.32 -46.65 19.99 -44.99c13.89,-31.1 20.55,-66.65 46.1,-87.76 19.44,-16.67 43.88,-27.21 69.43,-29.99 25.54,-4.45 51.1,-8.89 77.2,-12.22 64.42,-8.89 129.4,-13.34 194.39,-14.45 -13.33,-11.11 -29.99,-17.78 -47.21,-19.99 -8.89,-1.11 -18.32,0.56 -27.21,0.56l-169.4 0c-6.66,2.78 -12.22,6.66 -18.88,9.44 -21.1,8.89 -43.32,12.78 -66.09,11.67 -54.43,25.54 -107.19,53.32 -159.4,82.76 -68.87,39.43 -136.07,82.2 -200.51,128.85 -2.22,46.1 -5.55,91.63 -9.44,137.73 -3.33,38.88 -7.22,77.76 -11.67,116.64 17.78,129.4 69.98,251.6 151.07,354.34 4.45,5.56 5.56,12.78 9.45,18.88 36.1,54.98 98.3,86.65 154.4,122.2 34.44,21.65 70.54,39.99 108.31,54.43z"/>
  <path class="fil20" d="M3074.72 4550.98c26.1,-120.53 52.21,-241.04 78.31,-361.57 25.55,-118.3 47.77,-237.16 76.09,-354.34 3.33,-14.45 7.22,-28.88 10.56,-43.32 24.99,-106.09 47.76,-213.28 67.75,-320.47l21.11 0c46.65,8.33 87.75,33.88 130.51,55.54 82.76,41.65 159.96,94.41 229.39,156.07l0 21.1c-10.56,-10.56 -23.88,-17.78 -38.33,-21.66 -16.11,-4.44 -33.32,-3.89 -49.43,1.11 3.33,24.99 2.22,49.99 -2.78,74.43 -5,23.32 -13.89,45.54 -26.1,66.09 -9.45,10.55 -18.88,21.65 -27.77,33.32 -26.1,33.32 -48.32,68.87 -70.53,104.42 -15.56,24.99 -31.11,49.43 -46.66,73.86 -13.89,21.11 -27.77,42.22 -41.66,63.32 -26.1,39.99 -51.65,81.09 -78.31,120.52 -15.56,22.77 -31.1,44.99 -46.66,67.21 -10,18.87 -21.65,36.65 -34.43,53.87 -12.22,16.67 -26.1,32.22 -40.55,47.22 -4.44,14.44 -10,28.88 -16.66,42.76 -10.56,21.11 -23.88,41.11 -38.33,59.98 -16.66,21.66 -34.99,42.22 -55.53,60.54z"/>
  <path class="fil18" d="M5487.95 4550.98l-529.31 42.21c158.85,-245.48 313.8,-493.76 464.87,-744.24 10.56,-17.22 22.21,-33.88 32.77,-51.1 20.54,-33.88 39.99,-68.32 56.65,-104.42 27.21,-57.76 51.1,-119.41 99.97,-159.4 24.99,-20.55 54.98,-34.99 86.64,-41.66 -51.1,213.27 -95.52,427.66 -133.85,643.71 -20.54,117.19 -18.88,238.82 -56.64,351.57l-21.1 63.31z"/>
  <path class="fil16" d="M5911.16 3916.15c0,1.11 0,1.67 0,2.78 0.55,4.44 2.78,8.89 6.11,11.66 -12.78,19.44 -22.21,41.11 -27.21,63.87 -3.89,16.67 -5,33.88 -4.45,51.1 -3.89,-1.66 -7.77,-2.77 -11.66,-2.77 -1.67,0 -3.34,0 -5,0 7.77,-59.43 13.33,-119.42 16.66,-179.4 3.34,-59.98 5,-120.52 4.45,-180.5 -20.55,-21.1 -36.1,-46.66 -45.55,-74.98 -16.11,-47.77 -54.98,-102.2 -16.66,-113.86 16.66,-5 35.54,15 51.65,8.89 13.34,-5 24.44,-15.56 29.99,-28.88 8.89,-21.66 22.77,-43.33 44.99,-44.99 22.21,-1.67 43.33,11.66 50.55,32.77 -18.88,7.22 -29.99,26.65 -27.21,46.65 2.77,21.1 29.43,27.77 50.54,37.21 16.11,7.78 34.44,11.12 52.21,10.56 -23.88,28.88 -48.32,57.76 -73.31,86.09 -24.43,28.32 -49.43,56.09 -74.98,83.31 -5,26.66 -8.89,53.33 -12.22,79.98 -4.45,36.66 -7.22,73.32 -8.89,110.53z"/>
  <path class="fil20" d="M5509.05 4487.66c17.22,-117.75 36.1,-234.94 56.64,-351.57 38.33,-216.05 82.76,-430.44 133.85,-643.71l42.21 21.1c23.33,15.56 38.88,39.44 55.54,62.2 10.56,13.89 19.99,28.88 28.88,43.88 -10.56,33.33 -21.1,66.09 -31.66,99.42 -84.42,259.93 -179.39,516.52 -285.47,768.68z"/>
  <path class="fil21" d="M5509.05 4487.66c86.64,-259.38 201.06,-508.75 285.47,-768.68 10.56,-33.33 21.1,-66.09 31.66,-99.42l50.54 65.54c2.78,-1.11 5.56,-2.22 8.89,-2.22 1.67,0 2.78,0 4.45,0 0.55,59.98 -1.11,120.52 -4.45,180.5 -3.33,59.98 -8.89,119.97 -16.66,179.4l42.76 -43.33c-37.76,38.33 -64.98,85.54 -79.42,137.74 -12.22,44.99 -14.44,92.19 -6.11,138.29 -52.77,44.44 -105.53,88.32 -158.85,131.63 -59.42,48.32 -119.41,96.64 -179.39,143.85l21.1 -63.31z"/>
  <path class="fil21" d="M3074.72 4572.08l0 -21.1c20.54,-18.32 38.88,-38.88 55.53,-60.54 14.45,-18.87 27.77,-38.87 38.33,-59.98 6.66,-13.88 12.22,-28.32 16.66,-42.76 14.45,-15 28.33,-30.55 40.55,-47.22 12.78,-17.22 24.43,-34.99 34.43,-53.87 15.56,-22.22 31.1,-44.44 46.66,-67.21 26.66,-39.43 52.21,-80.53 78.31,-120.52 13.89,-21.1 27.77,-42.21 41.66,-63.32 15.55,-24.43 31.1,-48.87 46.66,-73.86 22.21,-35.55 44.43,-71.1 70.53,-104.42 8.89,-11.67 18.32,-22.77 27.77,-33.32 12.22,-20.55 21.1,-42.77 26.1,-66.09 5,-24.44 6.11,-49.44 2.78,-74.43 16.11,-5 33.32,-5.55 49.43,-1.11 14.45,3.89 27.21,11.67 38.33,21.66 27.21,24.99 15,70.53 22.76,108.86 6.67,34.43 13.34,68.87 19.44,103.3 -30.55,63.31 -59.43,127.75 -87.76,192.17 -16.67,38.33 -26.66,79.98 -47.77,116.08 -52.21,88.87 -144.4,144.96 -232.16,201.06 -27.21,17.23 -53.88,35.55 -82.2,51.66 -65.54,37.77 -134.41,69.43 -206.05,94.97z"/>
  <path class="fil11" d="M4111.66 5080.27c-14.45,0 -28.32,2.78 -42.21,6.67 -8.34,2.22 -16.11,5.56 -23.88,9.45 8.89,-123.86 14.44,-247.71 16.66,-372.13 0.56,-39.99 0,-79.42 0.56,-119.41 0.56,-46.66 1.67,-93.3 3.33,-139.96 -6.66,-43.32 -12.22,-87.2 -17.77,-130.52 -4.45,-38.32 -8.89,-77.2 -12.78,-115.52 -17.22,-11.67 -29.44,-29.99 -33.33,-50.55 -5.55,-27.21 17.23,-51.65 28.33,-78.31 8.33,-20.55 17.78,-39.99 28.32,-59.43 -19.99,-47.21 -36.66,-95.52 -49.99,-144.96 -10,-38.87 -18.32,-78.31 -23.88,-117.74 -0.55,-2.78 -0.55,-6.11 0,-8.89 0.56,-5 2.22,-10 4.45,-14.45 15,8.34 29.43,16.67 44.43,24.99 11.67,6.67 23.88,12.78 35.55,19.44 -19.44,23.88 -31.1,52.21 -34.44,82.76 -7.22,67.75 23.33,132.73 47.77,197.17 16.67,44.99 27.77,92.19 41.1,138.85 25.55,88.87 46.1,179.39 67.76,269.37 32.77,135.52 63.87,271.6 92.75,407.67 21.1,19.43 32.21,47.21 31.1,75.53 -2.22,46.11 -55.54,67.21 -98.31,91.64 -32.21,18.32 -68.31,28.32 -105.52,28.32z"/>
  <path class="fil8" d="M4027.23 5143.59l-21.1 0c-8.89,-194.95 -15.55,-389.34 -20.54,-584.29 -5,-183.84 16.66,-368.79 -8.89,-550.96 -11.11,-77.2 -36.66,-152.18 -76.65,-219.38l21.1 0 21.66 0 42.21 -21.1c5.56,39.43 13.89,78.87 23.88,117.74 13.33,49.44 29.99,97.75 49.99,144.96 -10.55,19.44 -19.99,38.88 -28.32,59.43 -11.11,26.66 -33.88,51.1 -28.33,78.31 3.89,20.55 16.12,38.88 33.33,50.55 3.89,38.32 8.33,77.2 12.78,115.52 5.55,43.33 11.11,87.21 17.77,130.52 -1.66,46.66 -2.77,93.3 -3.33,139.96 -0.56,39.99 0,79.42 -0.56,119.41 -2.22,124.42 -7.77,248.27 -16.66,372.13 7.78,-3.89 15.55,-7.23 23.88,-9.45 13.89,-3.89 27.76,-6.67 42.21,-6.67 -17.22,18.33 -36.66,33.88 -57.76,47.77 -8.89,5.56 -17.78,10.56 -26.66,15.56z"/>
  <path class="fil9" d="M4577.64 6286.61c31.66,-29.99 64.98,-58.87 99.97,-84.98 9.44,-7.22 22.21,-7.78 31.66,-14.44 24.99,-17.78 43.32,-43.33 63.31,-67.21 9.44,-11.11 17.78,-22.76 26.1,-34.43 7.78,-11.11 17.78,-19.99 29.44,-27.21 17.22,-10.56 37.21,-15 57.2,-13.89 11.11,-27.21 26.1,-53.32 43.88,-76.65 13.33,-17.22 27.76,-32.77 43.88,-47.21 3.33,-0.56 6.11,-2.22 7.77,-5 7.78,-11.11 -18.88,-23.32 -22.21,-10l0 -21.1c2.22,0 4.45,0 6.67,0 6.11,-0.56 13.89,2.78 14.44,-2.22 0,-1.67 0,-3.34 -1.11,-5 -13.33,-19.99 -26.1,-40.55 -37.77,-61.65 -17.77,-31.66 -33.88,-64.42 -48.32,-97.75 -15,-22.77 -32.21,-43.88 -51.66,-62.76 -27.76,-27.21 -59.42,-49.99 -93.86,-67.2 3.89,-8.33 10,-15 17.23,-20.54 8.33,-6.11 18.88,-10 29.43,-11.11 -34.43,-10 -68.31,-20.55 -102.19,-32.22 -39.99,-13.89 -79.98,-29.43 -118.86,-46.1 -56.09,-13.89 -112.75,-26.1 -169.95,-36.65 -47.21,-8.89 -94.97,-16.12 -142.74,-22.77 -42.77,-28.88 -89.42,-50.55 -138.85,-64.98 -44.43,-12.78 -89.98,-19.44 -136.07,-19.44 -18.32,-37.21 -7.78,-81.64 24.44,-107.19 24.99,-19.43 61.09,-8.33 93.86,-9.44 31.65,-1.11 62.75,-0.56 94.41,1.66 -28.88,-11.11 -57.2,-22.76 -85.54,-35.54 -28.87,-12.78 -57.2,-26.1 -84.98,-39.99 8.89,-5 17.78,-10 26.66,-15.56 21.1,-13.89 40.55,-29.43 57.76,-47.77 37.21,0 73.31,-10 105.52,-28.32 42.77,-24.43 96.09,-45.54 98.31,-91.64 1.11,-28.32 -10,-56.09 -31.1,-75.53 -28.88,-136.07 -59.98,-272.15 -92.75,-407.67 -21.66,-89.98 -42.21,-180.5 -67.76,-269.37 -13.33,-46.66 -24.43,-93.86 -41.1,-138.85 -24.43,-64.43 -54.98,-129.41 -47.77,-197.17 3.34,-30.55 15,-58.87 34.44,-82.76 23.88,14.44 47.76,29.43 71.09,44.99 40.54,26.65 80.53,53.88 119.41,82.2 17.78,129.4 69.98,251.6 151.07,354.34 4.45,5.56 5.56,12.78 9.45,18.88 36.1,54.98 98.3,86.65 154.4,122.2 34.44,21.65 70.54,39.99 108.31,54.43 33.87,21.66 68.86,42.21 104.41,61.65 28.32,15.55 57.2,30.54 86.09,44.43 177.17,69.43 373.23,73.31 552.63,11.11 163.29,-56.64 303.25,-164.4 399.89,-307.7 -10,-46.1 -8.33,-93.3 6.11,-138.29 8.33,-26.1 20.55,-51.1 36.66,-73.31 14.44,54.43 30.54,108.3 49.43,161.62 11.11,31.11 22.77,62.21 34.99,92.75 0,11.11 0,22.77 0,33.88 0.56,17.78 1.11,35.55 2.22,53.32 -24.43,15.56 -50.54,28.88 -77.2,39.99 -22.21,8.89 -52.21,0.56 -67.2,18.88 -12.22,15 -16.67,34.44 -11.67,53.33 -22.21,-18.33 -49.99,-28.88 -78.87,-29.44 -37.21,-0.55 -72.2,14.45 -97.19,42.21 24.44,-26.1 68.31,-7.77 66.65,27.77 -1.11,19.44 -16.11,35.55 -35.55,36.66 -27.77,1.67 -47.77,-26.66 -36.65,-52.21 -26.11,-7.23 -52.77,6.66 -62.21,32.21 -9.44,25.54 0.56,55.53 25.55,63.87 15.55,5 24.99,22.21 16.67,36.1 -6.67,11.11 -23.88,4.44 -38.33,4.44 -12.22,0 -24.99,-2.22 -36.65,-5.55 -14.45,-5.56 -29.99,-7.78 -45.55,-6.67 -68.31,6.11 -23.88,111.08 -15.56,197.17 6.67,71.65 12.78,143.85 22.22,215.5 13.33,102.19 30.54,204.38 50.54,305.47 -78.31,119.97 -158.29,238.27 -241.04,355.46 -54.43,76.65 -109.41,152.74 -165.5,228.27 -132.19,79.98 -265.49,157.74 -399.89,233.83 -49.99,28.33 -99.97,56.09 -150.52,83.87z"/>
  <path class="fil7" d="M3100.82 5932.82l-26.1 -48.32c-14.45,-26.66 -27.22,-54.98 -27.22,-84.98 0,-14.45 2.23,-28.32 6.12,-42.21 37.21,-68.32 82.2,-132.19 133.84,-189.95 7.78,-8.89 16.12,-17.78 24.99,-26.1 11.12,-10.56 22.77,-19.44 34.44,-29.44 24.99,-21.66 62.2,-39.43 54.43,-68.31 -3.33,-12.78 -11.66,-24.44 -22.76,-31.66 6.11,-5.55 12.22,-10.55 18.87,-15.55 18.88,-13.34 40.55,-21.66 58.32,-36.66 27.77,-23.32 44.43,-57.2 67.2,-86.09 22.21,-28.33 44.43,-56.09 66.65,-84.43 33.32,-33.88 64.98,-69.42 96.08,-105.52 24.99,-29.44 48.88,-58.87 72.2,-89.43 2.78,0 5.56,0 8.33,0.56 7.78,1.11 16.67,-1.67 21.1,4.44 3.89,5 3.89,11.67 1.12,17.23 71.09,28.87 140.51,59.98 209.38,93.85 22.21,11.12 43.32,24.44 66.09,33.33l42.21 0c-8.89,-194.95 -15.55,-389.34 -20.54,-584.29 -5,-183.84 16.66,-368.79 -8.89,-550.96 -11.11,-77.2 -36.66,-152.18 -76.65,-219.38 -34.99,21.65 -68.87,44.99 -101.08,69.98 -23.32,18.32 -46.1,37.21 -68.31,57.2 -30.55,63.31 -59.43,127.75 -87.76,192.17 -16.67,38.33 -26.66,79.98 -47.77,116.08 -52.21,88.87 -144.4,144.96 -232.16,201.06 -27.21,17.23 -53.88,35.55 -82.2,51.66 -65.54,37.77 -134.41,69.43 -206.05,94.97 -67.21,16.11 -135.52,25.55 -204.39,28.32 -58.87,2.23 -118.3,-16.11 -176.61,-7.22l-63.32 21.1c-13.33,10 -22.77,24.99 -37.21,32.77 -43.88,23.88 -94.41,-17.22 -146.07,-32.21 -22.77,-6.67 -44.44,-16.11 -64.98,-28.32 -36.1,-22.77 -72.2,-44.99 -109.42,-66.1 -28.87,-16.66 -66.09,-20.54 -87.2,-45.54 -10,-12.22 -17.22,-26.66 -23.32,-41.66 -2.22,-6.11 -4.45,-12.22 -8.89,-16.66 -19.99,-21.66 -49.43,67.75 -20.55,62.2 -10.55,-22.21 -26.65,-41.66 -47.21,-55.54 -32.77,-22.21 -73.31,-29.99 -111.63,-20.54 -2.23,37.21 -2.23,74.98 0,112.19 2.77,54.98 10,109.41 21.1,163.29 -1.11,-23.32 -1.11,-46.65 0,-69.98 3.89,-75.53 -23.88,-157.18 10.55,-129.96 8.34,6.67 12.22,17.22 19.99,23.88 84.43,73.87 98.86,197.73 139.96,304.92 31.66,81.65 73.32,159.41 108.31,239.93 24.43,56.09 48.87,112.75 74.42,168.84 57.76,128.29 122.75,252.71 197.17,372.12 93.31,149.96 199.95,292.14 317.69,423.77 -3.33,-5.55 -3.33,-12.22 0.56,-17.22 3.88,-5.56 12.77,-3.33 19.99,-4.45 6.66,-1.11 13.88,-1.66 20.54,-2.22 21.1,12.78 42.77,24.44 65.54,34.44 31.65,13.89 64.42,24.43 97.74,32.21l52.22 -83.87 -18.88 -37.77z"/>
  <path class="fil10" d="M2630.39 4614.29c-47.21,6.67 -94.97,2.23 -139.96,-13.89 -52.21,-18.87 -93.3,-58.31 -133.85,-96.63 -18.32,-17.22 -36.1,-34.99 -55.53,-50.55 -7.78,-6.11 -15.56,-12.22 -23.88,-17.78 -39.44,-28.32 -78.87,-57.75 -102.75,-99.41 -17.78,-31.66 -28.32,-66.65 -31.1,-102.75 -14.44,-58.87 -24.99,-118.86 -31.66,-179.39 -4.44,-40.55 14.45,-83.87 -1.66,-121.08 -10.56,-24.44 -28.33,-45.55 -51.1,-59.43 -7.23,48.88 -14.45,97.75 -21.11,146.63 -7.22,53.32 -14.44,106.08 -21.1,159.4 -3.89,18.33 -7.77,36.66 -11.11,54.98 -7.22,38.33 -12.78,77.21 -17.22,116.08l-35.55 -32.21 21.11 84.43c38.32,-9.45 78.86,-1.67 111.63,20.54 20.55,13.89 36.66,33.33 47.21,55.54 -28.87,5.55 0.56,-83.87 20.55,-62.2 4.44,4.44 6.67,10.55 8.89,16.66 6.11,15 13.33,29.44 23.32,41.66 21.1,24.99 58.32,28.88 87.2,45.54 37.22,21.11 73.32,43.33 109.42,66.1 20.54,12.22 42.21,21.65 64.98,28.32 51.66,15 102.19,56.09 146.07,32.21 14.44,-7.78 27.21,-19.43 37.21,-32.77z"/>
  <path class="fil14" d="M6016.69 4339.36l0 21.1c-2.22,0 -5,0 -7.22,0 -7.22,0 -13.89,0 -21.1,-0.55 -5.55,-5 -10.55,-10 -15,-15.56 -5.55,-7.22 -10.55,-14.44 -14.44,-22.76 -1.11,-0.56 -2.23,-1.67 -3.34,-2.23 -0.55,-0.55 -1.66,-0.55 -2.22,-1.11 -12.22,-30.54 -23.88,-61.64 -34.99,-92.75 -18.88,-53.87 -47.77,-104.97 -49.43,-161.62l0 -21.1c1.66,0 3.33,0 5,0 3.89,0 7.77,1.11 11.66,2.77 -0.55,-17.22 0.56,-34.43 4.45,-51.1 5,-22.76 14.44,-44.43 27.21,-63.87 -3.33,-2.77 -5.56,-7.22 -6.11,-11.66 0,-1.11 0,-1.67 0,-2.78 16.67,69.42 30.54,139.4 42.21,209.38 8.33,48.88 1.67,99.97 17.22,146.63 8.89,26.1 24.99,49.44 46.1,67.2z"/>
  <path class="fil22" d="M2630.39 4614.29c-47.21,6.67 -94.97,2.23 -139.96,-13.89 -52.21,-18.87 -93.3,-58.31 -133.85,-96.63 -18.32,-17.22 -36.1,-34.99 -55.53,-50.55 -7.78,-6.11 -15.56,-12.22 -23.88,-17.78 -39.44,-28.32 -78.87,-57.75 -102.75,-99.41 -17.78,-31.66 -28.32,-66.65 -31.1,-102.75l21.1 0c53.88,74.43 114.97,142.74 183.28,204.39 55.54,49.99 107.75,106.63 176.62,134.4l106.08 42.21z"/>
  <path class="fil23" d="M4958.65 4593.19l529.31 -42.21c59.98,-47.21 119.97,-95.53 179.39,-143.85 53.32,-43.32 106.08,-87.2 158.85,-131.63 -96.64,143.3 -236.61,251.05 -399.89,307.7 -179.4,62.2 -375.46,58.32 -552.63,-11.11l84.98 21.1z"/>
  <path class="fil13" d="M5128.05 6011.69l0 -42.77c56.09,-75.53 111.08,-151.62 165.5,-228.27 82.76,-117.19 162.74,-235.5 241.04,-355.46 -32.21,-97.74 -54.98,-198.28 -68.31,-300.47 -9.45,-72.76 2.78,-147.18 -7.78,-219.94 -8.89,-64.43 -43.32,-129.41 -20.54,-188.84 19.99,-52.77 71.09,-84.98 117.19,-118.86 47.21,-34.99 99.97,-62.76 156.07,-80.53 31.66,-10 64.42,-16.12 97.19,-19.99 23.32,-2.78 47.77,-3.89 69.98,-11.12 27.77,-8.88 53.88,-22.76 77.2,-39.99 -1.11,-17.77 -1.66,-35.54 -2.22,-53.32 0,-11.11 0,-22.77 0,-33.88l2.22 1.11 3.34 2.23c5.55,7.22 8.89,15.55 14.44,22.76 4.45,5.56 9.45,10.56 15,15.56 7.22,0.55 13.89,0.55 21.1,0.55 2.22,0 5,0 7.22,0l-21.1 105.53c-25.54,105.53 -104.97,189.95 -153.29,287.7 -97.19,196.06 -177.17,400.44 -261.04,603.17 -17.22,41.66 -34.44,83.87 -51.1,125.53 -6.11,-3.89 -13.89,-2.78 -18.88,2.22 -5,5 -6.11,12.78 -2.22,18.88 -81.65,106.63 -162.74,213.27 -242.71,321.02 -46.1,62.2 -92.19,124.41 -138.29,187.17z"/>
  <path class="fil6" d="M2397.13 6371.04l-21.1 0c-78.87,-105.53 -156.63,-211.61 -232.72,-318.8 -42.77,-60.54 -85.54,-121.64 -127.75,-182.73 -3.89,-191.62 -7.78,-383.23 -11.11,-574.84 -3.33,-205.5 -8.89,-411 -9.44,-616.5 0,-23.32 2.22,-46.65 0,-69.98 -3.34,-38.88 -5.56,-78.31 2.77,-116.08 1.12,-5.55 3.34,-11.11 7.78,-13.89 8.89,-5.55 12.22,13.34 19.99,23.88 67.76,89.43 99.42,199.95 139.96,304.92 31.66,81.65 73.32,159.41 108.31,239.93 24.43,56.09 48.32,113.3 74.42,168.84 59.98,127.19 125.53,251.04 197.17,372.12 -2.22,0 -4.44,0 -6.66,0 -3.34,0 -7.23,0 -10.56,0.56l-28.88 -46.1c-3.89,1.66 -7.78,2.77 -12.22,3.33 -1.67,0 -3.33,0 -5,0 -19.99,-38.88 -68.31,-52.77 -105.53,-29.99 -24.43,15 -38.32,42.77 -35.54,71.09 -20.55,11.67 -40.55,24.99 -59.43,38.88 -33.32,24.43 -63.31,52.77 -90.53,83.87 -11.11,12.78 -22.21,24.99 -34.44,36.66 -14.44,13.88 -29.43,27.21 -45.54,39.43 -27.77,15.56 -46.66,43.88 -49.44,75.54 -3.33,37.21 38.88,62.2 57.76,96.63 21.1,38.88 41.1,78.87 59.98,119.42 33.32,37.76 65.54,76.09 97.19,115.52 27.77,34.44 47.77,75.54 81.09,104.42l66.1 57.75c-1.67,7.78 -7.78,13.89 -15.56,16.12 -3.33,1.11 -7.22,0 -11.11,0z"/>
  <path class="fil6" d="M5530.16 6477.12c-3.89,-7.23 -7.22,-14.45 -10.56,-21.66 -5,-11.67 -18.88,-21.66 -11.66,-29.43 5.55,-5.56 15.55,1.11 22.76,-1.67 12.23,-5 22.77,-13.89 28.33,-26.1 76.64,-128.85 160.51,-253.27 250.48,-373.24 15.56,-21.1 32.77,-41.1 49.44,-61.64 30.54,-36.66 67.75,-71.09 74.42,-117.19 5.56,-38.88 -3.33,-78.87 -24.43,-112.2 -34.99,5 -70.54,0.56 -102.75,-13.33 -51.1,-21.66 -81.65,-73.87 -123.86,-110.53 -49.99,-43.32 -101.08,-86.09 -152.18,-127.74 19.43,-58.32 39.99,-116.08 61.64,-173.84 109.42,-292.14 244.38,-574.29 403.78,-842.55 -3.89,227.16 -7.22,454.32 -10.55,681.48 -3.34,238.26 -6.67,475.98 -9.45,714.24 -59.42,85.54 -119.41,170.51 -179.95,254.93 -87.2,121.08 -175.5,241.6 -265.48,360.46z"/>
  <path class="fil8" d="M3688.44 5016.41c-3.34,0 -6.12,0 -9.45,0 -3.33,0 -7.22,-0.56 -10,1.11 -4.44,2.77 -5.55,8.89 -3.33,13.33 6.66,15.56 12.78,31.66 18.32,47.77 11.67,34.99 20.55,70.53 25.55,107.19 25.54,21.1 51.65,41.66 78.87,60.54 23.32,16.66 47.21,32.21 71.64,47.21 -2.78,5.55 -6.66,10 -11.66,13.33 -48.33,31.66 -99.97,57.76 -155.52,72.76 -53.32,13.89 -102.75,39.43 -147.18,72.2 -11.11,8.33 -19.99,18.32 -26.66,30.55l-317.13 105.52c-18.88,29.44 -39.99,57.2 -62.76,83.87 -26.1,30.55 -54.98,59.43 -85.53,85.54 37.21,-68.32 82.2,-132.19 133.84,-189.95 7.78,-8.89 16.12,-17.78 24.99,-26.1 11.12,-10.56 22.77,-19.44 34.44,-29.44 24.99,-21.66 62.2,-39.43 54.43,-68.31 -3.33,-12.78 -11.66,-24.44 -22.76,-31.66 6.11,-5.55 12.22,-10.55 18.87,-15.55 18.88,-13.34 40.55,-21.66 58.32,-36.66 27.77,-23.32 44.43,-57.2 67.2,-86.09 22.21,-28.33 44.43,-56.09 66.65,-84.43 33.32,-33.88 64.98,-69.42 96.08,-105.52 24.99,-29.44 48.88,-58.87 72.2,-89.43 2.78,0 5.56,0 8.33,0.56 7.78,1.11 16.67,-1.67 21.1,4.44 3.89,5 3.89,11.67 1.12,17.23z"/>
  <path class="fil14" d="M3963.92 5143.59c-66.09,26.1 -136.07,40.54 -207.16,42.77 -15.56,0.55 -31.66,0 -47.21,-0.56 -5,-36.66 -13.89,-72.2 -25.55,-107.19 -5.55,-16.11 -11.67,-32.21 -18.32,-47.77 1.11,-7.22 6.66,-12.78 13.33,-14.44 3.33,-0.56 6.11,-0.56 9.45,0 71.09,28.87 140.51,59.98 209.38,93.85 22.21,11.12 44.43,22.22 66.09,33.33z"/>
  <path class="fil11" d="M3519.04 5482.39c6.67,-12.23 15.56,-22.22 26.66,-30.55 44.43,-32.77 93.86,-58.31 147.18,-72.2 55.54,-15 107.19,-41.1 155.52,-72.76 5,-3.33 8.88,-7.78 11.66,-13.33 -24.43,-15 -48.32,-30.55 -71.64,-47.21 -27.22,-18.88 -53.33,-39.44 -78.87,-60.54 15.55,0.56 31.65,1.11 47.21,0.56 71.09,-2.23 141.07,-16.67 207.16,-42.77 13.89,0 28.32,0 42.21,0 7.23,0 13.89,0 21.1,0 27.77,13.89 56.1,27.21 84.98,39.99 28.33,12.78 56.65,24.43 85.54,35.54 -31.66,-2.22 -62.76,-2.77 -94.41,-1.66 -32.77,1.11 -68.87,-10 -93.86,9.44 -32.22,25.55 -42.77,69.98 -24.44,107.19 -73.31,22.77 -146.07,46.1 -219.38,69.43 -82.2,26.1 -164.41,52.21 -246.6,78.87z"/>
  <path class="fil0" d="M4006.13 5715.1c3.89,6.12 2.78,13.89 -2.22,18.88 -5,5 -12.78,5.56 -18.88,2.23l-63.87 -21.11c-130.51,-43.32 -271.04,-46.1 -406.55,-70.53 -93.31,-17.22 -185.51,-40.55 -279.92,-52.77 -11.11,-1.67 -21.66,-2.78 -32.77,-3.89l317.13 -105.52c81.65,-27.22 164.41,-52.77 246.6,-78.87 73.31,-23.33 146.07,-46.66 219.38,-69.43 46.1,0 91.64,6.67 136.07,19.44 49.44,14.44 96.08,36.1 138.85,64.98 3.34,-1.11 7.22,-1.11 10.56,-0.56 10.55,2.22 17.78,11.11 17.78,21.66 -37.77,-14.45 -76.1,-26.1 -114.97,-36.1 -60.54,-15.56 -122.2,-25.55 -184.4,-29.99 -0.55,44.43 0,88.87 1.67,133.29 2.78,69.43 7.78,138.85 15.55,208.27z"/>
  <path class="fil1" d="M4006.13 5715.1c-7.77,-69.42 -12.77,-138.84 -15.55,-208.27 -1.67,-44.43 -2.22,-88.87 -1.67,-133.29 62.2,4.44 123.86,14.44 184.4,29.99 38.87,10 77.2,21.65 114.97,36.1 0,-10.56 -7.23,-19.44 -17.78,-21.66 -3.34,-0.55 -7.22,-0.55 -10.56,0.56 47.77,6.66 95.53,13.89 142.74,22.77 57.2,10.55 113.86,22.76 169.95,36.65 38.88,16.67 78.87,32.21 118.86,46.1 33.88,11.67 67.76,22.22 102.19,32.22 -10.55,1.11 -21.1,5 -29.43,11.11 -7.23,5.55 -13.34,12.22 -17.23,20.54 -92.19,11.67 -184.39,26.1 -276.03,43.88 -142.73,27.77 -283.81,62.2 -422.65,104.42l-42.22 -21.11z"/>
  <path class="fil5" d="M5530.16 6477.12c-54.44,66.09 -108.86,132.18 -163.85,198.28 -51.1,61.09 -102.19,122.19 -153.85,182.73 44.43,-200.51 88.87,-401.56 132.74,-602.06 54.98,-251.05 109.41,-501.53 163.85,-752.57 -3.89,-6.11 -2.78,-13.89 2.22,-18.88 5,-5 12.78,-6.11 18.88,-2.22 51.1,41.65 102.19,84.42 152.18,127.74 42.21,36.66 72.76,88.87 123.86,110.53 32.21,13.89 67.76,18.32 102.75,13.33 21.1,33.33 29.99,73.32 24.43,112.2 -6.67,46.1 -43.88,80.53 -74.42,117.19 -16.67,20.54 -33.88,40.54 -49.44,61.64 -89.98,119.97 -173.84,244.38 -250.48,373.24 -5.56,12.22 -16.11,21.1 -28.33,26.1 -7.22,2.78 -17.22,-3.89 -22.76,1.67 -7.23,7.77 6.66,17.77 11.66,29.43 3.34,7.22 6.67,14.44 10.56,21.66z"/>
  <path class="fil5" d="M2778.13 6879.23c-43.32,-42.77 -81.65,-89.98 -114.41,-141.63 -8.34,-13.33 -16.12,-27.77 -23.88,-41.65 -5.56,-10.56 -11.67,-21.11 -17.78,-31.11 -21.66,-35.54 -49.99,-66.64 -76.09,-98.85 -24.44,-29.99 -47.21,-61.65 -70.54,-92.75 -26.1,-33.88 -52.21,-68.32 -78.31,-102.19 3.89,1.11 7.22,1.11 11.11,0 7.78,-2.23 13.89,-8.34 15.56,-16.12l-66.1 -57.75c-33.32,-28.88 -53.32,-69.98 -81.09,-104.42 -31.65,-39.43 -63.87,-77.76 -97.19,-115.52 -18.88,-40.55 -38.88,-80.54 -59.98,-119.42 -18.88,-34.43 -61.09,-59.42 -57.76,-96.63 2.78,-31.66 21.66,-59.98 49.44,-75.54 16.11,-12.22 31.1,-25.55 45.54,-39.43 12.23,-11.67 23.33,-23.88 34.44,-36.66 27.21,-31.1 57.2,-59.43 90.53,-83.87 18.88,-13.89 38.88,-27.21 59.43,-38.88 -2.78,-28.32 11.11,-56.09 35.54,-71.09 37.22,-22.77 85.54,-8.89 105.53,29.99 47.77,214.38 95.52,429.32 143.29,643.71 51.1,229.94 102.19,459.87 152.74,689.81z"/>
  <path class="fil3" d="M5212.47 6858.13c-2.78,5 -5.56,10 -7.78,15 -10.55,23.88 -15,50.54 -12.78,76.64 -4.44,-3.88 -10,-6.66 -16.11,-7.22 -1.66,0 -3.89,0 -5.55,0 -14.45,-303.25 -28.33,-606.49 -42.21,-909.75 -0.56,-7.22 -0.56,-13.89 0,-21.1 46.1,-62.76 92.19,-124.97 138.29,-187.17 79.98,-107.75 161.07,-214.39 242.71,-321.02 -54.44,251.04 -108.86,501.52 -163.85,752.57 -43.88,200.5 -88.32,401.55 -132.74,602.06z"/>
  <polygon class="fil3" points="2799.8,6900.33 2765.35,6873.67 2482.1,5545.7 2499.32,5542.38 2528.2,5588.47 2545.41,5587.91 2863.11,6011.69 2863.11,6032.79 "/>
  <path class="fil3" d="M3074.72 5884.5c-17.78,-24.99 -27.22,-54.44 -27.22,-84.98 0,-14.45 2.23,-28.32 6.12,-42.21 30.54,-26.1 59.42,-54.98 85.53,-85.54 23.32,-27.21 44.44,-55.53 63.87,-85.53 10.56,2.22 21.1,3.88 31.66,5.55 242.15,38.32 484.87,76.09 727.02,113.86 -157.18,32.21 -314.91,64.42 -472.09,96.08 -138.3,27.77 -276.59,55.54 -414.89,82.76z"/>
  <path class="fil5" d="M4958.65 5884.5c-131.07,-23.88 -262.15,-47.21 -393.78,-68.87 -171.61,-28.32 -343.8,-54.98 -516.52,-79.42 138.84,-42.22 279.92,-76.65 422.65,-104.42 91.64,-17.78 183.84,-32.21 276.03,-43.88 34.44,17.22 66.1,39.99 93.86,67.2 19.44,18.88 36.66,39.99 51.66,62.76 14.44,33.33 30.55,66.09 48.32,97.75 11.67,21.1 24.44,41.66 37.77,61.65 -3.33,3.89 -8.33,6.66 -13.33,7.22 -2.22,0.55 -4.45,0.55 -6.67,0z"/>
  <path class="fil11" d="M3985.02 6604.31c-44.99,-17.78 -88.87,-37.21 -132.74,-57.2 -33.87,-15.56 -67.2,-31.66 -99.97,-48.88 -53.87,-30.55 -107.74,-61.65 -161.62,-92.75 -66.65,-38.88 -132.74,-78.31 -198.29,-118.86 6.12,-1.11 12.23,-1.11 18.33,0 10.55,1.67 20.54,6.11 28.88,12.78 6.11,-3.89 11.66,-8.33 17.22,-13.33 7.78,-6.67 13.33,-16.12 22.21,-20.55 21.1,-10 41.66,20.55 64.98,22.21 68.31,4.45 128.29,-44.99 137.18,-112.75 38.88,-14.44 76.65,-32.21 112.75,-53.32 21.66,-12.22 35.55,-36.66 58.87,-45.54 24.99,-9.45 52.21,-11.67 78.31,-5.56 -22.76,-31.1 -52.76,-55.54 -87.75,-71.65 -3.89,-1.66 -7.78,-3.33 -11.67,-5 -63.87,30.55 -135.52,38.33 -204.39,22.77 -36.1,-8.33 -70.53,-22.77 -101.63,-43.32 -72.76,-3.89 -145.52,-10.56 -218.28,-18.88 -44.99,-5.56 -88.86,-20.55 -134.4,-19.99 -26.1,0.55 -52.21,5 -77.2,13.33 -2.22,-17.78 -7.22,-34.43 -14.45,-50.54 -2.22,-4.45 -4.44,-8.89 -6.66,-12.78 138.29,-27.77 276.58,-54.98 414.89,-82.76 143.85,-28.88 287.14,-59.42 431.54,-86.65l63.87 21.11c2.22,48.32 6.11,96.08 10.56,144.4 3.89,39.43 -12.22,84.42 13.89,111.64 27.21,28.32 73.87,13.89 115.52,14.44 126.08,1.67 250.49,-30.54 376.01,-45.54 152.74,-18.33 304.92,-37.22 457.65,-55.54 3.33,-13.33 29.99,-1.11 22.21,10 -1.66,2.78 -4.44,4.44 -7.77,5 -16.12,14.44 -30.55,29.99 -43.88,47.21 -17.78,23.33 -32.77,49.44 -43.88,76.65 -19.99,-1.11 -39.99,3.33 -57.2,13.89 -11.67,7.22 -21.66,16.11 -29.44,27.21 -8.33,11.67 -16.67,23.32 -26.1,34.43 -19.99,23.88 -38.32,49.44 -63.31,67.21 -9.45,6.66 -22.22,7.22 -31.66,14.44 -34.99,26.1 -68.31,54.98 -99.97,84.98l-6.11 0 -12.78 -2.78c-4.44,8.89 -9.44,17.23 -14.44,25.55 -4.45,7.78 -9.45,15.55 -14.45,23.32 -7.78,-2.22 -16.11,-3.33 -24.43,-3.89 -4.45,0 -8.34,0 -12.78,0 -119.41,-63.87 -237.16,-131.07 -353.23,-201.6 -43.33,-26.66 -86.65,-53.33 -129.41,-80.54 -0.55,78.31 -2.22,156.63 -5.55,234.94 -4.45,107.75 -10.56,215.5 -19.44,322.69z"/>
  <path class="fil9" d="M4958.65 5884.5l0 21.1c-152.74,18.32 -304.92,37.21 -457.65,55.54 -125.52,15 -249.93,47.21 -376.01,45.54 -41.65,-0.55 -88.31,13.89 -115.52,-14.44 -26.1,-27.22 -10,-72.21 -13.89,-111.64 -4.45,-48.32 -8.34,-96.08 -10.56,-144.4 6.11,3.88 13.89,2.77 18.88,-2.23 5,-5 6.11,-12.77 2.22,-18.88l50.55 15c56.09,16.67 116.08,15.56 174.39,24.44 111.64,17.22 222.72,41.1 333.8,61.09 131.07,23.32 262.15,46.66 393.78,68.87z"/>
  <path class="fil0" d="M3476.83 7429.63l-613.72 -1396.84 0 -21.1c85.54,44.99 171.62,89.98 257.71,134.96 90.53,47.21 181.06,93.86 271.59,139.96 65.54,40.55 131.63,79.98 198.29,118.86 53.88,31.1 107.75,62.2 161.62,92.75 29.44,41.65 69.98,74.98 116.64,96.08 63.87,28.88 133.85,69.98 188.28,33.32 15.56,-10.55 29.44,-24.43 39.44,-40.54 100.52,-50.55 199.39,-102.75 297.7,-157.19 57.75,-31.65 114.41,-64.98 171.61,-97.74 187.18,-106.64 374.9,-213.83 562.08,-320.47l0 21.1c-53.33,151.07 -142.74,287.14 -208.83,433.22 -39.99,89.42 -77.76,179.95 -116.08,269.93 -39.44,92.74 -80.54,184.39 -122.2,276.03 -60.53,133.29 -123.3,265.48 -188.28,396.55 -53.32,-28.32 -101.08,-66.09 -140.52,-112.19 -71.09,-82.76 -111.63,-187.17 -168.28,-281.03 -67.2,-111.08 -134.4,-222.16 -202.16,-332.69 -71.65,116.64 -145.52,231.61 -221.61,344.91 -91.09,136.07 -185.5,270.49 -283.25,402.11z"/>
  <path class="fil8" d="M3095.82 5947.81l22.77 -10c16.11,-7.22 33.87,-11.11 51.65,-11.11 46.66,0.56 91.09,22.21 137.18,27.77 69.43,8.33 139.96,6.67 209.94,11.11l8.34 5c31.1,18.88 64.98,32.21 100.52,39.99 68.87,15.56 140.52,9.44 205.5,-16.67 3.89,1.67 7.78,3.34 11.67,5 34.99,16.11 64.98,40.55 87.75,71.65 -26.1,-6.11 -53.32,-3.89 -78.31,5.56 -23.32,8.88 -37.21,33.32 -58.87,45.54 -36.1,21.1 -73.87,38.88 -112.75,53.32 -8.89,67.76 -68.87,117.2 -137.18,112.75 -23.32,-1.66 -43.88,-32.21 -64.98,-22.21 -8.89,4.44 -14.44,13.89 -22.21,20.55 -5.56,5 -11.11,9.44 -17.22,13.33 -8.89,-5.56 -18.88,-10 -28.88,-12.78 -6.11,-1.67 -12.22,1.67 -18.33,0 -98.3,-27.21 -180.5,-92.75 -271.59,-139.96 -86.09,-44.43 -172.17,-89.42 -257.71,-134.96 -3.33,-5.55 -3.33,-12.22 0.56,-17.22 3.88,-5.56 12.77,-3.33 19.99,-4.45 6.66,-1.11 13.88,-1.66 20.54,-2.22 21.1,12.78 42.77,24.44 65.54,34.44 31.65,13.89 64.42,24.43 97.74,32.21l36.11 -113.86 -7.78 7.22z"/>
  <path class="fil4" d="M3752.3 6498.22c32.77,17.22 66.1,33.32 99.97,48.88 43.88,19.99 87.76,39.43 132.74,57.2 118.31,-55.54 233.83,-115.53 347.13,-179.95 53.88,-31.1 107.75,-62.76 160.52,-95.53 4.44,0 8.33,0 12.78,0 8.33,0.56 16.66,1.67 24.43,3.89 5,-7.78 10,-15.55 14.45,-23.32 5,-8.33 10,-16.67 14.44,-25.55 3.89,1.67 8.33,2.23 12.78,2.78 2.22,0 3.89,0 6.11,0 50.55,-27.77 100.53,-55.53 150.52,-83.87 134.4,-76.09 267.7,-153.85 399.89,-233.83l0 42.77c-187.18,106.64 -374.9,213.83 -562.08,320.47 -57.2,32.76 -113.86,66.09 -171.61,97.74 -98.31,54.44 -197.18,106.64 -297.7,157.19 -10,16.11 -23.88,29.99 -39.44,40.54 -54.43,36.66 -124.41,-4.44 -188.28,-33.32 -46.66,-21.1 -87.2,-54.44 -116.64,-96.08z"/>
  <polygon class="fil9" points="4525.98,6339.93 3985.02,6604.31 4010.01,6046.68 "/>
  <path class="fil1" d="M4514.33 7429.63l-21.66 -21.1c64.98,-131.07 127.75,-263.26 188.28,-396.55 41.66,-91.64 82.21,-183.84 122.2,-276.03 38.87,-89.98 76.09,-180.51 116.08,-269.93 72.2,-161.63 147.73,-321.58 227.16,-479.87 36.1,317.68 43.88,637.6 23.88,956.4 0,2.22 0,3.89 0,6.11 -0.56,14.45 -1.67,28.88 -3.34,43.33 -6.11,-2.23 -13.33,-2.78 -19.43,-0.56 -11.11,3.33 -18.88,12.78 -21.1,23.88 1.11,2.78 1.67,5 1.67,7.78 0,1.66 0,2.78 0,4.44 -78.32,53.33 -157.19,106.08 -236.61,158.3 -124.97,82.75 -250.49,163.84 -377.12,243.81z"/>
  <polygon class="fil1" points="3476.83,7429.63 2842,7006.42 2797.57,6931.44 2799.8,6900.33 2863.11,6032.79 "/>
  <path class="fil6" d="M2842 7006.42c-118.86,-143.29 -232.16,-291.59 -338.24,-444.32 -43.88,-62.76 -86.1,-126.64 -127.75,-191.06l21.1 0c26.1,33.87 52.21,68.31 78.31,102.19 23.33,31.1 46.1,62.76 70.54,92.75 26.1,32.21 54.43,63.31 76.09,98.85 6.11,10 12.22,20.55 17.78,31.11 7.77,13.88 15.55,28.32 23.88,41.65 32.76,51.66 70.53,98.86 114.41,141.63l21.66 21.1c0,3.33 0,6.67 0,10 0,7.22 -1.11,13.89 -2.23,21.1l44.44 74.98z"/>
  <path class="fil6" d="M5128.05 7027.52c0,-1.66 0,-2.78 0,-4.44 0,-2.78 -0.56,-5 -1.67,-7.78 7.22,-7.78 14.44,-15.56 21.1,-23.88 8.33,-10 16.11,-20.54 23.88,-31.1 -0.56,-3.89 -1.11,-7.78 -1.11,-11.67 0,-2.22 0,-3.89 0,-6.11 1.66,0 3.89,0 5.55,0 6.11,0.56 11.67,3.34 16.11,7.22 -2.22,-26.1 2.23,-52.76 12.78,-76.64 2.22,-5 5,-10 7.78,-15 51.66,-60.54 102.75,-121.64 153.85,-182.73 54.98,-66.09 109.41,-132.18 163.85,-198.28 -22.21,36.1 -44.44,71.64 -67.76,106.63 -101.64,154.96 -213.27,303.26 -334.35,443.77z"/>
  <path class="fil4" d="M4514.33 7429.63c-164.95,42.22 -334.36,63.87 -504.31,64.98 -179.95,1.12 -358.79,-20.54 -533.18,-64.98 97.75,-131.62 192.17,-266.04 283.25,-402.11 76.09,-113.3 149.96,-228.27 221.61,-344.91 67.76,110.53 134.96,221.61 202.16,332.69 56.65,93.86 97.19,198.28 168.28,281.03 39.44,46.1 87.21,83.87 140.52,112.19 -3.33,5.56 -2.78,13.34 1.67,18.33 5,5.55 13.33,6.66 19.99,2.77z"/>
  <path class="fil16" d="M618.16 8881.46l0 126.63 168.29 145.52 393.78 0 176.61 -153.85 0 -305.48 -123.3 -107.74 -341.02 0c-44.99,-49.99 -53.88,-148.85 8.89,-190.51 75.53,5.56 232.72,-30.54 208.27,76.09l229.39 0.56 0 -119.42 -145.52 -137.18 -411.56 0 -172.17 160.52 0 248.26 136.63 111.08 318.8 0c78.31,42.77 23.88,142.18 39.99,211.05 -71.65,53.88 -285.48,57.2 -248.27,-65.53l-238.82 0zm900.31 -496.53l0 591.51 -66.65 0 4.45 174.39 383.79 0 0 -174.39 -69.43 0 0 -184.4 273.82 0 0 184.4 -66.65 0 3.89 174.39 383.79 0 0 -174.39 -68.87 0 0 -591.51 68.87 0 0 -173.84 -387.67 0 3.89 173.84 62.76 0 0 206.05 -273.82 0 0 -206.05 69.43 0 0 -173.84 -388.23 0 4.45 173.84 62.2 0zm1056.93 15l0 598.73 182.17 157.18 384.89 0 188.84 -163.29 0 -592.62 85.54 0 2.78 -179.39 -394.89 0 0 179.39 53.32 0 0 521.53c-52.21,63.87 -194.95,64.42 -252.15,7.22l0 -528.75 49.99 0 2.78 -179.39 -395.45 0 0 179.39 92.19 0zm1029.72 -9.44l0 573.17 -74.98 0 4.45 185.5 779.79 0 0 -347.68 -222.72 0 0 162.18 -226.61 0 0 -573.17 97.19 0 3.34 -176.62 -430.99 0 0 176.62 70.53 0zm1011.94 8.33l0 568.17 -86.09 0 2.23 186.06 422.65 0 0 -186.06 -96.08 0 0 -568.17 161.63 0 0 110.52 181.06 0 0 -289.36 -914.75 0 0 289.36 175.51 0 0 -110.52 153.84 0zm1170.24 458.2l38.32 120.53 -73.31 0 0 176.61 388.22 0 -1.66 -176.61 -96.64 0 -262.71 -759.24 -251.59 0 -274.38 759.24 -88.31 0 0 176.61 388.22 0 -1.67 -176.61 -87.75 0 43.32 -123.31 279.92 2.78zm-132.74 -422.1l86.65 277.7 -184.4 0 97.75 -277.7zm684.26 -48.88l0 590.4 -86.65 0 5 174.39 419.89 0 0 -174.39 -86.09 0 0 -590.4 68.87 0 0 -173.84 -407.67 0 5 173.84 81.65 0zm458.76 495.42l0 126.63 167.72 145.52 394.34 0 177.17 -153.85 0 -305.48 -124.41 -107.74 -340.47 0c-44.99,-49.99 -53.88,-148.85 8.89,-190.51 75.53,5.56 232.72,-30.54 208.27,76.09l229.39 0.56 0 -119.42 -145.52 -137.18 -411.56 0 -172.72 160.52 0 248.26 137.18 111.08 318.8 0c78.31,42.77 23.32,142.18 39.99,211.05 -71.65,53.88 -284.92,57.2 -248.27,-65.53l-238.81 0zm-6718.16 930.86l0 561.51 -76.65 0 0 185.51 794.78 0 0 -264.37 -211.61 1.11 0 77.75 -244.37 0 0 -202.71 269.37 0 0 -173.29 -269.37 0 0 -185.5 244.37 0 0 68.87 218.83 0.55 0 -261.04 -804.78 0 0 191.62 79.43 0zm911.41 -3.34l0 559.85 -77.2 0 -1.67 186.62 647.6 0 168.28 -144.96 0 -634.27 -168.28 -151.63 -654.26 0 0 184.39 85.53 0zm455.44 559.85l-198.29 0 0 -559.85c81.1,10.56 189.95,-32.21 236.61,43.88l0 483.21 -38.32 32.76zm498.75 -559.29l0 597.62 182.72 157.18 384.89 0 188.29 -162.74 0 -592.06 85.53 0 2.78 -179.95 -394.89 0 0 179.95 53.32 0 0 521.53c-52.21,63.31 -194.95,63.87 -251.59,6.11l0 -527.64 49.43 0 3.34 -179.95 -396.01 0 0 179.95 92.2 0zm1146.91 -188.28l-173.28 161.62 0 627.61 172.17 148.85 383.79 0 176.06 -139.4 0 -188.84 -234.39 0c-5.55,50.54 15,104.97 -21.1,149.4 -77.76,-12.22 -191.61,34.44 -227.72,-47.77l0 -487.64c49.99,-60.54 149.41,-21.66 224.39,-32.77 56.09,29.43 27.77,88.31 34.43,134.96l220.5 3.33 0 -167.73 -185.51 -158.29 -369.34 -3.33zm1300.19 644.82l38.33 119.97 -72.76 0 0 176.61 387.67 0 -1.11 -176.61 -96.64 0 -262.71 -759.24 -251.59 0 -274.38 759.24 -88.31 0 0 176.61 387.67 0 -1.12 -176.61 -87.75 0 43.32 -123.31 279.36 3.34zm-132.73 -422.66l87.2 277.7 -184.4 0 97.2 -277.7zm770.9 -34.99l0 567.07 -86.09 0 1.66 186.06 422.66 0 0 -186.06 -96.08 0 0 -567.07 162.18 0 0 109.97 179.95 0 0 -289.37 -914.75 0 0 289.37 176.06 0 0 -109.97 154.41 0zm787.56 -13.33l0 589.84 -86.1 0 5 174.39 418.78 0 0 -174.39 -85.53 0 0 -589.84 68.87 0 0 -174.4 -407.12 0 5 174.4 81.1 0zm633.71 -169.4l-183.83 155.52 3.88 620.94 170.51 155.51 398.78 0 178.84 -155.51 0 -623.72 -174.95 -152.74 -393.23 0zm288.81 750.35c-75.53,-9.45 -168.28,23.88 -227.71,-25.55l0 -512.64c62.75,-52.21 153.84,-22.21 231.6,-29.43l34.99 29.43 0 512.09 -38.88 26.1zm470.98 -556.52l0 567.07 -83.31 0 0 180.51 374.9 0 -5 -180.51 -79.42 0 0 -472.65 391.55 648.16 224.94 0 5 -750.35 83.32 0 -5 -187.17 -369.35 0 0 187.17 97.19 0 0 412.11 -357.67 -603.17 -356.01 0 0 198.84 78.86 0zm150.52 0c7.22,7.22 2.78,6.11 -1.67,3.89 -3.89,-2.22 -7.22,-5.56 1.67,-3.89z"/>
 </g>
</svg>
