<svg width="300" height="300" xmlns="http://www.w3.org/2000/svg" fill="none"><defs><clipPath id="a"><path fill="#fff" d="M0 0h837v238H0z"/></clipPath></defs><g stroke="null" clip-path="url(#a)"><path fill="#35B34A" d="M41.745 172.146c-1.817 0-1.71-.107-4.276-1.602-2.566-1.496-5.986-3.847-7.376-5.342-1.39-1.496-3.207-4.06-3.635-5.236-.535-1.389-1.283-3.205-.962-4.166.214-.535.641-1.069 1.069-2.671.428-1.39 0-3.954 0-4.808 0-.641-.535-2.137-1.07-3.312-.534-1.069-2.458-2.671-3.206-3.74-.749-1.068-2.138-4.38-2.352-5.662-.214-1.283-.428-5.129-.107-6.41.534-2.672 1.176-4.168 1.817-5.45.749-1.71 3.849-4.914 4.918-5.662 2.352-1.603 4.81-2.992 7.804-3.847 2.031-.64 3.528-.854 5.238-.961 2.138-.32 7.804-.214 9.942.214 3.208.747 6.415 2.03 8.553 3.632 2.03 1.71 3.207 2.885 4.81 5.556 1.07 1.71 1.497 3.846 2.032 5.449.534 1.71.641 6.09.641 7.265 0 1.175-.427 2.564-.535 2.778-.106.107-1.175.961-1.175 1.602 0 .641 0 .855.32 1.39.321.534 1.176 2.457 1.604 2.991.428.534 1.71 2.671 2.031 3.419.32.748.855 1.495.428 2.35-.428.855-1.71.641-2.566.748-.748.107-1.817 0-2.031.748-.107.427.214.962.214.962.641.534.32 1.602-.321 1.923-.535.32-.641.32-1.176.534-.535.214-.427.214-.107.748s.32 1.175.214 1.602c-.107.428-.855.321-1.497.535-.534.213-1.069.427-1.069 1.175 0 .427.32 1.389 0 2.35-.32.855-1.39 2.03-2.352 2.458-.962.427-2.886.427-3.955.214-1.07-.214-2.887-.855-3.635-1.069-.641-.214-1.283.107-2.138.961-.855.855-1.817 2.458-2.459 3.526-.641 1.069-1.817 2.992-2.459 3.633-.107.855-1.176 1.175-1.176 1.175z" clip-rule="evenodd" fill-rule="evenodd"/><path fill="#fff" d="M30.411 127.275h4.597v14.85h1.283v3.847h2.352c.214-.32.427-.534.534-.748l.107-.107h-2.138v-4.167h-1.283v-14.423h-2.03v-9.189c-.856.32-1.605.641-2.353 1.069h1.71v1.816h-1.817v-1.816c-.534.32-.962.64-1.39.961-3.1 2.458-3.634 3.633-4.49 5.663-.106.214-.106.32-.213.534-.321.641-.749 1.496-1.176 2.244-.535.961-1.07 1.923-1.176 2.457-.535 1.816-.642 5.129.214 6.517.213.321.534.642.962.962a1.769 1.769 0 01-.535-1.282c0-.962.855-1.816 1.818-1.816.962 0 1.71.64 1.817 1.602h5.666v-.854h-.962v-2.137h.962v-.962h-5.666c-.214.855-.855 1.39-1.817 1.39-.963 0-1.818-.856-1.818-1.817 0-.962.855-1.817 1.818-1.817.855 0 1.603.641 1.817 1.39h6.414v2.564h-.962v.64h.962v2.458h-6.414c-.214.748-.962 1.282-1.71 1.282h-.428c.32.214.748.32 1.069.534.641.32 1.176.962 1.497 1.603h4.49v2.991h3.1v4.701c.427.428.855.748 1.39.748h.32c.214-.32.749-1.282 1.39-2.137h-2.459v-3.846H34.58V127.81h-4.169c-.107.855-.855 1.496-1.817 1.496s-1.818-.855-1.818-1.817c0-.961.856-1.816 1.818-1.816.962 0 1.71.748 1.817 1.603zm27.902 2.884v-5.021l1.39-.107c.535.855.962 1.496 1.069 1.816v.32c.214 1.283.535 4.274 0 5.343-.214.32-.428.748-.641 1.068h-3.742v2.992h-.214c-.428-.107-.962-.107-1.39-.107-.748 0-1.175.107-1.496.32h-8.98v-5.235h6.414v-10.256h-4.597v-4.488c1.818.214 4.063.748 5.452 1.282v15.6h-3.42c-.108-.749-.749-1.283-1.604-1.283-.855 0-1.604.748-1.604 1.603 0 .854.749 1.602 1.604 1.602.748 0 1.39-.534 1.603-1.282h3.956V118.3c.32.107.641.32.962.427 1.176.535 2.352 1.176 3.1 1.817.428.427 1.283 1.389 2.138 2.457h-2.03v6.945h-.963v3.419c-.32-.214-.641-.428-1.07-.428-.854 0-1.603.748-1.603 1.603s.749 1.602 1.604 1.602c.641 0 1.176-.32 1.39-.854h.106v-.428-.32-4.167h.963v-6.838h1.924c.214.32.535.641.748.962l-1.603.107v5.555c-.749.107-1.283.748-1.283 1.603s.748 1.603 1.603 1.603c.856 0 1.604-.748 1.604-1.603-.107-.855-.642-1.496-1.39-1.603zm1.283 4.167l-.641.641c-.642.641-1.283 1.069-1.818 1.282v-2.03h2.46v.107zm.748-.107c.321-.427.642-.961.963-1.495.641-1.176.32-4.167.106-5.663v-.32c-.213-1.39-4.062-5.663-4.917-6.518-.749-.748-2.031-1.389-3.207-1.923-.32-.107-.642-.32-.962-.427-1.818-.855-5.666-1.603-7.804-1.71-.856-.107-2.032-.107-3.315-.107-2.245 0-4.276.107-5.345.32-2.03.321-4.49 1.39-6.093 2.565-3.207 2.457-3.849 3.74-4.704 5.876-.107.107-.107.32-.214.534-.32.642-.748 1.496-1.176 2.244-.534 1.069-1.069 2.03-1.283 2.564-.534 1.817-.748 5.342.321 6.945.641.962 2.031 1.603 3.207 2.137.962.427 1.71 2.03 1.71 2.35 0 .641 2.032 2.992 3.315 3.526.32.107.855.214 1.282.32.428.107 1.07.214 1.176.321v.107c0 .427 0 1.068.749 1.71l.32.32v.107h.107l.107.107c.535.534 1.176 1.175 2.031 1.175.214 0 .321 0 .535-.107h.107v-.107s1.71-2.67 2.245-3.419c.107-.213.32-.32.428-.534h.213v-.107l.214-.214c.535-.427 1.07-.854 1.176-1.388.107-.641 1.818-1.923 2.352-2.03.535-.107 1.71-.107 2.886 0 .856.107 1.283-.428 1.71-.855.215-.32.535-.534.856-.641h.214c.641-.107 1.604-.641 2.352-1.175h.107v-.107c.214-.214.534-.428.641-.641.321-.428.535-.641.535-.641.107 0 .107 0 .213-.107.108-.107.535-.214 1.177-.214.427 0 .855 0 1.283.107h.32c1.176 0 2.566-1.175 2.994-1.71.427-.32.748-.64 1.068-1.175zm-7.59 2.992l-.32.32-.321.32h-8.98v-7.692h6.414v-7.585h-4.81v-5.877c.213 0 .534 0 .748.107v5.022h4.597v9.188h-6.415v6.197h9.087zm-1.603 1.389c-.535.32-1.176.64-1.604.64-.107 0-.107 0-.214.108h-7.697l.107-4.167h-.428v-6.624h6.842v-4.38h-4.703v-7.586h.641v6.73h4.81v5.984h-6.414v9.295h8.66zm-2.673 1.282l-.32.32c-.428.428-.749.748-1.284.641-.641-.106-1.176-.106-1.71-.106-.428 0-.855 0-1.176.106v-.106h-3.742v-3.42h-.962v-9.935h2.031v-10.898h1.604v8.12h4.704v3.312H40.78v7.692h.427l-.106 4.167h7.376v.107zm-20.419 1.175c.107.214.107.428.107.534 0 .32 1.818 2.458 2.993 2.992.214.107.749.213 1.176.213.856.107 1.604.214 1.604.748v.214c0 .428 0 .855.534 1.282v-3.205h-3.1v-2.992H28.06v.214zm14.967.214c-.32.214-.748.534-1.07.855h-2.565v-3.206h-1.497V126.1h1.497v-9.616h1.39v10.47H38.75v10.898h.962v3.419h3.314zm-1.604 1.389c-.214.213-.32.427-.32.64-.107.321-.428.749-.856 1.07h-2.245v-4.168h-1.283V125.78h-2.03v-8.761c.32-.107.64-.107.855-.214v1.603h1.817v-1.71c.428 0 .855 0 1.283-.106v9.081h-1.497v13.782h1.497v3.206h2.78zm-10.156-18.59a.73.73 0 01-.748.747h-1.069a.73.73 0 01-.748-.748.73.73 0 01.748-.747h1.069c.32 0 .748.32.748.747zm0-2.351a.73.73 0 01-.748.748h-1.069a.73.73 0 01-.748-.748.73.73 0 01.748-.748h1.069c.32-.107.748.32.748.748zm13.15 4.7a.73.73 0 01-.749.749h-1.069a.73.73 0 01-.748-.748.73.73 0 01.748-.748h1.07a.73.73 0 01.748.748zm5.452-7.371a.73.73 0 01-.749.748H48.05a.73.73 0 01-.748-.748.73.73 0 01.748-.748h1.07c.427-.107.748.32.748.748zm-14.432 5.662h2.138v-2.03h-2.138v2.03zm0-2.991h2.138v-2.03h-2.138v2.03zm9.407 5.663h2.138v-1.817h-2.138v1.817zm7.804 3.525h1.818v-1.816h-1.818v1.816zm0-3.846h1.818v-1.816h-1.818v1.816zm0-3.526h1.818v-1.816h-1.818v1.816zm-24.053 2.671c-.749 0-1.283.534-1.283 1.282s.534 1.282 1.283 1.282c.748 0 1.283-.534 1.283-1.282s-.535-1.282-1.283-1.282zm-3.1 4.274c-.749 0-1.283.534-1.283 1.282s.534 1.282 1.283 1.282c.748 0 1.282-.534 1.282-1.282s-.641-1.282-1.282-1.282zm0 4.7c-.749 0-1.283.535-1.283 1.283 0 .748.534 1.282 1.283 1.282.748 0 1.282-.534 1.282-1.282s-.641-1.282-1.282-1.282zm32.499-4.593a1.07 1.07 0 00-1.07 1.068 1.07 1.07 0 001.07 1.069 1.07 1.07 0 001.068-1.069 1.07 1.07 0 00-1.068-1.068zm-3.956 2.991a1.07 1.07 0 00-1.069 1.069 1.07 1.07 0 001.07 1.068c.64 0 1.068-.427 1.068-1.068s-.427-1.069-1.069-1.069zm-7.483-.64a1.07 1.07 0 00-1.07 1.068 1.07 1.07 0 001.07 1.068c.534 0 1.069-.427 1.069-1.068s-.535-1.069-1.07-1.069z" clip-rule="evenodd" fill-rule="evenodd"/><path fill="#000" d="M97.34 127.165c.747.32 1.39.747 1.924 1.282a6.075 6.075 0 011.283 1.923c.32.748.534 1.496.534 2.35v1.817c0 .427-.214.748-.641.854l-4.383 1.176c-.428.106-.642 0-.642-.535v-3.205c0-.32-.107-.64-.32-.855-.214-.213-.535-.32-.856-.32h-.428c-.32 0-.641.107-.855.32-.214.214-.32.535-.32.855v4.38c0 .321.106.642.213.962.107.214.32.534.535.748l6.307 4.808c.535.427.856.961.963 1.389.107.427.213.961.32 1.603v8.333c0 .855-.213 1.603-.534 2.35a6.074 6.074 0 01-1.283 1.924 6.067 6.067 0 01-1.925 1.282c-.748.32-1.497.534-2.351.534h-1.818c-.855 0-1.604-.213-2.352-.534a6.065 6.065 0 01-1.924-1.282 6.061 6.061 0 01-1.282-1.923c-.322-.535-.536-1.39-.536-2.137v-4.701c0-.427.214-.748.642-.855l4.383-1.175c.428-.107.642 0 .642.534v5.983c0 .32.106.641.32.855.214.214.534.32.855.32h.428c.321 0 .642-.106.855-.32.214-.214.32-.534.32-.855v-6.41c0-.428-.106-.748-.213-1.069-.107-.32-.32-.64-.534-.854l-6.308-4.808c-.534-.428-.854-.855-1.069-1.39-.214-.427-.32-1.068-.32-1.816v-5.769c0-.855.213-1.603.535-2.35a6.062 6.062 0 011.282-1.924 6.064 6.064 0 011.924-1.282c.748-.32 1.497-.534 2.352-.534h1.818c.854-.107 1.71 0 2.458.32zm23.625 4.914a.325.325 0 010 .428l-6.628 12.393 6.521 15.385c.107.214 0 .32 0 .428-.107.107-.213.214-.427.214h-4.81c-.215 0-.321-.107-.536-.214-.214-.107-.32-.214-.32-.428l-3.528-8.013-.855 1.603v6.41c0 .428-.214.642-.642.642h-4.276c-.427 0-.641-.214-.641-.642v-27.778c0-.428.214-.641.641-.641h4.276c.428 0 .642.213.642.64v8.441l4.49-8.547c.213-.428.428-.534.962-.534h4.81c.214 0 .321.106.321.213zm8.98 28.206c0 .428-.214.642-.641.642h-4.277c-.427 0-.64-.214-.64-.642v-27.778c0-.428.213-.641.64-.641h4.277c.427 0 .641.213.641.64v27.78zm16.998-4.273v4.273c0 .428-.214.642-.641.642H135.29c-.428 0-.642-.214-.642-.642v-27.778c0-.428.214-.641.642-.641h4.276c.427 0 .641.213.641.64v22.758h5.987c.534 0 .748.32.748.748zm16.036 0v4.273c0 .428-.214.642-.641.642h-11.012c-.428 0-.641-.214-.641-.642v-27.778c0-.428.213-.641.641-.641h4.276c.428 0 .642.213.642.64v22.758h5.987c.534 0 .748.32.748.748zm15.287-28.313v4.273c0 .428-.214.641-.641.641h-5.56v6.945h4.811c.428 0 .642.214.642.641v4.274c0 .427-.214.64-.642.64h-4.81v14.959c0 .427-.214.64-.642.64h-4.276c-.427 0-.641-.213-.641-.64v-32.373c0-.428.214-.641.641-.641h10.584c.32 0 .534.213.534.64zm16.464 32.586c.107.428-.107.642-.535.642h-4.383c-.428 0-.642-.214-.749-.642l-.427-4.808h-2.994l-.427 4.808c-.107.428-.32.642-.748.642h-4.383c-.428 0-.642-.214-.535-.642l3.635-27.778c.107-.428.32-.641.748-.641h6.415c.427 0 .748.213.748.64l3.635 27.78zm13.042-28.206c.748.32 1.39.748 1.924 1.282a6.062 6.062 0 011.283 1.924c.321.747.535 1.495.535 2.35v2.885c0 .427-.215.748-.642.854l-4.383.641c-.427.107-.641 0-.641-.534v-3.74c0-.32-.107-.64-.32-.854-.215-.214-.535-.32-.857-.32h-.427c-.32 0-.641.106-.855.32-.214.214-.32.534-.32.855v17.094c0 .32.106.641.32.855.214.214.534.32.855.32h.427c.322 0 .642-.106.856-.32.214-.214.32-.534.32-.855v-5.77c0-.426.215-.64.642-.533l4.383.534c.427.107.642.427.642.855v5.128c0 .855-.214 1.603-.535 2.35a6.061 6.061 0 01-1.283 1.924 6.065 6.065 0 01-1.924 1.282c-.748.32-1.497.534-2.352.534h-1.817c-.855 0-1.604-.213-2.352-.534a6.06 6.06 0 01-1.924-1.282 6.063 6.063 0 01-1.284-1.923c-.32-.748-.534-1.496-.534-2.351v-17.415c0-.855.214-1.603.534-2.35a6.064 6.064 0 011.284-1.924 6.059 6.059 0 011.924-1.282c.748-.32 1.497-.534 2.352-.534h1.817c.855 0 1.604.107 2.352.534zm19.35.534v4.274c0 .427-.214.641-.642.641h-3.42v22.757c0 .428-.214.642-.642.642h-4.276c-.214 0-.32-.107-.428-.214a.813.813 0 01-.214-.535v-22.65h-3.42c-.428 0-.642-.214-.642-.64v-4.275c0-.427.214-.64.641-.64h12.508c.32-.107.535.106.535.64zm16.57 22.65c0 .856-.214 1.603-.535 2.351a6.061 6.061 0 01-1.282 1.923 6.065 6.065 0 01-1.925 1.283c-.748.32-1.497.534-2.351.534h-1.818c-.855 0-1.604-.214-2.352-.534a6.067 6.067 0 01-1.924-1.283 6.074 6.074 0 01-1.283-1.923c-.321-.748-.535-1.495-.535-2.35v-17.629c0-.855.214-1.603.535-2.35a6.075 6.075 0 011.283-1.924 6.066 6.066 0 011.924-1.282c.748-.32 1.497-.534 2.352-.534h1.818c.854 0 1.603.214 2.351.534.749.32 1.39.748 1.925 1.282a6.062 6.062 0 011.282 1.924c.321.747.535 1.495.535 2.35v17.629zm9.515 5.022c0 .428-.215.642-.749.642h-4.276c-.427 0-.642-.214-.642-.642v-27.778c0-.428.215-.641.642-.641h7.27c.855 0 1.603.213 2.351.534.749.32 1.39.748 1.925 1.282a6.065 6.065 0 011.283 1.923c.32.748.534 1.496.534 2.35v5.984c0 1.175-.32 2.243-1.069 3.205-.748.961-1.604 1.71-2.566 2.243l4.597 10.898c.107.428-.107.642-.535.642h-4.383a.816.816 0 01-.534-.214.588.588 0 01-.32-.535l-3.528-8.974v9.081zm27.046-28.206a.325.325 0 010 .428l-5.559 17.201v10.577c0 .428-.214.642-.641.642h-4.383c-.427 0-.641-.214-.641-.642v-10.577l-5.666-17.095c-.107-.213 0-.32 0-.427.106-.107.213-.214.427-.214h5.131c.428 0 .749.214.749.641l1.924 9.296h.214l1.924-9.296c.107-.427.32-.64.748-.64h5.132c.428-.107.535 0 .641.106zm-92.044 18.057l-.963-10.685h-.427l-.962 10.685h2.352zm49.71-12.287c0-.32-.107-.641-.32-.855-.214-.214-.535-.32-.856-.32h-.428c-.32 0-.64.106-.855.32-.213.214-.32.534-.32.855v17.094c0 .32.107.641.32.855.214.214.535.32.855.32h.428c.321 0 .642-.106.856-.32.213-.214.32-.534.32-.855V137.85zm15.287 7.051h1.604c.32 0 .641-.107.855-.32.214-.214.32-.534.32-.855v-5.449c0-.32-.106-.641-.32-.855-.214-.213-.534-.32-.855-.32h-1.604v7.8z" clip-rule="evenodd" fill-rule="evenodd"/><path fill="#5A5A5A" d="M168.303 178.06v5.31h-1.896v-9.174h1.896v.847c.623-.673 1.571-1.072 2.594-1.072 1.172 0 2.17.499 2.844 1.421.748-.897 1.92-1.42 3.192-1.42 2.32 0 3.866 1.72 3.866 4.162v5.26h-1.895v-5.235c0-1.396-.823-2.343-2.096-2.343-1.272 0-2.27.972-2.27 2.268v5.31h-1.895v-5.235c0-1.396-.823-2.343-2.095-2.343-1.247-.025-2.245.947-2.245 2.244zM190.178 175.193v-.997h1.896v9.173h-1.896v-.997c-.773.773-1.845 1.247-3.093 1.247-2.694 0-4.764-2.094-4.764-4.812 0-2.742 2.07-4.81 4.764-4.81 1.272-.05 2.32.423 3.093 1.196zm-5.861 3.564c0 1.745 1.247 2.992 2.943 2.992 1.72 0 2.943-1.272 2.943-2.992s-1.222-2.99-2.943-2.99c-1.696.024-2.943 1.246-2.943 2.99zM196.489 171.404c0 .673-.549 1.221-1.223 1.221a1.203 1.203 0 01-1.197-1.22c0-.674.524-1.198 1.197-1.198.674 0 1.223.524 1.223 1.197zm-.275 11.966h-1.895v-9.174h1.895v9.174zM200.455 183.37h-1.896v-12.963h1.896v12.963zM203.971 183.619a1.283 1.283 0 01-1.272-1.296c0-.748.624-1.297 1.272-1.297.674 0 1.273.549 1.273 1.297 0 .748-.6 1.296-1.273 1.296zM209.31 178.584v4.761h-1.896v-9.174h1.896v1.247c.673-.873 1.571-1.247 2.868-1.247h.749v1.77h-.749c-1.696 0-2.868 1.072-2.868 2.643zM220.758 179.406v-5.21h1.896v9.174h-1.896v-.923c-.673.723-1.696 1.147-2.818 1.147-2.295 0-3.817-1.72-3.817-4.213v-5.21h1.896v5.16c0 1.496.898 2.419 2.245 2.419 1.397 0 2.494-1.048 2.494-2.344zM236.623 175.143v-.947h1.895v7.952c0 2.942-1.895 4.762-4.889 4.762-1.471 0-2.943-.45-3.94-1.147l.873-1.596c.798.549 1.97.898 3.067.898 1.871 0 2.969-.997 2.969-2.717v-.175c-.773.773-1.846 1.197-3.093 1.197-2.694 0-4.765-2.02-4.765-4.687 0-2.667 2.07-4.686 4.765-4.686 1.272-.05 2.345.373 3.118 1.146zm-5.887 3.49c0 1.695 1.247 2.867 2.943 2.867 1.722 0 2.944-1.197 2.944-2.867s-1.222-2.867-2.944-2.867c-1.696.025-2.943 1.197-2.943 2.867zM242.559 178.584v4.761h-1.896v-9.174h1.896v1.247c.673-.873 1.571-1.247 2.868-1.247h.748v1.77h-.748c-1.696 0-2.868 1.072-2.868 2.643zM251.289 183.594c-2.744 0-4.914-2.12-4.914-4.811 0-2.693 2.17-4.812 4.914-4.812 2.743 0 4.913 2.12 4.913 4.812s-2.17 4.81-4.913 4.81zm0-1.845c1.696 0 2.943-1.271 2.943-2.991 0-1.72-1.247-2.992-2.943-2.992-1.697 0-2.944 1.272-2.944 2.992s1.247 2.99 2.944 2.99zM264.384 179.406v-5.21h1.896v9.174h-1.896v-.923c-.673.723-1.696 1.147-2.818 1.147-2.295 0-3.817-1.72-3.817-4.213v-5.21h1.896v5.16c0 1.496.898 2.419 2.245 2.419 1.397 0 2.494-1.048 2.494-2.344zM278.153 178.758c0 2.742-2.07 4.811-4.765 4.811-1.272 0-2.32-.473-3.092-1.246v4.238H268.4v-12.415h1.896v.997c.773-.772 1.845-1.246 3.092-1.246 2.694.05 4.765 2.144 4.765 4.861zm-7.857 0c0 1.72 1.222 2.992 2.943 2.992 1.696 0 2.943-1.247 2.943-2.992 0-1.745-1.247-2.991-2.943-2.991-1.721.025-2.943 1.27-2.943 2.991z"/></g></svg>