<svg width="172" height="28" viewBox="0 0 172 28" fill="none" xmlns="http://www.w3.org/2000/svg">
<path fill-rule="evenodd" clip-rule="evenodd" d="M0 2.29411C0 1.02711 1.02711 0 2.29411 0H23.7058C24.9729 0 26 1.02711 26 2.29411V23.7058C26 24.9729 24.9729 26 23.7058 26H2.29411C1.02711 26 0 24.9729 0 23.7058V2.29411ZM4.97058 2.75295C3.70358 2.75295 2.67647 3.78005 2.67647 5.04705V21.1058C2.67647 22.3729 3.70358 23.4 4.97058 23.4H21.0295C22.2964 23.4 23.3235 22.3729 23.3235 21.1058V5.04705C23.3235 3.78005 22.2964 2.75295 21.0295 2.75295H4.97058ZM4.89411 3.67058C4.26062 3.67058 3.74705 4.18415 3.74705 4.81765V21.4118C3.74705 22.0453 4.26062 22.5589 4.89411 22.5589H21.2589C21.8924 22.5589 22.4058 22.0453 22.4058 21.4118V4.81765C22.4058 4.18415 21.8924 3.67058 21.2589 3.67058H4.89411ZM8.96847 11.4033L10.6937 14.3765H12.5167L10.6202 11.1463C11.1178 10.9179 11.5175 10.5795 11.8193 10.1308C12.1211 9.67407 12.272 9.18053 12.272 8.65035C12.272 7.86729 11.9946 7.19844 11.44 6.64376C10.8854 6.08911 10.2124 5.81176 9.42118 5.81176H5.99529V14.3765H7.68376V11.4033H8.96847ZM7.68376 9.92282V7.39011H9.42118C9.73929 7.39011 10.0125 7.51247 10.2409 7.75718C10.4694 8.00189 10.5835 8.29958 10.5835 8.65035C10.5835 9.00113 10.4694 9.30287 10.2409 9.55576C10.0125 9.80047 9.73929 9.92282 9.42118 9.92282H7.68376Z" fill="#0F1214"/>
<path d="M47.09 21H44.318L41.062 15.39H38.07V21H35.54V5.6H41.7C43.0787 5.6 44.2447 6.084 45.198 7.052C46.166 7.99067 46.65 9.15667 46.65 10.55C46.65 11.5327 46.364 12.4347 45.792 13.256C45.2347 14.0627 44.5013 14.6493 43.592 15.016L47.09 21ZM41.7 7.976H38.07V13.124H41.7C42.3747 13.124 42.9467 12.8747 43.416 12.376C43.8853 11.8773 44.12 11.2687 44.12 10.55C44.12 9.83133 43.8853 9.22267 43.416 8.724C42.9467 8.22533 42.3747 7.976 41.7 7.976ZM59.0341 16.512H50.2781C50.4541 17.3333 50.8501 17.9713 51.4661 18.426C52.0968 18.8807 52.8741 19.108 53.7981 19.108C55.0448 19.108 55.9908 18.6533 56.6361 17.744L58.5941 18.888C57.5234 20.4867 55.9174 21.286 53.7761 21.286C52.0014 21.286 50.5568 20.7433 49.4421 19.658C48.3421 18.558 47.7921 17.172 47.7921 15.5C47.7921 13.872 48.3348 12.5007 49.4201 11.386C50.4908 10.2713 51.8841 9.714 53.6001 9.714C55.1988 9.714 56.5188 10.2787 57.5601 11.408C58.6014 12.5373 59.1221 13.9087 59.1221 15.522C59.1221 15.8153 59.0928 16.1453 59.0341 16.512ZM50.2561 14.576H56.7241C56.5628 13.7107 56.1961 13.0433 55.6241 12.574C55.0668 12.1047 54.3848 11.87 53.5781 11.87C52.6981 11.87 51.9648 12.112 51.3781 12.596C50.7914 13.08 50.4174 13.74 50.2561 14.576ZM63.0271 13.036C63.0271 13.3733 63.2031 13.652 63.5551 13.872C63.9071 14.0773 64.4204 14.2753 65.0951 14.466C65.6084 14.5833 66.0558 14.708 66.4371 14.84C66.8184 14.972 67.2218 15.17 67.6471 15.434C68.0724 15.6833 68.3951 16.0207 68.6151 16.446C68.8498 16.8567 68.9598 17.3407 68.9451 17.898C68.9451 18.954 68.5344 19.7827 67.7131 20.384C66.8918 20.9853 65.8724 21.286 64.6551 21.286C63.5698 21.286 62.6384 21.0587 61.8611 20.604C61.0838 20.1493 60.5191 19.5187 60.1671 18.712L62.2131 17.524C62.5798 18.58 63.3938 19.108 64.6551 19.108C65.9018 19.108 66.5251 18.6973 66.5251 17.876C66.5251 17.2747 65.8284 16.8053 64.4351 16.468C63.9071 16.336 63.4598 16.204 63.0931 16.072C62.7411 15.94 62.3451 15.7493 61.9051 15.5C61.4798 15.2507 61.1498 14.9207 60.9151 14.51C60.6951 14.0993 60.5924 13.6227 60.6071 13.08C60.6071 12.068 60.9884 11.254 61.7511 10.638C62.5284 10.022 63.4891 9.714 64.6331 9.714C65.5424 9.714 66.3491 9.91933 67.0531 10.33C67.7718 10.726 68.3218 11.2833 68.7031 12.002L66.7011 13.124C66.3344 12.288 65.6451 11.87 64.6331 11.87C64.1638 11.87 63.7751 11.9727 63.4671 12.178C63.1738 12.3833 63.0271 12.6693 63.0271 13.036ZM78.4288 15.896V10H80.8048V21H78.4288V19.592C77.6955 20.7213 76.5588 21.286 75.0188 21.286C73.7428 21.286 72.7162 20.8827 71.9388 20.076C71.1762 19.2547 70.7948 18.1473 70.7948 16.754V10H73.1708V16.512C73.1708 17.3333 73.3908 17.964 73.8308 18.404C74.2708 18.844 74.8722 19.064 75.6348 19.064C76.5002 19.064 77.1822 18.8 77.6808 18.272C78.1795 17.7293 78.4288 16.9373 78.4288 15.896ZM86.0692 21H83.6932V4.94H86.0692V21ZM95.076 10V12.288H92.348V17.568C92.348 18.0227 92.4506 18.3527 92.656 18.558C92.8613 18.7487 93.162 18.8587 93.558 18.888C93.9686 18.9027 94.4746 18.8953 95.076 18.866V21C93.2573 21.22 91.952 21.066 91.16 20.538C90.368 19.9953 89.972 19.0053 89.972 17.568V12.288H87.948V10H89.972V7.624L92.348 6.92V10H95.076ZM108.338 21.286C106.857 21.286 105.596 20.956 104.554 20.296C103.528 19.6213 102.809 18.69 102.398 17.502L104.576 16.226C105.192 17.9567 106.468 18.822 108.404 18.822C109.343 18.822 110.054 18.6387 110.538 18.272C111.022 17.9053 111.264 17.414 111.264 16.798C111.264 16.182 111.008 15.7053 110.494 15.368C109.981 15.0307 109.072 14.664 107.766 14.268C106.432 13.872 105.354 13.4027 104.532 12.86C103.535 12.156 103.036 11.122 103.036 9.758C103.036 8.394 103.52 7.316 104.488 6.524C105.442 5.71733 106.608 5.314 107.986 5.314C109.204 5.314 110.274 5.61467 111.198 6.216C112.137 6.80267 112.856 7.63133 113.354 8.702L111.22 9.934C110.575 8.49667 109.497 7.778 107.986 7.778C107.253 7.778 106.666 7.954 106.226 8.306C105.786 8.64333 105.566 9.10533 105.566 9.692C105.566 10.264 105.786 10.7187 106.226 11.056C106.666 11.3787 107.48 11.7233 108.668 12.09C109.402 12.3393 109.827 12.486 109.944 12.53C110.135 12.5887 110.516 12.7353 111.088 12.97C111.558 13.1607 111.932 13.366 112.21 13.586C113.354 14.4807 113.882 15.5367 113.794 16.754C113.794 18.1473 113.288 19.2547 112.276 20.076C111.294 20.8827 109.981 21.286 108.338 21.286ZM121.423 21.286C119.766 21.286 118.38 20.7287 117.265 19.614C116.165 18.4847 115.615 17.1133 115.615 15.5C115.615 13.8573 116.165 12.486 117.265 11.386C118.38 10.2713 119.766 9.714 121.423 9.714C122.494 9.714 123.469 9.97067 124.349 10.484C125.229 10.9973 125.889 11.6867 126.329 12.552L124.283 13.74C124.034 13.212 123.652 12.8013 123.139 12.508C122.64 12.2 122.061 12.046 121.401 12.046C120.433 12.046 119.619 12.376 118.959 13.036C118.314 13.7107 117.991 14.532 117.991 15.5C117.991 16.468 118.314 17.2893 118.959 17.964C119.619 18.624 120.433 18.954 121.401 18.954C122.046 18.954 122.626 18.8073 123.139 18.514C123.667 18.206 124.063 17.788 124.327 17.26L126.373 18.426C125.904 19.306 125.222 20.0027 124.327 20.516C123.447 21.0293 122.479 21.286 121.423 21.286ZM133.986 9.714C135.262 9.714 136.282 10.1247 137.044 10.946C137.822 11.7527 138.21 12.8527 138.21 14.246V21H135.834V14.488C135.834 13.6667 135.614 13.036 135.174 12.596C134.734 12.156 134.133 11.936 133.37 11.936C132.505 11.936 131.823 12.2073 131.324 12.75C130.826 13.278 130.576 14.0627 130.576 15.104V21H128.2V5.6H130.576V11.408C131.31 10.2787 132.446 9.714 133.986 9.714ZM150.185 19.614C149.07 20.7287 147.699 21.286 146.071 21.286C144.443 21.286 143.071 20.7287 141.957 19.614C140.827 18.4847 140.263 17.1133 140.263 15.5C140.263 13.8867 140.827 12.5153 141.957 11.386C143.071 10.2713 144.443 9.714 146.071 9.714C147.699 9.714 149.07 10.2713 150.185 11.386C151.314 12.5153 151.879 13.8867 151.879 15.5C151.879 17.1133 151.314 18.4847 150.185 19.614ZM142.639 15.5C142.639 16.4973 142.969 17.326 143.629 17.986C144.289 18.646 145.103 18.976 146.071 18.976C147.039 18.976 147.853 18.646 148.513 17.986C149.173 17.326 149.503 16.4973 149.503 15.5C149.503 14.5027 149.173 13.674 148.513 13.014C147.853 12.354 147.039 12.024 146.071 12.024C145.103 12.024 144.289 12.354 143.629 13.014C142.969 13.674 142.639 14.5027 142.639 15.5ZM163.443 19.614C162.328 20.7287 160.957 21.286 159.329 21.286C157.701 21.286 156.33 20.7287 155.215 19.614C154.086 18.4847 153.521 17.1133 153.521 15.5C153.521 13.8867 154.086 12.5153 155.215 11.386C156.33 10.2713 157.701 9.714 159.329 9.714C160.957 9.714 162.328 10.2713 163.443 11.386C164.572 12.5153 165.137 13.8867 165.137 15.5C165.137 17.1133 164.572 18.4847 163.443 19.614ZM155.897 15.5C155.897 16.4973 156.227 17.326 156.887 17.986C157.547 18.646 158.361 18.976 159.329 18.976C160.297 18.976 161.111 18.646 161.771 17.986C162.431 17.326 162.761 16.4973 162.761 15.5C162.761 14.5027 162.431 13.674 161.771 13.014C161.111 12.354 160.297 12.024 159.329 12.024C158.361 12.024 157.547 12.354 156.887 13.014C156.227 13.674 155.897 14.5027 155.897 15.5ZM169.771 21H167.395V4.94H169.771V21Z" fill="#0F1214"/>
</svg>
