<?xml version="1.0" encoding="UTF-8"?>
<!DOCTYPE svg PUBLIC "-//W3C//DTD SVG 1.1//EN" "http://www.w3.org/Graphics/SVG/1.1/DTD/svg11.dtd">
<!-- Creator: CorelDRAW X6 -->
<svg xmlns="http://www.w3.org/2000/svg" xml:space="preserve" width="360.539mm" height="200.152mm" version="1.1" style="shape-rendering:geometricPrecision; text-rendering:geometricPrecision; image-rendering:optimizeQuality; fill-rule:evenodd; clip-rule:evenodd" viewBox="0 0 36054 20015" xmlns:xlink="http://www.w3.org/1999/xlink">
 <defs>
  <style type="text/css">
   <![CDATA[
    .fil0 {fill:#37364C;fill-rule:nonzero}
    .fil1 {fill:#fdc931;fill-rule:nonzero}
    .fil2 {fill:#FEFEFE;fill-rule:nonzero}
   ]]>
  </style>
 </defs>
 <g id="Layer_x0020_1">
  <metadata id="CorelCorpID_0Corel-Layer"/>
  <g id="_623747200">
   <g>
    <g>
     <path class="fil0" d="M28461 13222l-20837 0c-2822,0 -5118,-2366 -5118,-5274 0,-2908 2296,-5274 5118,-5274l20837 0c2822,0 5118,2366 5118,5274 0,2908 -2296,5274 -5118,5274z"/>
     <g>
      <g>
       <path class="fil1" d="M36009 7949c0,-4341 -3427,-7872 -7639,-7872l-20655 0c-4213,0 -7639,3531 -7639,7872 0,4341 3426,7872 7639,7872l14041 0 8625 4026 -2011 -4026c4212,0 7639,-3531 7639,-7872zm-7639 5228l0 0 -20655 0c-2798,0 -5073,-2346 -5073,-5228 0,-1317 475,-2520 1257,-3440 229,188 449,269 664,347 302,111 588,216 902,639l182 -143c-354,-479 -686,-601 -1008,-718 -198,-72 -388,-142 -584,-300 924,-993 2223,-1613 3660,-1613l20655 0c2797,0 5073,2345 5073,5228 0,2882 -2276,5228 -5073,5228z"/>
       <path class="fil1" d="M5562 5703l-274 237c-530,458 -722,1176 -552,1822 64,239 175,468 339,670l322 395 1590 -1373 -148 -182 -1277 -1569z"/>
      </g>
      <g>
       <g>
        <path class="fil2" d="M10341 8019l-1061 -1304 -406 -498 -1485 1272 1 1 -1809 1563 1471 1808c608,748 1692,846 2418,219l658 -569c726,-627 822,-1743 213,-2492z"/>
        <path class="fil2" d="M8365 5590c-609,-748 -1693,-846 -2419,-219l-164 142 1342 1650 96 118 1485 -1272 -340 -419z"/>
       </g>
      </g>
     </g>
    </g>
    <g>
     <g>
      <path class="fil1" d="M15255 4372c0,192 -7,479 -23,863 -15,384 -23,673 -23,866l0 1660c0,46 -24,68 -71,68 -39,0 -98,2 -177,6 -79,3 -138,5 -178,5 -42,0 -106,-4 -190,-11 -85,-6 -149,-10 -191,-10 -29,0 -64,-27 -105,-83 -118,-163 -382,-524 -792,-1083 -113,-157 -284,-387 -514,-691 -7,-10 -19,-20 -37,-30 -13,12 -19,30 -19,55 0,195 5,488 16,877 10,390 16,682 16,877 0,59 -22,88 -67,88l-846 0c-47,0 -71,-25 -71,-78 0,-181 9,-455 26,-821 17,-366 26,-641 26,-824 0,-193 -8,-482 -23,-867 -16,-385 -24,-673 -24,-864 0,-37 32,-56 96,-56 94,0 211,-7 349,-20 33,-3 97,-14 194,-33 81,-15 145,-22 193,-22 19,0 49,28 90,85l912 1288c82,116 205,286 370,509 40,52 75,78 105,78 21,0 32,-65 32,-196 0,-177 -10,-442 -29,-797 -18,-354 -28,-621 -28,-799 0,-62 17,-93 52,-93 98,0 245,-4 442,-12 198,-9 345,-13 443,-13 31,0 46,26 46,78z"/>
      <path class="fil1" d="M19107 6065c0,525 -162,964 -487,1318 -331,360 -750,540 -1257,540 -503,0 -922,-182 -1254,-545 -326,-354 -489,-792 -489,-1313 0,-522 163,-961 489,-1317 332,-365 751,-547 1254,-547 501,0 918,182 1252,547 328,359 492,798 492,1317zm-927 -4l0 0c0,-253 -74,-467 -222,-643 -155,-185 -353,-277 -595,-277 -229,0 -424,95 -584,287 -155,185 -232,397 -232,637 0,258 72,472 217,643 153,180 353,270 599,270 230,0 426,-95 587,-285 153,-181 230,-392 230,-632z"/>
      <path class="fil1" d="M22386 7804c0,12 -16,20 -49,25 -62,11 -217,16 -467,16 -213,0 -358,-5 -435,-16 -36,-5 -56,-9 -61,-12 -10,-5 -21,-22 -34,-50 -25,-66 -61,-163 -108,-293 -64,-168 -163,-416 -298,-743 -30,-66 -97,-102 -203,-109 49,4 -35,5 -252,5 -25,0 -37,43 -37,129 0,114 10,285 31,512 20,226 30,397 30,511 0,29 -7,45 -22,50 -23,2 -45,4 -68,6 -96,6 -246,10 -450,10 -233,0 -374,-5 -421,-16 -47,-10 -71,-36 -71,-78 0,-184 9,-463 26,-836 17,-373 26,-653 26,-839 0,-711 -16,-1265 -47,-1664l-2 -35c-2,-28 24,-48 77,-58 53,-10 302,-20 747,-30 301,-7 542,-10 721,-10 372,0 675,86 910,259 266,195 399,477 399,845 0,245 -35,441 -103,587 -69,146 -195,288 -379,426 -38,27 -56,52 -56,75 0,-1 99,209 298,633 199,423 298,657 298,700zm-1027 -2260l0 0c0,-205 -65,-347 -195,-426 -102,-60 -260,-91 -475,-91 -155,0 -237,25 -247,73 -10,58 -15,222 -15,494 0,39 1,96 3,172 1,75 2,132 2,168 0,9 26,17 79,26 99,15 203,22 313,22 357,0 535,-146 535,-438z"/>
      <path class="fil1" d="M25854 6043c0,494 -154,922 -462,1285 -273,324 -655,495 -1147,512 -95,3 -355,5 -780,5 -80,0 -201,-3 -361,-8 -161,-5 -281,-8 -361,-8 -47,0 -71,-19 -71,-57 0,-185 7,-463 21,-833 14,-371 21,-648 21,-833 0,-193 -7,-483 -21,-868 -14,-386 -21,-674 -21,-866 0,-35 24,-56 71,-63 116,-13 306,-20 570,-20 502,0 827,8 976,23 386,40 688,141 907,302 205,151 367,363 487,635 114,257 171,522 171,794zm-937 0l0 0c0,-284 -82,-516 -247,-696 -166,-186 -386,-279 -660,-279 -251,0 -377,34 -377,103 0,99 -1,248 -5,447 -3,199 -4,348 -4,447 0,98 1,245 4,440 4,196 5,343 5,443 0,72 131,108 392,108 282,0 503,-97 665,-290 151,-183 227,-424 227,-723z"/>
      <path class="fil1" d="M27226 5967c0,198 5,497 14,895 10,398 15,696 15,894 0,34 -7,55 -22,63 -3,2 -24,5 -64,10 -106,14 -248,21 -425,21 -238,0 -390,-7 -455,-21 -47,-10 -71,-36 -71,-78 0,27 7,-121 22,-443 30,-681 44,-1127 44,-1341 0,-179 -6,-449 -17,-809 -11,-359 -17,-629 -17,-809 0,-37 19,-55 56,-55 51,0 127,3 229,8 102,5 178,7 228,7 51,0 126,-2 224,-7 99,-5 173,-8 224,-8 47,0 71,18 71,55 0,180 -10,450 -28,809 -19,360 -28,630 -28,809z"/>
      <path class="fil1" d="M30581 7260c0,27 -17,62 -52,106 -300,368 -698,552 -1195,552 -509,0 -921,-179 -1238,-537 -308,-346 -462,-783 -462,-1310 0,-511 151,-945 452,-1301 315,-373 715,-559 1201,-559 528,0 942,167 1242,501 33,37 49,70 49,99 0,32 -56,150 -170,355 -113,205 -184,320 -214,345 -13,14 -29,20 -49,20 -8,0 -48,-33 -122,-100 -88,-81 -174,-144 -259,-189 -129,-68 -263,-101 -401,-101 -240,0 -431,92 -575,277 -132,171 -198,383 -198,635 0,255 66,469 198,643 144,188 335,282 575,282 142,0 276,-32 403,-96 84,-42 168,-101 255,-176 71,-64 111,-96 120,-96 16,0 32,9 48,28 27,30 97,135 213,315 119,186 179,288 179,307z"/>
     </g>
     <g>
      <g>
       <path class="fil2" d="M12781 10056c0,152 3,380 11,684 7,305 11,533 11,685 0,26 -5,42 -17,48 -2,1 -18,4 -48,8 -81,10 -189,15 -324,15 -182,0 -297,-5 -347,-15 -36,-8 -54,-28 -54,-60 0,21 6,-92 17,-339 22,-521 34,-863 34,-1026 0,-138 -5,-344 -14,-619 -8,-275 -13,-481 -13,-619 0,-28 15,-42 43,-42 39,0 97,2 174,5 78,4 136,6 175,6 38,0 95,-2 170,-6 75,-3 132,-5 171,-5 36,0 54,14 54,42 0,138 -8,344 -22,619 -14,275 -21,481 -21,619z"/>
       <path class="fil2" d="M14975 9366c0,25 -13,38 -41,38 -47,0 -234,-9 -560,-29 -8,326 -12,552 -12,681 0,152 6,380 18,684 12,305 18,533 18,685 0,24 -6,40 -17,46 -4,3 -21,6 -52,10 -75,10 -184,15 -328,15 -160,0 -273,-5 -337,-15 -35,-7 -52,-26 -52,-60 0,-152 6,-379 18,-682 13,-304 19,-531 19,-683 0,-100 -5,-324 -15,-671 -248,26 -446,38 -594,38 -20,0 -30,-6 -30,-19 0,-17 9,-66 26,-148 20,-90 31,-145 33,-164 4,-61 9,-121 14,-181 8,-97 23,-145 44,-145 3,0 11,1 26,2 202,27 499,40 893,40 111,0 318,-12 618,-36 162,-13 243,-20 244,-20 25,0 39,2 43,5 4,4 6,16 8,38 0,35 -2,83 -4,144 -3,69 -4,117 -4,145 0,32 4,80 12,142 8,62 12,109 12,140z"/>
      </g>
      <g>
       <path class="fil1" d="M17399 10594c0,261 -106,485 -319,671 -186,164 -412,269 -680,314 -9,2 -18,2 -24,2 -28,0 -92,-90 -190,-271 -98,-180 -147,-291 -147,-330 0,-15 9,-24 28,-28 180,-42 299,-78 358,-107 129,-67 193,-166 193,-297 0,-84 -42,-177 -126,-280 -147,-175 -226,-272 -239,-291 -85,-134 -128,-282 -128,-444 0,-235 105,-430 315,-586 171,-128 382,-212 631,-250 14,-2 24,-2 32,-2 18,0 33,15 45,46 32,94 107,263 225,509 4,8 6,14 6,19 0,22 -12,33 -34,33 -10,0 -27,-2 -50,-6 -24,-4 -42,-6 -54,-6 -90,0 -168,22 -235,64 -81,49 -121,117 -121,204 0,79 45,175 134,290 158,205 240,313 248,324 88,141 132,282 132,422z"/>
       <path class="fil1" d="M19884 11045c0,21 -13,48 -39,81 -228,282 -532,422 -911,422 -387,0 -702,-137 -943,-410 -234,-265 -352,-599 -352,-1003 0,-391 115,-722 345,-995 240,-285 545,-428 915,-428 402,0 718,128 946,384 25,28 37,53 37,75 0,24 -43,115 -129,272 -86,157 -141,245 -163,264 -10,10 -22,15 -37,15 -7,0 -38,-25 -94,-77 -67,-61 -132,-110 -197,-144 -98,-52 -200,-78 -306,-78 -182,0 -328,71 -437,213 -101,131 -151,293 -151,486 0,195 50,359 151,491 109,144 255,216 437,216 109,0 211,-24 308,-73 63,-32 128,-77 194,-135 54,-49 85,-73 91,-73 12,0 25,7 37,21 20,23 74,103 162,241 91,142 136,221 136,235z"/>
       <path class="fil1" d="M22586 11421c0,27 -6,44 -17,50 -5,4 -23,7 -52,10 -76,8 -183,11 -321,11 -195,0 -309,-3 -344,-11 -34,-8 -51,-25 -51,-52 0,-102 5,-254 14,-458 10,-204 14,-357 14,-458 0,-50 -14,-79 -41,-87 -42,-10 -192,-15 -451,-15 -259,0 -411,5 -454,15 -28,7 -41,35 -41,87 0,100 3,250 9,450 6,200 9,350 9,450 0,39 -16,61 -50,68 -40,8 -156,11 -350,11 -168,0 -275,-3 -321,-11 -36,-7 -54,-26 -54,-60 0,-139 7,-348 20,-629 13,-280 20,-490 20,-630 0,-149 -7,-373 -19,-672 -13,-299 -19,-523 -19,-672 0,-28 13,-42 39,-42 39,0 97,2 175,5 77,4 135,6 174,6 40,0 99,-2 180,-6 80,-3 140,-5 179,-5 21,0 32,11 32,34 0,97 -7,241 -20,433 -14,192 -21,337 -21,433 0,45 12,71 35,79 33,10 192,16 477,16 266,0 420,-6 462,-16 30,-8 45,-34 45,-79 0,-92 -4,-232 -13,-419 -9,-187 -13,-328 -13,-422 0,-39 15,-59 47,-59 36,0 91,2 164,5 74,4 130,6 167,6 36,0 91,-2 165,-6 74,-3 130,-5 167,-5 36,0 54,15 54,46 0,148 -6,371 -18,669 -12,298 -18,522 -18,671 0,140 7,350 20,630 13,281 20,490 20,629z"/>
       <path class="fil1" d="M25516 10131c0,401 -124,737 -371,1009 -252,275 -571,412 -957,412 -384,0 -703,-139 -956,-416 -248,-272 -373,-606 -373,-1005 0,-400 125,-736 373,-1008 253,-279 572,-419 956,-419 381,0 699,140 954,419 249,275 374,611 374,1008zm-706 -4l0 0c0,-193 -57,-356 -170,-491 -118,-142 -269,-213 -452,-213 -175,0 -324,74 -446,220 -118,142 -177,304 -177,488 0,197 56,361 166,492 117,137 269,206 457,206 175,0 324,-72 447,-218 116,-139 175,-300 175,-484z"/>
       <path class="fil1" d="M28381 10131c0,401 -123,737 -371,1009 -252,275 -571,412 -957,412 -384,0 -702,-139 -956,-416 -248,-272 -372,-606 -372,-1005 0,-400 124,-736 372,-1008 254,-279 572,-419 956,-419 381,0 699,140 954,419 249,275 374,611 374,1008zm-706 -4l0 0c0,-193 -56,-356 -169,-491 -118,-142 -269,-213 -453,-213 -175,0 -324,74 -445,220 -118,142 -177,304 -177,488 0,197 55,361 165,492 117,137 269,206 457,206 175,0 324,-72 447,-218 117,-139 175,-300 175,-484z"/>
       <path class="fil1" d="M30371 11514c-107,0 -246,-3 -417,-8 -224,-5 -363,-8 -418,-10l-557 -7c-56,1 -136,-2 -240,-8 -36,-7 -54,-26 -54,-60 0,-140 2,-350 6,-629 5,-280 7,-490 7,-630 0,-149 -4,-372 -13,-670 -9,-298 -13,-521 -13,-670 0,-28 18,-43 56,-43 37,0 93,2 166,6 74,4 129,6 165,6 41,0 102,-2 183,-7 81,-4 141,-6 182,-6 19,0 28,12 27,36l-2 25c-15,242 -32,605 -51,1090l-2 509c0,164 1,284 2,360 2,16 3,31 4,47 1,15 11,25 28,28 1,0 17,0 48,0 112,0 280,-6 503,-18 222,-12 390,-18 502,-18 33,0 50,15 50,44 0,220 -16,410 -47,569 -6,33 -19,53 -39,60 -6,2 -31,4 -76,4z"/>
      </g>
     </g>
    </g>
   </g>
   <g>
    <path class="fil0" d="M7056 14788c-2,56 -28,117 -62,142 -54,36 -153,61 -250,61 -235,0 -535,-118 -535,-551 0,-338 246,-578 565,-578 152,0 261,52 294,91 2,44 -24,107 -74,110 -73,-37 -151,-54 -224,-54 -206,0 -358,162 -358,409 0,330 227,416 388,416 83,0 183,-17 251,-51l5 5z"/>
    <path class="fil0" d="M7699 13862c334,0 497,250 497,551 0,328 -201,578 -520,578 -346,0 -507,-262 -507,-551 0,-326 213,-578 528,-578l2 0zm-26 125l0 0c-161,0 -298,152 -298,423 0,304 147,456 322,456 142,0 293,-123 293,-433 0,-240 -99,-446 -314,-446l-3 0z"/>
    <path class="fil0" d="M8631 14910c0,42 -11,51 -45,56 -56,10 -108,10 -156,10 5,-86 7,-230 7,-450l0 -422c0,-88 -14,-132 -38,-146l0 -10c17,-39 79,-86 121,-86 76,0 95,98 102,184 92,-93 218,-184 350,-184 144,0 232,71 282,193 94,-102 222,-193 362,-193 241,0 331,198 331,426l0 367c0,142 2,243 7,301 -47,8 -111,20 -170,20 -22,0 -31,-12 -31,-37l0 -631c0,-196 -81,-287 -213,-287 -118,0 -196,76 -253,137l2 745c0,49 -5,58 -45,63 -61,10 -109,10 -156,10 5,-86 7,-230 7,-453l0 -218c0,-193 -73,-284 -203,-284 -109,0 -206,81 -261,147l0 742z"/>
    <path class="fil0" d="M10462 15412c0,39 -7,49 -44,59 -57,7 -102,9 -157,9 5,-68 7,-205 7,-426l0 -962c0,-81 -14,-120 -37,-137l0 -10c19,-36 71,-83 125,-83 57,0 90,61 97,167 140,-115 253,-167 364,-167 204,0 414,162 414,517 0,352 -241,612 -556,612 -78,0 -163,-30 -213,-64l0 485zm0 -612l0 0c50,29 128,54 204,54 144,0 360,-103 360,-453 0,-228 -128,-375 -291,-375 -116,0 -225,76 -273,120l0 654z"/>
    <path class="fil0" d="M11463 14178c0,-152 -5,-225 -9,-277 40,-14 130,-24 170,-24 24,0 31,12 31,152 2,161 2,345 2,504 0,264 130,296 232,296 111,0 204,-73 241,-127l0 -730c0,-58 7,-71 38,-80 62,-8 114,-15 163,-15 0,54 -7,225 -7,438l0 399c0,123 24,149 95,159l0 10c-7,47 -57,108 -106,108 -100,0 -152,-66 -164,-174 -64,73 -146,117 -196,139 -47,23 -95,35 -147,35 -239,0 -343,-162 -343,-402l0 -411z"/>
    <path class="fil0" d="M13209 14792c12,49 10,96 -35,133 -48,39 -140,66 -223,66 -206,0 -288,-137 -288,-321 0,-105 0,-331 0,-639 -76,0 -112,-24 -112,-49 22,-51 166,-188 201,-220 29,-30 60,-49 116,-61 -4,78 -9,142 -9,191 95,0 341,0 374,0 -24,122 -71,124 -114,129 -83,5 -87,8 -262,8 -10,252 -10,521 -3,626 12,147 92,184 173,184 69,0 137,-22 177,-49l5 2z"/>
    <path class="fil0" d="M14132 14780c-3,71 -48,135 -83,157 -38,24 -137,54 -230,54 -328,0 -506,-203 -506,-546 0,-309 178,-583 488,-583 267,0 380,206 385,402 0,24 -2,56 -7,75 -7,42 -121,71 -199,84 -64,7 -298,12 -471,5 3,259 150,406 360,406 104,0 215,-34 258,-56l5 2zm-360 -798l0 0c-120,0 -234,110 -255,321 172,5 388,2 430,0 31,-3 50,-22 50,-52 2,-149 -71,-269 -222,-269l-3 0z"/>
    <path class="fil0" d="M14345 13953c11,-35 75,-91 120,-91 74,0 114,91 114,247 73,-164 177,-247 284,-247 42,0 80,17 99,32 14,17 14,49 7,69 -2,44 -42,97 -71,107 -35,-17 -66,-24 -97,-24 -54,0 -132,46 -182,166 -16,44 -26,81 -26,135 0,159 0,465 0,561 0,36 -7,53 -42,58 -57,8 -112,10 -159,10 7,-86 7,-230 7,-450l0 -409c0,-84 -9,-132 -54,-157l0 -7z"/>
    <path class="fil0" d="M16173 14792c12,49 10,96 -35,133 -47,39 -140,66 -222,66 -206,0 -289,-137 -289,-321 0,-105 0,-331 0,-639 -76,0 -111,-24 -111,-49 21,-51 165,-188 201,-220 28,-30 59,-49 116,-61 -5,78 -10,142 -10,191 95,0 341,0 374,0 -24,122 -71,124 -113,129 -83,5 -88,8 -263,8 -10,252 -10,521 -3,626 12,147 93,184 173,184 69,0 137,-22 178,-49l4 2z"/>
    <path class="fil0" d="M16320 13953c12,-35 76,-91 121,-91 73,0 113,91 113,247 74,-164 178,-247 284,-247 43,0 81,17 100,32 14,17 14,49 7,69 -3,44 -43,97 -71,107 -36,-17 -67,-24 -97,-24 -55,0 -133,46 -183,166 -16,44 -26,81 -26,135 0,159 0,465 0,561 0,36 -7,53 -42,58 -57,8 -111,10 -159,10 8,-86 8,-230 8,-450l0 -409c0,-84 -10,-132 -55,-157l0 -7z"/>
    <path class="fil0" d="M17917 14844c5,98 -54,147 -144,147 -97,0 -149,-74 -161,-157 -69,81 -180,157 -305,157 -161,0 -270,-128 -270,-274 0,-262 338,-333 464,-363 40,-10 82,-17 111,-24l0 -81c2,-120 -66,-228 -208,-228 -93,0 -180,47 -249,98 -59,20 -87,-39 -90,-90 81,-74 232,-167 386,-167 237,0 348,174 348,407 0,105 -7,345 -5,494 2,49 28,83 80,81 12,0 29,0 43,-5l0 5zm-686 -159l0 0c0,93 73,154 161,154 101,0 163,-64 201,-115 9,-15 16,-34 16,-78l0 -204c-191,32 -378,101 -378,240l0 3z"/>
    <path class="fil0" d="M18225 13377c63,0 104,54 104,118 0,66 -45,125 -114,125 -62,0 -109,-44 -109,-118 0,-86 66,-125 116,-125l3 0zm89 1526l0 0c0,44 -14,56 -47,61 -33,7 -88,10 -154,12 3,-98 7,-240 7,-384l0 -414c0,-149 -4,-223 -9,-277 40,-14 137,-24 170,-24 24,0 33,12 33,152l0 874z"/>
    <path class="fil0" d="M19315 14305c2,-193 -87,-286 -218,-286 -123,0 -212,83 -267,152l0 734c0,49 -9,59 -50,61 -52,10 -99,10 -151,10 5,-86 7,-230 7,-453l0 -416c0,-86 -12,-127 -38,-149l0 -10c14,-39 76,-86 121,-86 76,0 94,105 102,181 89,-93 215,-181 345,-181 267,0 343,203 343,441l0 350c0,142 3,245 7,303 -47,8 -109,20 -170,20 -24,0 -33,-12 -33,-34l2 -637z"/>
    <path class="fil0" d="M19925 13377c64,0 104,54 104,118 0,66 -44,125 -113,125 -62,0 -109,-44 -109,-118 0,-86 66,-125 116,-125l2 0zm90 1526l0 0c0,44 -14,56 -47,61 -33,7 -88,10 -154,12 3,-98 7,-240 7,-384l0 -414c0,-149 -4,-223 -9,-277 40,-14 137,-24 170,-24 24,0 33,12 33,152l0 874z"/>
    <path class="fil0" d="M21016 14305c2,-193 -87,-286 -218,-286 -123,0 -212,83 -267,152l0 734c0,49 -9,59 -50,61 -52,10 -99,10 -151,10 5,-86 7,-230 7,-453l0 -416c0,-86 -12,-127 -38,-149l0 -10c14,-39 76,-86 121,-86 76,0 94,105 102,181 89,-93 215,-181 345,-181 267,0 343,203 343,441l0 350c0,142 2,245 7,303 -47,8 -109,20 -170,20 -24,0 -33,-12 -33,-34l2 -637z"/>
    <path class="fil0" d="M21858 13862c52,0 121,7 178,22 59,17 125,34 175,34 64,0 135,-12 170,-22 3,13 5,25 5,40 0,71 -43,105 -114,112 -21,3 -59,5 -85,5 31,56 47,122 47,184 0,254 -182,382 -383,382 -52,0 -64,0 -102,-13 -33,30 -61,64 -61,79 0,41 31,76 137,80 104,5 206,10 291,18 194,19 270,137 270,276 0,267 -265,431 -537,431 -291,0 -443,-152 -443,-318 0,-100 102,-191 227,-260 -92,-36 -139,-115 -144,-188 0,-10 2,-20 19,-27 38,-27 107,-76 142,-120 -123,-56 -196,-167 -196,-321 0,-227 172,-394 402,-394l2 0zm-272 1285l0 0c0,130 156,204 312,204 187,0 320,-96 320,-228 0,-76 -38,-147 -180,-167 -85,-9 -173,-12 -241,-9 -26,0 -59,7 -81,19 -64,32 -130,103 -130,179l0 2zm260 -1170l0 0c-113,0 -203,105 -203,267 0,152 83,262 210,262 140,0 204,-127 204,-262 0,-132 -57,-267 -208,-267l-3 0z"/>
    <path class="fil0" d="M23772 14788c-2,56 -28,117 -61,142 -55,36 -154,61 -251,61 -234,0 -535,-118 -535,-551 0,-338 246,-578 566,-578 151,0 260,52 293,91 2,44 -24,107 -73,110 -74,-37 -152,-54 -225,-54 -206,0 -357,162 -357,409 0,330 227,416 388,416 82,0 182,-17 250,-51l5 5z"/>
    <path class="fil0" d="M24416 13862c333,0 496,250 496,551 0,328 -201,578 -520,578 -346,0 -506,-262 -506,-551 0,-326 212,-578 527,-578l3 0zm-26 125l0 0c-161,0 -299,152 -299,423 0,304 147,456 322,456 142,0 294,-123 294,-433 0,-240 -100,-446 -315,-446l-2 0z"/>
    <path class="fil0" d="M25142 14178c0,-152 -5,-225 -10,-277 41,-14 130,-24 171,-24 23,0 30,12 30,152 3,161 3,345 3,504 0,264 130,296 232,296 111,0 203,-73 241,-127l0 -730c0,-58 7,-71 38,-80 61,-8 113,-15 163,-15 0,54 -7,225 -7,438l0 399c0,123 24,149 95,159l0 10c-8,47 -57,108 -107,108 -99,0 -151,-66 -163,-174 -64,73 -147,117 -197,139 -47,23 -94,35 -146,35 -239,0 -343,-162 -343,-402l0 -411z"/>
    <path class="fil0" d="M26284 13953c12,-35 76,-91 121,-91 73,0 114,91 114,247 73,-164 177,-247 284,-247 42,0 80,17 99,32 14,17 14,49 7,69 -2,44 -43,97 -71,107 -35,-17 -66,-24 -97,-24 -54,0 -132,46 -182,166 -17,44 -26,81 -26,135 0,159 0,465 0,561 0,36 -7,53 -43,58 -56,8 -111,10 -158,10 7,-86 7,-230 7,-450l0 -409c0,-84 -10,-132 -55,-157l0 -7z"/>
    <path class="fil0" d="M27373 13862c83,0 180,25 236,83 5,37 -21,101 -71,108 -54,-32 -118,-49 -175,-49 -94,0 -165,56 -165,145 0,75 49,117 106,149 66,37 137,68 208,110 104,64 149,152 149,247 0,231 -194,336 -381,336 -120,0 -217,-39 -267,-86 -16,-22 -19,-46 -14,-68 7,-27 24,-64 52,-69 66,46 154,81 244,81 120,0 182,-66 182,-152 0,-61 -31,-108 -116,-152 -64,-34 -118,-59 -173,-90 -97,-54 -170,-142 -170,-272 0,-196 168,-321 352,-321l3 0z"/>
    <path class="fil0" d="M28631 14780c-2,71 -47,135 -83,157 -37,24 -137,54 -229,54 -329,0 -506,-203 -506,-546 0,-309 177,-583 487,-583 267,0 381,206 386,402 0,24 -3,56 -7,75 -7,42 -121,71 -199,84 -64,7 -298,12 -471,5 2,259 149,406 360,406 104,0 215,-34 258,-56l4 2zm-359 -798l0 0c-121,0 -235,110 -256,321 173,5 388,2 431,0 31,-3 49,-22 49,-52 3,-149 -71,-269 -222,-269l-2 0z"/>
    <path class="fil0" d="M29194 13862c83,0 180,25 237,83 5,37 -21,101 -71,108 -54,-32 -118,-49 -175,-49 -95,0 -166,56 -166,145 0,75 50,117 107,149 66,37 137,68 208,110 104,64 149,152 149,247 0,231 -194,336 -381,336 -121,0 -218,-39 -267,-86 -17,-22 -19,-46 -15,-68 8,-27 24,-64 52,-69 67,46 154,81 244,81 121,0 182,-66 182,-152 0,-61 -30,-108 -116,-152 -63,-34 -118,-59 -172,-90 -97,-54 -171,-142 -171,-272 0,-196 168,-321 353,-321l2 0z"/>
   </g>
  </g>
 </g>
</svg>