<svg width="100" height="100" viewbox="0 0 100 100" xmlns="http://www.w3.org/2000/svg"><path d="M50 10.274l-31.37 3.289v57.498L50 89.727l31.37-18.666V13.563l-31.041-3.256-.329-.034v.001zm27.267 58.454L50 84.952 22.733 68.728V45.161L49.884 61.32l.045 2.927-18.626-11.084-.027 2.843 18.699 11.238.048 3.007-18.694-11.122-.027 2.843L50.001 73.21l18.878-11.295v-2.856l-.024.014v-9.286l8.411-5.023v23.964h.001zm-.023-27.022l-7.46 4.397-3.443 2.03-16.422-9.771-.028 2.843 14.037 8.347-.124.072-.302.181-1.996 1.174-11.587-6.896-.027 2.843 9.148 5.44-2.159 1.443-.052.033-6.91-4.072-.027 2.842 4.533 2.67-4.619 2.772-27.011-16.056 27.051-16.261v.004l27.4 15.966-.002-.001zm.022-2.86L49.855 22.685v-.004l-.004.003-.004-.002v.003L22.735 38.83V17.258L50.002 14.4l27.265 2.858v21.588h-.001z"/></svg>
