<svg width="89" height="67" viewBox="0 0 89 67" fill="none" xmlns="http://www.w3.org/2000/svg">
<path d="M41.936 55.832C37.5413 55.832 34.128 54.5307 31.696 51.928C29.264 49.2827 28.048 45.6347 28.048 40.984V15.128H36.112H36.688V15.768C36.4747 16.024 36.3253 16.3013 36.24 16.6C36.1973 16.8987 36.176 17.4107 36.176 18.136V41.048C36.176 43.608 36.6027 45.6347 37.456 47.128C38.3093 48.5787 39.824 49.304 42 49.304C44.2613 49.304 45.8187 48.5573 46.672 47.064C47.568 45.5707 48.016 43.5013 48.016 40.856V15.128H56.016V40.792C56.016 44.248 55.4187 47.0853 54.224 49.304C53.0293 51.5227 51.3653 53.1653 49.232 54.232C47.1413 55.2987 44.7093 55.832 41.936 55.832ZM59.216 55V15.128H73.104C76.2187 15.128 78.7787 15.6613 80.784 16.728C82.832 17.7947 84.3467 19.224 85.328 21.016C86.352 22.808 86.864 24.792 86.864 26.968C86.864 28.5467 86.5867 30.04 86.032 31.448C85.4773 32.856 84.6453 34.0933 83.536 35.16C82.4267 36.2267 81.0187 37.0587 79.312 37.656C77.648 38.2533 75.6853 38.552 73.424 38.552H67.472V55H59.216ZM67.472 31.896H72.912C74.064 31.896 75.0453 31.6827 75.856 31.256C76.7093 30.8293 77.3707 30.2533 77.84 29.528C78.3093 28.76 78.544 27.8853 78.544 26.904C78.544 25.9227 78.3093 25.0693 77.84 24.344C77.3707 23.6187 76.7307 23.064 75.92 22.68C75.1093 22.2533 74.128 22.04 72.976 22.04H67.472V31.896Z" fill="#FF981F"/>
<g filter="url(#filter0_i_2_21)">
<path d="M11.7188 47L11.8125 42.0312H11.2031L10.6172 44.0469C10.2891 45.1406 9.8125 45.8359 9.1875 46.1328C8.85938 46.2891 8.47656 46.3672 8.03906 46.3672H5.36719V33.5703H7.35938V32.9375H0.609375V33.5703H2.48438V46.3672H0.609375V47H11.7188ZM17.7891 37.25C18.7578 37.25 19.3359 37.8203 19.5234 38.9609C19.5703 39.2109 19.5938 39.4688 19.5938 39.7344C19.5938 40.4688 19.3281 40.9297 18.7969 41.1172C18.4531 41.2109 17.9531 41.25 17.2969 41.2344L15.4922 41.1641C15.5547 38.9453 16.1406 37.6641 17.25 37.3203C17.4375 37.2734 17.6172 37.25 17.7891 37.25ZM22.0781 44.6328L21.5156 44.4453C21.0625 45.4297 20.3438 46.0781 19.3594 46.3906C19.0312 46.5 18.6953 46.5547 18.3516 46.5547C16.5234 46.5547 15.5703 45 15.4922 41.8906C15.4922 41.875 15.4922 41.8594 15.4922 41.8438L17.8594 41.8906C20.2031 41.9375 21.6094 41.6016 22.0781 40.8828C22.2344 40.6328 22.3125 40.3359 22.3125 39.9922C22.3125 38.7578 21.6875 37.8281 20.4375 37.2031C19.6562 36.8281 18.7734 36.6406 17.7891 36.6406C15.9922 36.6406 14.6172 37.2891 13.6641 38.5859C12.9922 39.5078 12.6562 40.625 12.6562 41.9375C12.6562 44.0781 13.4453 45.6094 15.0234 46.5312C15.8672 47 16.8125 47.2344 17.8594 47.2344C19.6406 47.2344 20.9297 46.6016 21.7266 45.3359C21.8672 45.1016 21.9844 44.8672 22.0781 44.6328ZM28.125 37.5547V36.9688H22.9922V37.5547H23.9531L26.8828 45.4297C27.2109 46.3047 27.5078 46.8203 27.7734 46.9766C27.9453 47.0703 28.1875 47.1172 28.5 47.1172H29.1797L32.5547 38.2812C32.7109 37.8594 32.9141 37.625 33.1641 37.5781C33.2578 37.5625 33.3516 37.5547 33.4453 37.5547C33.7109 37.5547 33.8594 37.5078 33.8906 37.4141C33.9219 37.3203 33.9375 37.1719 33.9375 36.9688H30.2109V37.5547H32.0625L29.25 44.9141L26.5312 37.5547H28.125ZM39.8906 37.25C40.8594 37.25 41.4375 37.8203 41.625 38.9609C41.6719 39.2109 41.6953 39.4688 41.6953 39.7344C41.6953 40.4688 41.4297 40.9297 40.8984 41.1172C40.5547 41.2109 40.0547 41.25 39.3984 41.2344L37.5938 41.1641C37.6562 38.9453 38.2422 37.6641 39.3516 37.3203C39.5391 37.2734 39.7188 37.25 39.8906 37.25ZM44.1797 44.6328L43.6172 44.4453C43.1641 45.4297 42.4453 46.0781 41.4609 46.3906C41.1328 46.5 40.7969 46.5547 40.4531 46.5547C38.625 46.5547 37.6719 45 37.5938 41.8906C37.5938 41.875 37.5938 41.8594 37.5938 41.8438L39.9609 41.8906C42.3047 41.9375 43.7109 41.6016 44.1797 40.8828C44.3359 40.6328 44.4141 40.3359 44.4141 39.9922C44.4141 38.7578 43.7891 37.8281 42.5391 37.2031C41.7578 36.8281 40.875 36.6406 39.8906 36.6406C38.0938 36.6406 36.7188 37.2891 35.7656 38.5859C35.0938 39.5078 34.7578 40.625 34.7578 41.9375C34.7578 44.0781 35.5469 45.6094 37.125 46.5312C37.9688 47 38.9141 47.2344 39.9609 47.2344C41.7422 47.2344 43.0312 46.6016 43.8281 45.3359C43.9688 45.1016 44.0859 44.8672 44.1797 44.6328ZM51.1172 46.3906H49.9219V31.7656H45.5391V32.375H47.3438V45.0781C47.3438 45.75 47.1094 46.1562 46.6406 46.2969C46.4062 46.3594 46.0391 46.3906 45.5391 46.3906V47H51.7031C51.7031 46.6562 51.6016 46.4609 51.3984 46.4141C51.3047 46.3984 51.2109 46.3906 51.1172 46.3906Z" fill="#0B308D" fill-opacity="0.86"/>
</g>
<defs>
<filter id="filter0_i_2_21" x="0.609375" y="31.7656" width="51.0938" height="19.4688" filterUnits="userSpaceOnUse" color-interpolation-filters="sRGB">
<feFlood flood-opacity="0" result="BackgroundImageFix"/>
<feBlend mode="normal" in="SourceGraphic" in2="BackgroundImageFix" result="shape"/>
<feColorMatrix in="SourceAlpha" type="matrix" values="0 0 0 0 0 0 0 0 0 0 0 0 0 0 0 0 0 0 127 0" result="hardAlpha"/>
<feOffset dy="4"/>
<feGaussianBlur stdDeviation="2"/>
<feComposite in2="hardAlpha" operator="arithmetic" k2="-1" k3="1"/>
<feColorMatrix type="matrix" values="0 0 0 0 0 0 0 0 0 0 0 0 0 0 0 0 0 0 0.25 0"/>
<feBlend mode="normal" in2="shape" result="effect1_innerShadow_2_21"/>
</filter>
</defs>
</svg>
