<?xml version="1.0" encoding="UTF-8"?> <svg xmlns="http://www.w3.org/2000/svg" width="778" height="117" viewBox="0 0 778 117" fill="none"> <path d="M21.5228 113.538C8.99874 120.772 0.00195312 114.744 0.00195312 104.021C0.00195312 92.6057 0.00195312 58.3549 0.00195312 58.3549C0.00195312 58.3549 0.00195312 24.104 0.00195312 12.689C0.00195312 1.96603 8.99316 -4.06247 21.5228 3.17173C41.0289 14.4361 99.5415 48.2404 99.5415 48.2404C107.322 52.7339 107.322 63.9703 99.5415 68.4638C99.5415 68.4694 41.0289 102.274 21.5228 113.538Z" fill="#00C1FF"></path> <path d="M85.9259 113.528C73.4018 120.762 64.405 114.733 64.405 104.011C64.405 92.5954 64.405 58.3446 64.405 58.3446C64.405 58.3446 64.405 24.0937 64.405 12.6786C64.405 1.95572 73.3962 -4.07279 85.9259 3.16142C105.002 14.1802 162.231 47.2421 162.231 47.2421C170.776 52.1765 170.776 64.5126 162.231 69.4471C162.226 69.4471 105.002 102.509 85.9259 113.528Z" fill="#BCEC30"></path> <mask id="mask0" mask-type="alpha" maskUnits="userSpaceOnUse" x="64" y="0" width="105" height="117"> <path d="M85.9259 113.528C73.4018 120.762 64.405 114.733 64.405 104.011C64.405 92.5954 64.405 58.3446 64.405 58.3446C64.405 58.3446 64.405 24.0937 64.405 12.6786C64.405 1.95572 73.3962 -4.07279 85.9259 3.16142C105.002 14.1802 162.231 47.2421 162.231 47.2421C170.776 52.1765 170.776 64.5126 162.231 69.4471C162.226 69.4471 105.002 102.509 85.9259 113.528Z" fill="#6FE4FF"></path> </mask> <g mask="url(#mask0)"> <g filter="url(#filter0_f)"> <path d="M21.5264 113.538C9.00228 120.772 0.00549316 114.744 0.00549316 104.021C0.00549316 92.6057 0.00549316 58.3549 0.00549316 58.3549C0.00549316 58.3549 0.00549316 24.104 0.00549316 12.689C0.00549316 1.96603 8.9967 -4.06247 21.5264 3.17173C41.0324 14.4361 99.5451 48.2404 99.5451 48.2404C107.325 52.7339 107.325 63.9703 99.5451 68.4638C99.5451 68.4694 41.0324 102.274 21.5264 113.538Z" fill="#99D100"></path> </g> </g> <path d="M209.45 78.7321L211.632 73.764C213.119 70.3858 215.797 69.4915 219.169 71.9755C225.615 76.7448 236.226 80.2225 250.408 80.2225C262.507 80.2225 267.664 77.1423 267.664 73.4659C267.664 69.2928 263.399 68.1998 256.358 67.3056L240.292 65.219C220.954 62.6356 211.235 55.6804 211.235 43.5584C211.235 30.5422 221.847 20.2086 246.441 20.2086C260.127 20.2086 268.953 22.2952 274.705 24.4812C281.052 26.9652 281.944 29.0517 281.944 34.2185V40.975C281.944 45.1482 280.457 46.5392 276.391 46.5392H271.829C267.664 46.5392 266.275 45.0488 266.275 40.975V38.7891C263.598 37.8948 256.953 36.6031 249.218 36.6031C235.631 36.6031 229.086 39.0872 229.086 43.2603C229.086 46.3405 233.053 48.129 240.292 49.1226L256.061 51.2092C275.101 53.5938 285.217 59.3567 285.217 73.2672C285.217 87.3764 271.829 96.4183 247.929 96.4183C230.375 96.4183 216.293 90.854 210.64 85.6873C208.657 83.7001 208.359 81.2161 209.45 78.7321Z" fill="black"></path> <path d="M383.587 95.2239H375.455C371.488 95.2239 370.199 94.6277 368.215 91.6469L352.943 69.092C350.761 66.0119 349.075 65.217 344.514 65.217H329.241V89.6597C329.241 93.8328 327.754 95.2239 323.688 95.2239H317.836C313.671 95.2239 312.283 93.7335 312.283 89.6597V16.3316H306.828C302.663 16.3316 301.275 14.8411 301.275 10.7674V5.79933C301.275 1.62619 302.762 0.235138 306.828 0.235138H323.787C327.952 0.235138 329.34 1.72555 329.34 5.79933V48.7231H343.026C347.588 48.7231 349.175 48.0276 351.456 44.848L364.249 25.0753C366.331 21.9951 367.62 21.3989 371.587 21.3989H379.719C384.182 21.3989 384.975 24.9759 382.496 28.6523L368.215 50.3129C366.728 52.3995 364.943 54.5854 363.257 56.3739C365.042 57.8643 367.521 60.3483 368.513 61.8387L386.364 88.1693C388.843 91.6469 387.951 95.2239 383.587 95.2239Z" fill="black"></path> <path d="M412.606 108.736V103.867C412.606 99.6939 414.094 98.3028 418.16 98.3028H425.201C429.466 98.3028 431.548 97.4086 433.135 94.0303L434.027 92.1425L400.309 28.2536C398.227 24.3785 399.913 21.4971 404.276 21.4971H411.912C415.879 21.4971 417.664 22.1926 419.152 25.0741L433.234 54.0874C436.507 60.7445 440.176 68.3953 443.052 75.0524C446.027 68.594 449.399 61.142 452.573 54.6835L466.952 25.0741C468.242 22.292 470.225 21.4971 474.192 21.4971H481.828C486.291 21.4971 487.877 24.4779 485.795 28.2536L447.416 101.284C442.953 109.729 437.895 114.399 426.391 114.399H417.962C413.995 114.399 412.606 112.909 412.606 108.736Z" fill="black"></path> <path d="M589.498 58.3631C589.498 81.8122 572.143 96.4182 548.739 96.4182C538.623 96.4182 530.888 93.9342 525.434 90.854V110.925C525.434 115.098 523.946 116.489 519.88 116.489H514.029C509.864 116.489 508.475 114.999 508.475 110.925V37.5968H503.021C498.856 37.5968 497.467 36.1063 497.467 32.0326V27.0645C497.467 22.8914 498.955 21.5003 503.021 21.5003H517.302C521.467 21.5003 522.855 22.9907 522.855 27.0645V27.462C528.409 23.7856 536.838 20.2086 548.739 20.2086C572.143 20.308 589.498 34.914 589.498 58.3631ZM571.846 58.3631C571.846 44.6514 560.838 37.0006 547.152 37.0006C537.334 37.0006 529.301 41.1737 525.533 44.552V72.2736C529.4 75.6519 537.334 79.825 547.152 79.825C560.838 79.7257 571.846 72.0749 571.846 58.3631Z" fill="black"></path> <path d="M681.89 52.6021C681.89 56.7753 680.403 58.1663 676.337 58.1663H670.486C666.32 58.1663 664.932 56.974 664.932 52.6021C664.932 41.6725 660.767 36.8038 650.85 36.8038C641.428 36.8038 633.594 42.6661 629.23 49.82V89.6636C629.23 93.8368 627.743 95.2278 623.677 95.2278H617.826C613.661 95.2278 612.272 93.7374 612.272 89.6636V37.5987H606.818C602.653 37.5987 601.264 36.1083 601.264 32.0345V27.0665C601.264 22.8933 602.752 21.5023 606.818 21.5023H621.098C625.264 21.5023 626.652 22.9927 626.652 27.0665V31.8358C631.908 25.9735 639.941 20.3099 653.627 20.3099C673.659 20.3099 681.89 32.2332 681.89 52.6021Z" fill="black"></path> <path d="M692.415 58.3651C692.415 36.5057 710.861 20.3099 735.356 20.3099C759.653 20.3099 778 36.5057 778 58.3651C778 80.3238 759.554 96.5195 735.356 96.5195C710.861 96.5195 692.415 80.3238 692.415 58.3651ZM761.141 58.3651C761.141 45.6469 749.935 36.4064 735.356 36.4064C720.481 36.4064 709.274 45.7463 709.274 58.3651C709.274 71.1826 720.481 80.5225 735.356 80.5225C750.034 80.5225 761.141 71.1826 761.141 58.3651Z" fill="black"></path> <defs> <filter id="filter0_f" x="-8.92396" y="-8.91908" width="123.234" height="134.548" filterUnits="userSpaceOnUse" color-interpolation-filters="sRGB"> <feFlood flood-opacity="0" result="BackgroundImageFix"></feFlood> <feBlend mode="normal" in="SourceGraphic" in2="BackgroundImageFix" result="shape"></feBlend> <feGaussianBlur stdDeviation="4.46473" result="effect1_foregroundBlur"></feGaussianBlur> </filter> </defs> </svg> 