<svg width="196" height="40" viewBox="0 0 196 40" fill="none" xmlns="http://www.w3.org/2000/svg">
<path d="M45.9716 6.7838C45.9716 10.5305 42.9734 13.5676 39.2747 13.5676C35.576 13.5676 32.5774 10.5305 32.5774 6.7838C32.5774 3.0371 35.576 0 39.2747 0C42.9734 0 45.9716 3.0371 45.9716 6.7838Z" fill="#F07F25"/>
<path d="M89.0568 6.7838C89.0568 10.5305 86.0586 13.5676 82.3598 13.5676C78.6611 13.5676 75.6625 10.5305 75.6625 6.7838C75.6625 3.0371 78.6611 0 82.3598 0C86.0586 0 89.0568 3.0371 89.0568 6.7838Z" fill="#6D3E91"/>
<path d="M0 27.7477V40H10.4119V28.9984H17.2231V40H27.6346V28.9984H34.4462V18.221H9.40543C4.211 18.221 0 22.4859 0 27.7477Z" fill="#FBBA06"/>
<path d="M35.4523 18.221H34.4462V28.9984V30.4726C34.4462 35.7344 38.6572 40 43.8517 40H44.8577V28.9628V27.7484C44.8577 22.4866 40.6467 18.221 35.4523 18.221Z" fill="#F07F25"/>
<path d="M79.3038 18.221V28.9984H86.1154V40H96.5269V27.7484C96.5269 22.4866 92.3159 18.221 87.1215 18.221H79.3038Z" fill="#6D3E91"/>
<path d="M68.8921 29.2227H62.0809V18.221H51.669V29.2227H44.8578V40H68.8921V29.2227Z" fill="#E7344C"/>
<path d="M68.8924 27.7484V40H69.8985C75.0929 40 79.3039 35.7344 79.3039 30.4726V18.221H78.2978C73.1034 18.221 68.8924 22.4866 68.8924 27.7484Z" fill="#C02485"/>
<path d="M20.2861 6.7838C20.2861 10.5305 17.2879 13.5676 13.5892 13.5676C9.89049 13.5676 6.89191 10.5305 6.89191 6.7838C6.89191 3.0371 9.89049 0 13.5892 0C17.2879 0 20.2861 3.0371 20.2861 6.7838Z" fill="#FBBA06"/>
<path d="M111.378 31.0165V39.5605H108.562V33.2501H105.975V39.5605H103.159V31.0165H111.378Z" fill="#333332"/>
<path d="M117.944 31.0165C118.73 31.0165 119.414 31.1467 119.996 31.4071C120.579 31.6675 121.028 32.0418 121.344 32.53C121.66 33.0182 121.818 33.5878 121.818 34.2388C121.818 34.8898 121.66 35.4594 121.344 35.9476C121.028 36.4358 120.579 36.8102 119.996 37.0705C119.414 37.3309 118.73 37.4611 117.944 37.4611H116.718V39.5605H113.853V31.0165H117.944ZM117.762 35.2397C118.151 35.2397 118.442 35.1542 118.636 34.9834C118.831 34.8043 118.928 34.5562 118.928 34.2388C118.928 33.9215 118.831 33.6774 118.636 33.5065C118.442 33.3275 118.151 33.2379 117.762 33.2379H116.718V35.2397H117.762Z" fill="#333332"/>
<path d="M128.099 39.7558C127.184 39.7558 126.362 39.5646 125.634 39.1821C124.905 38.7997 124.335 38.2708 123.922 37.5954C123.509 36.9119 123.303 36.1429 123.303 35.2885C123.303 34.4341 123.509 33.6692 123.922 32.9938C124.335 32.3103 124.905 31.7773 125.634 31.3949C126.362 31.0124 127.184 30.8212 128.099 30.8212C129.013 30.8212 129.835 31.0124 130.563 31.3949C131.292 31.7773 131.862 32.3103 132.275 32.9938C132.688 33.6692 132.894 34.4341 132.894 35.2885C132.894 36.1429 132.688 36.9119 132.275 37.5954C131.862 38.2708 131.292 38.7997 130.563 39.1821C129.835 39.5646 129.013 39.7558 128.099 39.7558ZM128.099 37.4245C128.455 37.4245 128.774 37.3391 129.058 37.1682C129.349 36.9892 129.58 36.741 129.75 36.4236C129.92 36.0982 130.005 35.7198 130.005 35.2885C130.005 34.8572 129.92 34.4829 129.75 34.1656C129.58 33.8401 129.349 33.5919 129.058 33.421C128.774 33.242 128.455 33.1525 128.099 33.1525C127.742 33.1525 127.419 33.242 127.127 33.421C126.844 33.5919 126.617 33.8401 126.447 34.1656C126.277 34.4829 126.192 34.8572 126.192 35.2885C126.192 35.7198 126.277 36.0982 126.447 36.4236C126.617 36.741 126.844 36.9892 127.127 37.1682C127.419 37.3391 127.742 37.4245 128.099 37.4245Z" fill="#333332"/>
<path d="M145.776 35.2519C145.776 36.3748 145.404 37.2658 144.659 37.9249C143.914 38.5759 142.83 38.9502 141.405 39.0479V39.9999H138.782V39.0357C137.35 38.9136 136.261 38.5312 135.516 37.8883C134.78 37.2455 134.411 36.3667 134.411 35.2519C134.411 34.1371 134.78 33.2624 135.516 32.6277C136.261 31.9848 137.35 31.6024 138.782 31.4803V30.5893H141.405V31.4803C142.838 31.5861 143.922 31.9645 144.659 32.6155C145.404 33.2583 145.776 34.1371 145.776 35.2519ZM141.405 36.802C141.972 36.7206 142.38 36.5579 142.631 36.3138C142.882 36.0615 143.008 35.7035 143.008 35.2397C143.008 34.784 142.878 34.4341 142.619 34.19C142.368 33.9459 141.964 33.7831 141.405 33.7018V36.802ZM137.18 35.2519C137.18 35.6994 137.309 36.0453 137.568 36.2894C137.835 36.5335 138.24 36.7003 138.782 36.7898V33.714C138.208 33.7953 137.795 33.9581 137.544 34.2022C137.301 34.4382 137.18 34.7881 137.18 35.2519Z" fill="#333332"/>
<path d="M154.839 37.3879V39.5605H147.773V31.0165H154.682V33.1891H150.59V34.19H154.184V36.265H150.59V37.3879H154.839Z" fill="#333332"/>
<path d="M161.247 39.7558C160.348 39.7558 159.539 39.5687 158.819 39.1943C158.098 38.8119 157.532 38.283 157.119 37.6076C156.714 36.9241 156.512 36.151 156.512 35.2885C156.512 34.426 156.714 33.657 157.119 32.9816C157.532 32.2981 158.098 31.7692 158.819 31.3949C159.539 31.0124 160.348 30.8212 161.247 30.8212C162.073 30.8212 162.809 30.9677 163.457 31.2606C164.104 31.5536 164.639 31.9767 165.059 32.53L163.25 34.1534C162.724 33.4861 162.105 33.1525 161.393 33.1525C160.794 33.1525 160.312 33.3478 159.948 33.7384C159.584 34.1208 159.401 34.6375 159.401 35.2885C159.401 35.9395 159.584 36.4603 159.948 36.8508C160.312 37.2333 160.794 37.4245 161.393 37.4245C162.105 37.4245 162.724 37.0909 163.25 36.4236L165.059 38.047C164.639 38.6003 164.104 39.0235 163.457 39.3164C162.809 39.6093 162.073 39.7558 161.247 39.7558Z" fill="#333332"/>
<path d="M170.993 39.7558C170.094 39.7558 169.285 39.5687 168.564 39.1943C167.844 38.8119 167.277 38.283 166.864 37.6076C166.46 36.9241 166.257 36.151 166.257 35.2885C166.257 34.426 166.46 33.657 166.864 32.9816C167.277 32.2981 167.844 31.7692 168.564 31.3949C169.285 31.0124 170.094 30.8212 170.993 30.8212C171.818 30.8212 172.555 30.9677 173.202 31.2606C173.85 31.5536 174.384 31.9767 174.805 32.53L172.996 34.1534C172.47 33.4861 171.851 33.1525 171.138 33.1525C170.539 33.1525 170.058 33.3478 169.693 33.7384C169.329 34.1208 169.147 34.6375 169.147 35.2885C169.147 35.9395 169.329 36.4603 169.693 36.8508C170.058 37.2333 170.539 37.4245 171.138 37.4245C171.851 37.4245 172.47 37.0909 172.996 36.4236L174.805 38.047C174.384 38.6003 173.85 39.0235 173.202 39.3164C172.555 39.6093 171.818 39.7558 170.993 39.7558Z" fill="#333332"/>
<path d="M176.642 31.0165H179.459V35.4594L182.385 31.0165H185.081V39.5605H182.264V35.1298L179.35 39.5605H176.642V31.0165Z" fill="#333332"/>
<path d="M187.562 31.0165H190.378V35.4594L193.305 31.0165H196V39.5605H193.183V35.1298L190.269 39.5605H187.562V31.0165ZM191.775 30.5283C190.836 30.5283 190.16 30.3533 189.747 30.0034C189.334 29.6535 189.128 29.1287 189.128 28.4289H191.034C191.034 28.7055 191.087 28.9049 191.192 29.027C191.305 29.149 191.499 29.21 191.775 29.21C192.05 29.21 192.244 29.149 192.357 29.027C192.479 28.9049 192.54 28.7055 192.54 28.4289H194.446C194.446 29.1287 194.235 29.6535 193.814 30.0034C193.394 30.3533 192.714 30.5283 191.775 30.5283Z" fill="#333332"/>
<path d="M115.021 17.5902V26.1342H103.159V17.5902H105.975V23.9006H107.687V17.5902H110.504V23.9006H112.204V17.5902H115.021Z" fill="#333332"/>
<path d="M123.43 21.7401L125.943 26.1342H122.714L121.087 23.0461H120.285V26.1342H117.42V17.5902H120.285V20.7759H121.16L122.969 17.5902H125.956L123.43 21.7401Z" fill="#333332"/>
<path d="M131.762 26.3295C130.848 26.3295 130.026 26.1383 129.298 25.7558C128.569 25.3734 127.998 24.8445 127.586 24.1691C127.173 23.4856 126.966 22.7166 126.966 21.8622C126.966 21.0078 127.173 20.2429 127.586 19.5675C127.998 18.884 128.569 18.351 129.298 17.9686C130.026 17.5861 130.848 17.3949 131.762 17.3949C132.677 17.3949 133.499 17.5861 134.227 17.9686C134.956 18.351 135.526 18.884 135.939 19.5675C136.352 20.2429 136.558 21.0078 136.558 21.8622C136.558 22.7166 136.352 23.4856 135.939 24.1691C135.526 24.8445 134.956 25.3734 134.227 25.7558C133.499 26.1383 132.677 26.3295 131.762 26.3295ZM131.762 23.9982C132.119 23.9982 132.438 23.9128 132.722 23.7419C133.013 23.5629 133.244 23.3147 133.414 22.9973C133.584 22.6718 133.669 22.2935 133.669 21.8622C133.669 21.4309 133.584 21.0566 133.414 20.7393C133.244 20.4138 133.013 20.1656 132.722 19.9947C132.438 19.8157 132.119 19.7262 131.762 19.7262C131.406 19.7262 131.082 19.8157 130.791 19.9947C130.508 20.1656 130.281 20.4138 130.111 20.7393C129.941 21.0566 129.856 21.4309 129.856 21.8622C129.856 22.2935 129.941 22.6718 130.111 22.9973C130.281 23.3147 130.508 23.5629 130.791 23.7419C131.082 23.9128 131.406 23.9982 131.762 23.9982Z" fill="#333332"/>
<path d="M146.617 17.5902V26.1342H143.8V19.8238H141.857L141.833 20.8125C141.8 22.0331 141.703 23.0339 141.541 23.8151C141.379 24.5963 141.096 25.2066 140.691 25.646C140.287 26.0772 139.708 26.2929 138.955 26.2929C138.575 26.2929 138.17 26.24 137.741 26.1342L137.887 23.8273C137.992 23.8517 138.097 23.8639 138.202 23.8639C138.502 23.8639 138.729 23.7419 138.882 23.4978C139.044 23.2536 139.153 22.9282 139.21 22.5213C139.267 22.1144 139.307 21.5815 139.332 20.9224L139.441 17.5902H146.617Z" fill="#333332"/>
<path d="M155.087 24.6451H151.857L151.287 26.1342H148.373L152.088 17.5902H154.905L158.62 26.1342H155.658L155.087 24.6451ZM154.298 22.5701L153.472 20.4219L152.647 22.5701H154.298Z" fill="#333332"/>
<path d="M107.928 12.7079L107.92 8.97293L106.077 12.0854H105.742L103.899 8.9949V12.7079H103.2V7.58148H103.797L105.924 11.1846L108.022 7.58148H108.62L108.627 12.7079H107.928Z" fill="#333332"/>
<path d="M113.915 12.0707V12.7079H110.214V7.58148H113.813V8.21862H110.943V9.79316H113.5V10.4156H110.943V12.0707H113.915Z" fill="#333332"/>
<path d="M119.286 10.4523H118.317V12.7079H117.603V10.4523H116.627L115.199 12.7079H114.347L116.03 10.0422L114.471 7.58148H115.25L116.612 9.8078H117.603V7.58148H118.317V9.8078H119.293L120.663 7.58148H121.442L119.883 10.0568L121.566 12.7079H120.714L119.286 10.4523Z" fill="#333332"/>
<path d="M127.296 12.0707V13.8284H126.618V12.7079H122.422L122.415 13.8284H121.737L121.745 12.0707H121.992C122.313 12.0512 122.539 11.7973 122.67 11.3091C122.801 10.816 122.881 10.1227 122.91 9.22925L122.961 7.58148H126.545V12.0707H127.296ZM123.551 9.29516C123.527 10.0177 123.469 10.6158 123.376 11.0894C123.289 11.563 123.146 11.8901 122.947 12.0707H125.824V8.21862H123.588L123.551 9.29516Z" fill="#333332"/>
<path d="M132.466 7.58148L130.2 11.8071C130.021 12.144 129.809 12.3954 129.567 12.5614C129.324 12.7274 129.059 12.8104 128.773 12.8104C128.549 12.8104 128.321 12.7592 128.088 12.6566L128.277 12.0707C128.457 12.1342 128.617 12.166 128.758 12.166C129.079 12.166 129.343 11.9951 129.552 11.6533L129.669 11.4702L127.614 7.58148H128.394L130.047 10.8331L131.745 7.58148H132.466Z" fill="#333332"/>
<path d="M137.608 7.58148V12.7079H136.879V10.423H133.95V12.7079H133.222V7.58148H133.95V9.78583H136.879V7.58148H137.608Z" fill="#333332"/>
<path d="M142.513 11.4263H139.803L139.242 12.7079H138.491L140.801 7.58148H141.522L143.838 12.7079H143.074L142.513 11.4263ZM142.258 10.8404L141.158 8.32847L140.058 10.8404H142.258Z" fill="#333332"/>
<path d="M146.707 7.58148C147.368 7.58148 147.888 7.74015 148.266 8.0575C148.645 8.37485 148.835 8.81181 148.835 9.3684C148.835 9.92498 148.645 10.3619 148.266 10.6793C147.888 10.9966 147.368 11.1553 146.707 11.1553H145.447V12.7079H144.719V7.58148H146.707ZM146.686 10.5182C147.147 10.5182 147.499 10.4205 147.742 10.2252C147.985 10.0251 148.106 9.73945 148.106 9.3684C148.106 8.99734 147.985 8.71417 147.742 8.51888C147.499 8.3187 147.147 8.21862 146.686 8.21862H145.447V10.5182H146.686Z" fill="#333332"/>
<path d="M152.214 12.7665C151.699 12.7665 151.235 12.6542 150.822 12.4296C150.41 12.2001 150.084 11.8852 149.846 11.4849C149.613 11.0845 149.497 10.6378 149.497 10.1447C149.497 9.65157 149.613 9.20484 149.846 8.80449C150.084 8.40414 150.41 8.09168 150.822 7.86709C151.235 7.63762 151.699 7.52289 152.214 7.52289C152.724 7.52289 153.185 7.63762 153.598 7.86709C154.011 8.09168 154.334 8.40414 154.567 8.80449C154.8 9.19996 154.917 9.64669 154.917 10.1447C154.917 10.6427 154.8 11.0918 154.567 11.4922C154.334 11.8877 154.011 12.2001 153.598 12.4296C153.185 12.6542 152.724 12.7665 152.214 12.7665ZM152.214 12.1147C152.588 12.1147 152.923 12.0292 153.219 11.8584C153.52 11.6875 153.756 11.4531 153.926 11.1553C154.101 10.8526 154.188 10.5157 154.188 10.1447C154.188 9.77363 154.101 9.43919 153.926 9.14137C153.756 8.83867 153.52 8.60188 153.219 8.43099C152.923 8.26011 152.588 8.17467 152.214 8.17467C151.84 8.17467 151.5 8.26011 151.194 8.43099C150.893 8.60188 150.655 8.83867 150.48 9.14137C150.31 9.43919 150.225 9.77363 150.225 10.1447C150.225 10.5157 150.31 10.8526 150.48 11.1553C150.655 11.4531 150.893 11.6875 151.194 11.8584C151.5 12.0292 151.84 12.1147 152.214 12.1147Z" fill="#333332"/>
<path d="M160.811 12.0707V13.8284H160.134V12.7079H155.937L155.93 13.8284H155.253L155.26 12.0707H155.508C155.828 12.0512 156.054 11.7973 156.185 11.3091C156.316 10.816 156.396 10.1227 156.426 9.22925L156.476 7.58148H160.061V12.0707H160.811ZM157.067 9.29516C157.042 10.0177 156.984 10.6158 156.892 11.0894C156.804 11.563 156.661 11.8901 156.462 12.0707H159.34V8.21862H157.103L157.067 9.29516Z" fill="#333332"/>
<path d="M166.193 7.58148V12.7079H165.464V10.423H162.536V12.7079H161.807V7.58148H162.536V9.78583H165.464V7.58148H166.193Z" fill="#333332"/>
<path d="M171.098 11.4263H168.388L167.827 12.7079H167.076L169.386 7.58148H170.107L172.424 12.7079H171.659L171.098 11.4263ZM170.843 10.8404L169.743 8.32847L168.643 10.8404H170.843Z" fill="#333332"/>
<path d="M176.799 7.58148V12.7079H176.085V11.2139H174.679C174.592 11.2139 174.526 11.2115 174.482 11.2066L173.462 12.7079H172.69L173.819 11.0821C173.455 10.96 173.176 10.7574 172.982 10.4742C172.787 10.1862 172.69 9.8371 172.69 9.42698C172.69 8.84599 172.875 8.39438 173.244 8.07215C173.618 7.74503 174.121 7.58148 174.752 7.58148H176.799ZM173.426 9.41966C173.426 9.80048 173.535 10.0934 173.754 10.2985C173.977 10.4986 174.305 10.5987 174.737 10.5987H176.085V8.21862H174.781C174.344 8.21862 174.009 8.32114 173.776 8.5262C173.543 8.73126 173.426 9.02908 173.426 9.41966Z" fill="#333332"/>
</svg>