<svg width="1529" height="257" viewBox="0 0 1529 257" fill="none" xmlns="http://www.w3.org/2000/svg">
<path d="M419.684 52.2495C429.947 52.2495 438.83 53.9599 446.333 57.3807C453.947 60.8015 459.796 65.6568 463.879 71.9466C467.961 78.2364 470.003 85.6849 470.003 94.292C470.003 102.789 467.961 110.237 463.879 116.637C459.796 122.927 453.947 127.783 446.333 131.203C438.83 134.514 429.947 136.169 419.684 136.169H396.346V168.115H369.531V52.2495H419.684ZM418.195 114.32C426.25 114.32 432.374 112.61 436.568 109.189C440.761 105.658 442.857 100.692 442.857 94.292C442.857 87.7815 440.761 82.8159 436.568 79.3951C432.374 75.864 426.25 74.0984 418.195 74.0984H396.346V114.32H418.195Z" fill="#16151B"/>
<path d="M578.655 79.064V168.115H554.158V157.521C550.737 161.383 546.654 164.363 541.909 166.459C537.164 168.446 532.033 169.439 526.516 169.439C514.819 169.439 505.549 166.073 498.708 159.342C491.866 152.611 488.446 142.624 488.446 129.383V79.064H514.267V125.576C514.267 139.921 520.281 147.093 532.309 147.093C538.488 147.093 543.454 145.107 547.206 141.135C550.958 137.052 552.834 131.038 552.834 123.093V79.064H578.655Z" fill="#16151B"/>
<path d="M627.239 90.8161C630.329 86.5125 634.467 83.2573 639.653 81.0503C644.95 78.8434 651.019 77.7399 657.861 77.7399V101.575C654.992 101.354 653.061 101.244 652.068 101.244C644.674 101.244 638.881 103.341 634.688 107.534C630.495 111.617 628.398 117.796 628.398 126.072V168.115H602.577V79.064H627.239V90.8161Z" fill="#16151B"/>
<path d="M725.85 77.7399C734.126 77.7399 741.63 79.671 748.361 83.5331C755.203 87.285 760.554 92.6368 764.417 99.5887C768.279 106.43 770.21 114.43 770.21 123.589C770.21 132.748 768.279 140.804 764.417 147.756C760.554 154.597 755.203 159.949 748.361 163.811C741.63 167.563 734.126 169.439 725.85 169.439C714.484 169.439 705.546 165.853 699.036 158.68V200.226H673.214V79.064H697.877V89.3264C704.277 81.602 713.602 77.7399 725.85 77.7399ZM721.381 148.252C728.002 148.252 733.409 146.045 737.602 141.631C741.906 137.107 744.058 131.093 744.058 123.589C744.058 116.086 741.906 110.127 737.602 105.713C733.409 101.189 728.002 98.9266 721.381 98.9266C714.76 98.9266 709.298 101.189 704.994 105.713C700.801 110.127 698.705 116.086 698.705 123.589C698.705 131.093 700.801 137.107 704.994 141.631C709.298 146.045 714.76 148.252 721.381 148.252Z" fill="#16151B"/>
<path d="M819.441 169.439C809.399 169.439 801.565 166.791 795.937 161.494C790.309 156.087 787.495 148.473 787.495 138.652V45.2976H813.317V137.162C813.317 140.914 814.255 143.838 816.131 145.935C818.117 147.921 820.876 148.914 824.407 148.914C825.731 148.914 827.055 148.749 828.379 148.418C829.814 148.087 830.917 147.7 831.69 147.259L832.848 167.287C828.545 168.722 824.076 169.439 819.441 169.439Z" fill="#16151B"/>
<path d="M888.765 148.749C893.399 148.749 897.482 148.087 901.013 146.762C904.655 145.328 908.02 143.121 911.11 140.142L924.849 155.038C916.462 164.639 904.213 169.439 888.103 169.439C878.061 169.439 869.178 167.508 861.454 163.646C853.729 159.673 847.771 154.211 843.577 147.259C839.384 140.307 837.288 132.417 837.288 123.589C837.288 114.872 839.329 107.037 843.412 100.085C847.605 93.023 853.288 87.5608 860.461 83.6986C867.744 79.7261 875.909 77.7399 884.958 77.7399C893.455 77.7399 901.179 79.5606 908.131 83.2021C915.083 86.7332 920.6 91.9196 924.683 98.7611C928.876 105.492 930.973 113.493 930.973 122.762L865.095 135.507C866.971 139.921 869.895 143.231 873.868 145.438C877.951 147.645 882.916 148.749 888.765 148.749ZM884.958 97.2714C878.447 97.2714 873.151 99.368 869.068 103.561C864.985 107.754 862.833 113.548 862.612 120.941L905.979 112.499C904.765 107.865 902.282 104.168 898.531 101.409C894.779 98.6508 890.255 97.2714 884.958 97.2714Z" fill="#16151B"/>
<path d="M988.22 170.101C979.061 170.101 970.178 168.887 961.571 166.459C953.074 163.921 946.233 160.666 941.046 156.694L950.15 136.5C955.116 140.142 961.019 143.066 967.861 145.273C974.702 147.48 981.544 148.583 988.386 148.583C996 148.583 1001.63 147.48 1005.27 145.273C1008.91 142.955 1010.73 139.921 1010.73 136.169C1010.73 133.41 1009.63 131.148 1007.42 129.383C1005.32 127.507 1002.57 126.017 999.144 124.914C995.834 123.81 991.31 122.596 985.572 121.272C976.744 119.175 969.516 117.079 963.888 114.982C958.261 112.886 953.405 109.52 949.322 104.885C945.35 100.251 943.364 94.0713 943.364 86.347C943.364 79.6158 945.184 73.5467 948.826 68.1396C952.467 62.6222 957.93 58.2635 965.213 55.0634C972.606 51.8633 981.599 50.2633 992.193 50.2633C999.586 50.2633 1006.81 51.1461 1013.88 52.9116C1020.94 54.6772 1027.12 57.2152 1032.41 60.5256L1024.14 80.8848C1013.43 74.8157 1002.73 71.7811 992.027 71.7811C984.523 71.7811 978.951 72.9949 975.309 75.4226C971.778 77.8502 970.013 81.0503 970.013 85.0228C970.013 88.9953 972.054 91.9747 976.137 93.961C980.33 95.8369 986.675 97.7128 995.172 99.5887C1004 101.685 1011.23 103.782 1016.86 105.879C1022.48 107.975 1027.28 111.286 1031.26 115.81C1035.34 120.334 1037.38 126.458 1037.38 134.183C1037.38 140.804 1035.5 146.873 1031.75 152.39C1028.11 157.797 1022.59 162.101 1015.2 165.301C1007.81 168.501 998.813 170.101 988.22 170.101Z" fill="#16151B"/>
<path d="M1096.92 169.439C1087.43 169.439 1078.88 167.508 1071.26 163.646C1063.76 159.673 1057.85 154.211 1053.55 147.259C1049.36 140.307 1047.26 132.417 1047.26 123.589C1047.26 114.762 1049.36 106.872 1053.55 99.9198C1057.85 92.9679 1063.76 87.5608 1071.26 83.6986C1078.88 79.7261 1087.43 77.7399 1096.92 77.7399C1106.3 77.7399 1114.46 79.7261 1121.41 83.6986C1128.48 87.5608 1133.61 93.1334 1136.81 100.416L1116.78 111.175C1112.15 103.01 1105.47 98.9266 1096.75 98.9266C1090.02 98.9266 1084.45 101.134 1080.03 105.548C1075.62 109.961 1073.41 115.975 1073.41 123.589C1073.41 131.203 1075.62 137.217 1080.03 141.631C1084.45 146.045 1090.02 148.252 1096.75 148.252C1105.58 148.252 1112.26 144.169 1116.78 136.003L1136.81 146.928C1133.61 153.99 1128.48 159.508 1121.41 163.48C1114.46 167.453 1106.3 169.439 1096.92 169.439Z" fill="#16151B"/>
<path d="M1205.15 77.7399C1216.19 77.7399 1225.07 81.0503 1231.8 87.6712C1238.64 94.292 1242.07 104.113 1242.07 117.134V168.115H1216.24V121.107C1216.24 114.044 1214.7 108.803 1211.61 105.382C1208.52 101.851 1204.05 100.085 1198.2 100.085C1191.69 100.085 1186.51 102.127 1182.64 106.21C1178.78 110.182 1176.85 116.141 1176.85 124.086V168.115H1151.03V45.2976H1176.85V88.3333C1180.27 84.9125 1184.41 82.3193 1189.26 80.5537C1194.12 78.6778 1199.42 77.7399 1205.15 77.7399Z" fill="#16151B"/>
<path d="M1308.81 169.439C1299.44 169.439 1290.99 167.508 1283.49 163.646C1276.1 159.673 1270.3 154.211 1266.11 147.259C1261.92 140.307 1259.82 132.417 1259.82 123.589C1259.82 114.762 1261.92 106.872 1266.11 99.9198C1270.3 92.9679 1276.1 87.5608 1283.49 83.6986C1290.99 79.7261 1299.44 77.7399 1308.81 77.7399C1318.19 77.7399 1326.58 79.7261 1333.97 83.6986C1341.37 87.5608 1347.16 92.9679 1351.35 99.9198C1355.55 106.872 1357.64 114.762 1357.64 123.589C1357.64 132.417 1355.55 140.307 1351.35 147.259C1347.16 154.211 1341.37 159.673 1333.97 163.646C1326.58 167.508 1318.19 169.439 1308.81 169.439ZM1308.81 148.252C1315.44 148.252 1320.84 146.045 1325.04 141.631C1329.34 137.107 1331.49 131.093 1331.49 123.589C1331.49 116.086 1329.34 110.127 1325.04 105.713C1320.84 101.189 1315.44 98.9266 1308.81 98.9266C1302.19 98.9266 1296.73 101.189 1292.43 105.713C1288.12 110.127 1285.97 116.086 1285.97 123.589C1285.97 131.093 1288.12 137.107 1292.43 141.631C1296.73 146.045 1302.19 148.252 1308.81 148.252Z" fill="#16151B"/>
<path d="M1417.28 169.439C1407.9 169.439 1399.46 167.508 1391.95 163.646C1384.56 159.673 1378.77 154.211 1374.57 147.259C1370.38 140.307 1368.28 132.417 1368.28 123.589C1368.28 114.762 1370.38 106.872 1374.57 99.9198C1378.77 92.9679 1384.56 87.5608 1391.95 83.6986C1399.46 79.7261 1407.9 77.7399 1417.28 77.7399C1426.66 77.7399 1435.04 79.7261 1442.44 83.6986C1449.83 87.5608 1455.62 92.9679 1459.82 99.9198C1464.01 106.872 1466.11 114.762 1466.11 123.589C1466.11 132.417 1464.01 140.307 1459.82 147.259C1455.62 154.211 1449.83 159.673 1442.44 163.646C1435.04 167.508 1426.66 169.439 1417.28 169.439ZM1417.28 148.252C1423.9 148.252 1429.3 146.045 1433.5 141.631C1437.8 137.107 1439.95 131.093 1439.95 123.589C1439.95 116.086 1437.8 110.127 1433.5 105.713C1429.3 101.189 1423.9 98.9266 1417.28 98.9266C1410.66 98.9266 1405.19 101.189 1400.89 105.713C1396.59 110.127 1394.43 116.086 1394.43 123.589C1394.43 131.093 1396.59 137.107 1400.89 141.631C1405.19 146.045 1410.66 148.252 1417.28 148.252Z" fill="#16151B"/>
<path d="M1515.31 169.439C1505.27 169.439 1497.43 166.791 1491.81 161.494C1486.18 156.087 1483.36 148.473 1483.36 138.652V45.2976H1509.19V137.162C1509.19 140.914 1510.12 143.838 1512 145.935C1513.99 147.921 1516.75 148.914 1520.28 148.914C1521.6 148.914 1522.92 148.749 1524.25 148.418C1525.68 148.087 1526.79 147.7 1527.56 147.259L1528.72 167.287C1524.41 168.722 1519.95 169.439 1515.31 169.439Z" fill="#16151B"/>
<path d="M117.603 179.881C117.024 179.881 116.251 179.688 115.286 179.301C114.513 178.915 113.644 178.529 112.679 178.143L8.40022 107.175C5.6967 105.244 3.57251 103.41 2.02764 101.672C0.675879 99.7406 0 97.3267 0 94.4301V85.4505C0 82.5539 0.675879 80.2366 2.02764 78.4986C3.57251 76.7606 5.6967 74.9261 8.40022 72.995L112.679 2.02763C113.644 1.44831 114.513 0.965547 115.286 0.579323C116.251 0.193111 117.024 0 117.603 0C119.341 0 120.789 0.579328 121.948 1.73798C123.107 2.89662 123.686 4.34493 123.686 6.08291V37.0769C123.686 40.1666 122.817 42.5804 121.079 44.3184C119.341 45.8633 117.507 47.3116 115.575 48.6634L52.429 90.0852L115.575 131.797C117.507 132.955 119.341 134.307 121.079 135.852C122.817 137.397 123.686 139.714 123.686 142.804V174.087C123.686 175.825 123.107 177.274 121.948 178.432C120.789 179.398 119.341 179.881 117.603 179.881Z" fill="#D77CE6"/>
<path d="M124.419 75.3814C125.578 75.3814 127.123 75.9607 129.054 77.1194L234.781 148.956C237.677 150.887 239.802 152.818 241.153 154.749C242.505 156.68 243.181 158.997 243.181 161.701L243.181 170.97C243.181 173.674 242.602 175.894 241.443 177.632C240.091 179.37 237.87 181.301 234.781 183.426L129.054 255.262C127.123 256.421 125.578 257 124.419 257C122.681 257 121.233 256.421 120.074 255.262C118.916 254.296 118.336 252.848 118.336 250.917L118.336 218.185C118.336 215.289 119.109 212.971 120.654 211.233C122.005 209.688 123.936 208.144 126.447 206.599L188.145 166.336L126.447 125.783C123.743 123.852 121.716 122.114 120.364 120.569C119.012 119.217 118.336 117.189 118.336 114.486L118.336 81.4643C118.336 79.7263 118.916 78.278 120.074 77.1194C121.233 75.9607 122.681 75.3814 124.419 75.3814Z" fill="#6C38CC"/>
</svg>
