<svg width="120" height="120" xmlns="http://www.w3.org/2000/svg" fill="none"><path fill="currentColor" d="M24.389 64.681c0 3.456-2.752 5.962-7.123 5.962a9.524 9.524 0 01-6.673-2.995l1.462-1.617c1.368 1.303 2.978 2.569 5.182 2.569 2.45 0 5.09-1.374 5.09-3.84 0-2.047-1.628-3.383-5.049-4.437-3.898-1.191-5.877-2.808-5.877-5.847 0-3.008 2.545-5.476 6.173-5.476 2.709 0 4.404 1.155 6.053 2.63l-1.437 1.595c-1.446-1.281-2.825-2.15-4.516-2.15-2.098 0-4.17 1.353-4.17 3.3 0 1.765 1.015 2.89 4.595 3.985 3.28 1.01 6.29 2.575 6.29 6.32v.001zm17.692-13.688a1.716 1.716 0 103.431 0 1.716 1.716 0 00-3.43 0zm16.6-1.364h-2.068v20.675h2.068V49.629zm4.825 19.986s1.273 1.034 5.514 1.034h-.003c4.186 0 7.584-3.062 7.584-7.245s-3.395-7.232-7.581-7.232a7.766 7.766 0 00-3.446.704V49.63h-2.068v19.986zm15.509-6.193a7.577 7.577 0 1015.155 0 7.577 7.577 0 00-15.155 0zm27.693 6.888h2.699l-5.967-7.107 5.565-6.666h-2.684l-4.226 5.063-4.248-5.063h-2.699l5.605 6.675-5.926 7.098h2.683l4.587-5.495 4.611 5.495zM86.605 57.891a5.518 5.518 0 10-.002 11.036 5.518 5.518 0 00.002-11.036zm-17.586.353a6.144 6.144 0 00-3.446 1.116v8.534c1.071.52 2.258.757 3.446.689 3.045 0 5.514-2.127 5.514-5.17 0-3.042-2.472-5.17-5.516-5.17h.002zm-19.297-8.615h2.068v20.675h-2.068V49.629zM36.97 70.305l-7.232-7.232 6.547-6.552h2.924l-6.548 6.552 7.233 7.232H36.97zM27.663 49.63v20.675h2.068V49.629h-2.068zm15.172 20.676h2.068V56.521h-2.068v13.784z" clip-rule="evenodd" fill-rule="evenodd"/></svg>