<svg width="666" height="445" viewBox="0 0 666 445" fill="none" xmlns="http://www.w3.org/2000/svg">
<path d="M41.3108 235.524L27.1221 250.781V288.635H-0.290039V156.436H27.1221V216.307L39.0908 199.891L72.97 156.436H106.656L59.4569 215.148L108.007 288.538H75.4795L41.3108 235.524Z" fill="#89E1F3"/>
<path d="M472.956 178.453H432.224V288.538H404.908V178.453H364.755V156.34H472.956V178.453Z" fill="#89E1F3"/>
<path d="M539.363 101.684L558.088 83.0464L520.541 64.4093L539.363 101.684ZM574.786 91.3511L547.664 118.389L557.992 138.861L541.583 155.278L494.384 52.6283L508.669 38.4331L611.947 85.2675L595.539 101.684L574.786 91.3511Z" fill="#89E1F3"/>
<path d="M317.652 380.275L298.927 342.905L280.202 361.542L317.652 380.275ZM280.395 305.727L296.804 289.311L343.906 392.056L329.525 406.348L226.439 359.417L242.848 343.001L263.504 353.237L290.626 326.199L280.395 305.727Z" fill="#89E1F3"/>
<path d="M429.038 46.8342V27.0383L399.213 36.9845L429.038 46.8342ZM442.358 22.5963V51.2763L458.767 56.7805V74.1623L379.137 44.6132V29.4524L458.767 -0.289795V17.092L442.358 22.5963Z" fill="#89E1F3"/>
<path d="M305.973 80.2459L296.611 70.8791L287.248 89.5162L305.973 80.2459ZM300.761 62.5744L314.274 76.0936L324.602 70.9756L332.903 79.1837L281.36 102.649L274.121 95.5033L297.672 44.1304L305.877 52.435L300.761 62.5744Z" fill="#89E1F3"/>
<path d="M586.851 239.193H620.055L603.356 189.751L586.851 239.193ZM627.487 261.306H579.516L570.443 288.538H541.293L590.712 156.34H616.097L665.806 288.538H636.753L627.487 261.306Z" fill="#89E1F3"/>
<path d="M251.053 205.685H217.849L234.547 255.126L251.053 205.685ZM210.417 183.571H258.388L267.461 156.34H296.611L247.192 288.538H221.807L172.194 156.436H201.247L210.417 183.571Z" fill="#89E1F3"/>
<path d="M408.769 397.947V417.84L438.594 407.893L408.769 397.947ZM395.545 422.185V393.505L379.137 388.001V370.619L458.767 400.168V415.329L379.137 444.974V427.689L395.545 422.185Z" fill="#89E1F3"/>
<path d="M531.448 364.246L540.811 373.612L550.173 354.975L531.448 364.246ZM536.66 381.917L523.147 368.398L512.819 373.516L504.519 365.308L556.061 341.842L563.3 348.988L539.749 400.361L531.448 392.153L536.66 381.917Z" fill="#89E1F3"/>
</svg>
