<?xml version="1.0" encoding="UTF-8"?>
<svg width="784px" height="86px" viewBox="0 0 784 86" version="1.1" xmlns="http://www.w3.org/2000/svg" xmlns:xlink="http://www.w3.org/1999/xlink">
    <!-- Generator: Sketch 55 (78076) - https://sketchapp.com -->
    <title>main</title>
    <desc>Created with Sketch.</desc>
    <g id="Page-1" stroke="none" stroke-width="1" fill="none" fill-rule="evenodd">
        <g id="main">
            <polygon id="Path" fill="#000000" fill-rule="nonzero" points="134 9.3486 151.143 9.3486 151.143 35.9912 180.494 35.9912 180.494 9.3486 197.637 9.3486 197.637 78.2295 180.494 78.2295 180.494 50.2873 151.143 50.2873 151.143 78.2295 134 78.2295"></polygon>
            <path d="M244.437,79.7891 C239.762,79.7891 235.303,79.0959 231.06,77.7096 C226.904,76.2367 223.268,74.0707 220.151,71.2115 C217.034,68.2656 214.566,64.5833 212.748,60.1645 C210.93,55.6591 210.021,50.4172 210.021,44.4389 L210.021,41.8396 C210.021,36.1212 210.887,31.1392 212.618,26.8938 C214.35,22.6483 216.731,19.1392 219.761,16.3667 C222.792,13.5075 226.298,11.3847 230.281,9.9985 C234.264,8.5255 238.549,7.7891 243.138,7.7891 C253.961,7.7891 262.186,10.6483 267.814,16.3667 C273.442,22.0851 276.256,30.3595 276.256,41.1898 L276.256,48.4678 L227.554,48.4678 C227.64,51.5003 228.16,54.1429 229.112,56.3956 C230.064,58.5616 231.32,60.3378 232.878,61.7241 C234.437,63.1104 236.212,64.1501 238.203,64.8432 C240.281,65.4497 242.359,65.753 244.437,65.753 C248.853,65.753 252.186,65.1031 254.437,63.8035 C256.688,62.5039 258.29,60.5977 259.242,58.0851 L274.957,58.0851 C273.572,65.2764 270.152,70.6916 264.697,74.3306 C259.242,77.9696 252.489,79.7891 244.437,79.7891 Z M243.788,21.8252 C241.796,21.8252 239.805,22.0851 237.814,22.6049 C235.909,23.1248 234.22,23.9479 232.748,25.0743 C231.277,26.2006 230.064,27.7169 229.112,29.623 C228.16,31.5291 227.64,33.8252 227.554,36.5111 L259.632,36.5111 C259.545,33.6519 259.069,31.2692 258.203,29.3631 C257.424,27.4569 256.299,25.9407 254.827,24.8143 C253.441,23.688 251.796,22.9082 249.892,22.475 C247.987,22.0418 245.952,21.8252 243.788,21.8252 Z" id="Shape" fill="#000000" fill-rule="nonzero"></path>
            <polygon id="Path" fill="#000000" fill-rule="nonzero" points="304.089 23.6447 282.141 23.6447 282.141 9.3486 343.18 9.3486 343.18 23.6447 321.232 23.6447 321.232 78.2295 304.089 78.2295"></polygon>
            <path d="M383.441,79.7891 C378.765,79.7891 374.306,79.0959 370.064,77.7096 C365.908,76.2367 362.272,74.0273 359.155,71.0815 C356.038,68.1356 353.57,64.4533 351.752,60.0346 C349.934,55.6158 349.025,50.4172 349.025,44.4389 L349.025,41.8396 C349.025,36.2078 349.934,31.2692 351.752,27.0237 C353.57,22.7782 356.038,19.2259 359.155,16.3667 C362.272,13.5075 365.908,11.3847 370.064,9.9985 C374.306,8.5255 378.765,7.7891 383.441,7.7891 C388.116,7.7891 392.532,8.5255 396.688,9.9985 C400.844,11.3847 404.48,13.5075 407.597,16.3667 C410.801,19.2259 413.311,22.7782 415.13,27.0237 C416.948,31.2692 417.857,36.2078 417.857,41.8396 L417.857,44.4389 C417.857,50.3306 416.948,55.4858 415.13,59.9046 C413.311,64.3234 410.801,68.0057 407.597,70.9515 C404.48,73.8974 400.844,76.1068 396.688,77.5797 C392.532,79.0526 388.116,79.7891 383.441,79.7891 Z M383.441,65.2331 C388.289,65.2331 392.315,63.5003 395.519,60.0346 C398.809,56.5689 400.454,51.3703 400.454,44.4389 L400.454,41.8396 C400.454,35.5147 398.809,30.706 395.519,27.4136 C392.315,24.0346 388.289,22.345 383.441,22.345 C378.506,22.345 374.436,24.0346 371.233,27.4136 C368.029,30.706 366.428,35.5147 366.428,41.8396 L366.428,44.4389 C366.428,51.4569 368.029,56.6988 371.233,60.1645 C374.436,63.5436 378.506,65.2331 383.441,65.2331 Z" id="Shape" fill="#000000" fill-rule="nonzero"></path>
            <path d="M429.525,79.7891 C428.832,79.7891 427.967,79.7457 426.928,79.6591 C425.889,79.6591 425.023,79.5725 424.33,79.3992 L424.33,63.9335 C424.763,64.0201 425.413,64.0634 426.278,64.0634 C427.923,64.0634 429.352,63.5869 430.564,62.6338 C431.776,61.5941 432.772,59.8613 433.551,57.4353 C434.417,55.0093 435.023,51.8035 435.369,47.818 C435.802,43.7457 436.019,38.7205 436.019,32.7421 L436.019,9.3486 L490.565,9.3486 L490.565,78.2295 L473.422,78.2295 L473.422,23.6447 L451.863,23.6447 L451.863,35.3414 C451.863,44.2656 451.387,51.6302 450.435,57.4353 C449.569,63.1537 448.183,67.6591 446.279,70.9515 C444.46,74.2439 442.123,76.54 439.266,77.8396 C436.495,79.1392 433.248,79.7891 429.525,79.7891 Z" id="Path" fill="#000000" fill-rule="nonzero"></path>
            <path d="M537.284,79.7891 C532.608,79.7891 528.149,79.0959 523.907,77.7096 C519.751,76.2367 516.114,74.0273 512.997,71.0815 C509.88,68.1356 507.413,64.4533 505.595,60.0346 C503.776,55.6158 502.867,50.4172 502.867,44.4389 L502.867,41.8396 C502.867,36.2078 503.776,31.2692 505.595,27.0237 C507.413,22.7782 509.88,19.2259 512.997,16.3667 C516.114,13.5075 519.751,11.3847 523.907,9.9985 C528.149,8.5255 532.608,7.7891 537.284,7.7891 C541.959,7.7891 546.375,8.5255 550.53,9.9985 C554.686,11.3847 558.323,13.5075 561.44,16.3667 C564.643,19.2259 567.154,22.7782 568.972,27.0237 C570.79,31.2692 571.7,36.2078 571.7,41.8396 L571.7,44.4389 C571.7,50.3306 570.79,55.4858 568.972,59.9046 C567.154,64.3234 564.643,68.0057 561.44,70.9515 C558.323,73.8974 554.686,76.1068 550.53,77.5797 C546.375,79.0526 541.959,79.7891 537.284,79.7891 Z M537.284,65.2331 C542.132,65.2331 546.158,63.5003 549.362,60.0346 C552.652,56.5689 554.297,51.3703 554.297,44.4389 L554.297,41.8396 C554.297,35.5147 552.652,30.706 549.362,27.4136 C546.158,24.0346 542.132,22.345 537.284,22.345 C532.348,22.345 528.279,24.0346 525.076,27.4136 C521.872,30.706 520.27,35.5147 520.27,41.8396 L520.27,44.4389 C520.27,51.4569 521.872,56.6988 525.076,60.1645 C528.279,63.5436 532.348,65.2331 537.284,65.2331 Z" id="Shape" fill="#000000" fill-rule="nonzero"></path>
            <polygon id="Path" fill="#000000" fill-rule="nonzero" points="585.285 9.3486 634.637 9.3486 634.637 23.6447 602.429 23.6447 602.429 78.2295 585.285 78.2295"></polygon>
            <polygon id="Path" fill="#000000" fill-rule="nonzero" points="644.991 9.3486 662.134 9.3486 662.134 53.5364 692.784 9.3486 708.628 9.3486 708.628 78.2295 691.485 78.2295 691.485 34.0418 660.836 78.2295 644.991 78.2295"></polygon>
            <path d="M738.155,52.3667 C732.874,50.6338 729.021,48.0346 726.597,44.5689 C724.172,41.1031 722.96,37.0309 722.96,32.3522 C722.96,28.9732 723.523,25.8974 724.648,23.1248 C725.861,20.2656 727.635,17.8396 729.973,15.8468 C732.311,13.7674 735.255,12.1645 738.805,11.0382 C742.441,9.9118 746.683,9.3486 751.532,9.3486 L784,9.3486 L784,78.2295 L766.857,78.2295 L766.857,54.4461 L754.519,54.4461 L739.584,78.2295 L720.363,78.2295 L738.155,52.3667 Z M740.103,32.3522 C740.103,35.2981 741.056,37.4642 742.96,38.8504 C744.952,40.2367 747.593,40.9299 750.883,40.9299 L766.857,40.9299 L766.857,23.6447 L750.883,23.6447 C747.593,23.6447 744.952,24.3811 742.96,25.854 C741.056,27.2403 740.103,29.4064 740.103,32.3522 Z" id="Shape" fill="#000000" fill-rule="nonzero"></path>
            <path d="M22.1591,45.0662 C21.6118,45.0223 21.0585,45 20.5,45 C9.17816,45 0,54.1782 0,65.5 C0,76.8218 9.17816,86 20.5,86 C31.8218,86 41,76.8218 41,65.5 C41,64.6309 40.9459,63.7745 40.8409,62.9338 C31.1465,62.1574 23.3542,54.6366 22.1591,45.0662 Z" id="Path" fill="#5D00F5"></path>
            <path d="M41,20.5 C41,9.1782 31.8218,0 20.5,0 C9.17816,0 1.1248e-06,9.1782 0,20.5 C-2.03663e-06,31.8218 9.17816,41 20.5,41 C21.0243,41 21.544,40.9803 22.0583,40.9417 C22.816,30.8622 30.8622,22.816 40.9417,22.0583 C40.9803,21.544 41,21.0243 41,20.5 Z" id="Path" fill="#EB236B"></path>
            <path d="M62.9338,40.8409 C63.7745,40.9459 64.6309,41 65.5,41 C76.8218,41 86,31.8218 86,20.5 C86,9.1782 76.8218,0 65.5,0 C54.1782,0 45,9.1782 45,20.5 C45,21.0585 45.0223,21.6118 45.0662,22.1591 C54.6366,23.3542 62.1574,31.1465 62.9338,40.8409 Z" id="Path" fill="#4BD0A0"></path>
            <path d="M45.1726,62.8274 C45.0587,63.7021 45,64.5942 45,65.5 C45,76.8218 54.1782,86 65.5,86 C76.8218,86 86,76.8218 86,65.5 C86,54.1782 76.8218,45 65.5,45 C64.5942,45 63.7021,45.0587 62.8274,45.1726 C61.6316,54.3569 54.3569,61.6316 45.1726,62.8274 Z" id="Path" fill="#0066FF"></path>
        </g>
    </g>
</svg>