<svg width="163" height="24" viewBox="0 0 163 24" fill="none" xmlns="http://www.w3.org/2000/svg">
<path fill-rule="evenodd" clip-rule="evenodd" d="M0 12L10.0033 24V0L0 12Z" fill="#7674F4"/>
<path fill-rule="evenodd" clip-rule="evenodd" d="M162.003 12L152 7.20237e-07V24L162.003 12Z" fill="#7674F4"/>
<path d="M18.9167 4.91H22.4367V1.94H18.9167V4.91ZM19.0047 18H22.3487V6.208H19.0047V18Z" fill="#171819"/>
<path d="M24.8294 18H28.1734V13.644C28.1734 10.828 29.5374 9.486 31.7594 9.486H31.9354V5.988C29.9554 5.9 28.8554 6.956 28.1734 8.584V6.208H24.8294V18Z" fill="#171819"/>
<path d="M37.5007 18.22C40.0527 18.22 42.0107 17.032 42.0107 14.414C42.0107 12.214 40.0967 11.422 38.4467 10.872C37.1707 10.432 36.0487 10.124 36.0487 9.464C36.0487 8.958 36.4667 8.606 37.2807 8.606C38.1387 8.606 39.3047 9.024 40.4707 9.706L41.7467 7.396C40.4707 6.538 38.8427 6.032 37.3467 6.032C34.9707 6.032 33.0347 7.374 33.0347 9.772C33.0347 12.104 34.9047 12.874 36.5547 13.358C37.8527 13.754 38.9967 13.996 38.9967 14.722C38.9967 15.294 38.5567 15.646 37.5887 15.646C36.4887 15.646 35.1467 15.162 33.8707 14.238L32.4407 16.438C34.0027 17.67 35.8507 18.22 37.5007 18.22Z" fill="#171819"/>
<path d="M43.6157 18H47.1797V14.48H43.6157V18Z" fill="#171819"/>
<path d="M52.7266 18.22C54.3546 18.22 55.4766 17.626 56.2906 16.724V18H59.5246V11.158C59.5246 9.574 59.1286 8.276 58.2486 7.396C57.4126 6.56 56.0926 6.076 54.2666 6.076C52.2646 6.076 50.9886 6.45 49.6906 7.022L50.5266 9.574C51.6046 9.178 52.5066 8.936 53.7826 8.936C55.4546 8.936 56.3126 9.706 56.3126 11.092V11.29C55.4766 11.004 54.6186 10.806 53.4306 10.806C50.6366 10.806 48.6786 11.994 48.6786 14.568C48.6786 16.944 50.5046 18.22 52.7266 18.22ZM53.7386 15.91C52.6606 15.91 51.9126 15.382 51.9126 14.48C51.9126 13.38 52.7926 12.808 54.2226 12.808C55.0366 12.808 55.7846 12.984 56.3566 13.248V13.842C56.3566 15.052 55.3006 15.91 53.7386 15.91Z" fill="#171819"/>
<path d="M67.3082 18.264C69.6622 18.264 70.9822 17.362 72.1262 16.108L70.1682 14.128C69.3542 14.898 68.5842 15.382 67.4622 15.382C65.6362 15.382 64.4702 13.93 64.4702 12.126C64.4702 10.344 65.6582 8.87 67.3302 8.87C68.6502 8.87 69.3542 9.354 70.0802 10.036L72.0382 8.056C70.9382 6.824 69.5742 5.988 67.3522 5.988C63.7442 5.988 61.1702 8.76 61.1702 12.126C61.1702 15.536 63.7662 18.264 67.3082 18.264Z" fill="#171819"/>
<path d="M76.9945 18.22C78.6225 18.22 79.7445 17.626 80.5585 16.724V18H83.7925V11.158C83.7925 9.574 83.3965 8.276 82.5165 7.396C81.6805 6.56 80.3605 6.076 78.5345 6.076C76.5325 6.076 75.2565 6.45 73.9585 7.022L74.7945 9.574C75.8725 9.178 76.7745 8.936 78.0505 8.936C79.7225 8.936 80.5805 9.706 80.5805 11.092V11.29C79.7445 11.004 78.8865 10.806 77.6985 10.806C74.9045 10.806 72.9465 11.994 72.9465 14.568C72.9465 16.944 74.7725 18.22 76.9945 18.22ZM78.0065 15.91C76.9285 15.91 76.1805 15.382 76.1805 14.48C76.1805 13.38 77.0605 12.808 78.4905 12.808C79.3045 12.808 80.0525 12.984 80.6245 13.248V13.842C80.6245 15.052 79.5685 15.91 78.0065 15.91Z" fill="#171819"/>
<path d="M90.85 18.22C92.588 18.22 93.71 17.406 94.524 16.306V18H97.868V1.94H94.524V7.748C93.732 6.802 92.632 5.988 90.85 5.988C88.056 5.988 85.482 8.144 85.482 12.082C85.482 16.064 88.1 18.22 90.85 18.22ZM91.708 15.382C90.146 15.382 88.826 14.084 88.826 12.126C88.826 10.102 90.146 8.826 91.708 8.826C93.27 8.826 94.568 10.124 94.568 12.082C94.568 14.084 93.27 15.382 91.708 15.382Z" fill="#171819"/>
<path d="M105.784 18.264C107.918 18.264 109.502 17.428 110.602 16.064L108.688 14.37C107.764 15.228 106.95 15.58 105.828 15.58C104.332 15.58 103.276 14.788 102.946 13.27H111.152C111.174 12.962 111.196 12.654 111.196 12.39C111.196 9.046 109.392 5.988 105.454 5.988C102.022 5.988 99.6238 8.76 99.6238 12.126C99.6238 15.778 102.242 18.264 105.784 18.264ZM102.902 11.18C103.166 9.662 104.068 8.672 105.454 8.672C106.862 8.672 107.742 9.684 107.94 11.18H102.902Z" fill="#171819"/>
<path d="M113.028 18H116.372V11.422C116.372 9.838 117.142 9.024 118.396 9.024C119.65 9.024 120.354 9.838 120.354 11.422V18H123.698V11.422C123.698 9.838 124.468 9.024 125.722 9.024C126.976 9.024 127.68 9.838 127.68 11.422V18H131.024V10.322C131.024 7.484 129.528 5.988 127.042 5.988C125.436 5.988 124.204 6.648 123.17 7.858C122.554 6.67 121.388 5.988 119.848 5.988C118.154 5.988 117.142 6.89 116.372 7.88V6.208H113.028V18Z" fill="#171819"/>
<path d="M135.766 21.586C137.768 21.586 138.736 20.684 139.638 18.286L144.17 6.208H140.694L138.12 14.238L135.436 6.208H131.894L136.514 18.044C136.228 18.638 135.92 18.814 135.348 18.814C134.908 18.814 134.358 18.616 133.918 18.352L132.796 20.772C133.654 21.278 134.556 21.586 135.766 21.586Z" fill="#171819"/>
</svg>
