<?xml version="1.0" encoding="utf-8"?>
<!-- Generator: Adobe Illustrator 22.1.0, SVG Export Plug-In . SVG Version: 6.00 Build 0)  -->
<svg version="1.1" id="Layer_1" xmlns="http://www.w3.org/2000/svg" xmlns:xlink="http://www.w3.org/1999/xlink" x="0px" y="0px"
	 viewBox="0 0 195 46" style="enable-background:new 0 0 195 46;" xml:space="preserve">
<style type="text/css">
	.st0{fill:none;}
	.st1{fill:#2C2A30;}
	.st2{fill:#6933DC;}
	.st3{fill:#FFFFFF;}
</style>
<rect class="st0" width="195" height="46"/>
<path class="st1" d="M70.5398026,28.1000004c0.1066971,0.2399998,0.159996,0.4533997,0.159996,0.6399994
	c0,0.3733997-0.1532974,0.6933994-0.4599991,0.960001c-0.2932968,0.2533989-0.6333008,0.3799992-1.0199966,0.3799992
	c-0.2533035,0-0.4933014-0.0666008-0.7200012-0.2000008c-0.2266006-0.1465988-0.4000015-0.3599987-0.5200043-0.6399994
	l-1.0599976-2.3600006H60.139801l-1.0600014,2.3600006c-0.1199989,0.2800007-0.2933006,0.4934006-0.5200005,0.6399994
	c-0.2132988,0.1334-0.4533005,0.2000008-0.7199974,0.2000008c-0.3866005,0-0.7333031-0.1266003-1.0400009-0.3799992
	c-0.3066025-0.2666016-0.4599991-0.5866013-0.4599991-0.960001c0-0.1865997,0.0533981-0.3999996,0.1599998-0.6399994
	l5.3999977-11.3400002c0.1467018-0.3199997,0.3666992-0.5599995,0.6599998-0.7199993
	c0.2933998-0.1733007,0.6067009-0.2600012,0.9400024-0.2600012c0.3466988,0,0.6666946,0.0867004,0.9599991,0.2600012
	c0.293396,0.173399,0.5199966,0.4133987,0.6800003,0.7199993L70.5398026,28.1000004z M61.1997986,24.5200005h4.6600037
	l-2.3200035-5.2000008L61.1997986,24.5200005z"/>
<path class="st1" d="M82.7394028,16.7399998C82.9926987,16.3799992,83.2527008,16.1334,83.5194016,16
	c0.2666016-0.1465998,0.659996-0.2200003,1.1800003-0.2200003c0.4665985,0,0.8265991,0.1267004,1.0800018,0.3800001
	c0.2532959,0.2534008,0.3799973,0.6133995,0.3799973,1.0799999v11.3400002c0,0.4666996-0.1399994,0.8400002-0.4199982,1.1200008
	c-0.2800064,0.2799988-0.6534042,0.4200001-1.1200027,0.4200001c-0.4666977,0-0.8399963-0.1400013-1.1200027-0.4200001
	c-0.2667007-0.2800007-0.3999939-0.6533012-0.3999939-1.1200008v-8.2000008l-5.8199997,8.4400005
	c-0.3734055,0.5333996-0.7134018,0.8866997-1.0200043,1.0599995c-0.293396,0.1600018-0.6866989,0.2400017-1.1800003,0.2400017
	c-0.4666977,0-0.8266983-0.1266003-1.0800018-0.3800011C73.7460022,29.4867001,73.6194,29.1266994,73.6194,28.6599998V17.3199997
	c0-0.4666004,0.1399994-0.8400002,0.4199982-1.1199989c0.2799988-0.2800007,0.6533051-0.420001,1.1200027-0.420001
	c0.4665985,0,0.8332977,0.1400003,1.0999985,0.420001c0.2799988,0.2799988,0.4199982,0.6533985,0.4199982,1.1199989V25.5
	L82.7394028,16.7399998z M79.8993988,14.5200005c-0.9733963,0-1.8266983-0.2066002-2.5599976-0.6200008
	c-0.7333984-0.4265995-1.2399979-0.9865999-1.5200043-1.6799994c-0.0666962-0.1733007-0.0999985-0.3266001-0.0999985-0.46
	c0-0.2933006,0.0999985-0.5265999,0.3000031-0.6999998c0.1999969-0.1866007,0.4332962-0.2800007,0.6999969-0.2800007
	c0.1865997,0,0.3600006,0.0534,0.5200043,0.1599998c0.159996,0.0934,0.2865982,0.2400007,0.3799973,0.4400005
	c0.4800034,0.96,1.2399979,1.4399996,2.2799988,1.4399996c1.013298,0,1.7666016-0.4799995,2.2600021-1.4399996
	c0.1065979-0.1999998,0.2399979-0.3466005,0.4000015-0.4400005c0.159996-0.1065998,0.3332977-0.1599998,0.5199966-0.1599998
	c0.2666016,0,0.4933014,0.0934,0.6800003,0.2800007c0.1999969,0.1733999,0.3000031,0.3999996,0.3000031,0.6799994
	c-0.0267029,0.2133999-0.0600052,0.3734007-0.1000061,0.4800005c-0.2666931,0.6933994-0.7666931,1.2533998-1.5,1.6799994
	C81.7259979,14.3134003,80.8727036,14.5200005,79.8993988,14.5200005z"/>
<path class="st1" d="M94.9713974,30.1000004c-0.4666977,0-0.8466949-0.1400013-1.1399994-0.4200001
	c-0.2799988-0.2800007-0.4199982-0.6533012-0.4199982-1.1200008V18.4400005H90.171402
	c-0.986702,0-1.4800034-0.4266014-1.4800034-1.2800007c0-0.8400002,0.4933014-1.2600002,1.4800034-1.2600002h9.5999985
	c0.9866028,0,1.479599,0.4200001,1.479599,1.2600002c0,0.8533993-0.4929962,1.2800007-1.479599,1.2800007h-3.2399979v10.1199989
	c0,0.4666996-0.1399994,0.8400002-0.4200058,1.1200008C95.831398,29.9599991,95.4514008,30.1000004,94.9713974,30.1000004z"/>
<path class="st1" d="M112.913002,16.7399998C113.1660004,16.3799992,113.4260025,16.1334,113.6930008,16
	c0.2659988-0.1465998,0.659996-0.2200003,1.1800003-0.2200003c0.4659958,0,0.8259964,0.1267004,1.0800018,0.3800001
	c0.2529984,0.2534008,0.3799973,0.6133995,0.3799973,1.0799999v11.3400002c0,0.4666996-0.1399994,0.8400002-0.4199982,1.1200008
	c-0.2799988,0.2799988-0.6539993,0.4200001-1.1200027,0.4200001c-0.4670029,0-0.8399963-0.1400013-1.1200027-0.4200001
	c-0.2669983-0.2800007-0.3999939-0.6533012-0.3999939-1.1200008v-8.2000008l-5.8199997,8.4400005
	c-0.3740005,0.5333996-0.7140045,0.8866997-1.0200043,1.0599995c-0.2939987,0.1600018-0.6869965,0.2400017-1.1800003,0.2400017
	c-0.4669952,0-0.8269958-0.1266003-1.0800018-0.3800011c-0.2539978-0.2532997-0.3799973-0.6133003-0.3799973-1.0799999V17.3199997
	c0-0.4666004,0.1399994-0.8400002,0.4199982-1.1199989c0.2799988-0.2800007,0.6529999-0.420001,1.1200027-0.420001
	c0.4660034,0,0.8330002,0.1400003,1.0999985,0.420001c0.2799988,0.2799988,0.4199982,0.6533985,0.4199982,1.1199989V25.5
	L112.913002,16.7399998z"/>
<path class="st1" d="M125.3249969,20.1599998c0,2.7334003-0.3069992,4.8267002-0.9199982,6.2800007
	c-0.5999985,1.4533997-1.5130005,2.539999-2.7399979,3.2600002c-0.3470001,0.2133999-0.6870041,0.3199997-1.0200043,0.3199997
	c-0.3729935,0-0.6800003-0.1266003-0.9199982-0.3800011c-0.2269974-0.2532997-0.3399963-0.553299-0.3399963-0.8999996
	c0-0.2800007,0.0799942-0.5466003,0.2399979-0.7999992c0.1600037-0.2665997,0.4069977-0.5,0.7399979-0.7000008
	c0.6269989-0.3733006,1.1070023-1.0665989,1.4400024-2.0799999c0.3470001-1.0132999,0.5199966-2.5065994,0.5199966-4.4799995
	v-3.3199997c0-0.4666004,0.1200027-0.826601,0.3600006-1.0799999c0.253006-0.2533016,0.612999-0.3800011,1.0800018-0.3800011
	H131.125c0.4669952,0,0.8200073,0.1266994,1.0599976,0.3800011c0.253006,0.2533989,0.3800049,0.6133995,0.3800049,1.0799999
	v11.2199993c0,0.4666996-0.1399994,0.8400002-0.4199982,1.1200008c-0.2799988,0.2799988-0.6470032,0.4200001-1.1000061,0.4200001
	c-0.4669952,0-0.8399963-0.1400013-1.1199951-0.4200001c-0.2799988-0.2800007-0.4199982-0.6533012-0.4199982-1.1200008V18.3600006
	h-4.1800079V20.1599998z"/>
<path class="st1" d="M143.0440063,30.1800003c-1.4000092,0-2.6200104-0.2933006-3.6600037-0.8800011
	c-1.0270081-0.5999985-1.8200073-1.4399986-2.3800049-2.5199986c-0.5599976-1.0932999-0.8399963-2.3733006-0.8399963-3.8400002
	c0-1.4666004,0.2799988-2.7399998,0.8399963-3.8199997c0.5599976-1.0933018,1.3529968-1.9333,2.3800049-2.5200005
	c1.0399933-0.5866013,2.2599945-0.8800001,3.6600037-0.8800001c1.3999939,0,2.6129913,0.2933989,3.6399994,0.8800001
	c1.0399933,0.5867004,1.8399963,1.4266987,2.3999939,2.5200005c0.5599976,1.0799999,0.8399963,2.3533993,0.8399963,3.8199997
	c0,1.4666996-0.2799988,2.7467003-0.8399963,3.8400002c-0.5599976,1.0799999-1.3600006,1.9200001-2.3999939,2.5199986
	C145.6569977,29.8866997,144.4440002,30.1800003,143.0440063,30.1800003z M143.0440063,27.7600002
	c1.1729889,0,2.0929871-0.4132996,2.7599945-1.2399998c0.6799927-0.826601,1.0200043-2.0200005,1.0200043-3.5799999
	c0-1.5600014-0.3330078-2.7466011-1-3.5600014c-0.6670074-0.8265991-1.5930023-1.2399998-2.7799988-1.2399998
	c-1.1870117,0-2.1130066,0.4134007-2.7799988,1.2399998c-0.6530151,0.8134003-0.980011,2-0.980011,3.5600014
	c0,1.5599995,0.3330078,2.7533989,1,3.5799999C140.951004,27.3467007,141.8710022,27.7600002,143.0440063,27.7600002z"/>
<path class="st1" d="M154.845993,30.1200008c-0.4669952,0-0.8399963-0.1400013-1.1199951-0.4200001
	c-0.2799988-0.2800007-0.4199982-0.6533012-0.4199982-1.1200008V17.3600006c0-0.4400005,0.1329956-0.7933006,0.3999939-1.0600014
	c0.2670135-0.2665997,0.6200104-0.3999996,1.0600128-0.3999996h7.0399933c0.4400024,0,0.772995,0.1133995,1,0.3400002
	c0.227005,0.2133999,0.3399963,0.5067005,0.3399963,0.8800011c0,0.3866997-0.1129913,0.6933994-0.3399963,0.9200001
	c-0.227005,0.2133999-0.5599976,0.3199997-1,0.3199997h-5.4400024v10.2199993c0,0.4666996-0.1399994,0.8400002-0.4199982,1.1200008
	C155.6660004,29.9799995,155.298996,30.1200008,154.845993,30.1200008z"/>
<path class="st1" d="M174.9689941,16.7399998C175.2220001,16.3799992,175.4819946,16.1334,175.7489929,16
	c0.2670135-0.1465998,0.6600037-0.2200003,1.1800079-0.2200003c0.4669952,0,0.8269958,0.1267004,1.0800018,0.3800001
	c0.2529907,0.2534008,0.3800049,0.6133995,0.3800049,1.0799999v11.3400002c0,0.4666996-0.1400146,0.8400002-0.4200134,1.1200008
	c-0.2799988,0.2799988-0.6529999,0.4200001-1.1199951,0.4200001s-0.8399963-0.1400013-1.1199951-0.4200001
	c-0.2669983-0.2800007-0.4000092-0.6533012-0.4000092-1.1200008v-8.2000008l-5.8199921,8.4400005
	c-0.3730011,0.5333996-0.7129974,0.8866997-1.0200043,1.0599995c-0.2929993,0.1600018-0.6869965,0.2400017-1.1799927,0.2400017
	c-0.4670105,0-0.8270111-0.1266003-1.0800018-0.3800011c-0.253006-0.2532997-0.3800049-0.6133003-0.3800049-1.0799999V17.3199997
	c0-0.4666004,0.1399994-0.8400002,0.4199982-1.1199989c0.2799988-0.2800007,0.6529999-0.420001,1.1200104-0.420001
	c0.4669952,0,0.8329926,0.1400003,1.0999908,0.420001c0.2799988,0.2799988,0.4199982,0.6533985,0.4199982,1.1199989V25.5
	L174.9689941,16.7399998z"/>
<path class="st1" d="M191.8809967,30.1200008c-0.4669952,0-0.8399963-0.1400013-1.1199951-0.4200001
	c-0.2669983-0.2800007-0.4000092-0.6533012-0.4000092-1.1200008v-3.8600006h-1.5c-1,0-1.7599945,0.4667015-2.2799988,1.4000015
	l-1.8399963,3.2199993c-0.1470032,0.2533989-0.3329926,0.4466991-0.5599976,0.5799999
	c-0.2129974,0.1200008-0.4400024,0.1800003-0.6799927,0.1800003c-0.3870087,0-0.7400055-0.1333008-1.0600128-0.3999996
	c-0.3069916-0.2800007-0.4599915-0.6066017-0.4599915-0.9800014c0-0.2665997,0.072998-0.5199986,0.2200012-0.7600002L183.3809967,26
	c0.3200073-0.5333004,0.6869965-0.9533005,1.1000061-1.2600002c0.427002-0.3199997,0.8670044-0.539999,1.3199921-0.6599998
	c-1.0670013-0.1865997-1.9069977-0.6466007-2.519989-1.3799992c-0.6000061-0.7466011-0.9000092-1.5799999-0.9000092-2.5
	c0-1.3733006,0.4470062-2.4333,1.3399963-3.1800003c0.9070129-0.7466011,2.1870117-1.1200008,3.8400116-1.1200008h4.3999939
	c0.4669952,0,0.8269958,0.1266994,1.0800018,0.3800011c0.253006,0.2533989,0.3800049,0.6133995,0.3800049,1.0799999v11.2199993
	c0,0.4666996-0.1399994,0.8400002-0.4199982,1.1200008C192.720993,29.9799995,192.3480072,30.1200008,191.8809967,30.1200008z
	 M190.401001,18.2800007h-2.4199982c-0.8800049,0-1.5469971,0.1866989-2,0.5599995
	c-0.4530029,0.3733997-0.6800079,0.8934002-0.6800079,1.5599995c0,0.6667004,0.2070007,1.1599998,0.6200104,1.4799995
	c0.4129944,0.3200016,1.0599976,0.4800014,1.9399872,0.4800014h2.5400085V18.2800007z"/>
<circle class="st2" cx="23" cy="23" r="23"/>
<path class="st3" d="M29,18h2.5c0.8283997,0,1.5-0.6716003,1.5-1.5S32.3283997,15,31.5,15h-8c-0.8283997,0-1.5,0.6716003-1.5,1.5
	s0.6716003,1.5,1.5,1.5H26v6.5c0,0.8283997,0.6716003,1.5,1.5,1.5s1.5-0.6716003,1.5-1.5V18z"/>
<path class="st3" d="M15,21.5c0-0.8283997,0.6716003-1.5,1.5-1.5s1.5,0.6716003,1.5,1.5v8c0,0.8283997-0.6716003,1.5-1.5,1.5
	S15,30.3283997,15,29.5V21.5z"/>
<path class="st3" d="M15,16.5c0-0.8283997,0.6716003-1.5,1.5-1.5s1.5,0.6716003,1.5,1.5S17.3283997,18,16.5,18
	S15,17.3283997,15,16.5z"/>
<path class="st3" d="M27.5,28c-0.8283997,0-1.5,0.6716003-1.5,1.5s0.6716003,1.5,1.5,1.5s1.5-0.6716003,1.5-1.5
	S28.3283997,28,27.5,28z"/>
</svg>
