<svg xmlns="http://www.w3.org/2000/svg" xmlns:xlink="http://www.w3.org/1999/xlink" width="230px" height="41px" viewBox="0 0 230 41"> <!-- Generator: Sketch 55.2 (78181) - https://sketchapp.com --> <title>logo</title> <desc>Created with Sketch.</desc> <g id="Page-1" stroke="none" stroke-width="1" fill="none" fill-rule="evenodd"> <g id="Program-page-v1.3" transform="translate(-32.000000, -22.000000)"> <g id="Header"> <g id="logo" transform="translate(32.000000, 22.000000)"> <g id="eduson-academy-logo" transform="translate(0.818505, 0.000000)" fill="#2D2D2D"> <g id="Eduson-Logo-Dark-No-Motto-Copy-2"> <polyline id="Fill-1" points="0.11346556 20.1538961 13.7676273 20.1538961 13.7676273 17.1198961 3.31815845 17.1198961 3.31815845 11.9345143 12.4641917 11.9345143 12.4641917 8.90051427 3.31815845 8.90051427 3.31815845 3.87993383 13.6371419 3.87993383 13.6371419 0.845933828 0.11346556 0.845933828 0.11346556 20.1538961"/> <path d="M21.5995875,20.4572961 C24.0348421,20.4572961 25.5928661,19.2436961 26.6970279,17.7266961 L26.6970279,20.1538961 L30.1243968,20.1538961 L30.1243968,0.0184792857 L26.6970279,0.0184792857 L26.6970279,7.8524052 C25.6212325,6.50089611 24.0632086,5.28660656 21.5995875,5.28660656 C18.0303866,5.28660656 14.6597503,8.01789611 14.6597503,12.8447143 C14.6597503,17.7266961 18.0871193,20.4572961 21.5995875,20.4572961 L21.5995875,20.4572961 Z M22.4207945,17.5612052 C20.0982963,17.5612052 18.1154857,15.7132234 18.1154857,12.8991884 C18.1154857,9.94862335 20.06993,8.18338701 22.4207945,8.18338701 C24.7149263,8.18338701 26.7544697,10.0313688 26.7544697,12.8447143 C26.7544697,15.6856416 24.7149263,17.5612052 22.4207945,17.5612052 L22.4207945,17.5612052 Z" id="Fill-2" fill-rule="nonzero"/> <path d="M37.0067922,20.4572961 C39.3292904,20.4572961 40.7178252,19.2712779 41.680155,17.892187 L41.680155,20.1538961 L45.107524,20.1538961 L45.107524,5.59000656 L41.680155,5.59000656 L41.680155,13.8100779 C41.680155,16.071787 40.2923293,17.4232961 38.3095186,17.4232961 C36.2706844,17.4232961 35.1090808,16.1269507 35.1090808,13.8652416 L35.1090808,5.59000656 L31.6824209,5.59000656 L31.6824209,14.858187 C31.6824209,18.2507507 33.6368651,20.4572961 37.0067922,20.4572961" id="Fill-3"/> <path d="M52.2728741,20.4297143 C55.3882128,20.4297143 57.8241766,18.9127143 57.8241766,15.8511325 C57.8241766,13.1756961 55.3598465,12.2096429 53.1791802,11.5483688 C53.0947902,11.5200975 52.9813246,11.4932052 52.8962255,11.4656234 C51.2531024,10.9415688 49.808544,10.4995702 49.808544,9.50731427 C49.808544,8.59711427 50.5737273,7.99031428 51.9048202,7.99031428 C53.1508139,7.99031428 54.6804714,8.51436881 56.1250298,9.3694052 L57.4844891,6.99667928 C55.8988079,5.97615201 53.8592644,5.34245974 51.9899193,5.34245974 C49.0157034,5.34245974 46.6648388,7.02426111 46.6648388,9.78244289 C46.6648388,12.6240597 49.1291689,13.5066779 51.3382015,14.1410597 C51.4233007,14.1686416 51.5083999,14.1962234 51.593499,14.2238052 C53.235913,14.6926961 54.6804714,15.0788416 54.6804714,16.1545325 C54.6804714,17.1750597 53.8308981,17.7818597 52.3579732,17.7818597 C50.8283157,17.7818597 49.0724362,17.1750597 47.4576794,15.9890416 L45.928731,18.2507507 C47.7980761,19.6850052 50.1489406,20.4297143 52.2728741,20.4297143" id="Fill-4"/> <path d="M66.2929623,20.4848779 C70.9095922,20.4848779 74.3085949,17.0371507 74.3085949,12.8991884 C74.3085949,8.67985974 70.9379586,5.28660656 66.349695,5.28660656 C61.7614315,5.28660656 58.3624288,8.73502335 58.3624288,12.8991884 C58.3624288,17.0923143 61.7330651,20.4848779 66.2929623,20.4848779 L66.2929623,20.4848779 Z M66.349695,17.588787 C63.6875094,17.588787 61.7897979,15.4374052 61.7897979,12.8991884 C61.7897979,10.307187 63.5456774,8.21096881 66.2929623,8.21096881 C68.9835143,8.21096881 70.8812258,10.3347688 70.8812258,12.8991884 C70.8812258,15.464987 69.1253463,17.588787 66.349695,17.588787 L66.349695,17.588787 Z" id="Fill-5" fill-rule="nonzero"/> <path d="M75.6680541,20.1538961 L79.094714,20.1538961 L79.094714,11.9345143 C79.094714,9.6728052 80.4825396,8.32129612 82.46535,8.32129612 C84.5048934,8.32129612 85.6657885,9.61764158 85.6657885,11.8793507 L85.6657885,20.1538961 L89.0931569,20.1538961 L89.0931569,10.8864052 C89.0931569,7.49384156 87.1387126,5.28660656 83.7680765,5.28660656 C81.4455785,5.28660656 80.057753,6.47331428 79.094714,7.8524052 L79.094714,5.59000656 L75.6680541,5.59000656 L75.6680541,20.1538961" id="Fill-6"/> </g> <path d="M97.4021352,20.2009945 L105.49104,2.63441989 L106.731669,2.63441989 L114.820574,20.2009945 L113.406256,20.2009945 L111.197935,15.3172376 L100.950335,15.3172376 L98.7420154,20.2009945 L97.4021352,20.2009945 Z M101.496213,14.1461326 L110.652059,14.1461326 L106.086542,4.05469613 L101.496213,14.1461326 Z M126.358429,20.5 C121.39591,20.5 117.723647,16.5381768 117.723647,11.48 C117.723647,6.54640884 121.39591,2.46 126.408054,2.46 C129.509628,2.46 131.296134,3.68093923 133.082641,5.32546961 L132.239012,6.19756906 C130.725445,4.72745856 128.988563,3.63110498 126.383241,3.63110498 C122.214726,3.63110498 119.063527,7.04475138 119.063527,11.48 C119.063527,15.8903315 122.264351,19.328895 126.408054,19.328895 C128.914126,19.328895 130.626194,18.357127 132.387888,16.6129282 L133.256329,17.4601105 C131.420197,19.2790608 129.43519,20.5 126.358429,20.5 Z M135.315774,20.2009945 L143.404678,2.63441989 L144.645308,2.63441989 L152.734213,20.2009945 L151.319895,20.2009945 L149.111574,15.3172376 L138.863974,15.3172376 L136.655654,20.2009945 L135.315774,20.2009945 Z M139.409852,14.1461326 L148.565697,14.1461326 L144.000181,4.05469613 L139.409852,14.1461326 Z M156.406476,20.2009945 L156.406476,2.75900552 L162.18781,2.75900552 C167.64658,2.75900552 171.418093,6.52149171 171.418093,11.48 C171.418093,16.388674 167.64658,20.2009945 162.18781,20.2009945 L156.406476,20.2009945 Z M157.696731,19.0049724 L162.18781,19.0049724 C167.026265,19.0049724 170.078214,15.6909945 170.078214,11.48 C170.078214,7.3437569 167.026265,3.95502762 162.18781,3.95502762 L157.696731,3.95502762 L157.696731,19.0049724 Z M175.809922,20.2009945 L175.809922,2.75900552 L188.166592,2.75900552 L188.166592,3.95502762 L177.100177,3.95502762 L177.100177,10.8072376 L187.050026,10.8072376 L187.050026,12.0032596 L177.100177,12.0032596 L177.100177,19.0049724 L188.290655,19.0049724 L188.290655,20.2009945 L175.809922,20.2009945 Z M192.434358,20.2009945 L192.434358,2.75900552 L193.650175,2.75900552 L200.622513,13.0746961 L207.594851,2.75900552 L208.810668,2.75900552 L208.810668,20.2009945 L207.520413,20.2009945 L207.520413,5.05138121 L200.647326,15.0929834 L200.548075,15.0929834 L193.674988,5.05138121 L193.674988,20.2009945 L192.434358,20.2009945 Z M219.628957,20.2009945 L219.628957,13.2989502 L212.18518,2.75900552 L213.797999,2.75900552 L220.298897,12.1278453 L226.824609,2.75900552 L228.362989,2.75900552 L220.919212,13.2740331 L220.919212,20.2009945 L219.628957,20.2009945 Z" id="ACADEMY" fill-rule="nonzero"/> </g> <path d="M0.705879004,32.553344 C0.705879004,29.623648 2.99638434,27.357824 5.93514591,27.357824 C8.87390747,27.357824 11.1500071,29.623648 11.1500071,32.553344 C11.1500071,35.5552 8.87390747,37.893184 5.93514591,37.893184 C2.99638434,37.893184 0.705879004,35.5552 0.705879004,32.553344 Z M2.17525979,32.553344 C2.17525979,34.8336 3.84632028,36.579872 5.93514591,36.579872 C8.00956584,36.579872 9.68062633,34.8336 9.68062633,32.553344 C9.68062633,30.345248 8.00956584,28.656704 5.93514591,28.656704 C3.84632028,28.656704 2.17525979,30.345248 2.17525979,32.553344 Z M12.9363132,37.72 L12.9363132,30.417408 L14.3336655,30.417408 L14.3336655,33.3904 L18.0215231,33.3904 L18.0215231,30.417408 L19.4188754,30.417408 L19.4188754,37.72 L18.0215231,37.72 L18.0215231,34.588256 L14.3336655,34.588256 L14.3336655,37.72 L12.9363132,37.72 Z M20.7874164,37.79216 L20.7874164,36.536576 C21.8534377,36.377824 22.4296655,35.309856 22.4296655,32.6688 L22.4296655,30.417408 L27.3131957,30.417408 L27.3131957,37.72 L25.9158434,37.72 L25.9158434,31.571968 L23.769395,31.571968 L23.769395,32.6688 C23.769395,35.973728 22.9338648,37.676704 20.7874164,37.79216 Z M28.8690107,35.728384 C28.8690107,33.433696 31.7069324,33.17392 33.2195302,33.17392 L33.5940783,33.17392 L33.5940783,33.0296 C33.5940783,31.831744 32.902605,31.427648 31.9950463,31.427648 C31.2747616,31.427648 30.5400712,31.716288 29.9494377,32.134816 L29.3876157,31.110144 C29.9782491,30.619456 31.0874875,30.244224 32.1102918,30.244224 C33.9398149,30.244224 34.9914306,31.254464 34.9914306,33.10176 L34.9914306,37.72 L33.6805125,37.72 L33.6805125,36.983968 C33.6805125,36.652032 33.7237295,36.406688 33.7237295,36.406688 L33.6949181,36.406688 C33.277153,37.243744 32.384,37.893184 31.303573,37.893184 C30.0358719,37.893184 28.8690107,37.099424 28.8690107,35.728384 Z M30.266363,35.612928 C30.266363,36.190208 30.7273452,36.78192 31.6349039,36.78192 C32.8593879,36.78192 33.5940783,35.540768 33.5940783,34.458368 L33.5940783,34.18416 L33.2339359,34.18416 C32.196726,34.18416 30.266363,34.270752 30.266363,35.612928 Z M40.2639146,29.580352 C39.1546762,29.580352 38.1318719,28.91648 38.1318719,27.733056 L38.1318719,27.516576 L39.255516,27.516576 L39.255516,27.718624 C39.255516,28.353632 39.7597153,28.671136 40.2639146,28.671136 C40.7681139,28.671136 41.2867189,28.353632 41.2867189,27.704192 L41.2867189,27.516576 L42.3959573,27.516576 L42.3959573,27.733056 C42.3959573,28.91648 41.3875587,29.580352 40.2639146,29.580352 Z M37.0514448,37.72 L37.0514448,30.417408 L38.3911744,30.417408 L38.3911744,34.775872 C38.3911744,35.165536 38.362363,35.685088 38.3479573,35.757248 L38.3767687,35.757248 C38.4343915,35.62736 38.7801281,35.12224 39.0250249,34.775872 L42.1654662,30.417408 L43.5196014,30.417408 L43.5196014,37.72 L42.1654662,37.72 L42.1654662,33.361536 C42.1654662,33.015168 42.2086833,32.510048 42.2086833,32.394592 L42.1798719,32.394592 C42.1366548,32.52448 41.7765125,33.015168 41.5460214,33.361536 L38.3911744,37.72 L37.0514448,37.72 Z M45.6660498,37.72 L45.6660498,30.417408 L47.0634021,30.417408 L47.0634021,33.3904 L50.7512598,33.3904 L50.7512598,30.417408 L52.1486121,30.417408 L52.1486121,37.72 L50.7512598,37.72 L50.7512598,34.588256 L47.0634021,34.588256 L47.0634021,37.72 L45.6660498,37.72 Z M54.2374377,34.227456 L54.2374377,32.986304 L58.4439004,32.986304 L58.4439004,34.227456 L54.2374377,34.227456 Z M60.1725836,39.23536 C60.1725836,39.23536 60.5759431,39.552864 61.0081139,39.552864 C61.5843416,39.552864 62.0597295,39.134336 62.3334377,38.470464 L62.6935801,37.633408 L59.639573,30.417408 L61.2097936,30.417408 L63.0393167,35.1944 C63.1833737,35.5552 63.3130249,36.074752 63.3130249,36.074752 L63.3418363,36.074752 C63.3418363,36.074752 63.4570819,35.584064 63.5867331,35.208832 L65.3586335,30.417408 L66.8712313,30.417408 L63.4426762,39.033312 C63.0105053,40.17344 62.1029466,40.75072 61.0801423,40.75072 C60.2734235,40.75072 59.68279,40.303328 59.68279,40.303328 L60.1725836,39.23536 Z M68.2397722,37.72 L68.2397722,30.417408 L69.6371246,30.417408 L69.6371246,33.3904 L73.3249822,33.3904 L73.3249822,30.417408 L74.7223345,30.417408 L74.7223345,37.72 L73.3249822,37.72 L73.3249822,34.588256 L69.6371246,34.588256 L69.6371246,37.72 L68.2397722,37.72 Z M76.8831886,37.72 L76.8831886,30.417408 L78.2229181,30.417408 L78.2229181,34.775872 C78.2229181,35.165536 78.1941068,35.685088 78.1797011,35.757248 L78.2085125,35.757248 C78.2661352,35.62736 78.6118719,35.12224 78.8567687,34.775872 L81.99721,30.417408 L83.3513452,30.417408 L83.3513452,37.72 L81.99721,37.72 L81.99721,33.361536 C81.99721,33.015168 82.040427,32.510048 82.040427,32.394592 L82.0116157,32.394592 C81.9683986,32.52448 81.6082562,33.015168 81.3777651,33.361536 L78.2229181,37.72 L76.8831886,37.72 Z M85.4977936,37.72 L85.4977936,30.417408 L88.5085836,30.417408 C89.9779644,30.417408 90.9431459,31.066848 90.9431459,32.293568 C90.9431459,33.000736 90.5685979,33.60688 89.9059359,33.89552 L89.9059359,33.909952 C90.8134947,34.126432 91.2888826,34.8336 91.2888826,35.641792 C91.2888826,36.9984 90.1940498,37.72 88.6094235,37.72 L85.4977936,37.72 Z M86.8951459,33.505856 L88.2636868,33.505856 C89.0992171,33.505856 89.5169822,33.072896 89.5169822,32.394592 C89.5169822,31.73072 89.0992171,31.384352 88.2204698,31.384352 L86.8951459,31.384352 L86.8951459,33.505856 Z M86.8951459,36.738624 L88.3933381,36.738624 C89.4017367,36.738624 89.8771246,36.2768 89.8771246,35.598496 C89.8771246,34.876896 89.3441139,34.443936 88.3789324,34.443936 L86.8951459,34.443936 L86.8951459,36.738624 Z M92.5133665,34.068704 C92.5133665,31.745152 94.0979929,30.244224 96.1724128,30.244224 C98.232427,30.244224 99.3272598,31.788448 99.3272598,33.664608 C99.3272598,33.852224 99.2984484,34.054272 99.269637,34.25632 L93.9683416,34.25632 C94.0403701,35.829408 95.1640142,36.680896 96.4749324,36.680896 C97.2528399,36.680896 98.045153,36.34896 98.6213808,35.829408 L99.2120142,36.85408 C98.5061352,37.50352 97.3968968,37.893184 96.3884982,37.893184 C94.0979929,37.893184 92.5133665,36.233504 92.5133665,34.068704 Z M94.0115587,33.24608 L97.9155018,33.24608 C97.8722847,31.990496 97.0943772,31.326624 96.1436014,31.326624 C95.0631744,31.326624 94.2132384,32.033792 94.0115587,33.24608 Z M101.012726,40.6064 L101.012726,30.417408 L102.309238,30.417408 L102.309238,31.066848 C102.309238,31.36992 102.266021,31.615264 102.266021,31.615264 L102.294833,31.615264 C102.755815,30.734912 103.677779,30.244224 104.743801,30.244224 C106.717381,30.244224 107.941865,31.80288 107.941865,34.068704 C107.941865,36.392256 106.558918,37.893184 104.642961,37.893184 C103.720996,37.893184 102.885466,37.43136 102.381267,36.652032 L102.352456,36.652032 C102.352456,36.652032 102.410078,36.911808 102.410078,37.28704 L102.410078,40.6064 L101.012726,40.6064 Z M102.366861,34.097568 C102.366861,35.396448 103.087146,36.680896 104.426875,36.680896 C105.579331,36.680896 106.530107,35.742816 106.530107,34.083136 C106.530107,32.495616 105.680171,31.470944 104.470093,31.470944 C103.37526,31.470944 102.366861,32.250272 102.366861,34.097568 Z M109.19516,34.068704 C109.19516,31.903904 110.808598,30.244224 113.099103,30.244224 C114.064285,30.244224 115.144712,30.57616 115.836185,31.312192 L115.173523,32.293568 C114.68373,31.80288 113.920228,31.456512 113.156726,31.456512 C111.687345,31.456512 110.621324,32.567776 110.621324,34.054272 C110.621324,35.540768 111.687345,36.680896 113.199943,36.680896 C114.006662,36.680896 114.885409,36.291232 115.447231,35.69952 L116.009053,36.724192 C115.346391,37.43136 114.237153,37.893184 113.099103,37.893184 C110.794192,37.893184 109.19516,36.262368 109.19516,34.068704 Z M117.521651,37.72 L117.521651,30.417408 L118.861381,30.417408 L118.861381,34.775872 C118.861381,35.165536 118.832569,35.685088 118.818164,35.757248 L118.846975,35.757248 C118.904598,35.62736 119.250335,35.12224 119.495231,34.775872 L122.635673,30.417408 L123.989808,30.417408 L123.989808,37.72 L122.635673,37.72 L122.635673,33.361536 C122.635673,33.015168 122.67889,32.510048 122.67889,32.394592 L122.650078,32.394592 C122.606861,32.52448 122.246719,33.015168 122.016228,33.361536 L118.861381,37.72 L117.521651,37.72 Z M127.893751,37.72 L127.893751,31.615264 L125.358349,31.615264 L125.358349,30.417408 L131.826505,30.417408 L131.826505,31.615264 L129.276698,31.615264 L129.276698,37.72 L127.893751,37.72 Z M132.719658,34.068704 C132.719658,31.745152 134.304285,30.244224 136.378705,30.244224 C138.438719,30.244224 139.533552,31.788448 139.533552,33.664608 C139.533552,33.852224 139.50474,34.054272 139.475929,34.25632 L134.174633,34.25632 C134.246662,35.829408 135.370306,36.680896 136.681224,36.680896 C137.459132,36.680896 138.251445,36.34896 138.827673,35.829408 L139.418306,36.85408 C138.712427,37.50352 137.603189,37.893184 136.59479,37.893184 C134.304285,37.893184 132.719658,36.233504 132.719658,34.068704 Z M134.217851,33.24608 L138.121794,33.24608 C138.078577,31.990496 137.300669,31.326624 136.349893,31.326624 C135.269466,31.326624 134.41953,32.033792 134.217851,33.24608 Z M142.976512,37.72 L142.976512,31.615264 L140.44111,31.615264 L140.44111,30.417408 L146.909267,30.417408 L146.909267,31.615264 L144.359459,31.615264 L144.359459,37.72 L142.976512,37.72 Z M151.879231,37.72 L151.879231,30.417408 L158.246548,30.417408 L158.246548,37.72 L156.849196,37.72 L156.849196,31.615264 L153.276584,31.615264 L153.276584,37.72 L151.879231,37.72 Z M160.407402,40.6064 L160.407402,30.417408 L161.703915,30.417408 L161.703915,31.066848 C161.703915,31.36992 161.660698,31.615264 161.660698,31.615264 L161.689509,31.615264 C162.150491,30.734912 163.072456,30.244224 164.138477,30.244224 C166.112057,30.244224 167.336541,31.80288 167.336541,34.068704 C167.336541,36.392256 165.953594,37.893184 164.037637,37.893184 C163.115673,37.893184 162.280142,37.43136 161.775943,36.652032 L161.747132,36.652032 C161.747132,36.652032 161.804754,36.911808 161.804754,37.28704 L161.804754,40.6064 L160.407402,40.6064 Z M161.761537,34.097568 C161.761537,35.396448 162.481822,36.680896 163.821552,36.680896 C164.974007,36.680896 165.924783,35.742816 165.924783,34.083136 C165.924783,32.495616 165.074847,31.470944 163.864769,31.470944 C162.769936,31.470944 161.761537,32.250272 161.761537,34.097568 Z M168.589836,34.054272 C168.589836,31.846176 170.347331,30.244224 172.508185,30.244224 C174.683445,30.244224 176.44094,31.846176 176.44094,34.054272 C176.44094,36.2768 174.683445,37.893184 172.522591,37.893184 C170.347331,37.893184 168.589836,36.2768 168.589836,34.054272 Z M170.016,34.054272 C170.016,35.584064 171.139644,36.680896 172.522591,36.680896 C173.891132,36.680896 175.029181,35.584064 175.029181,34.054272 C175.029181,32.538912 173.891132,31.456512 172.522591,31.456512 C171.139644,31.456512 170.016,32.538912 170.016,34.054272 Z M177.665423,34.054272 C177.665423,31.817312 179.35089,30.345248 181.612584,30.258656 L181.612584,27.6176 L182.952313,27.6176 L182.952313,30.258656 C185.214007,30.345248 186.885068,31.817312 186.885068,34.054272 C186.885068,36.305664 185.214007,37.79216 182.952313,37.893184 L182.952313,40.6064 L181.612584,40.6064 L181.612584,37.893184 C179.35089,37.79216 177.665423,36.305664 177.665423,34.054272 Z M182.952313,36.724192 C184.4361,36.623168 185.516527,35.62736 185.516527,34.054272 C185.516527,32.466752 184.4361,31.499808 182.952313,31.413216 L182.952313,36.724192 Z M179.04837,34.054272 C179.04837,35.62736 180.114391,36.623168 181.612584,36.724192 L181.612584,31.413216 C180.114391,31.499808 179.04837,32.466752 179.04837,34.054272 Z M188.109552,34.068704 C188.109552,31.745152 189.694178,30.244224 191.768598,30.244224 C193.828612,30.244224 194.923445,31.788448 194.923445,33.664608 C194.923445,33.852224 194.894633,34.054272 194.865822,34.25632 L189.564527,34.25632 C189.636555,35.829408 190.760199,36.680896 192.071117,36.680896 C192.849025,36.680896 193.641338,36.34896 194.217566,35.829408 L194.808199,36.85408 C194.10232,37.50352 192.993082,37.893184 191.984683,37.893184 C189.694178,37.893184 188.109552,36.233504 188.109552,34.068704 Z M189.607744,33.24608 L193.511687,33.24608 C193.46847,31.990496 192.690562,31.326624 191.739786,31.326624 C190.659359,31.326624 189.809423,32.033792 189.607744,33.24608 Z M196.133523,34.068704 C196.133523,31.903904 197.746961,30.244224 200.037466,30.244224 C201.002648,30.244224 202.083075,30.57616 202.774548,31.312192 L202.111886,32.293568 C201.622093,31.80288 200.858591,31.456512 200.095089,31.456512 C198.625708,31.456512 197.559687,32.567776 197.559687,34.054272 C197.559687,35.540768 198.625708,36.680896 200.138306,36.680896 C200.945025,36.680896 201.823772,36.291232 202.385594,35.69952 L202.947416,36.724192 C202.284754,37.43136 201.175516,37.893184 200.037466,37.893184 C197.732555,37.893184 196.133523,36.262368 196.133523,34.068704 Z M203.984626,34.068704 C203.984626,31.903904 205.598064,30.244224 207.888569,30.244224 C208.853751,30.244224 209.934178,30.57616 210.625651,31.312192 L209.962989,32.293568 C209.473196,31.80288 208.709694,31.456512 207.946192,31.456512 C206.476811,31.456512 205.41079,32.567776 205.41079,34.054272 C205.41079,35.540768 206.476811,36.680896 207.989409,36.680896 C208.796128,36.680896 209.674875,36.291232 210.236698,35.69952 L210.79852,36.724192 C210.135858,37.43136 209.026619,37.893184 207.888569,37.893184 C205.583658,37.893184 203.984626,36.262368 203.984626,34.068704 Z M212.311117,37.72 L212.311117,30.417408 L213.650847,30.417408 L213.650847,34.775872 C213.650847,35.165536 213.622036,35.685088 213.60763,35.757248 L213.636441,35.757248 C213.694064,35.62736 214.039801,35.12224 214.284698,34.775872 L217.425139,30.417408 L218.779274,30.417408 L218.779274,37.72 L217.425139,37.72 L217.425139,33.361536 C217.425139,33.015168 217.468356,32.510048 217.468356,32.394592 L217.439544,32.394592 C217.396327,32.52448 217.036185,33.015168 216.805694,33.361536 L213.650847,37.72 L212.311117,37.72 Z M224.138192,29.580352 C223.028954,29.580352 222.006149,28.91648 222.006149,27.733056 L222.006149,27.516576 L223.129794,27.516576 L223.129794,27.718624 C223.129794,28.353632 223.633993,28.671136 224.138192,28.671136 C224.642391,28.671136 225.160996,28.353632 225.160996,27.704192 L225.160996,27.516576 L226.270235,27.516576 L226.270235,27.733056 C226.270235,28.91648 225.261836,29.580352 224.138192,29.580352 Z M220.925722,37.72 L220.925722,30.417408 L222.265452,30.417408 L222.265452,34.775872 C222.265452,35.165536 222.236641,35.685088 222.222235,35.757248 L222.251046,35.757248 C222.308669,35.62736 222.654406,35.12224 222.899302,34.775872 L226.039744,30.417408 L227.393879,30.417408 L227.393879,37.72 L226.039744,37.72 L226.039744,33.361536 C226.039744,33.015168 226.082961,32.510048 226.082961,32.394592 L226.054149,32.394592 C226.010932,32.52448 225.65079,33.015168 225.420299,33.361536 L222.265452,37.72 L220.925722,37.72 Z" id="Онлайн-университет-п" fill="#7F8897"/> </g> </g> </g> </g> </svg>